<svg width="438" height="51" viewBox="0 0 438 51" fill="none" xmlns="http://www.w3.org/2000/svg">
<path d="M16.3291 26.0814C16.811 26.0814 17.3213 26.0814 17.3213 25.5144C17.3213 24.9475 16.811 24.9475 16.3291 24.9475H0.992218C0.510283 24.9475 0 24.9475 0 25.5144C0 26.0814 0.510283 26.0814 0.992218 26.0814H16.3291Z" fill="#DCDCDC"/>
<path d="M31.2248 11.0451H34.8913C35.2126 11.0451 35.4205 11.0451 35.4205 10.8183C35.4205 10.5727 35.1937 10.5727 34.8346 10.5727H31.3382C31.4705 10.1002 31.4705 10.0624 31.5839 9.58988C31.6784 9.24969 31.8485 8.58822 31.8485 8.55042C31.8485 8.38032 31.7351 8.32362 31.5839 8.32362C31.2248 8.32362 29.7318 8.47482 29.2782 8.51262C29.127 8.53152 28.9191 8.55042 28.9191 8.90951C28.9191 9.1174 29.1081 9.1174 29.3727 9.1174C30.2799 9.1174 30.3177 9.2497 30.3177 9.43869C30.3177 9.57099 30.1476 10.1947 30.0531 10.5727H28.9947C28.6167 10.5727 28.4088 10.5727 28.4088 10.8183C28.4088 11.0451 28.5789 11.0451 28.938 11.0451H29.9397L27.5205 20.6838C27.4449 20.9673 27.4449 21.0051 27.4449 21.1185C27.4449 21.5343 27.7662 21.6477 27.993 21.6477C28.3521 21.6477 28.6167 21.3831 28.6923 21.1374C28.7301 21.0429 28.938 20.1924 29.0514 19.72L29.4861 18.0379C29.5428 17.7544 29.7318 17.0362 29.7885 16.7528C29.883 16.4504 30.0153 15.8645 30.0342 15.8078C30.1854 15.4865 31.2059 13.5021 33.0959 13.5021C33.9274 13.5021 34.1164 14.1824 34.1164 14.8061C34.1164 15.9779 33.2471 18.2836 32.9069 19.153C32.7935 19.4554 32.699 19.72 32.699 20.079C32.699 21.0618 33.3983 21.6477 34.2487 21.6477C36.0631 21.6477 36.7245 18.8506 36.7245 18.7372C36.7245 18.5482 36.5545 18.5482 36.4978 18.5482C36.3088 18.5482 36.3088 18.6049 36.2143 18.8884C35.6662 20.8161 34.8157 21.2319 34.3054 21.2319C33.9463 21.2319 33.8329 21.0051 33.8329 20.6082C33.8329 20.1357 34.0408 19.6066 34.1542 19.2853C34.4755 18.4537 35.326 16.1858 35.326 15.1274C35.326 13.7477 34.4566 13.0863 33.1526 13.0863C32.5667 13.0863 31.4327 13.2186 30.3555 14.5226L31.2248 11.0451Z" fill="#DCDCDC"/>
<path d="M44.2424 12.1192H43.7179C43.6896 12.3177 43.5478 13.2532 43.3352 13.4091C43.236 13.4942 42.0878 13.4942 41.8894 13.4942H39.2387L41.0531 12.02C41.535 11.6373 42.7966 10.7301 43.236 10.3049C43.6612 9.87966 44.2424 9.15676 44.2424 8.15037C44.2424 6.37855 42.6406 5.34381 40.7412 5.34381C38.9127 5.34381 37.637 6.54865 37.637 7.88105C37.637 8.60395 38.2465 8.689 38.4025 8.689C38.7568 8.689 39.1679 8.43386 39.1679 7.92358C39.1679 7.61174 38.9836 7.15815 38.3599 7.15815C38.6859 6.43525 39.5506 5.89662 40.5286 5.89662C42.017 5.89662 42.8107 7.00223 42.8107 8.15037C42.8107 9.15676 42.1445 10.1915 41.1523 11.0987L37.7929 14.1745C37.6512 14.3163 37.637 14.3305 37.637 14.7699H43.8029L44.2424 12.1192Z" fill="#DCDCDC"/>
<path d="M50.3339 24.9475H22.5313V26.0814H50.3339V24.9475Z" fill="#DCDCDC"/>
<path d="M27.8609 38.5222C28.1633 38.2387 28.9571 37.615 29.2595 37.3504C30.4312 36.2731 31.5463 35.2337 31.5463 33.5138C31.5463 31.2648 29.6564 29.8095 27.2939 29.8095C25.026 29.8095 23.533 31.5294 23.533 33.2114C23.533 34.1375 24.27 34.2698 24.5346 34.2698C24.9315 34.2698 25.5174 33.9863 25.5174 33.2681C25.5174 32.2854 24.5724 32.2854 24.3456 32.2854C24.8937 30.9057 26.16 30.4332 27.086 30.4332C28.8437 30.4332 29.7509 31.9263 29.7509 33.5138C29.7509 35.4794 28.3712 36.9157 26.1411 39.2025L23.7598 41.6595C23.533 41.8674 23.533 41.9052 23.533 42.3776H30.9982L31.5463 38.9946H30.9604C30.9037 39.3726 30.7525 40.3176 30.5257 40.6767C30.4123 40.8279 28.976 40.8279 28.6736 40.8279H25.3095L27.8609 38.5222Z" fill="#DCDCDC"/>
<path d="M36.3516 39.2782C36.4083 38.9947 36.5973 38.2765 36.654 37.993C36.7107 37.804 36.8241 37.3504 36.8619 37.1614C36.8997 37.0669 37.5234 35.8385 38.355 35.2148C38.9975 34.7234 39.6212 34.5722 40.1504 34.5722C40.8497 34.5722 41.2277 34.988 41.2277 35.8574C41.2277 36.311 41.1143 36.7456 40.9064 37.5961C40.7741 38.0875 40.4528 39.3538 40.3394 39.864L40.0559 40.998C39.9614 41.3193 39.8291 41.8863 39.8291 41.9808C39.8291 42.4155 40.1882 42.5667 40.4339 42.5667C40.7741 42.5667 41.0576 42.3399 41.1899 42.1131C41.2466 41.9997 41.3978 41.3571 41.4923 40.9602L41.9269 39.2782C41.9836 38.9947 42.1726 38.2765 42.2293 37.993C42.4939 36.9724 42.4939 36.9535 42.9286 36.3299C43.5523 35.4038 44.4406 34.5722 45.7068 34.5722C46.3872 34.5722 46.7841 34.9691 46.7841 35.8574C46.7841 36.8968 45.9903 39.0703 45.6312 39.9774C45.4422 40.4688 45.3855 40.6011 45.3855 40.9602C45.3855 42.0375 46.2738 42.5667 47.0865 42.5667C48.9386 42.5667 49.7135 39.9207 49.7135 39.675C49.7135 39.4861 49.5623 39.4294 49.43 39.4294C49.2032 39.4294 49.1654 39.5616 49.1087 39.7506C48.6551 41.3193 47.8614 42.0375 47.1432 42.0375C46.8408 42.0375 46.6896 41.8485 46.6896 41.4138C46.6896 40.9791 46.8408 40.5633 47.0298 40.0908C47.3133 39.3727 48.1448 37.1992 48.1448 36.1409C48.1448 34.7234 47.1621 34.043 45.8013 34.043C44.4973 34.043 43.42 34.7234 42.5695 35.8952C42.4183 34.3832 41.2088 34.043 40.226 34.043C39.3566 34.043 38.2038 34.3454 37.1643 35.7062C37.032 34.5722 36.1248 34.043 35.2366 34.043C34.5751 34.043 34.1026 34.4399 33.7813 35.0825C33.3277 35.9708 33.1387 36.8968 33.1387 36.9346C33.1387 37.1047 33.271 37.1803 33.4222 37.1803C33.6679 37.1803 33.6868 37.1047 33.8191 36.6133C34.0459 35.6873 34.3861 34.5722 35.1799 34.5722C35.6713 34.5722 35.7846 35.0447 35.7846 35.4605C35.7846 35.8007 35.6902 36.1598 35.539 36.7834C35.5012 36.9346 35.2177 38.0497 35.1421 38.3143L34.4428 41.1492C34.3672 41.4327 34.2538 41.9052 34.2538 41.9808C34.2538 42.4155 34.6129 42.5667 34.8586 42.5667C35.1988 42.5667 35.4823 42.3399 35.6146 42.1131C35.6713 41.9997 35.8224 41.3571 35.9169 40.9602L36.3516 39.2782Z" fill="#DCDCDC"/>
<path d="M72.4933 50.6882C72.55 50.7165 72.8052 51 72.8335 51H73.4572C73.5423 51 73.7691 50.9717 73.7691 50.7165C73.7691 50.6031 73.7124 50.5464 73.6557 50.4614C72.6351 49.4408 71.1042 47.8816 69.3466 44.7632C66.2849 39.3202 65.1509 32.318 65.1509 25.5142C65.1509 12.9272 68.7229 5.52807 73.684 0.510283C73.7691 0.425237 73.7691 0.340189 73.7691 0.283492C73.7691 -3.53349e-08 73.5706 0 73.2304 0C72.8619 0 72.8052 0 72.55 0.226794C69.8569 2.55142 66.8235 6.49194 64.8674 12.4736C63.6484 16.2157 62.9964 20.7799 62.9964 25.4858C62.9964 32.2046 64.2154 39.8021 68.6662 46.3791C69.4316 47.4847 70.4806 48.647 70.4806 48.6754C70.764 49.0156 71.1609 49.4692 71.3877 49.6676L72.4933 50.6882Z" fill="#DCDCDC"/>
<path d="M86.901 12.5873C86.6364 11.5668 85.9183 10.4517 84.1984 10.4517C82.403 10.4517 81.269 11.2833 80.3618 12.0582C78.453 13.7024 78.453 15.8947 78.453 16.0648C78.453 17.2366 79.3602 19.4856 82.2329 19.4856C83.8015 19.4856 85.4836 18.7107 86.7687 16.972C88.0161 15.2711 88.9422 12.4739 88.9422 10.584C88.9422 7.5223 87.0333 5.57567 84.5197 5.57567C81.6092 5.57567 80.7398 7.99479 80.7398 8.58067C80.7398 9.03425 81.08 9.27995 81.4769 9.27995C82.0817 9.27995 82.5353 8.73187 82.5353 8.24048C82.5353 7.99479 82.4786 7.5601 81.7226 7.54121C82.4786 6.31274 83.7259 6.06705 84.5008 6.06705C86.2018 6.06705 87.4113 7.39001 87.4113 9.58234C87.4113 10.6218 87.1845 11.6235 86.9199 12.5873H86.901ZM82.2707 18.9186C80.1539 18.9186 80.0406 17.1232 80.0406 16.7452C80.0406 16.0081 80.5886 14.0048 80.7776 13.5323C81.269 12.4172 82.4408 10.9809 84.2551 10.9809C85.8427 10.9809 86.523 12.1905 86.523 13.5134C86.523 14.9687 85.2001 18.9186 82.2707 18.9186Z" fill="#DCDCDC"/>
<path d="M96.9792 9.76815H96.4548C96.4264 9.9666 96.2847 10.9021 96.0721 11.058C95.9728 11.1431 94.8247 11.1431 94.6263 11.1431H91.9756L93.79 9.66893C94.2719 9.28622 95.5334 8.37905 95.9728 7.95381C96.3981 7.52857 96.9792 6.80567 96.9792 5.79928C96.9792 4.02746 95.3775 2.99272 93.4781 2.99272C91.6496 2.99272 90.3739 4.19756 90.3739 5.52996C90.3739 6.25287 90.9834 6.33791 91.1393 6.33791C91.4937 6.33791 91.9048 6.08277 91.9048 5.57249C91.9048 5.26065 91.7205 4.80706 91.0968 4.80706C91.4228 4.08416 92.2875 3.54553 93.2655 3.54553C94.7538 3.54553 95.5476 4.65114 95.5476 5.79928C95.5476 6.80567 94.8814 7.84041 93.8892 8.74759L90.5298 11.8235C90.3881 11.9652 90.3739 11.9794 90.3739 12.4188H96.5398L96.9792 9.76815Z" fill="#DCDCDC"/>
<path d="M108.798 6.59622C108.873 6.33162 108.873 6.29382 108.873 6.21823C108.873 6.02923 108.741 5.97253 108.59 5.97253C108.344 5.97253 108.325 6.04813 108.249 6.36942L105.169 18.7107C103.827 18.5595 102.901 17.9736 102.901 16.6318C102.901 16.2727 102.901 15.7813 103.903 13.2677C104.092 12.7574 104.11 12.5873 104.11 12.3605C104.11 11.34 103.279 10.7541 102.41 10.7541C100.538 10.7541 99.7636 13.4189 99.7636 13.6457C99.7636 13.8158 99.8959 13.8914 100.047 13.8914C100.293 13.8914 100.312 13.778 100.368 13.589C100.86 11.9447 101.672 11.2833 102.353 11.2833C102.636 11.2833 102.806 11.4723 102.806 11.9069C102.806 12.3416 102.636 12.7952 102.466 13.1921C101.502 15.7057 101.502 16.1026 101.502 16.4995C101.502 18.2949 103.052 19.1076 105.018 19.2399L104.167 22.6985C104.167 22.8686 104.299 22.9442 104.451 22.9442C104.696 22.9442 104.715 22.8686 104.829 22.4717C104.923 22.0559 104.848 22.3205 105.622 19.2777C106.397 19.2777 107.853 19.2777 109.705 17.5201C110.461 16.8208 110.895 16.0459 111.047 15.7813C111.67 14.534 111.935 12.8897 111.935 12.2093C111.935 10.7352 111.084 10.7352 111.009 10.7352C110.555 10.7352 110.026 11.2266 110.026 11.7179C110.026 12.0203 110.196 12.1715 110.291 12.2471C110.48 12.4172 111.047 12.9086 111.047 13.8158C111.047 15.3844 108.911 18.7485 105.755 18.7485L108.798 6.59622Z" fill="#DCDCDC"/>
<path d="M119.293 23.8136C119.444 23.8136 119.671 23.8136 119.671 23.5868C119.671 23.5112 119.652 23.4923 119.406 23.2466C116.817 20.8086 116.175 17.2933 116.175 14.3639C116.175 8.92086 118.424 6.36944 119.388 5.50006C119.652 5.25437 119.671 5.23547 119.671 5.14098C119.671 5.04648 119.595 4.91418 119.406 4.91418C119.104 4.91418 118.159 5.87805 118.008 6.04815C115.475 8.69406 114.946 12.096 114.946 14.3639C114.946 18.5973 116.723 21.9992 119.293 23.8136Z" fill="#DCDCDC"/>
<path d="M130.277 11.5479C129.446 11.7558 129.408 12.4928 129.408 12.5684C129.408 12.9842 129.729 13.2677 130.145 13.2677C130.561 13.2677 131.203 12.9464 131.203 12.1338C131.203 11.0565 130.013 10.7541 129.313 10.7541C128.425 10.7541 127.707 11.3778 127.272 12.1149C126.857 11.1132 125.874 10.7541 125.099 10.7541C123.039 10.7541 121.886 13.1165 121.886 13.6457C121.886 13.8158 122.018 13.8914 122.169 13.8914C122.396 13.8914 122.434 13.7969 122.491 13.5701C122.925 12.1905 124.059 11.2833 125.042 11.2833C125.779 11.2833 126.138 11.8125 126.138 12.4928C126.138 12.8708 125.912 13.7402 125.76 14.345C125.628 14.8931 125.212 16.5751 125.118 16.9342C124.853 17.9548 124.173 18.7485 123.322 18.7485C123.247 18.7485 122.755 18.7485 122.358 18.484C123.228 18.2761 123.228 17.4823 123.228 17.4634C123.228 17.0287 122.888 16.7641 122.472 16.7641C121.962 16.7641 121.414 17.1988 121.414 17.917C121.414 18.7863 122.34 19.2777 123.303 19.2777C124.305 19.2777 125.004 18.5218 125.345 17.917C125.76 18.843 126.63 19.2777 127.537 19.2777C129.597 19.2777 130.731 16.9153 130.731 16.3861C130.731 16.1971 130.58 16.1404 130.447 16.1404C130.221 16.1404 130.183 16.2727 130.126 16.4617C129.748 17.728 128.671 18.7485 127.575 18.7485C126.951 18.7485 126.497 18.3328 126.497 17.539C126.497 17.161 126.611 16.7263 126.875 15.6679C127.008 15.101 127.424 13.4378 127.518 13.0787C127.783 12.096 128.444 11.2833 129.295 11.2833C129.389 11.2833 129.88 11.2833 130.277 11.5479Z" fill="#DCDCDC"/>
<path d="M135.647 18.8052C135.647 20.0337 135.382 21.111 134.21 22.2827C134.135 22.3394 134.097 22.3772 134.097 22.4717C134.097 22.6229 134.248 22.7363 134.38 22.7363C134.607 22.7363 136.176 21.2433 136.176 19.032C136.176 17.8225 135.722 16.9909 134.891 16.9909C134.229 16.9909 133.851 17.5201 133.851 18.0304C133.851 18.5596 134.21 19.0887 134.91 19.0887C135.363 19.0887 135.647 18.8241 135.647 18.8052Z" fill="#DCDCDC"/>
<path d="M147.48 11.9637C147.556 11.6991 147.556 11.6613 147.556 11.529C147.556 11.0565 147.178 10.9431 146.951 10.9431C146.857 10.9431 146.422 10.962 146.176 11.4534C146.138 11.5479 145.968 12.2283 145.874 12.6251L144.74 17.161C144.721 17.2177 143.908 18.7485 142.529 18.7485C141.603 18.7485 141.281 18.0682 141.281 17.2177C141.281 16.1215 141.924 14.4395 142.359 13.3433C142.548 12.8708 142.604 12.7007 142.604 12.3606C142.604 11.3211 141.773 10.7541 140.903 10.7541C139.032 10.7541 138.257 13.4189 138.257 13.6457C138.257 13.8158 138.39 13.8914 138.541 13.8914C138.787 13.8914 138.806 13.778 138.862 13.589C139.354 11.9448 140.166 11.2833 140.847 11.2833C141.13 11.2833 141.3 11.4723 141.3 11.907C141.3 12.3039 141.149 12.7385 141.017 13.0787C140.242 15.0821 139.921 16.0459 139.921 16.9342C139.921 18.7863 141.319 19.2777 142.434 19.2777C143.322 19.2777 143.965 18.8808 144.419 18.4462C144.154 19.5045 143.965 20.2416 143.247 21.1488C142.623 21.9236 141.867 22.415 141.017 22.415C140.695 22.415 139.977 22.3583 139.599 21.7913C140.601 21.7157 140.677 20.8653 140.677 20.7519C140.677 20.2983 140.336 20.0526 139.939 20.0526C139.524 20.0526 138.862 20.3739 138.862 21.3C138.862 22.1882 139.675 22.9442 141.017 22.9442C142.944 22.9442 145.118 21.3945 145.685 19.1076L147.48 11.9637Z" fill="#DCDCDC"/>
<path d="M154.134 14.3639C154.134 12.5684 153.832 10.4139 152.66 8.18378C151.734 6.44503 150.014 4.91418 149.674 4.91418C149.485 4.91418 149.428 5.04648 149.428 5.14098C149.428 5.21657 149.428 5.25437 149.655 5.48117C152.301 7.99478 152.906 11.4534 152.906 14.3639C152.906 19.788 150.657 22.3583 149.693 23.2277C149.447 23.4734 149.428 23.4923 149.428 23.5868C149.428 23.6813 149.485 23.8136 149.674 23.8136C149.976 23.8136 150.921 22.8497 151.072 22.6796C153.605 20.0337 154.134 16.6318 154.134 14.3639Z" fill="#DCDCDC"/>
<path d="M156.103 24.9475H77.6592V26.0814H156.103V24.9475Z" fill="#DCDCDC"/>
<path d="M109.703 35.8763C109.438 34.8557 108.72 33.7406 107 33.7406C105.204 33.7406 104.071 34.5722 103.163 35.3471C101.255 36.9913 101.255 39.1836 101.255 39.3537C101.255 40.5255 102.162 42.7745 105.034 42.7745C106.603 42.7745 108.285 41.9997 109.57 40.2609C110.818 38.56 111.744 35.7629 111.744 33.8729C111.744 30.8112 109.835 28.8646 107.321 28.8646C104.411 28.8646 103.541 31.2837 103.541 31.8696C103.541 32.3232 103.882 32.5689 104.278 32.5689C104.883 32.5689 105.337 32.0208 105.337 31.5294C105.337 31.2837 105.28 30.849 104.524 30.8301C105.28 29.6017 106.527 29.356 107.302 29.356C109.003 29.356 110.213 30.6789 110.213 32.8712C110.213 33.9107 109.986 34.9124 109.721 35.8763H109.703ZM105.072 42.2075C102.955 42.2075 102.842 40.4121 102.842 40.0341C102.842 39.297 103.39 37.2937 103.579 36.8212C104.071 35.7062 105.242 34.2698 107.057 34.2698C108.644 34.2698 109.325 35.4794 109.325 36.8023C109.325 38.2576 108.002 42.2075 105.072 42.2075Z" fill="#DCDCDC"/>
<path d="M121.624 34.8368C120.792 35.0447 120.754 35.7818 120.754 35.8574C120.754 36.2732 121.075 36.5566 121.491 36.5566C121.907 36.5566 122.55 36.2354 122.55 35.4227C122.55 34.3454 121.359 34.043 120.66 34.043C119.771 34.043 119.053 34.6667 118.619 35.4038C118.203 34.4021 117.22 34.043 116.445 34.043C114.385 34.043 113.232 36.4055 113.232 36.9346C113.232 37.1047 113.364 37.1803 113.516 37.1803C113.742 37.1803 113.78 37.0858 113.837 36.859C114.272 35.4794 115.406 34.5722 116.388 34.5722C117.125 34.5722 117.485 35.1014 117.485 35.7818C117.485 36.1598 117.258 37.0291 117.107 37.6339C116.974 38.182 116.558 39.864 116.464 40.2231C116.199 41.2437 115.519 42.0375 114.669 42.0375C114.593 42.0375 114.102 42.0375 113.705 41.7729C114.574 41.565 114.574 40.7712 114.574 40.7523C114.574 40.3176 114.234 40.053 113.818 40.053C113.308 40.053 112.76 40.4877 112.76 41.2059C112.76 42.0753 113.686 42.5667 114.65 42.5667C115.651 42.5667 116.351 41.8107 116.691 41.2059C117.107 42.132 117.976 42.5667 118.883 42.5667C120.943 42.5667 122.077 40.2042 122.077 39.675C122.077 39.4861 121.926 39.4294 121.794 39.4294C121.567 39.4294 121.529 39.5616 121.472 39.7506C121.094 41.0169 120.017 42.0375 118.921 42.0375C118.297 42.0375 117.844 41.6217 117.844 40.8279C117.844 40.4499 117.957 40.0152 118.222 38.9569C118.354 38.3899 118.77 36.7267 118.864 36.3677C119.129 35.3849 119.79 34.5722 120.641 34.5722C120.735 34.5722 121.227 34.5722 121.624 34.8368Z" fill="#DCDCDC"/>
<path d="M131.084 34.3459H130.56C130.532 34.5444 130.39 35.4799 130.177 35.6358C130.078 35.7209 128.93 35.7209 128.731 35.7209H126.081L127.895 34.2467C128.377 33.864 129.639 32.9568 130.078 32.5316C130.503 32.1063 131.084 31.3834 131.084 30.3771C131.084 28.6052 129.483 27.5705 127.583 27.5705C125.755 27.5705 124.479 28.7753 124.479 30.1077C124.479 30.8306 125.089 30.9157 125.244 30.9157C125.599 30.9157 126.01 30.6605 126.01 30.1503C126.01 29.8384 125.826 29.3848 125.202 29.3848C125.528 28.6619 126.393 28.1233 127.371 28.1233C128.859 28.1233 129.653 29.2289 129.653 30.3771C129.653 31.3834 128.987 32.4182 127.994 33.3254L124.635 36.4012C124.493 36.543 124.479 36.5572 124.479 36.9966H130.645L131.084 34.3459Z" fill="#DCDCDC"/>
<path d="M176.549 26.0531H184.374C184.771 26.0531 185.281 26.0531 185.281 25.5428C185.281 25.0042 184.799 25.0042 184.374 25.0042H176.549V17.1798C176.549 16.7829 176.549 16.2726 176.039 16.2726C175.5 16.2726 175.5 16.7546 175.5 17.1798V25.0042H167.676C167.279 25.0042 166.769 25.0042 166.769 25.5144C166.769 26.0531 167.251 26.0531 167.676 26.0531H175.5V33.8774C175.5 34.2743 175.5 34.7846 176.011 34.7846C176.549 34.7846 176.549 34.3027 176.549 33.8774V26.0531Z" fill="#DCDCDC"/>
<path d="M205.204 12.5873C204.939 11.5668 204.221 10.4517 202.501 10.4517C200.706 10.4517 199.572 11.2833 198.665 12.0582C196.756 13.7024 196.756 15.8947 196.756 16.0648C196.756 17.2366 197.663 19.4856 200.536 19.4856C202.105 19.4856 203.787 18.7107 205.072 16.972C206.319 15.2711 207.245 12.4739 207.245 10.584C207.245 7.5223 205.336 5.57567 202.823 5.57567C199.912 5.57567 199.043 7.99479 199.043 8.58067C199.043 9.03425 199.383 9.27995 199.78 9.27995C200.385 9.27995 200.838 8.73187 200.838 8.24048C200.838 7.99479 200.782 7.5601 200.026 7.54121C200.782 6.31274 202.029 6.06705 202.804 6.06705C204.505 6.06705 205.714 7.39001 205.714 9.58234C205.714 10.6218 205.488 11.6235 205.223 12.5873H205.204ZM200.574 18.9186C198.457 18.9186 198.344 17.1232 198.344 16.7452C198.344 16.0081 198.892 14.0048 199.081 13.5323C199.572 12.4172 200.744 10.9809 202.558 10.9809C204.146 10.9809 204.826 12.1905 204.826 13.5134C204.826 14.9687 203.503 18.9186 200.574 18.9186Z" fill="#DCDCDC"/>
<path d="M215.282 9.76815H214.758C214.73 9.9666 214.588 10.9021 214.375 11.058C214.276 11.1431 213.128 11.1431 212.929 11.1431H210.279L212.093 9.66893C212.575 9.28622 213.837 8.37905 214.276 7.95381C214.701 7.52857 215.282 6.80567 215.282 5.79928C215.282 4.02746 213.681 2.99272 211.781 2.99272C209.953 2.99272 208.677 4.19756 208.677 5.52996C208.677 6.25287 209.287 6.33791 209.442 6.33791C209.797 6.33791 210.208 6.08277 210.208 5.57249C210.208 5.26065 210.024 4.80706 209.4 4.80706C209.726 4.08416 210.591 3.54553 211.569 3.54553C213.057 3.54553 213.851 4.65114 213.851 5.79928C213.851 6.80567 213.185 7.84041 212.192 8.74759L208.833 11.8235C208.691 11.9652 208.677 11.9794 208.677 12.4188H214.843L215.282 9.76815Z" fill="#DCDCDC"/>
<path d="M227.101 6.59622C227.176 6.33162 227.176 6.29382 227.176 6.21823C227.176 6.02923 227.044 5.97253 226.893 5.97253C226.647 5.97253 226.628 6.04813 226.553 6.36942L223.472 18.7107C222.13 18.5595 221.204 17.9736 221.204 16.6318C221.204 16.2727 221.204 15.7813 222.206 13.2677C222.395 12.7574 222.414 12.5873 222.414 12.3605C222.414 11.34 221.582 10.7541 220.713 10.7541C218.842 10.7541 218.067 13.4189 218.067 13.6457C218.067 13.8158 218.199 13.8914 218.35 13.8914C218.596 13.8914 218.615 13.778 218.671 13.589C219.163 11.9447 219.976 11.2833 220.656 11.2833C220.939 11.2833 221.11 11.4723 221.11 11.9069C221.11 12.3416 220.939 12.7952 220.769 13.1921C219.805 15.7057 219.805 16.1026 219.805 16.4995C219.805 18.2949 221.355 19.1076 223.321 19.2399L222.47 22.6985C222.47 22.8686 222.603 22.9442 222.754 22.9442C222.999 22.9442 223.018 22.8686 223.132 22.4717C223.226 22.0559 223.151 22.3205 223.926 19.2777C224.7 19.2777 226.156 19.2777 228.008 17.5201C228.764 16.8208 229.198 16.0459 229.35 15.7813C229.973 14.534 230.238 12.8897 230.238 12.2093C230.238 10.7352 229.387 10.7352 229.312 10.7352C228.858 10.7352 228.329 11.2266 228.329 11.7179C228.329 12.0203 228.499 12.1715 228.594 12.2471C228.783 12.4172 229.35 12.9086 229.35 13.8158C229.35 15.3844 227.214 18.7485 224.058 18.7485L227.101 6.59622Z" fill="#DCDCDC"/>
<path d="M237.596 23.8136C237.747 23.8136 237.974 23.8136 237.974 23.5868C237.974 23.5112 237.955 23.4923 237.709 23.2466C235.12 20.8086 234.478 17.2933 234.478 14.3639C234.478 8.92086 236.727 6.36944 237.691 5.50006C237.955 5.25437 237.974 5.23547 237.974 5.14098C237.974 5.04648 237.898 4.91418 237.709 4.91418C237.407 4.91418 236.462 5.87805 236.311 6.04815C233.778 8.69406 233.249 12.096 233.249 14.3639C233.249 18.5973 235.026 21.9992 237.596 23.8136Z" fill="#DCDCDC"/>
<path d="M248.58 11.5479C247.749 11.7558 247.711 12.4928 247.711 12.5684C247.711 12.9842 248.032 13.2677 248.448 13.2677C248.864 13.2677 249.506 12.9464 249.506 12.1338C249.506 11.0565 248.316 10.7541 247.617 10.7541C246.728 10.7541 246.01 11.3778 245.575 12.1149C245.16 11.1132 244.177 10.7541 243.402 10.7541C241.342 10.7541 240.189 13.1165 240.189 13.6457C240.189 13.8158 240.321 13.8914 240.473 13.8914C240.699 13.8914 240.737 13.7969 240.794 13.5701C241.229 12.1905 242.363 11.2833 243.345 11.2833C244.082 11.2833 244.441 11.8125 244.441 12.4928C244.441 12.8708 244.215 13.7402 244.063 14.345C243.931 14.8931 243.515 16.5751 243.421 16.9342C243.156 17.9548 242.476 18.7485 241.625 18.7485C241.55 18.7485 241.058 18.7485 240.662 18.484C241.531 18.2761 241.531 17.4823 241.531 17.4634C241.531 17.0287 241.191 16.7641 240.775 16.7641C240.265 16.7641 239.717 17.1988 239.717 17.917C239.717 18.7863 240.643 19.2777 241.607 19.2777C242.608 19.2777 243.307 18.5218 243.648 17.917C244.063 18.843 244.933 19.2777 245.84 19.2777C247.9 19.2777 249.034 16.9153 249.034 16.3861C249.034 16.1971 248.883 16.1404 248.751 16.1404C248.524 16.1404 248.486 16.2727 248.429 16.4617C248.051 17.728 246.974 18.7485 245.878 18.7485C245.254 18.7485 244.801 18.3328 244.801 17.539C244.801 17.161 244.914 16.7263 245.179 15.6679C245.311 15.101 245.727 13.4378 245.821 13.0787C246.086 12.096 246.747 11.2833 247.598 11.2833C247.692 11.2833 248.184 11.2833 248.58 11.5479Z" fill="#DCDCDC"/>
<path d="M253.95 18.8052C253.95 20.0337 253.685 21.111 252.513 22.2827C252.438 22.3394 252.4 22.3772 252.4 22.4717C252.4 22.6229 252.551 22.7363 252.683 22.7363C252.91 22.7363 254.479 21.2433 254.479 19.032C254.479 17.8225 254.025 16.9909 253.194 16.9909C252.532 16.9909 252.154 17.5201 252.154 18.0304C252.154 18.5596 252.513 19.0887 253.213 19.0887C253.666 19.0887 253.95 18.8241 253.95 18.8052Z" fill="#DCDCDC"/>
<path d="M265.783 11.9637C265.859 11.6991 265.859 11.6613 265.859 11.529C265.859 11.0565 265.481 10.9431 265.254 10.9431C265.16 10.9431 264.725 10.962 264.479 11.4534C264.442 11.5479 264.271 12.2283 264.177 12.6251L263.043 17.161C263.024 17.2177 262.211 18.7485 260.832 18.7485C259.906 18.7485 259.584 18.0682 259.584 17.2177C259.584 16.1215 260.227 14.4395 260.662 13.3433C260.851 12.8708 260.907 12.7007 260.907 12.3606C260.907 11.3211 260.076 10.7541 259.206 10.7541C257.335 10.7541 256.56 13.4189 256.56 13.6457C256.56 13.8158 256.693 13.8914 256.844 13.8914C257.09 13.8914 257.109 13.778 257.165 13.589C257.657 11.9448 258.469 11.2833 259.15 11.2833C259.433 11.2833 259.603 11.4723 259.603 11.907C259.603 12.3039 259.452 12.7385 259.32 13.0787C258.545 15.0821 258.224 16.0459 258.224 16.9342C258.224 18.7863 259.622 19.2777 260.737 19.2777C261.625 19.2777 262.268 18.8808 262.722 18.4462C262.457 19.5045 262.268 20.2416 261.55 21.1488C260.926 21.9236 260.17 22.415 259.32 22.415C258.998 22.415 258.28 22.3583 257.902 21.7913C258.904 21.7157 258.98 20.8653 258.98 20.7519C258.98 20.2983 258.639 20.0526 258.243 20.0526C257.827 20.0526 257.165 20.3739 257.165 21.3C257.165 22.1882 257.978 22.9442 259.32 22.9442C261.248 22.9442 263.421 21.3945 263.988 19.1076L265.783 11.9637Z" fill="#DCDCDC"/>
<path d="M272.437 14.3639C272.437 12.5684 272.135 10.4139 270.963 8.18378C270.037 6.44503 268.317 4.91418 267.977 4.91418C267.788 4.91418 267.731 5.04648 267.731 5.14098C267.731 5.21657 267.731 5.25437 267.958 5.48117C270.604 7.99478 271.209 11.4534 271.209 14.3639C271.209 19.788 268.96 22.3583 267.996 23.2277C267.75 23.4734 267.731 23.4923 267.731 23.5868C267.731 23.6813 267.788 23.8136 267.977 23.8136C268.279 23.8136 269.224 22.8497 269.375 22.6796C271.908 20.0337 272.437 16.6318 272.437 14.3639Z" fill="#DCDCDC"/>
<path d="M274.406 24.9475H195.962V26.0814H274.406V24.9475Z" fill="#DCDCDC"/>
<path d="M228.356 35.8763C228.091 34.8557 227.373 33.7406 225.653 33.7406C223.857 33.7406 222.724 34.5722 221.816 35.3471C219.908 36.9913 219.908 39.1836 219.908 39.3537C219.908 40.5255 220.815 42.7745 223.687 42.7745C225.256 42.7745 226.938 41.9997 228.223 40.2609C229.471 38.56 230.397 35.7629 230.397 33.8729C230.397 30.8112 228.488 28.8646 225.974 28.8646C223.064 28.8646 222.194 31.2837 222.194 31.8696C222.194 32.3232 222.535 32.5689 222.931 32.5689C223.536 32.5689 223.99 32.0208 223.99 31.5294C223.99 31.2837 223.933 30.849 223.177 30.8301C223.933 29.6017 225.18 29.356 225.955 29.356C227.656 29.356 228.866 30.6789 228.866 32.8712C228.866 33.9107 228.639 34.9124 228.374 35.8763H228.356ZM223.725 42.2075C221.608 42.2075 221.495 40.4121 221.495 40.0341C221.495 39.297 222.043 37.2937 222.232 36.8212C222.724 35.7062 223.895 34.2698 225.71 34.2698C227.297 34.2698 227.978 35.4794 227.978 36.8023C227.978 38.2576 226.655 42.2075 223.725 42.2075Z" fill="#DCDCDC"/>
<path d="M240.598 35.2526C240.673 34.988 240.673 34.9502 240.673 34.8179C240.673 34.3454 240.295 34.232 240.069 34.232C239.974 34.232 239.539 34.2509 239.294 34.7423C239.256 34.8368 239.086 35.5172 238.991 35.9141L237.857 40.4499C237.838 40.5066 237.026 42.0375 235.646 42.0375C234.72 42.0375 234.399 41.3571 234.399 40.5066C234.399 39.4105 235.041 37.7284 235.476 36.6322C235.665 36.1598 235.722 35.9897 235.722 35.6495C235.722 34.61 234.89 34.043 234.021 34.043C232.15 34.043 231.375 36.7078 231.375 36.9346C231.375 37.1047 231.507 37.1803 231.658 37.1803C231.904 37.1803 231.923 37.0669 231.98 36.8779C232.471 35.2337 233.284 34.5722 233.964 34.5722C234.248 34.5722 234.418 34.7612 234.418 35.1959C234.418 35.5928 234.266 36.0275 234.134 36.3677C233.359 38.371 233.038 39.3349 233.038 40.2231C233.038 42.0753 234.437 42.5667 235.552 42.5667C236.44 42.5667 237.082 42.1698 237.536 41.7351C237.271 42.7934 237.082 43.5305 236.364 44.4377C235.741 45.2126 234.985 45.704 234.134 45.704C233.813 45.704 233.095 45.6473 232.717 45.0803C233.718 45.0047 233.794 44.1542 233.794 44.0408C233.794 43.5872 233.454 43.3415 233.057 43.3415C232.641 43.3415 231.98 43.6628 231.98 44.5889C231.98 45.4772 232.792 46.2331 234.134 46.2331C236.062 46.2331 238.235 44.6834 238.802 42.3966L240.598 35.2526Z" fill="#DCDCDC"/>
<path d="M249.037 34.3459H248.513C248.485 34.5444 248.343 35.4799 248.13 35.6358C248.031 35.7209 246.883 35.7209 246.685 35.7209H244.034L245.848 34.2467C246.33 33.864 247.592 32.9568 248.031 32.5316C248.456 32.1063 249.037 31.3834 249.037 30.3771C249.037 28.6052 247.436 27.5705 245.536 27.5705C243.708 27.5705 242.432 28.7753 242.432 30.1077C242.432 30.8306 243.042 30.9157 243.198 30.9157C243.552 30.9157 243.963 30.6605 243.963 30.1503C243.963 29.8384 243.779 29.3848 243.155 29.3848C243.481 28.6619 244.346 28.1233 245.324 28.1233C246.812 28.1233 247.606 29.2289 247.606 30.3771C247.606 31.3834 246.94 32.4182 245.947 33.3254L242.588 36.4012C242.446 36.543 242.432 36.5572 242.432 36.9966H248.598L249.037 34.3459Z" fill="#DCDCDC"/>
<path d="M289.035 25.4858C289.035 17.3496 287.135 8.70317 281.55 2.32463C281.153 1.87104 280.105 0.765426 279.424 0.170094C279.226 0 279.169 0 278.801 0C278.517 0 278.262 -3.53349e-08 278.262 0.283492C278.262 0.396889 278.375 0.510283 278.432 0.566983C279.396 1.5592 280.927 3.1184 282.684 6.2368C285.746 11.6798 286.88 18.682 286.88 25.4858C286.88 37.7893 283.478 45.3018 278.375 50.4897C278.319 50.5464 278.262 50.6315 278.262 50.7165C278.262 51 278.517 51 278.801 51C279.169 51 279.226 51 279.481 50.7732C282.174 48.4486 285.207 44.5081 287.163 38.5264C288.411 34.6426 289.035 30.05 289.035 25.4858Z" fill="#DCDCDC"/>
<path d="M324.508 21.5199C324.904 21.5199 325.415 21.5199 325.415 21.0096C325.415 20.471 324.933 20.471 324.508 20.471H307.81C307.413 20.471 306.903 20.471 306.903 20.9813C306.903 21.5199 307.385 21.5199 307.81 21.5199H324.508ZM324.508 26.7928C324.904 26.7928 325.415 26.7928 325.415 26.2825C325.415 25.7439 324.933 25.7439 324.508 25.7439H307.81C307.413 25.7439 306.903 25.7439 306.903 26.2542C306.903 26.7928 307.385 26.7928 307.81 26.7928H324.508Z" fill="#DCDCDC"/>
<path d="M354.539 24.128C354.567 24.043 354.652 23.8446 354.652 23.7312C354.652 23.5894 354.539 23.4477 354.369 23.4477C354.255 23.4477 354.199 23.476 354.114 23.5611C354.057 23.5894 354.057 23.6461 353.802 24.2131C352.129 28.182 350.91 29.8829 346.374 29.8829H342.235C341.838 29.8829 341.782 29.8829 341.612 29.8546C341.3 29.8262 341.272 29.7695 341.272 29.5427C341.272 29.3443 341.328 29.1742 341.385 28.919L343.341 21.0947H346.148C348.359 21.0947 348.529 21.5766 348.529 22.4271C348.529 22.7106 348.529 22.9657 348.33 23.8162C348.274 23.9296 348.245 24.043 348.245 24.128C348.245 24.3265 348.387 24.4115 348.557 24.4115C348.812 24.4115 348.841 24.2131 348.954 23.8162L350.57 17.2392C350.57 17.0975 350.457 16.9557 350.287 16.9557C350.031 16.9557 350.003 17.0691 349.89 17.466C349.323 19.6489 348.756 20.2726 346.233 20.2726H343.539L345.297 13.2987C345.552 12.3065 345.609 12.2214 346.771 12.2214H350.825C354.312 12.2214 355.021 13.1569 355.021 15.3115C355.021 15.3398 355.021 16.1336 354.907 17.0691C354.879 17.1825 354.851 17.3526 354.851 17.4093C354.851 17.6361 354.992 17.7212 355.163 17.7212C355.361 17.7212 355.474 17.6078 355.531 17.0975L356.126 12.1364C356.126 12.0513 356.183 11.7678 356.183 11.7111C356.183 11.3993 355.928 11.3993 355.418 11.3993H341.583C341.045 11.3993 340.761 11.3993 340.761 11.9096C340.761 12.2214 340.96 12.2214 341.442 12.2214C343.199 12.2214 343.199 12.4199 343.199 12.7317C343.199 12.8735 343.171 12.9869 343.086 13.2987L339.259 28.6072C339.004 29.5994 338.947 29.8829 336.962 29.8829C336.424 29.8829 336.14 29.8829 336.14 30.3932C336.14 30.705 336.31 30.705 336.877 30.705H351.109C351.732 30.705 351.761 30.6767 351.959 30.2231L354.539 24.128Z" fill="#DCDCDC"/>
<path d="M370.37 11.7111C370.37 11.6827 370.484 11.3142 370.484 11.2858C370.484 11.0307 370.257 11.0307 370.172 11.0307C369.917 11.0307 369.888 11.1724 369.775 11.5977L365.097 30.3648C362.744 30.0813 361.866 28.8906 361.866 27.1897C361.866 26.566 361.866 25.914 363.198 22.3987C363.566 21.3781 363.708 21.0096 363.708 20.4993C363.708 19.2236 362.801 18.203 361.469 18.203C358.861 18.203 357.812 22.3136 357.812 22.5404C357.812 22.6538 357.925 22.7956 358.123 22.7956C358.379 22.7956 358.407 22.6822 358.52 22.2853C359.201 19.8189 360.335 18.77 361.384 18.77C361.639 18.77 362.121 18.7984 362.121 19.7055C362.121 19.8189 362.121 20.4426 361.639 21.69C360.108 25.7155 360.108 26.3392 360.108 26.9912C360.108 29.7127 362.376 30.7617 364.927 30.9601C364.7 31.8389 364.502 32.7461 364.275 33.6249C363.822 35.3259 363.623 36.1196 363.623 36.233C363.623 36.4882 363.85 36.4882 363.935 36.4882C363.992 36.4882 364.105 36.4882 364.162 36.3748C364.275 36.2614 365.437 31.4987 365.551 30.9885C366.6 30.9885 368.839 30.9885 371.391 28.352C372.326 27.3314 373.177 26.0274 373.659 24.8084C373.942 24.0713 374.623 21.5482 374.623 20.1024C374.623 18.4015 373.772 18.203 373.489 18.203C372.808 18.203 372.185 18.8834 372.185 19.4504C372.185 19.7906 372.383 19.989 372.496 20.1024C372.752 20.3576 373.517 21.123 373.517 22.5971C373.517 23.6177 372.95 25.7155 371.136 27.7567C368.754 30.4215 366.571 30.4215 365.721 30.4215L370.37 11.7111Z" fill="#DCDCDC"/>
<path d="M385.323 37.5938C385.323 37.5088 385.323 37.4521 384.841 36.9701C382.006 34.1069 380.418 29.4293 380.418 23.6461C380.418 18.1463 381.751 13.412 385.039 10.0668C385.323 9.8117 385.323 9.755 385.323 9.66995C385.323 9.49986 385.181 9.44316 385.068 9.44316C384.699 9.44316 382.375 11.4843 380.985 14.2625C379.54 17.1258 378.888 20.1591 378.888 23.6461C378.888 26.1691 379.285 29.5427 380.759 32.576C382.431 35.9779 384.756 37.8206 385.068 37.8206C385.181 37.8206 385.323 37.7639 385.323 37.5938Z" fill="#DCDCDC"/>
<path d="M400.342 19.1386C399.435 19.3087 399.094 19.989 399.094 20.5277C399.094 21.2081 399.633 21.4348 400.03 21.4348C400.88 21.4348 401.476 20.6978 401.476 19.9323C401.476 18.7417 400.115 18.203 398.924 18.203C397.195 18.203 396.231 19.904 395.976 20.4426C395.324 18.3164 393.566 18.203 393.056 18.203C390.164 18.203 388.634 21.9168 388.634 22.5405C388.634 22.6539 388.747 22.7956 388.945 22.7956C389.172 22.7956 389.229 22.6255 389.286 22.5121C390.249 19.3654 392.149 18.77 392.971 18.77C394.247 18.77 394.502 19.9607 394.502 20.6411C394.502 21.2648 394.332 21.9168 393.992 23.2775L393.028 27.1614C392.602 28.8623 391.78 30.4215 390.278 30.4215C390.136 30.4215 389.427 30.4215 388.832 30.053C389.853 29.8545 390.079 29.004 390.079 28.6639C390.079 28.0969 389.654 27.7567 389.115 27.7567C388.435 27.7567 387.698 28.352 387.698 29.2592C387.698 30.4499 389.03 30.9885 390.249 30.9885C391.61 30.9885 392.574 29.9112 393.169 28.7489C393.623 30.4215 395.04 30.9885 396.089 30.9885C398.981 30.9885 400.512 27.2748 400.512 26.6511C400.512 26.5093 400.398 26.3959 400.228 26.3959C399.973 26.3959 399.945 26.5377 399.86 26.7645C399.094 29.2592 397.45 30.4215 396.174 30.4215C395.182 30.4215 394.644 29.6844 394.644 28.5221C394.644 27.8984 394.757 27.4448 395.211 25.5738L396.203 21.7183C396.628 20.0174 397.592 18.77 398.896 18.77C398.953 18.77 399.746 18.77 400.342 19.1386Z" fill="#DCDCDC"/>
<path d="M408.206 30.8184C408.206 29.1741 407.668 27.9551 406.505 27.9551C405.598 27.9551 405.145 28.6922 405.145 29.3159C405.145 29.9396 405.57 30.705 406.534 30.705C406.902 30.705 407.214 30.5916 407.469 30.3364C407.526 30.2797 407.554 30.2797 407.583 30.2797C407.639 30.2797 407.639 30.6766 407.639 30.8184C407.639 31.7539 407.469 33.5966 405.825 35.4393C405.513 35.7795 405.513 35.8362 405.513 35.8929C405.513 36.0346 405.655 36.1764 405.797 36.1764C406.023 36.1764 408.206 34.0785 408.206 30.8184Z" fill="#DCDCDC"/>
<path d="M422.569 33.8801C421.804 34.9574 420.698 35.9212 419.309 35.9212C418.969 35.9212 417.608 35.8645 417.183 34.5605C417.268 34.5888 417.41 34.5888 417.467 34.5888C418.317 34.5888 418.884 33.8517 418.884 33.1997C418.884 32.5477 418.345 32.3209 417.92 32.3209C417.467 32.3209 416.474 32.6611 416.474 34.0502C416.474 35.496 417.693 36.4882 419.309 36.4882C422.144 36.4882 425.007 33.8801 425.801 30.7333L428.579 19.6772C428.608 19.5355 428.665 19.3654 428.665 19.1953C428.665 18.77 428.324 18.4865 427.899 18.4865C427.644 18.4865 427.049 18.5999 426.822 19.4504L424.724 27.785C424.582 28.2953 424.582 28.352 424.355 28.6639C423.788 29.4576 422.853 30.4215 421.492 30.4215C419.905 30.4215 419.763 28.8623 419.763 28.0969C419.763 26.481 420.528 24.2981 421.294 22.257C421.606 21.4348 421.776 21.038 421.776 20.471C421.776 19.2803 420.925 18.203 419.536 18.203C416.928 18.203 415.879 22.3137 415.879 22.5405C415.879 22.6539 415.992 22.7956 416.191 22.7956C416.446 22.7956 416.474 22.6822 416.588 22.2853C417.268 19.904 418.345 18.77 419.451 18.77C419.706 18.77 420.188 18.77 420.188 19.7056C420.188 20.4426 419.876 21.2647 419.451 22.342C418.062 26.0557 418.062 26.9913 418.062 27.6716C418.062 30.3648 419.99 30.9885 421.407 30.9885C422.229 30.9885 423.25 30.7333 424.242 29.6844L424.27 29.7128C423.845 31.3854 423.562 32.491 422.569 33.8801Z" fill="#DCDCDC"/>
<path d="M437.66 23.6461C437.66 21.4915 437.376 17.9762 435.789 14.6877C434.116 11.2859 431.791 9.44316 431.48 9.44316C431.366 9.44316 431.224 9.49986 431.224 9.66995C431.224 9.755 431.224 9.8117 431.706 10.2936C434.541 13.1569 436.129 17.8345 436.129 23.6177C436.129 29.1174 434.796 33.8517 431.508 37.1969C431.224 37.4521 431.224 37.5088 431.224 37.5938C431.224 37.7639 431.366 37.8206 431.48 37.8206C431.848 37.8206 434.173 35.7795 435.562 33.0013C437.008 30.1096 437.66 27.0479 437.66 23.6461Z" fill="#DCDCDC"/>
</svg>
