<svg width="494" height="36" viewBox="0 0 494 36" fill="none" xmlns="http://www.w3.org/2000/svg">
<path d="M18.3 18.4C19.4455 19.3818 20.8364 20.0909 21.7364 20.5C20.7545 20.9364 19.4182 21.6455 18.3 22.6H0.981818C0.518181 22.6 0 22.6 0 23.1455C0 23.6909 0.490909 23.6909 0.954546 23.6909H17.0727C15.7636 24.9455 14.3455 27.3455 14.3455 27.7C14.3455 28 14.7 28 14.8636 28C15.0818 28 15.2727 28 15.3818 27.7818C15.9545 26.7455 16.7182 25.3 18.4909 23.7182C20.3727 22.0545 22.2 21.3182 23.6182 20.9091C24.0818 20.7455 24.1091 20.7182 24.1636 20.6636C24.2182 20.6364 24.2182 20.5545 24.2182 20.5C24.2182 20.4455 24.2182 20.3909 24.1909 20.3364L24.1091 20.2818C24.0545 20.2545 24.0273 20.2273 23.5091 20.0636C19.8273 18.9727 17.1 16.4909 15.5727 13.5727C15.2727 13.0273 15.2455 13 14.8636 13C14.7 13 14.3455 13 14.3455 13.3C14.3455 13.6545 15.7364 16.0273 17.0727 17.3091H0.954546C0.490909 17.3091 0 17.3091 0 17.8545C0 18.4 0.518181 18.4 0.981818 18.4H18.3Z" fill="white"/>
<path d="M51.3011 5.4047C51.3011 5.37467 51.4212 4.98435 51.4212 4.95432C51.4212 4.6841 51.181 4.6841 51.0909 4.6841C50.8207 4.6841 50.7907 4.83422 50.6706 5.2846L45.7164 25.1612C43.2244 24.8609 42.2936 23.5999 42.2936 21.7984C42.2936 21.1378 42.2936 20.4472 43.7048 16.7241C44.0951 15.6432 44.2452 15.2529 44.2452 14.7125C44.2452 13.3613 43.2844 12.2804 41.8732 12.2804C39.1109 12.2804 38 16.6341 38 16.8743C38 16.9944 38.1201 17.1445 38.3303 17.1445C38.6005 17.1445 38.6305 17.0244 38.7506 16.604C39.4712 13.9919 40.6722 12.8809 41.7832 12.8809C42.0534 12.8809 42.5638 12.911 42.5638 13.8718C42.5638 13.9919 42.5638 14.6524 42.0534 15.9735C40.432 20.2371 40.432 20.8976 40.432 21.5882C40.432 24.4706 42.834 25.5815 45.5363 25.7917C45.2961 26.7225 45.0859 27.6833 44.8457 28.614C44.3653 30.4155 44.1551 31.2562 44.1551 31.3763C44.1551 31.6466 44.3953 31.6466 44.4854 31.6466C44.5455 31.6466 44.6656 31.6466 44.7256 31.5265C44.8457 31.4064 46.0767 26.3622 46.1968 25.8217C47.3078 25.8217 49.6797 25.8217 52.382 23.0294C53.3728 21.9485 54.2736 20.5673 54.784 19.2763C55.0842 18.4956 55.8048 15.8234 55.8048 14.2921C55.8048 12.4906 54.9041 12.2804 54.6038 12.2804C53.8832 12.2804 53.2227 13.001 53.2227 13.6015C53.2227 13.9618 53.4329 14.172 53.553 14.2921C53.8232 14.5623 54.6339 15.373 54.6339 16.9343C54.6339 18.0152 54.0334 20.2371 52.1118 22.3989C49.5897 25.2212 47.2777 25.2212 46.377 25.2212L51.3011 5.4047Z" fill="#DCDCDC"/>
<path d="M60.3055 26.7424C60.3656 26.4422 60.5658 25.6816 60.6258 25.3813C60.906 24.3004 60.906 24.2804 61.3664 23.6198C62.027 22.639 62.9678 21.7583 64.3089 21.7583C65.0295 21.7583 65.4498 22.1786 65.4498 23.1194C65.4498 24.2203 64.6091 26.5022 64.2288 27.4831C63.9686 28.1436 63.9686 28.2637 63.9686 28.5239C63.9686 29.6649 64.9094 30.2253 65.7701 30.2253C67.7317 30.2253 68.5524 27.423 68.5524 27.1628C68.5524 26.9626 68.3923 26.9026 68.2522 26.9026C68.012 26.9026 67.9719 27.0427 67.9119 27.2429C67.4315 28.8842 66.5908 29.6649 65.8301 29.6649C65.5099 29.6649 65.3498 29.4647 65.3498 29.0043C65.3498 28.5439 65.5099 28.1036 65.7101 27.6032C66.0103 26.8425 66.891 24.5406 66.891 23.4197C66.891 21.9184 65.8502 21.1978 64.409 21.1978C62.7876 21.1978 61.7467 22.1786 61.1663 22.9393C61.0261 21.8384 60.1454 21.1978 59.1246 21.1978C58.404 21.1978 57.9035 21.6582 57.5833 22.2787C57.1029 23.2195 56.9027 24.2203 56.9027 24.2604C56.9027 24.4405 57.0428 24.5206 57.203 24.5206C57.4632 24.5206 57.4832 24.4405 57.6233 23.9201C57.8635 22.9393 58.2238 21.7583 59.0645 21.7583C59.5849 21.7583 59.705 22.2587 59.705 22.6991C59.705 23.0594 59.605 23.4397 59.4448 24.1002C59.4048 24.2604 59.1045 25.4414 59.0245 25.7216L58.2839 28.7241C58.2038 29.0243 58.0837 29.5248 58.0837 29.6048C58.0837 30.0652 58.464 30.2253 58.7242 30.2253C59.0845 30.2253 59.3848 29.9851 59.5249 29.7449C59.5849 29.6248 59.7451 28.9443 59.8452 28.5239L60.3055 26.7424Z" fill="#DCDCDC"/>
<path d="M77.6587 26.6273C77.1333 26.7775 77.0132 27.2128 77.0132 27.438C77.0132 27.9184 77.4035 28.0235 77.6137 28.0235C78.049 28.0235 78.4844 27.6632 78.4844 27.0777C78.4844 26.267 77.5987 25.9067 76.833 25.9067C75.8422 25.9067 75.2417 26.6724 75.0766 26.9576C74.8814 26.5823 74.3109 25.9067 73.185 25.9067C71.4586 25.9067 70.4377 27.6932 70.4377 28.2187C70.4377 28.2937 70.4978 28.4288 70.7079 28.4288C70.9181 28.4288 70.9631 28.3388 71.0082 28.2037C71.3835 26.9876 72.4043 26.4022 73.14 26.4022C73.8756 26.4022 74.1008 26.8826 74.1008 27.378C74.1008 27.5581 74.1008 27.6932 73.9807 28.1586C73.6354 29.5548 73.3051 30.9209 73.23 31.1011C73.0048 31.6716 72.4644 32.182 71.8339 32.182C71.7438 32.182 71.3234 32.182 70.9782 31.9568C71.5636 31.7616 71.6237 31.2662 71.6237 31.1461C71.6237 30.7558 71.3234 30.5606 71.0232 30.5606C70.6028 30.5606 70.1525 30.8909 70.1525 31.5064C70.1525 32.3621 71.0983 32.6774 71.8038 32.6774C72.6596 32.6774 73.2751 32.0919 73.5603 31.6265C73.8606 32.257 74.5812 32.6774 75.4369 32.6774C77.2083 32.6774 78.1992 30.8609 78.1992 30.3655C78.1992 30.3354 78.1842 30.1553 77.9139 30.1553C77.7038 30.1553 77.6737 30.2604 77.6287 30.3955C77.1933 31.7016 76.1274 32.182 75.4969 32.182C74.9264 32.182 74.5211 31.8517 74.5211 31.2212C74.5211 30.9359 74.5962 30.6057 74.7313 30.0802L75.2117 28.1286C75.3618 27.5431 75.4369 27.2729 75.7521 26.9126C75.9623 26.6874 76.3226 26.4022 76.803 26.4022C76.8781 26.4022 77.3284 26.4022 77.6587 26.6273Z" fill="#DCDCDC"/>
<path d="M84.6783 29.7249C84.6783 31.026 84.3981 32.167 83.157 33.408C83.077 33.468 83.037 33.5081 83.037 33.6082C83.037 33.7683 83.1971 33.8884 83.3372 33.8884C83.5774 33.8884 85.2388 32.3071 85.2388 29.9651C85.2388 28.6841 84.7584 27.8033 83.8777 27.8033C83.1771 27.8033 82.7767 28.3638 82.7767 28.9042C82.7767 29.4647 83.157 30.0252 83.8977 30.0252C84.3781 30.0252 84.6783 29.7449 84.6783 29.7249Z" fill="#DCDCDC"/>
<path d="M90.8463 26.7424C90.9064 26.4422 91.1065 25.6816 91.1666 25.3813C91.4468 24.3004 91.4468 24.2804 91.9072 23.6198C92.5678 22.639 93.5085 21.7583 94.8497 21.7583C95.5703 21.7583 95.9906 22.1786 95.9906 23.1194C95.9906 24.2203 95.1499 26.5022 94.7696 27.4831C94.5094 28.1436 94.5094 28.2637 94.5094 28.5239C94.5094 29.6649 95.4502 30.2253 96.3109 30.2253C98.2725 30.2253 99.0932 27.423 99.0932 27.1628C99.0932 26.9626 98.9331 26.9026 98.7929 26.9026C98.5527 26.9026 98.5127 27.0427 98.4527 27.2429C97.9723 28.8842 97.1316 29.6649 96.3709 29.6649C96.0507 29.6649 95.8905 29.4647 95.8905 29.0043C95.8905 28.5439 96.0507 28.1036 96.2508 27.6032C96.5511 26.8425 97.4318 24.5406 97.4318 23.4197C97.4318 21.9184 96.3909 21.1978 94.9497 21.1978C93.3284 21.1978 92.2875 22.1786 91.707 22.9393C91.5669 21.8384 90.6862 21.1978 89.6653 21.1978C88.9447 21.1978 88.4443 21.6582 88.124 22.2787C87.6436 23.2195 87.4435 24.2203 87.4435 24.2604C87.4435 24.4405 87.5836 24.5206 87.7437 24.5206C88.004 24.5206 88.024 24.4405 88.1641 23.9201C88.4043 22.9393 88.7646 21.7583 89.6053 21.7583C90.1257 21.7583 90.2458 22.2587 90.2458 22.6991C90.2458 23.0594 90.1457 23.4397 89.9856 24.1002C89.9456 24.2604 89.6453 25.4414 89.5652 25.7216L88.8246 28.7241C88.7446 29.0243 88.6245 29.5248 88.6245 29.6048C88.6245 30.0652 89.0048 30.2253 89.265 30.2253C89.6253 30.2253 89.9256 29.9851 90.0657 29.7449C90.1257 29.6248 90.2859 28.9443 90.3859 28.5239L90.8463 26.7424Z" fill="#DCDCDC"/>
<path d="M108.695 26.7625C108.725 26.6574 108.74 26.5973 108.74 26.5523C108.74 26.3721 108.605 26.0569 108.199 26.0569C107.944 26.0569 107.689 26.222 107.584 26.4322C107.524 26.5373 107.419 27.0027 107.344 27.2879L107.028 28.5339L106.563 30.4105C106.458 30.8309 106.398 31.0711 105.797 31.6415C105.632 31.7917 105.152 32.182 104.506 32.182C103.395 32.182 103.395 31.2062 103.395 30.9359C103.395 30.2754 103.576 29.5998 104.236 27.9484C104.386 27.5881 104.431 27.4831 104.431 27.2128C104.431 26.3721 103.681 25.9067 102.93 25.9067C101.399 25.9067 100.663 27.8884 100.663 28.2187C100.663 28.2937 100.723 28.4289 100.933 28.4289C101.144 28.4289 101.189 28.3388 101.234 28.2037C101.654 26.7474 102.45 26.4022 102.87 26.4022C103.17 26.4022 103.275 26.5973 103.275 26.9426C103.275 27.2579 103.08 27.7683 102.915 28.1736C102.39 29.4947 102.209 30.1853 102.209 30.7258C102.209 32.152 103.275 32.6774 104.446 32.6774C104.656 32.6774 105.362 32.6774 106.158 31.9868C105.963 32.8125 105.827 33.398 105.107 34.1786C104.837 34.4789 104.161 35.0944 103.26 35.0944C103.125 35.0944 102.48 35.0794 102.134 34.6891C102.795 34.569 102.885 33.9835 102.885 33.8484C102.885 33.443 102.555 33.2779 102.269 33.2779C101.894 33.2779 101.399 33.5781 101.399 34.2687C101.399 34.9893 102.104 35.5898 103.275 35.5898C104.867 35.5898 106.788 34.4188 107.254 32.5423L108.695 26.7625Z" fill="#DCDCDC"/>
<path d="M122.051 32.8175C122.051 32.7275 122.051 32.6674 121.54 32.157C118.538 29.1245 116.856 24.1703 116.856 18.0452C116.856 12.2204 118.268 7.2062 121.75 3.66325C122.051 3.39302 122.051 3.33297 122.051 3.24289C122.051 3.06274 121.901 3.0027 121.78 3.0027C121.39 3.0027 118.928 5.1645 117.457 8.10695C115.926 11.1395 115.235 14.3522 115.235 18.0452C115.235 20.7175 115.655 24.2904 117.217 27.5031C118.988 31.1061 121.45 33.0577 121.78 33.0577C121.901 33.0577 122.051 32.9977 122.051 32.8175Z" fill="#DCDCDC"/>
<path d="M137.957 13.2713C136.997 13.4514 136.636 14.172 136.636 14.7425C136.636 15.4631 137.207 15.7033 137.627 15.7033C138.528 15.7033 139.158 14.9226 139.158 14.112C139.158 12.8509 137.717 12.2804 136.456 12.2804C134.625 12.2804 133.604 14.0819 133.334 14.6524C132.643 12.4005 130.781 12.2804 130.241 12.2804C127.178 12.2804 125.557 16.2137 125.557 16.8743C125.557 16.9944 125.677 17.1445 125.887 17.1445C126.128 17.1445 126.188 16.9643 126.248 16.8442C127.269 13.5115 129.28 12.8809 130.151 12.8809C131.502 12.8809 131.772 14.142 131.772 14.8626C131.772 15.5231 131.592 16.2137 131.232 17.6549L130.211 21.7683C129.761 23.5698 128.89 25.2212 127.299 25.2212C127.148 25.2212 126.398 25.2212 125.767 24.8309C126.848 24.6207 127.088 23.72 127.088 23.3597C127.088 22.7592 126.638 22.3989 126.068 22.3989C125.347 22.3989 124.566 23.0294 124.566 23.9902C124.566 25.2512 125.977 25.8217 127.269 25.8217C128.71 25.8217 129.731 24.6808 130.361 23.4497C130.842 25.2212 132.343 25.8217 133.454 25.8217C136.516 25.8217 138.138 21.8884 138.138 21.2279C138.138 21.0778 138.017 20.9577 137.837 20.9577C137.567 20.9577 137.537 21.1078 137.447 21.348C136.636 23.9902 134.895 25.2212 133.544 25.2212C132.493 25.2212 131.922 24.4406 131.922 23.2095C131.922 22.549 132.043 22.0686 132.523 20.0869L133.574 16.0035C134.024 14.202 135.045 12.8809 136.426 12.8809C136.486 12.8809 137.327 12.8809 137.957 13.2713Z" fill="#DCDCDC"/>
<path d="M146.287 25.6416C146.287 23.9001 145.716 22.609 144.485 22.609C143.525 22.609 143.044 23.3897 143.044 24.0502C143.044 24.7108 143.495 25.5215 144.515 25.5215C144.906 25.5215 145.236 25.4014 145.506 25.1311C145.566 25.0711 145.596 25.0711 145.626 25.0711C145.686 25.0711 145.686 25.4914 145.686 25.6416C145.686 26.6324 145.506 28.584 143.765 30.5357C143.435 30.896 143.435 30.956 143.435 31.0161C143.435 31.1662 143.585 31.3163 143.735 31.3163C143.975 31.3163 146.287 29.0944 146.287 25.6416Z" fill="#DCDCDC"/>
<path d="M161.499 28.8843C160.688 30.0252 159.518 31.0461 158.046 31.0461C157.686 31.0461 156.245 30.986 155.794 29.6049C155.884 29.6349 156.035 29.6349 156.095 29.6349C156.995 29.6349 157.596 28.8543 157.596 28.1637C157.596 27.4731 157.025 27.2329 156.575 27.2329C156.095 27.2329 155.044 27.5932 155.044 29.0644C155.044 30.5957 156.335 31.6466 158.046 31.6466C161.049 31.6466 164.081 28.8843 164.922 25.5515L167.864 13.8417C167.895 13.6916 167.955 13.5115 167.955 13.3313C167.955 12.8809 167.594 12.5807 167.144 12.5807C166.874 12.5807 166.243 12.7008 166.003 13.6015L163.781 22.4289C163.631 22.9694 163.631 23.0294 163.391 23.3597C162.79 24.2004 161.799 25.2212 160.358 25.2212C158.677 25.2212 158.527 23.5698 158.527 22.7592C158.527 21.0477 159.337 18.7358 160.148 16.574C160.478 15.7033 160.658 15.2829 160.658 14.6824C160.658 13.4214 159.758 12.2804 158.286 12.2804C155.524 12.2804 154.413 16.6341 154.413 16.8743C154.413 16.9944 154.533 17.1445 154.744 17.1445C155.014 17.1445 155.044 17.0244 155.164 16.604C155.884 14.0819 157.025 12.8809 158.196 12.8809C158.467 12.8809 158.977 12.8809 158.977 13.8718C158.977 14.6524 158.647 15.5231 158.196 16.6641C156.725 20.5974 156.725 21.5882 156.725 22.3088C156.725 25.1612 158.767 25.8217 160.268 25.8217C161.139 25.8217 162.22 25.5515 163.271 24.4406L163.301 24.4706C162.85 26.2421 162.55 27.4131 161.499 28.8843Z" fill="#DCDCDC"/>
<path d="M177.482 18.0452C177.482 15.7633 177.181 12.0402 175.5 8.55732C173.729 4.95432 171.266 3.0027 170.936 3.0027C170.816 3.0027 170.666 3.06274 170.666 3.24289C170.666 3.33297 170.666 3.39302 171.176 3.90345C174.179 6.93597 175.86 11.8901 175.86 18.0152C175.86 23.8401 174.449 28.8542 170.966 32.3972C170.666 32.6674 170.666 32.7275 170.666 32.8175C170.666 32.9977 170.816 33.0577 170.936 33.0577C171.327 33.0577 173.789 30.8959 175.26 27.9535C176.791 24.8909 177.482 21.6482 177.482 18.0452Z" fill="#DCDCDC"/>
<path d="M209.055 15.7934C209.475 15.7934 210.015 15.7934 210.015 15.2529C210.015 14.6824 209.505 14.6824 209.055 14.6824H191.37C190.95 14.6824 190.409 14.6824 190.409 15.2229C190.409 15.7934 190.92 15.7934 191.37 15.7934H209.055ZM209.055 21.378C209.475 21.378 210.015 21.378 210.015 20.8376C210.015 20.2671 209.505 20.2671 209.055 20.2671H191.37C190.95 20.2671 190.409 20.2671 190.409 20.8075C190.409 21.378 190.92 21.378 191.37 21.378H209.055Z" fill="#DCDCDC"/>
<path d="M230.556 9.61627C230.876 9.31602 231.717 8.65547 232.037 8.37524C233.278 7.23429 234.459 6.13337 234.459 4.31185C234.459 1.92987 232.458 0.388582 229.955 0.388582C227.553 0.388582 225.972 2.2101 225.972 3.99159C225.972 4.9724 226.753 5.11252 227.033 5.11252C227.453 5.11252 228.074 4.81227 228.074 4.05164C228.074 3.01077 227.073 3.01077 226.833 3.01077C227.413 1.54955 228.754 1.04913 229.735 1.04913C231.597 1.04913 232.558 2.63045 232.558 4.31185C232.558 6.39359 231.096 7.91486 228.734 10.3369L226.212 12.939C225.972 13.1592 225.972 13.1993 225.972 13.6997H233.879L234.459 10.1167H233.839C233.779 10.517 233.619 11.5179 233.378 11.8982C233.258 12.0583 231.737 12.0583 231.417 12.0583H227.854L230.556 9.61627Z" fill="#DCDCDC"/>
<path d="M237.46 17.4147H222.996V18.6157H237.46V17.4147Z" fill="#DCDCDC"/>
<path d="M230.763 23.7652C230.943 23.0847 230.983 22.8645 232.825 22.8645C233.385 22.8645 233.585 22.8645 233.585 22.4842C233.585 22.4441 233.545 22.2039 233.245 22.2039C232.825 22.2039 232.224 22.244 231.804 22.264H230.363C228.281 22.264 227.8 22.2039 227.66 22.2039C227.58 22.2039 227.26 22.2039 227.26 22.5842C227.26 22.8645 227.52 22.8645 227.84 22.8645C228.501 22.8645 229.082 22.8645 229.082 23.1847C229.082 23.2648 229.062 23.2848 229.001 23.545L226.319 34.294C226.139 35.0546 226.099 35.2148 224.618 35.2148C224.237 35.2148 223.997 35.2148 223.997 35.5951C223.997 35.8753 224.257 35.8753 224.598 35.8753H234.266C234.766 35.8753 234.786 35.8553 234.946 35.475C235.147 34.9145 236.608 31.1514 236.608 30.9512C236.608 30.7711 236.448 30.671 236.308 30.671C236.087 30.671 236.047 30.8111 235.907 31.1114C235.187 32.9729 234.326 35.2148 230.743 35.2148H228.201C228.021 35.1747 227.961 35.1747 227.961 35.0346C227.961 34.8745 228.001 34.7144 228.041 34.5943L230.763 23.7652Z" fill="#DCDCDC"/>
<path d="M255.315 12.8209C255.315 12.2804 255.315 12.1303 255.015 12.1303C254.774 12.1303 254.204 12.7909 253.994 13.0611C253.063 12.3105 252.132 12.1303 251.171 12.1303C247.538 12.1303 246.458 14.112 246.458 15.7633C246.458 16.0936 246.458 17.1445 247.598 18.1954C248.559 19.0361 249.58 19.2462 250.961 19.5165C252.613 19.8467 253.003 19.9368 253.754 20.5373C254.294 20.9877 254.684 21.6482 254.684 22.4889C254.684 23.78 253.934 25.2212 251.292 25.2212C249.31 25.2212 247.869 24.0803 247.208 21.0778C247.088 20.5373 247.088 20.5073 247.058 20.4773C246.998 20.3572 246.878 20.3572 246.788 20.3572C246.458 20.3572 246.458 20.5073 246.458 21.0477V25.1311C246.458 25.6716 246.458 25.8217 246.758 25.8217C246.908 25.8217 246.938 25.7917 247.448 25.1612C247.598 24.951 247.598 24.8909 248.049 24.4105C249.19 25.8217 250.811 25.8217 251.322 25.8217C254.474 25.8217 256.036 24.0803 256.036 21.7083C256.036 20.0869 255.045 19.1261 254.774 18.8559C253.694 17.9251 252.883 17.745 250.901 17.3847C250.001 17.2045 247.809 16.7842 247.809 14.9827C247.809 14.0519 248.439 12.6708 251.141 12.6708C254.414 12.6708 254.594 15.4631 254.654 16.3939C254.684 16.6341 254.895 16.6341 254.985 16.6341C255.315 16.6341 255.315 16.4839 255.315 15.9435V12.8209Z" fill="#DCDCDC"/>
<path d="M262.287 7.02605C262.287 6.2454 261.657 5.55482 260.816 5.55482C260.035 5.55482 259.375 6.18535 259.375 6.99602C259.375 7.89677 260.096 8.46725 260.816 8.46725C261.747 8.46725 262.287 7.6866 262.287 7.02605ZM258.144 12.6107V13.4814C260.066 13.4814 260.336 13.6616 260.336 15.1328V23.2996C260.336 24.6507 260.005 24.6507 258.054 24.6507V25.5215C258.895 25.4614 260.336 25.4614 261.206 25.4614C261.537 25.4614 263.278 25.4614 264.299 25.5215V24.6507C262.347 24.6507 262.227 24.5006 262.227 23.3296V12.2804L258.144 12.6107Z" fill="#DCDCDC"/>
<path d="M278.591 18.2254C278.591 15.4331 278.591 14.5924 277.9 13.6316C277.029 12.4606 275.618 12.2804 274.597 12.2804C271.685 12.2804 270.544 14.7725 270.304 15.373H270.274V12.2804L266.19 12.6107V13.4814C268.232 13.4814 268.472 13.6916 268.472 15.1628V23.2996C268.472 24.6508 268.142 24.6508 266.19 24.6508V25.5215C266.971 25.4614 268.592 25.4614 269.433 25.4614C270.304 25.4614 271.925 25.4614 272.706 25.5215V24.6508C270.784 24.6508 270.424 24.6508 270.424 23.2996V17.715C270.424 14.5623 272.496 12.8809 274.357 12.8809C276.219 12.8809 276.639 14.4122 276.639 16.2437V23.2996C276.639 24.6508 276.309 24.6508 274.357 24.6508V25.5215C275.138 25.4614 276.759 25.4614 277.6 25.4614C278.471 25.4614 280.092 25.4614 280.873 25.5215V24.6508C279.371 24.6508 278.621 24.6508 278.591 23.75V18.2254Z" fill="#DCDCDC"/>
<path d="M298.967 35.6998C298.967 35.5796 298.907 35.5196 298.847 35.4295C297.466 33.9583 295.424 31.5263 294.163 26.6322C293.472 23.8999 293.202 20.8073 293.202 18.015C293.202 10.1184 295.094 4.59383 298.697 0.690576C298.967 0.420352 298.967 0.3603 298.967 0.300251C298.967 -3.74238e-08 298.727 0 298.607 0C298.156 0 296.535 1.8015 296.144 2.25188C293.082 5.8849 291.13 11.2894 291.13 17.985C291.13 22.2485 291.881 28.2836 295.814 33.3578C296.114 33.7181 298.066 36 298.607 36C298.727 36 298.967 36 298.967 35.6998Z" fill="#DCDCDC"/>
<path d="M307.334 10.4169C307.394 10.1167 307.594 9.35605 307.654 9.0558C307.934 7.9749 307.934 7.95488 308.395 7.29433C309.055 6.31352 309.996 5.43278 311.337 5.43278C312.058 5.43278 312.478 5.85313 312.478 6.79391C312.478 7.89483 311.637 10.1767 311.257 11.1576C310.997 11.8181 310.997 11.9382 310.997 12.1984C310.997 13.3394 311.938 13.8998 312.798 13.8998C314.76 13.8998 315.581 11.0975 315.581 10.8373C315.581 10.6371 315.421 10.5771 315.28 10.5771C315.04 10.5771 315 10.7172 314.94 10.9174C314.46 12.5587 313.619 13.3394 312.858 13.3394C312.538 13.3394 312.378 13.1392 312.378 12.6788C312.378 12.2184 312.538 11.7781 312.738 11.2777C313.039 10.517 313.919 8.2151 313.919 7.09417C313.919 5.59292 312.878 4.87231 311.437 4.87231C309.816 4.87231 308.775 5.85313 308.195 6.61376C308.054 5.51285 307.174 4.87231 306.153 4.87231C305.432 4.87231 304.932 5.3327 304.612 5.95322C304.131 6.894 303.931 7.89483 303.931 7.93487C303.931 8.11502 304.071 8.19508 304.231 8.19508C304.491 8.19508 304.512 8.11502 304.652 7.59458C304.892 6.61376 305.252 5.43278 306.093 5.43278C306.613 5.43278 306.733 5.9332 306.733 6.37356C306.733 6.73386 306.633 7.11418 306.473 7.77473C306.433 7.93487 306.133 9.11585 306.053 9.39608L305.312 12.3986C305.232 12.6988 305.112 13.1993 305.112 13.2793C305.112 13.7397 305.492 13.8998 305.753 13.8998C306.113 13.8998 306.413 13.6596 306.553 13.4194C306.613 13.2993 306.773 12.6188 306.873 12.1984L307.334 10.4169Z" fill="#DCDCDC"/>
<path d="M324.687 10.3018C324.162 10.452 324.041 10.8873 324.041 11.1125C324.041 11.5929 324.432 11.698 324.642 11.698C325.077 11.698 325.513 11.3377 325.513 10.7522C325.513 9.94154 324.627 9.58124 323.861 9.58124C322.87 9.58124 322.27 10.3469 322.105 10.6321C321.91 10.2568 321.339 9.58124 320.213 9.58124C318.487 9.58124 317.466 11.3677 317.466 11.8932C317.466 11.9682 317.526 12.1033 317.736 12.1033C317.946 12.1033 317.991 12.0133 318.036 11.8782C318.412 10.6621 319.433 10.0767 320.168 10.0767C320.904 10.0767 321.129 10.557 321.129 11.0525C321.129 11.2326 321.129 11.3677 321.009 11.8331C320.664 13.2293 320.333 14.5954 320.258 14.7756C320.033 15.346 319.493 15.8565 318.862 15.8565C318.772 15.8565 318.352 15.8565 318.006 15.6313C318.592 15.4361 318.652 14.9407 318.652 14.8206C318.652 14.4303 318.352 14.2351 318.051 14.2351C317.631 14.2351 317.181 14.5654 317.181 15.1809C317.181 16.0366 318.126 16.3519 318.832 16.3519C319.688 16.3519 320.303 15.7664 320.589 15.301C320.889 15.9315 321.609 16.3519 322.465 16.3519C324.237 16.3519 325.227 14.5354 325.227 14.04C325.227 14.0099 325.212 13.8298 324.942 13.8298C324.732 13.8298 324.702 13.9349 324.657 14.07C324.222 15.3761 323.156 15.8565 322.525 15.8565C321.955 15.8565 321.549 15.5262 321.549 14.8957C321.549 14.6104 321.624 14.2802 321.76 13.7547L322.24 11.8031C322.39 11.2176 322.465 10.9474 322.78 10.5871C322.991 10.3619 323.351 10.0767 323.831 10.0767C323.906 10.0767 324.357 10.0767 324.687 10.3018Z" fill="#DCDCDC"/>
<path d="M333.648 6.39357H335.95C335.53 8.21509 335.169 9.69633 335.169 11.1776C335.169 11.3177 335.169 12.1784 335.39 12.899C335.65 13.7397 335.85 13.8998 336.21 13.8998C336.651 13.8998 337.111 13.5195 337.111 13.0391C337.111 12.899 337.091 12.859 337.011 12.6788C336.591 11.758 336.29 10.7972 336.29 9.15588C336.29 8.69549 336.29 7.85479 336.591 6.39357H339.013C339.333 6.39357 339.553 6.39357 339.753 6.23344C339.993 6.01326 340.054 5.75304 340.054 5.63294C340.054 5.07247 339.553 5.07247 339.213 5.07247H331.987C331.566 5.07247 330.806 5.07248 329.825 6.03327C329.104 6.75388 328.544 7.67464 328.544 7.81476C328.544 7.99491 328.684 8.05496 328.844 8.05496C329.044 8.05496 329.084 7.99491 329.204 7.83478C330.185 6.39357 331.366 6.39357 331.827 6.39357H332.988C332.407 8.51534 331.346 10.9374 330.606 12.3986C330.466 12.6988 330.265 13.0992 330.265 13.2793C330.265 13.6997 330.606 13.8998 330.926 13.8998C331.687 13.8998 331.887 13.1392 332.307 11.4978L333.648 6.39357Z" fill="#DCDCDC"/>
<path d="M350.923 5.71301C350.042 5.9332 350.002 6.71385 350.002 6.79391C350.002 7.23428 350.342 7.53453 350.783 7.53453C351.223 7.53453 351.904 7.19425 351.904 6.33353C351.904 5.19258 350.643 4.87231 349.902 4.87231C348.961 4.87231 348.201 5.53286 347.74 6.31352C347.3 5.25263 346.259 4.87231 345.438 4.87231C343.256 4.87231 342.035 7.3744 342.035 7.93487C342.035 8.11502 342.176 8.19508 342.336 8.19508C342.576 8.19508 342.616 8.095 342.676 7.8548C343.136 6.39358 344.337 5.43278 345.378 5.43278C346.159 5.43278 346.539 5.99325 346.539 6.71385C346.539 7.11418 346.299 8.03495 346.139 8.67548C345.999 9.25597 345.558 11.0375 345.458 11.4178C345.178 12.4987 344.457 13.3394 343.557 13.3394C343.477 13.3394 342.956 13.3394 342.536 13.0591C343.457 12.839 343.457 11.9983 343.457 11.9782C343.457 11.5179 343.096 11.2376 342.656 11.2376C342.116 11.2376 341.535 11.698 341.535 12.4586C341.535 13.3794 342.516 13.8998 343.537 13.8998C344.598 13.8998 345.338 13.0992 345.699 12.4586C346.139 13.4395 347.06 13.8998 348.02 13.8998C350.202 13.8998 351.403 11.3978 351.403 10.8373C351.403 10.6371 351.243 10.5771 351.103 10.5771C350.863 10.5771 350.823 10.7172 350.763 10.9174C350.362 12.2585 349.221 13.3394 348.06 13.3394C347.4 13.3394 346.92 12.899 346.92 12.0583C346.92 11.658 347.04 11.1976 347.32 10.0767C347.46 9.47615 347.9 7.71468 348 7.33436C348.281 6.2935 348.981 5.43278 349.882 5.43278C349.982 5.43278 350.503 5.43278 350.923 5.71301Z" fill="#DCDCDC"/>
<path d="M352.866 17.4147H303.331V18.6157H352.866V17.4147Z" fill="#DCDCDC"/>
<path d="M328.633 23.7652C328.813 23.0847 328.853 22.8645 330.695 22.8645C331.255 22.8645 331.455 22.8645 331.455 22.4842C331.455 22.4441 331.415 22.2039 331.115 22.2039C330.695 22.2039 330.094 22.244 329.674 22.264H328.233C326.151 22.264 325.671 22.2039 325.531 22.2039C325.45 22.2039 325.13 22.2039 325.13 22.5842C325.13 22.8645 325.39 22.8645 325.711 22.8645C326.371 22.8645 326.952 22.8645 326.952 23.1847C326.952 23.2648 326.932 23.2848 326.872 23.545L324.189 34.294C324.009 35.0546 323.969 35.2148 322.488 35.2148C322.108 35.2148 321.867 35.2148 321.867 35.5951C321.867 35.8753 322.128 35.8753 322.468 35.8753H332.136C332.636 35.8753 332.656 35.8553 332.817 35.475C333.017 34.9145 334.478 31.1514 334.478 30.9512C334.478 30.7711 334.318 30.671 334.178 30.671C333.958 30.671 333.918 30.8111 333.777 31.1114C333.057 32.9729 332.196 35.2148 328.613 35.2148H326.071C325.891 35.1747 325.831 35.1747 325.831 35.0346C325.831 34.8745 325.871 34.7144 325.911 34.5943L328.633 23.7652Z" fill="#DCDCDC"/>
<path d="M365.027 18.015C365.027 13.7515 364.276 7.71643 360.343 2.6422C360.042 2.2819 358.091 0 357.55 0C357.4 0 357.19 0.0600517 357.19 0.300251C357.19 0.420352 357.25 0.510426 357.37 0.600502C358.811 2.1618 360.763 4.59383 361.994 9.36781C362.685 12.1001 362.955 15.1927 362.955 17.985C362.955 21.0175 362.685 24.0801 361.904 27.0225C360.763 31.226 358.992 33.628 357.46 35.3094C357.19 35.5796 357.19 35.6397 357.19 35.6998C357.19 35.94 357.4 36 357.55 36C358.001 36 359.652 34.1685 360.012 33.7481C363.075 30.1151 365.027 24.7106 365.027 18.015Z" fill="#DCDCDC"/>
<path d="M384.483 12.8209C384.483 12.2804 384.483 12.1303 384.182 12.1303C383.942 12.1303 383.372 12.7909 383.162 13.0611C382.231 12.3105 381.3 12.1303 380.339 12.1303C376.706 12.1303 375.625 14.112 375.625 15.7633C375.625 16.0936 375.625 17.1445 376.766 18.1954C377.727 19.0361 378.748 19.2462 380.129 19.5165C381.78 19.8467 382.171 19.9368 382.921 20.5373C383.462 20.9877 383.852 21.6482 383.852 22.4889C383.852 23.78 383.102 25.2212 380.459 25.2212C378.478 25.2212 377.037 24.0803 376.376 21.0778C376.256 20.5373 376.256 20.5073 376.226 20.4773C376.166 20.3572 376.046 20.3572 375.956 20.3572C375.625 20.3572 375.625 20.5073 375.625 21.0477V25.1311C375.625 25.6716 375.625 25.8217 375.926 25.8217C376.076 25.8217 376.106 25.7917 376.616 25.1612C376.766 24.951 376.766 24.8909 377.217 24.4105C378.358 25.8217 379.979 25.8217 380.489 25.8217C383.642 25.8217 385.203 24.0803 385.203 21.7083C385.203 20.0869 384.213 19.1261 383.942 18.8559C382.861 17.9251 382.051 17.745 380.069 17.3847C379.168 17.2045 376.976 16.7842 376.976 14.9827C376.976 14.0519 377.607 12.6708 380.309 12.6708C383.582 12.6708 383.762 15.4631 383.822 16.3939C383.852 16.6341 384.062 16.6341 384.152 16.6341C384.483 16.6341 384.483 16.4839 384.483 15.9435V12.8209Z" fill="#DCDCDC"/>
<path d="M391.455 7.02605C391.455 6.2454 390.825 5.55482 389.984 5.55482C389.203 5.55482 388.543 6.18535 388.543 6.99602C388.543 7.89677 389.263 8.46725 389.984 8.46725C390.915 8.46725 391.455 7.6866 391.455 7.02605ZM387.312 12.6107V13.4814C389.233 13.4814 389.504 13.6616 389.504 15.1328V23.2996C389.504 24.6507 389.173 24.6507 387.222 24.6507V25.5215C388.062 25.4614 389.504 25.4614 390.374 25.4614C390.705 25.4614 392.446 25.4614 393.467 25.5215V24.6507C391.515 24.6507 391.395 24.5006 391.395 23.3296V12.2804L387.312 12.6107Z" fill="#DCDCDC"/>
<path d="M407.759 18.2254C407.759 15.4331 407.759 14.5924 407.068 13.6316C406.197 12.4606 404.786 12.2804 403.765 12.2804C400.853 12.2804 399.712 14.7725 399.472 15.373H399.442V12.2804L395.358 12.6107V13.4814C397.4 13.4814 397.64 13.6916 397.64 15.1628V23.2996C397.64 24.6508 397.31 24.6508 395.358 24.6508V25.5215C396.139 25.4614 397.76 25.4614 398.601 25.4614C399.472 25.4614 401.093 25.4614 401.874 25.5215V24.6508C399.952 24.6508 399.592 24.6508 399.592 23.2996V17.715C399.592 14.5623 401.663 12.8809 403.525 12.8809C405.387 12.8809 405.807 14.4122 405.807 16.2437V23.2996C405.807 24.6508 405.477 24.6508 403.525 24.6508V25.5215C404.306 25.4614 405.927 25.4614 406.768 25.4614C407.638 25.4614 409.26 25.4614 410.04 25.5215V24.6508C408.539 24.6508 407.789 24.6508 407.759 23.75V18.2254Z" fill="#DCDCDC"/>
<path d="M428.135 35.6998C428.135 35.5796 428.075 35.5196 428.015 35.4295C426.633 33.9583 424.592 31.5263 423.331 26.6322C422.64 23.8999 422.37 20.8073 422.37 18.015C422.37 10.1184 424.261 4.59383 427.864 0.690576C428.135 0.420352 428.135 0.3603 428.135 0.300251C428.135 -3.74238e-08 427.894 0 427.774 0C427.324 0 425.703 1.8015 425.312 2.25188C422.25 5.8849 420.298 11.2894 420.298 17.985C420.298 22.2485 421.049 28.2836 424.982 33.3578C425.282 33.7181 427.234 36 427.774 36C427.894 36 428.135 36 428.135 35.6998Z" fill="#DCDCDC"/>
<path d="M436.502 7.50985C436.562 7.2096 436.762 6.44897 436.822 6.14872C437.102 5.06781 437.102 5.0478 437.563 4.38725C438.223 3.40643 439.164 2.5257 440.505 2.5257C441.226 2.5257 441.646 2.94605 441.646 3.88683C441.646 4.98775 440.805 7.26965 440.425 8.25047C440.165 8.91102 440.165 9.03112 440.165 9.29134C440.165 10.4323 441.106 10.9928 441.966 10.9928C443.928 10.9928 444.749 8.19042 444.749 7.9302C444.749 7.73003 444.588 7.66998 444.448 7.66998C444.208 7.66998 444.168 7.8101 444.108 8.01027C443.628 9.65164 442.787 10.4323 442.026 10.4323C441.706 10.4323 441.546 10.2321 441.546 9.77173C441.546 9.31135 441.706 8.87098 441.906 8.37057C442.206 7.60993 443.087 5.30801 443.087 4.18708C443.087 2.68583 442.046 1.96523 440.605 1.96523C438.984 1.96523 437.943 2.94605 437.362 3.70668C437.222 2.60576 436.342 1.96523 435.321 1.96523C434.6 1.96523 434.1 2.42561 433.779 3.04613C433.299 3.98691 433.099 4.98775 433.099 5.02778C433.099 5.20793 433.239 5.288 433.399 5.288C433.659 5.288 433.679 5.20793 433.819 4.6875C434.06 3.70668 434.42 2.5257 435.261 2.5257C435.781 2.5257 435.901 3.02611 435.901 3.46648C435.901 3.82678 435.801 4.2071 435.641 4.86765C435.601 5.02778 435.301 6.20876 435.221 6.489L434.48 9.4915C434.4 9.79175 434.28 10.2922 434.28 10.3722C434.28 10.8326 434.66 10.9928 434.92 10.9928C435.281 10.9928 435.581 10.7526 435.721 10.5124C435.781 10.3923 435.941 9.71168 436.041 9.29134L436.502 7.50985Z" fill="#DCDCDC"/>
<path d="M454.35 7.52988C454.38 7.42479 454.395 7.36474 454.395 7.3197C454.395 7.13955 454.26 6.82429 453.855 6.82429C453.6 6.82429 453.344 6.98943 453.239 7.1996C453.179 7.30469 453.074 7.77008 452.999 8.05532L452.684 9.30136L452.219 11.1779C452.113 11.5983 452.053 11.8385 451.453 12.4089C451.288 12.5591 450.807 12.9494 450.162 12.9494C449.051 12.9494 449.051 11.9736 449.051 11.7034C449.051 11.0428 449.231 10.3672 449.892 8.71587C450.042 8.35557 450.087 8.25048 450.087 7.98025C450.087 7.13955 449.336 6.67416 448.585 6.67416C447.054 6.67416 446.319 8.65582 446.319 8.98609C446.319 9.06115 446.379 9.19627 446.589 9.19627C446.799 9.19627 446.844 9.10619 446.889 8.97108C447.309 7.51486 448.105 7.16958 448.525 7.16958C448.826 7.16958 448.931 7.36474 448.931 7.71003C448.931 8.02529 448.736 8.53572 448.57 8.94105C448.045 10.2622 447.865 10.9527 447.865 11.4932C447.865 12.9194 448.931 13.4448 450.102 13.4448C450.312 13.4448 451.018 13.4448 451.813 12.7542C451.618 13.5799 451.483 14.1654 450.762 14.9461C450.492 15.2463 449.817 15.8618 448.916 15.8618C448.781 15.8618 448.135 15.8468 447.79 15.4565C448.45 15.3364 448.54 14.7509 448.54 14.6158C448.54 14.2104 448.21 14.0453 447.925 14.0453C447.55 14.0453 447.054 14.3456 447.054 15.0361C447.054 15.7567 447.76 16.3572 448.931 16.3572C450.522 16.3572 452.444 15.1863 452.909 13.3097L454.35 7.52988Z" fill="#DCDCDC"/>
<path d="M462.382 3.48649H464.684C464.263 5.30801 463.903 6.78924 463.903 8.27048C463.903 8.41059 463.903 9.27131 464.123 9.99191C464.383 10.8326 464.583 10.9927 464.944 10.9927C465.384 10.9927 465.845 10.6124 465.845 10.132C465.845 9.99191 465.825 9.95188 465.744 9.77173C465.324 8.85096 465.024 7.89016 465.024 6.24879C465.024 5.78841 465.024 4.94771 465.324 3.48649H467.746C468.066 3.48649 468.287 3.48649 468.487 3.32636C468.727 3.10617 468.787 2.84596 468.787 2.72586C468.787 2.16539 468.287 2.16539 467.946 2.16539H460.72C460.3 2.16539 459.539 2.16539 458.558 3.12619C457.838 3.84679 457.277 4.76756 457.277 4.90767C457.277 5.08782 457.418 5.14787 457.578 5.14787C457.778 5.14787 457.818 5.08782 457.938 4.92769C458.919 3.48649 460.1 3.48649 460.56 3.48649H461.721C461.141 5.60826 460.08 8.03028 459.339 9.49149C459.199 9.79174 458.999 10.1921 458.999 10.3722C458.999 10.7926 459.339 10.9927 459.659 10.9927C460.42 10.9927 460.62 10.2321 461.041 8.59074L462.382 3.48649Z" fill="#DCDCDC"/>
<path d="M479.997 3.2463C480.077 2.96606 480.077 2.92603 480.077 2.78591C480.077 2.28549 479.676 2.1654 479.436 2.1654C479.336 2.1654 478.876 2.18541 478.615 2.70585C478.575 2.80593 478.395 3.52653 478.295 3.94688L477.094 8.75089C477.074 8.81093 476.213 10.4323 474.752 10.4323C473.771 10.4323 473.431 9.71168 473.431 8.81093C473.431 7.64997 474.112 5.86848 474.572 4.70751C474.772 4.2071 474.832 4.02695 474.832 3.66665C474.832 2.56573 473.952 1.96523 473.031 1.96523C471.049 1.96523 470.228 4.78758 470.228 5.02778C470.228 5.20793 470.369 5.288 470.529 5.288C470.789 5.288 470.809 5.1679 470.869 4.96773C471.389 3.22628 472.25 2.5257 472.971 2.5257C473.271 2.5257 473.451 2.72586 473.451 3.18625C473.451 3.6066 473.291 4.06698 473.151 4.42728C472.33 6.54905 471.99 7.5699 471.99 8.51068C471.99 10.4723 473.471 10.9928 474.652 10.9928C475.593 10.9928 476.273 10.5724 476.754 10.112C476.474 11.233 476.273 12.0136 475.513 12.9744C474.852 13.7951 474.052 14.3155 473.151 14.3155C472.811 14.3155 472.05 14.2555 471.65 13.655C472.711 13.5749 472.791 12.6742 472.791 12.5541C472.791 12.0737 472.43 11.8134 472.01 11.8134C471.57 11.8134 470.869 12.1537 470.869 13.1345C470.869 14.0753 471.73 14.876 473.151 14.876C475.193 14.876 477.495 13.2346 478.095 10.8126L479.997 3.2463Z" fill="#DCDCDC"/>
<path d="M480.858 17.4147H432.498V18.6157H480.858V17.4147Z" fill="#DCDCDC"/>
<path d="M457.213 23.7652C457.393 23.0847 457.433 22.8645 459.275 22.8645C459.835 22.8645 460.035 22.8645 460.035 22.4842C460.035 22.4441 459.995 22.2039 459.695 22.2039C459.275 22.2039 458.674 22.244 458.254 22.264H456.813C454.731 22.264 454.251 22.2039 454.11 22.2039C454.03 22.2039 453.71 22.2039 453.71 22.5842C453.71 22.8645 453.97 22.8645 454.291 22.8645C454.951 22.8645 455.532 22.8645 455.532 23.1847C455.532 23.2648 455.512 23.2848 455.452 23.545L452.769 34.294C452.589 35.0546 452.549 35.2148 451.068 35.2148C450.688 35.2148 450.447 35.2148 450.447 35.5951C450.447 35.8753 450.708 35.8753 451.048 35.8753H460.716C461.216 35.8753 461.236 35.8553 461.397 35.475C461.597 34.9145 463.058 31.1514 463.058 30.9512C463.058 30.7711 462.898 30.671 462.758 30.671C462.538 30.671 462.497 30.8111 462.357 31.1114C461.637 32.9729 460.776 35.2148 457.193 35.2148H454.651C454.471 35.1747 454.411 35.1747 454.411 35.0346C454.411 34.8745 454.451 34.7144 454.491 34.5943L457.213 23.7652Z" fill="#DCDCDC"/>
<path d="M493.019 18.015C493.019 13.7515 492.268 7.71643 488.335 2.6422C488.034 2.2819 486.083 0 485.542 0C485.392 0 485.182 0.0600517 485.182 0.300251C485.182 0.420352 485.242 0.510426 485.362 0.600502C486.803 2.1618 488.755 4.59383 489.986 9.36781C490.677 12.1001 490.947 15.1927 490.947 17.985C490.947 21.0175 490.677 24.0801 489.896 27.0225C488.755 31.226 486.984 33.628 485.452 35.3094C485.182 35.5796 485.182 35.6397 485.182 35.6998C485.182 35.94 485.392 36 485.542 36C485.993 36 487.644 34.1685 488.004 33.7481C491.067 30.1151 493.019 24.7106 493.019 18.015Z" fill="#DCDCDC"/>
</svg>
