<svg width="407" height="47" viewBox="0 0 407 47" fill="none" xmlns="http://www.w3.org/2000/svg">
<path d="M11.1329 24.2126C11.4614 24.2126 11.8093 24.2126 11.8093 23.826C11.8093 23.4395 11.4614 23.4395 11.1329 23.4395H0.676476C0.347902 23.4395 0 23.4395 0 23.826C0 24.2126 0.347902 24.2126 0.676476 24.2126H11.1329Z" fill="white"/>
<path d="M24.2516 4.95228H28.0012C28.3297 4.95228 28.5424 4.95228 28.5424 4.72035C28.5424 4.46909 28.3104 4.46909 27.9432 4.46909H24.3675C24.5028 3.98589 24.5028 3.94723 24.6188 3.46404C24.7154 3.11614 24.8894 2.43966 24.8894 2.401C24.8894 2.22705 24.7734 2.16907 24.6188 2.16907C24.2516 2.16907 22.7247 2.32369 22.2608 2.36235C22.1062 2.38168 21.8936 2.401 21.8936 2.76823C21.8936 2.98084 22.0868 2.98084 22.3574 2.98084C23.2852 2.98084 23.3238 3.11613 23.3238 3.30941C23.3238 3.44471 23.1499 4.08253 23.0532 4.46909H21.9709C21.5843 4.46909 21.3717 4.46909 21.3717 4.72035C21.3717 4.95228 21.5457 4.95228 21.9129 4.95228H22.9373L20.4633 14.8095C20.386 15.0994 20.386 15.1381 20.386 15.254C20.386 15.6793 20.7146 15.7952 20.9465 15.7952C21.3137 15.7952 21.5843 15.5246 21.6616 15.2734C21.7003 15.1767 21.9129 14.307 22.0289 13.8238L22.4734 12.1036C22.5314 11.8137 22.7247 11.0792 22.7826 10.7893C22.8793 10.4801 23.0146 9.88089 23.0339 9.82291C23.1885 9.49433 24.2322 7.46491 26.165 7.46491C27.0154 7.46491 27.2087 8.16071 27.2087 8.79853C27.2087 9.99686 26.3196 12.3549 25.9717 13.2439C25.8558 13.5532 25.7591 13.8238 25.7591 14.191C25.7591 15.1961 26.4743 15.7952 27.344 15.7952C29.1995 15.7952 29.876 12.9347 29.876 12.8187C29.876 12.6255 29.702 12.6255 29.644 12.6255C29.4508 12.6255 29.4508 12.6834 29.3541 12.9734C28.7936 14.9448 27.9239 15.37 27.402 15.37C27.0348 15.37 26.9188 15.1381 26.9188 14.7322C26.9188 14.249 27.1314 13.7078 27.2474 13.3792C27.576 12.5288 28.4457 10.2095 28.4457 9.12711C28.4457 7.71617 27.5566 7.03969 26.223 7.03969C25.6238 7.03969 24.4642 7.17499 23.3625 8.50861L24.2516 4.95228Z" fill="white"/>
<path d="M33.3991 5.9401C33.6053 5.74682 34.1464 5.32161 34.3526 5.14122C35.1515 4.40676 35.9117 3.69807 35.9117 2.52551C35.9117 0.992165 34.6232 0 33.0125 0C31.4663 0 30.4484 1.17256 30.4484 2.31935C30.4484 2.95072 30.9509 3.04092 31.1313 3.04092C31.4019 3.04092 31.8013 2.84764 31.8013 2.358C31.8013 1.68797 31.1571 1.68797 31.0024 1.68797C31.3761 0.747346 32.2394 0.425214 32.8708 0.425214C34.0691 0.425214 34.6876 1.44315 34.6876 2.52551C34.6876 3.86558 33.747 4.84486 32.2265 6.40397L30.603 8.07905C30.4484 8.22079 30.4484 8.24656 30.4484 8.56869H35.538L35.9117 6.26223H35.5123C35.4736 6.51994 35.3705 7.1642 35.2159 7.40902C35.1386 7.5121 34.1593 7.5121 33.9532 7.5121H31.6596L33.3991 5.9401Z" fill="white"/>
<path d="M41.3777 23.4396H15.3614V24.2126H41.3777V23.4396Z" fill="white"/>
<path d="M23.8657 38.6691H23.4405C23.3825 38.9976 23.2279 40.0607 23.0346 40.3699C22.8993 40.5439 21.7976 40.5439 21.2178 40.5439H17.6421C18.1639 40.0993 19.3429 38.8623 19.8455 38.3985C22.7833 35.6926 23.8657 34.6875 23.8657 32.7741C23.8657 30.5514 22.1068 29.0631 19.8648 29.0631C17.6228 29.0631 16.3085 30.9766 16.3085 32.6388C16.3085 33.6245 17.1589 33.6245 17.2169 33.6245C17.6228 33.6245 18.1253 33.3346 18.1253 32.7161C18.1253 32.1749 17.7581 31.8077 17.2169 31.8077C17.0429 31.8077 17.0043 31.8077 16.9463 31.827C17.3135 30.5127 18.3572 29.6236 19.6135 29.6236C21.2564 29.6236 22.2615 30.9959 22.2615 32.7741C22.2615 34.4169 21.3144 35.8472 20.2127 37.0842L16.3085 41.4523V41.9161H23.3631L23.8657 38.6691Z" fill="white"/>
<path d="M28.8055 36.253C28.8441 36.137 29.3273 35.1706 30.0424 34.5521C30.545 34.0883 31.2021 33.779 31.9559 33.779C32.729 33.779 32.9996 34.3588 32.9996 35.132C32.9996 35.2479 32.9996 35.6345 32.7677 36.5429L32.2845 38.5337C32.1298 39.1135 31.7626 40.5438 31.724 40.7564C31.6467 41.0463 31.5307 41.5488 31.5307 41.6261C31.5307 41.8967 31.7433 42.1093 32.0332 42.1093C32.613 42.1093 32.7097 41.6648 32.8836 40.969L34.0433 36.3496C34.082 36.195 35.087 33.779 37.2131 33.779C37.9862 33.779 38.2568 34.3588 38.2568 35.132C38.2568 36.2143 37.503 38.3211 37.0778 39.4807C36.9038 39.9446 36.8072 40.1959 36.8072 40.5438C36.8072 41.4135 37.4064 42.1093 38.3341 42.1093C40.1316 42.1093 40.8081 39.2681 40.8081 39.1522C40.8081 39.0555 40.7308 38.9782 40.6148 38.9782C40.4408 38.9782 40.4215 39.0362 40.3249 39.3648C39.8803 40.911 39.1652 41.7228 38.3921 41.7228C38.1988 41.7228 37.8896 41.7034 37.8896 41.085C37.8896 40.5824 38.1215 39.9639 38.1988 39.7513C38.5467 38.8236 39.4165 36.5429 39.4165 35.4219C39.4165 34.2622 38.74 33.3925 37.2711 33.3925C35.9761 33.3925 34.9324 34.1269 34.1593 35.2673C34.1013 34.2236 33.4635 33.3925 32.0139 33.3925C30.2937 33.3925 29.3853 34.6101 29.0374 35.0933C28.9794 33.9916 28.187 33.3925 27.3365 33.3925C26.776 33.3925 26.3315 33.663 25.9643 34.3975C25.6164 35.0933 25.3458 36.2723 25.3458 36.3496C25.3458 36.4269 25.4231 36.5236 25.5584 36.5236C25.713 36.5236 25.7323 36.5042 25.8483 36.0597C26.1382 34.9194 26.5054 33.779 27.2786 33.779C27.7231 33.779 27.8777 34.0883 27.8777 34.6681C27.8777 35.0933 27.6844 35.8471 27.5491 36.4463L27.008 38.5337C26.9306 38.9009 26.718 39.7707 26.6214 40.1186C26.4861 40.6211 26.2735 41.5295 26.2735 41.6261C26.2735 41.8967 26.4861 42.1093 26.776 42.1093C27.008 42.1093 27.2786 41.9934 27.4332 41.7034C27.4718 41.6068 27.6458 40.9303 27.7424 40.5438L28.1676 38.8043L28.8055 36.253Z" fill="white"/>
<path d="M60.0613 46.8067C60.0613 46.7294 60.0226 46.6908 59.9839 46.6328C59.2688 45.9177 57.9738 44.6227 56.6789 42.5353C53.5671 37.5487 52.1562 31.2671 52.1562 23.8259C52.1562 18.6267 52.852 11.9199 56.0411 6.16022C57.568 3.41566 59.1528 1.83078 60.0033 0.980348C60.0613 0.922365 60.0613 0.883708 60.0613 0.825726C60.0613 0.632446 59.926 0.632446 59.6554 0.632446C59.3848 0.632446 59.3461 0.632446 59.0562 0.922365C52.5814 6.81737 50.5519 15.6695 50.5519 23.8066C50.5519 31.4024 52.2915 39.0563 57.2007 44.8353C57.5873 45.2798 58.3217 46.0723 59.1142 46.7681C59.3461 47 59.3848 47 59.6554 47C59.926 47 60.0613 47 60.0613 46.8067Z" fill="white"/>
<path d="M71.4669 9.12711C71.3509 8.04474 70.6745 6.74978 68.935 6.74978C66.2097 6.74978 63.4265 9.51366 63.4265 12.5868C63.4265 13.7658 64.2383 15.9885 66.8669 15.9885C71.4283 15.9885 73.3804 9.33971 73.3804 6.69179C73.3804 3.90858 71.8148 1.76318 69.3408 1.76318C66.5383 1.76318 65.7072 4.21782 65.7072 4.73968C65.7072 4.91363 65.8232 5.33884 66.3644 5.33884C67.0408 5.33884 67.3307 4.72035 67.3307 4.39178C67.3307 3.79261 66.7316 3.79261 66.4803 3.79261C67.2728 2.36235 68.7417 2.22705 69.2635 2.22705C70.9644 2.22705 72.0467 3.58 72.0467 5.74473C72.0467 6.98171 71.6795 8.41197 71.4862 9.12711H71.4669ZM66.9249 15.4667C65.108 15.4667 64.7988 14.0364 64.7988 13.2246C64.7988 12.3742 65.34 10.3834 65.6299 9.66829C65.8812 9.08845 66.9828 7.13633 68.9929 7.13633C70.7518 7.13633 71.1577 8.66324 71.1577 9.70694C71.1577 11.1372 69.9014 15.4667 66.9249 15.4667Z" fill="white"/>
<path d="M77.3675 5.9401C77.5737 5.74682 78.1149 5.32161 78.321 5.14122C79.1199 4.40676 79.8802 3.69807 79.8802 2.52551C79.8802 0.992165 78.5916 0 76.981 0C75.4347 0 74.4168 1.17256 74.4168 2.31935C74.4168 2.95072 74.9193 3.04092 75.0997 3.04092C75.3703 3.04092 75.7698 2.84764 75.7698 2.358C75.7698 1.68797 75.1255 1.68797 74.9709 1.68797C75.3445 0.747346 76.2079 0.425214 76.8392 0.425214C78.0376 0.425214 78.6561 1.44315 78.6561 2.52551C78.6561 3.86558 77.7154 4.84486 76.195 6.40397L74.5714 8.07905C74.4168 8.22079 74.4168 8.24656 74.4168 8.56869H79.5065L79.8802 6.26223H79.4807C79.4421 6.51994 79.339 7.1642 79.1844 7.40902C79.107 7.5121 78.1278 7.5121 77.9216 7.5121H75.628L77.3675 5.9401Z" fill="white"/>
<path d="M90.4687 2.63294C90.4687 2.61361 90.546 2.36235 90.546 2.34302C90.546 2.16907 90.3914 2.16907 90.3334 2.16907C90.1595 2.16907 90.1401 2.26571 90.0628 2.55563L86.8737 15.3507C85.2695 15.1574 84.6704 14.3456 84.6704 13.186C84.6704 12.7607 84.6704 12.3162 85.5788 9.91955C85.83 9.22374 85.9267 8.97248 85.9267 8.62458C85.9267 7.75483 85.3082 7.05902 84.3998 7.05902C82.6216 7.05902 81.9065 9.86156 81.9065 10.0162C81.9065 10.0935 81.9838 10.1901 82.1191 10.1901C82.293 10.1901 82.3123 10.1128 82.3897 9.84224C82.8535 8.16071 83.6266 7.44558 84.3418 7.44558C84.5157 7.44558 84.8443 7.46491 84.8443 8.0834C84.8443 8.16071 84.8443 8.58592 84.5157 9.43635C83.472 12.1809 83.472 12.6061 83.472 13.0507C83.472 14.9061 85.0183 15.6213 86.7578 15.7566C86.6031 16.3557 86.4678 16.9742 86.3132 17.5734C86.004 18.7331 85.8687 19.2742 85.8687 19.3516C85.8687 19.5255 86.0233 19.5255 86.0813 19.5255C86.1199 19.5255 86.1973 19.5255 86.2359 19.4482C86.3132 19.3709 87.1057 16.1238 87.183 15.7759C87.8981 15.7759 89.425 15.7759 91.1645 13.9784C91.8023 13.2826 92.3822 12.3935 92.7107 11.5624C92.904 11.0599 93.3679 9.33971 93.3679 8.35399C93.3679 7.19432 92.7881 7.05902 92.5948 7.05902C92.1309 7.05902 91.7057 7.52289 91.7057 7.90945C91.7057 8.14138 91.841 8.27668 91.9183 8.35399C92.0923 8.52794 92.6141 9.04979 92.6141 10.0548C92.6141 10.7506 92.2275 12.1809 90.9906 13.5725C89.367 15.3893 87.8788 15.3893 87.2989 15.3893L90.4687 2.63294Z" fill="white"/>
<path d="M100.663 20.2793C100.663 20.2213 100.663 20.1826 100.335 19.854C98.4018 17.9019 97.3194 14.7128 97.3194 10.7699C97.3194 7.02033 98.2278 3.79257 100.47 1.51188C100.663 1.33793 100.663 1.29928 100.663 1.24129C100.663 1.12533 100.567 1.08667 100.489 1.08667C100.238 1.08667 98.6531 2.47828 97.706 4.37241C96.7203 6.32452 96.2757 8.39261 96.2757 10.7699C96.2757 12.4901 96.5463 14.7901 97.5514 16.8582C98.6917 19.1776 100.277 20.4339 100.489 20.4339C100.567 20.4339 100.663 20.3952 100.663 20.2793Z" fill="white"/>
<path d="M105.762 11.2339C105.762 10.5961 105.897 7.52295 108.158 7.52295C107.888 7.73556 107.752 8.06413 107.752 8.41204C107.752 9.20448 108.39 9.53305 108.873 9.53305C109.356 9.53305 109.994 9.20448 109.994 8.41204C109.994 7.42631 108.989 6.88513 108.062 6.88513C106.535 6.88513 105.877 8.21876 105.607 9.03053H105.588V6.88513L102.418 7.03976V7.87085C103.616 7.87085 103.751 7.87085 103.751 8.62464V14.7516H102.418V15.5827C102.862 15.544 104.312 15.544 104.853 15.544C105.414 15.544 106.979 15.544 107.443 15.5827V14.7516H105.762V11.2339Z" fill="white"/>
<path d="M116.073 10.7699C116.073 9.30102 115.879 6.90436 114.797 4.66233C113.657 2.34298 112.072 1.08667 111.859 1.08667C111.782 1.08667 111.685 1.12533 111.685 1.24129C111.685 1.29928 111.685 1.33793 112.014 1.66651C113.947 3.61862 115.029 6.80772 115.029 10.7506C115.029 14.5002 114.121 17.728 111.879 20.0087C111.685 20.1826 111.685 20.2213 111.685 20.2793C111.685 20.3952 111.782 20.4339 111.859 20.4339C112.111 20.4339 113.695 19.0423 114.642 17.1481C115.628 15.1767 116.073 13.0893 116.073 10.7699Z" fill="white"/>
<path d="M117.982 23.4396H62.6921V24.2126H117.982V23.4396Z" fill="white"/>
<path d="M84.3885 35.4606C84.2725 34.3782 83.596 33.0833 81.8565 33.0833C79.1313 33.0833 76.3481 35.8472 76.3481 38.9203C76.3481 40.0993 77.1598 42.322 79.7884 42.322C84.3498 42.322 86.3019 35.6732 86.3019 33.0253C86.3019 30.2421 84.7364 28.0967 82.2624 28.0967C79.4598 28.0967 78.6287 30.5513 78.6287 31.0732C78.6287 31.2471 78.7447 31.6723 79.2859 31.6723C79.9624 31.6723 80.2523 31.0538 80.2523 30.7253C80.2523 30.1261 79.6531 30.1261 79.4019 30.1261C80.1943 28.6958 81.6632 28.5605 82.1851 28.5605C83.8859 28.5605 84.9683 29.9135 84.9683 32.0782C84.9683 33.3152 84.6011 34.7455 84.4078 35.4606H84.3885ZM79.8464 41.8001C78.0296 41.8001 77.7203 40.3699 77.7203 39.5581C77.7203 38.7077 78.2615 36.7169 78.5514 36.0018C78.8027 35.4219 79.9044 33.4698 81.9145 33.4698C83.6733 33.4698 84.0792 34.9967 84.0792 36.0404C84.0792 37.4707 82.8229 41.8001 79.8464 41.8001Z" fill="white"/>
<path d="M95.8168 34.0303C95.1983 34.1462 94.9664 34.6101 94.9664 34.9773C94.9664 35.4412 95.3336 35.5958 95.6042 35.5958C96.1841 35.5958 96.5899 35.0933 96.5899 34.5715C96.5899 33.7597 95.6622 33.3925 94.8504 33.3925C93.6714 33.3925 93.0143 34.5521 92.8403 34.9194C92.3958 33.4698 91.1975 33.3925 90.8496 33.3925C88.8781 33.3925 87.8344 35.9244 87.8344 36.3496C87.8344 36.4269 87.9117 36.5236 88.047 36.5236C88.2016 36.5236 88.2403 36.4076 88.279 36.3303C88.9361 34.1849 90.2311 33.779 90.7916 33.779C91.6613 33.779 91.8353 34.5908 91.8353 35.0547C91.8353 35.4799 91.7193 35.9244 91.4874 36.8521L90.8302 39.5001C90.5403 40.6597 89.9798 41.7228 88.9554 41.7228C88.8588 41.7228 88.3756 41.7228 87.9697 41.4715C88.6655 41.3362 88.8201 40.7564 88.8201 40.5244C88.8201 40.1379 88.5302 39.906 88.163 39.906C87.6991 39.906 87.1966 40.3118 87.1966 40.9303C87.1966 41.7421 88.105 42.1093 88.9361 42.1093C89.8638 42.1093 90.521 41.3749 90.9269 40.5824C91.2361 41.7228 92.2025 42.1093 92.9176 42.1093C94.8891 42.1093 95.9328 39.5774 95.9328 39.1522C95.9328 39.0555 95.8555 38.9782 95.7395 38.9782C95.5656 38.9782 95.5462 39.0749 95.4883 39.2295C94.9664 40.9303 93.8454 41.7228 92.9756 41.7228C92.2992 41.7228 91.9319 41.2202 91.9319 40.4278C91.9319 40.0026 92.0092 39.6933 92.3185 38.4177L92.995 35.7891C93.2849 34.6294 93.942 33.779 94.8311 33.779C94.8698 33.779 95.4109 33.779 95.8168 34.0303Z" fill="white"/>
<path d="M101.043 33.7039C101.25 33.5106 101.791 33.0854 101.997 32.905C102.796 32.1706 103.556 31.4619 103.556 30.2893C103.556 28.756 102.268 27.7638 100.657 27.7638C99.1106 27.7638 98.0927 28.9364 98.0927 30.0831C98.0927 30.7145 98.5952 30.8047 98.7756 30.8047C99.0462 30.8047 99.4457 30.6114 99.4457 30.1218C99.4457 29.4518 98.8014 29.4518 98.6468 29.4518C99.0205 28.5111 99.8838 28.189 100.515 28.189C101.713 28.189 102.332 29.2069 102.332 30.2893C102.332 31.6294 101.391 32.6087 99.8709 34.1678L98.2473 35.8428C98.0927 35.9846 98.0927 36.0104 98.0927 36.3325H103.182L103.556 34.026H103.157C103.118 34.2837 103.015 34.928 102.86 35.1728C102.783 35.2759 101.804 35.2759 101.598 35.2759H99.3039L101.043 33.7039Z" fill="white"/>
<path d="M131.922 24.1934H137.256C137.527 24.1934 137.875 24.1934 137.875 23.8455C137.875 23.4783 137.546 23.4783 137.256 23.4783H131.922V18.1438C131.922 17.8732 131.922 17.5253 131.574 17.5253C131.207 17.5253 131.207 17.8538 131.207 18.1438V23.4783H125.872C125.601 23.4783 125.254 23.4783 125.254 23.8262C125.254 24.1934 125.582 24.1934 125.872 24.1934H131.207V29.5279C131.207 29.7985 131.207 30.1464 131.554 30.1464C131.922 30.1464 131.922 29.8178 131.922 29.5279V24.1934Z" fill="white"/>
<path d="M153.932 9.12711C153.816 8.04474 153.139 6.74978 151.4 6.74978C148.675 6.74978 145.892 9.51366 145.892 12.5868C145.892 13.7658 146.703 15.9885 149.332 15.9885C153.893 15.9885 155.845 9.33971 155.845 6.69179C155.845 3.90858 154.28 1.76318 151.806 1.76318C149.003 1.76318 148.172 4.21782 148.172 4.73968C148.172 4.91363 148.288 5.33884 148.829 5.33884C149.506 5.33884 149.796 4.72035 149.796 4.39178C149.796 3.79261 149.197 3.79261 148.945 3.79261C149.738 2.36235 151.207 2.22705 151.729 2.22705C153.429 2.22705 154.512 3.58 154.512 5.74473C154.512 6.98171 154.145 8.41197 153.951 9.12711H153.932ZM149.39 15.4667C147.573 15.4667 147.264 14.0364 147.264 13.2246C147.264 12.3742 147.805 10.3834 148.095 9.66829C148.346 9.08845 149.448 7.13633 151.458 7.13633C153.217 7.13633 153.623 8.66324 153.623 9.70694C153.623 11.1372 152.366 15.4667 149.39 15.4667Z" fill="white"/>
<path d="M159.833 5.9401C160.039 5.74682 160.58 5.32161 160.786 5.14122C161.585 4.40676 162.345 3.69807 162.345 2.52551C162.345 0.992165 161.057 0 159.446 0C157.9 0 156.882 1.17256 156.882 2.31935C156.882 2.95072 157.384 3.04092 157.565 3.04092C157.835 3.04092 158.235 2.84764 158.235 2.358C158.235 1.68797 157.59 1.68797 157.436 1.68797C157.81 0.747346 158.673 0.425214 159.304 0.425214C160.503 0.425214 161.121 1.44315 161.121 2.52551C161.121 3.86558 160.18 4.84486 158.66 6.40397L157.036 8.07905C156.882 8.22079 156.882 8.24656 156.882 8.56869H161.971L162.345 6.26223H161.946C161.907 6.51994 161.804 7.1642 161.649 7.40902C161.572 7.5121 160.593 7.5121 160.387 7.5121H158.093L159.833 5.9401Z" fill="white"/>
<path d="M172.934 2.63294C172.934 2.61361 173.011 2.36235 173.011 2.34302C173.011 2.16907 172.856 2.16907 172.798 2.16907C172.624 2.16907 172.605 2.26571 172.528 2.55563L169.339 15.3507C167.735 15.1574 167.135 14.3456 167.135 13.186C167.135 12.7607 167.135 12.3162 168.044 9.91955C168.295 9.22374 168.392 8.97248 168.392 8.62458C168.392 7.75483 167.773 7.05902 166.865 7.05902C165.087 7.05902 164.371 9.86156 164.371 10.0162C164.371 10.0935 164.449 10.1901 164.584 10.1901C164.758 10.1901 164.777 10.1128 164.855 9.84224C165.319 8.16071 166.092 7.44558 166.807 7.44558C166.981 7.44558 167.309 7.46491 167.309 8.0834C167.309 8.16071 167.309 8.58592 166.981 9.43635C165.937 12.1809 165.937 12.6061 165.937 13.0507C165.937 14.9061 167.483 15.6213 169.223 15.7566C169.068 16.3557 168.933 16.9742 168.778 17.5734C168.469 18.7331 168.334 19.2742 168.334 19.3516C168.334 19.5255 168.488 19.5255 168.546 19.5255C168.585 19.5255 168.662 19.5255 168.701 19.4482C168.778 19.3709 169.571 16.1238 169.648 15.7759C170.363 15.7759 171.89 15.7759 173.63 13.9784C174.267 13.2826 174.847 12.3935 175.176 11.5624C175.369 11.0599 175.833 9.33971 175.833 8.35399C175.833 7.19432 175.253 7.05902 175.06 7.05902C174.596 7.05902 174.171 7.52289 174.171 7.90945C174.171 8.14138 174.306 8.27668 174.383 8.35399C174.557 8.52794 175.079 9.04979 175.079 10.0548C175.079 10.7506 174.693 12.1809 173.456 13.5725C171.832 15.3893 170.344 15.3893 169.764 15.3893L172.934 2.63294Z" fill="white"/>
<path d="M183.128 20.2793C183.128 20.2213 183.128 20.1826 182.8 19.854C180.867 17.9019 179.784 14.7128 179.784 10.7699C179.784 7.02033 180.693 3.79257 182.935 1.51188C183.128 1.33793 183.128 1.29928 183.128 1.24129C183.128 1.12533 183.032 1.08667 182.954 1.08667C182.703 1.08667 181.118 2.47828 180.171 4.37241C179.185 6.32452 178.741 8.39261 178.741 10.7699C178.741 12.4901 179.011 14.7901 180.016 16.8582C181.157 19.1776 182.742 20.4339 182.954 20.4339C183.032 20.4339 183.128 20.3952 183.128 20.2793Z" fill="white"/>
<path d="M188.226 11.2339C188.226 10.5961 188.362 7.52295 190.623 7.52295C190.353 7.73556 190.217 8.06413 190.217 8.41204C190.217 9.20448 190.855 9.53305 191.338 9.53305C191.821 9.53305 192.459 9.20448 192.459 8.41204C192.459 7.42631 191.454 6.88513 190.526 6.88513C189 6.88513 188.342 8.21876 188.072 9.03053H188.053V6.88513L184.883 7.03976V7.87085C186.081 7.87085 186.216 7.87085 186.216 8.62464V14.7516H184.883V15.5827C185.327 15.544 186.777 15.544 187.318 15.544C187.879 15.544 189.444 15.544 189.908 15.5827V14.7516H188.226V11.2339Z" fill="white"/>
<path d="M198.538 10.7699C198.538 9.30102 198.344 6.90436 197.262 4.66233C196.122 2.34298 194.537 1.08667 194.324 1.08667C194.247 1.08667 194.15 1.12533 194.15 1.24129C194.15 1.29928 194.15 1.33793 194.479 1.66651C196.412 3.61862 197.494 6.80772 197.494 10.7506C197.494 14.5002 196.586 17.728 194.344 20.0087C194.15 20.1826 194.15 20.2213 194.15 20.2793C194.15 20.3952 194.247 20.4339 194.324 20.4339C194.576 20.4339 196.16 19.0423 197.107 17.1481C198.093 15.1767 198.538 13.0893 198.538 10.7699Z" fill="white"/>
<path d="M200.447 23.4396H145.157V24.2126H200.447V23.4396Z" fill="white"/>
<path d="M167.27 35.4606C167.154 34.3782 166.478 33.0833 164.738 33.0833C162.013 33.0833 159.23 35.8472 159.23 38.9203C159.23 40.0993 160.042 42.322 162.67 42.322C167.231 42.322 169.184 35.6732 169.184 33.0253C169.184 30.2421 167.618 28.0967 165.144 28.0967C162.342 28.0967 161.51 30.5513 161.51 31.0732C161.51 31.2471 161.626 31.6723 162.168 31.6723C162.844 31.6723 163.134 31.0538 163.134 30.7253C163.134 30.1261 162.535 30.1261 162.284 30.1261C163.076 28.6958 164.545 28.5605 165.067 28.5605C166.768 28.5605 167.85 29.9135 167.85 32.0782C167.85 33.3152 167.483 34.7455 167.289 35.4606H167.27ZM162.728 41.8001C160.911 41.8001 160.602 40.3699 160.602 39.5581C160.602 38.7077 161.143 36.7169 161.433 36.0018C161.684 35.4219 162.786 33.4698 164.796 33.4698C166.555 33.4698 166.961 34.9967 166.961 36.0404C166.961 37.4707 165.705 41.8001 162.728 41.8001Z" fill="white"/>
<path d="M174.62 44.0808C174.098 44.8152 173.345 45.4724 172.398 45.4724C172.166 45.4724 171.238 45.4337 170.948 44.5446C171.006 44.564 171.103 44.564 171.141 44.564C171.721 44.564 172.108 44.0614 172.108 43.6169C172.108 43.1724 171.74 43.0177 171.451 43.0177C171.141 43.0177 170.465 43.2497 170.465 44.1967C170.465 45.1825 171.296 45.8589 172.398 45.8589C174.33 45.8589 176.283 44.0808 176.824 41.9354L178.718 34.3975C178.737 34.3009 178.776 34.1849 178.776 34.0689C178.776 33.779 178.544 33.5857 178.254 33.5857C178.08 33.5857 177.674 33.663 177.519 34.2429L176.089 39.9253C175.993 40.2732 175.993 40.3118 175.838 40.5244C175.451 41.0656 174.814 41.7228 173.886 41.7228C172.803 41.7228 172.707 40.6597 172.707 40.1379C172.707 39.0362 173.229 37.548 173.751 36.1563C173.963 35.5958 174.079 35.3252 174.079 34.9387C174.079 34.1269 173.499 33.3925 172.552 33.3925C170.774 33.3925 170.059 36.195 170.059 36.3496C170.059 36.4269 170.136 36.5236 170.272 36.5236C170.445 36.5236 170.465 36.4463 170.542 36.1757C171.006 34.5521 171.74 33.779 172.494 33.779C172.668 33.779 172.997 33.779 172.997 34.4168C172.997 34.9194 172.784 35.4799 172.494 36.2143C171.547 38.7463 171.547 39.3841 171.547 39.848C171.547 41.6841 172.861 42.1093 173.828 42.1093C174.388 42.1093 175.084 41.9354 175.761 41.2202L175.78 41.2396C175.49 42.3799 175.297 43.1337 174.62 44.0808Z" fill="white"/>
<path d="M183.092 33.7039C183.298 33.5106 183.839 33.0854 184.045 32.905C184.844 32.1706 185.604 31.4619 185.604 30.2893C185.604 28.756 184.316 27.7638 182.705 27.7638C181.159 27.7638 180.141 28.9364 180.141 30.0831C180.141 30.7145 180.644 30.8047 180.824 30.8047C181.095 30.8047 181.494 30.6114 181.494 30.1218C181.494 29.4518 180.85 29.4518 180.695 29.4518C181.069 28.5111 181.932 28.189 182.563 28.189C183.762 28.189 184.38 29.2069 184.38 30.2893C184.38 31.6294 183.44 32.6087 181.919 34.1678L180.296 35.8428C180.141 35.9846 180.141 36.0104 180.141 36.3325H185.231L185.604 34.026H185.205C185.166 34.2837 185.063 34.928 184.909 35.1728C184.831 35.2759 183.852 35.2759 183.646 35.2759H181.352L183.092 33.7039Z" fill="white"/>
<path d="M214.387 24.1934H219.721C219.992 24.1934 220.34 24.1934 220.34 23.8455C220.34 23.4783 220.011 23.4783 219.721 23.4783H214.387V18.1438C214.387 17.8732 214.387 17.5253 214.039 17.5253C213.671 17.5253 213.671 17.8538 213.671 18.1438V23.4783H208.337C208.066 23.4783 207.719 23.4783 207.719 23.8262C207.719 24.1934 208.047 24.1934 208.337 24.1934H213.671V29.5279C213.671 29.7985 213.671 30.1464 214.019 30.1464C214.387 30.1464 214.387 29.8178 214.387 29.5279V24.1934Z" fill="white"/>
<path d="M236.397 9.12711C236.281 8.04474 235.604 6.74978 233.865 6.74978C231.14 6.74978 228.357 9.51366 228.357 12.5868C228.357 13.7658 229.168 15.9885 231.797 15.9885C236.358 15.9885 238.31 9.33971 238.31 6.69179C238.31 3.90858 236.745 1.76318 234.271 1.76318C231.468 1.76318 230.637 4.21782 230.637 4.73968C230.637 4.91363 230.753 5.33884 231.294 5.33884C231.971 5.33884 232.261 4.72035 232.261 4.39178C232.261 3.79261 231.662 3.79261 231.41 3.79261C232.203 2.36235 233.672 2.22705 234.194 2.22705C235.894 2.22705 236.977 3.58 236.977 5.74473C236.977 6.98171 236.61 8.41197 236.416 9.12711H236.397ZM231.855 15.4667C230.038 15.4667 229.729 14.0364 229.729 13.2246C229.729 12.3742 230.27 10.3834 230.56 9.66829C230.811 9.08845 231.913 7.13633 233.923 7.13633C235.682 7.13633 236.088 8.66324 236.088 9.70694C236.088 11.1372 234.831 15.4667 231.855 15.4667Z" fill="white"/>
<path d="M242.298 5.9401C242.504 5.74682 243.045 5.32161 243.251 5.14122C244.05 4.40676 244.81 3.69807 244.81 2.52551C244.81 0.992165 243.522 0 241.911 0C240.365 0 239.347 1.17256 239.347 2.31935C239.347 2.95072 239.849 3.04092 240.03 3.04092C240.3 3.04092 240.7 2.84764 240.7 2.358C240.7 1.68797 240.055 1.68797 239.901 1.68797C240.275 0.747346 241.138 0.425214 241.769 0.425214C242.968 0.425214 243.586 1.44315 243.586 2.52551C243.586 3.86558 242.645 4.84486 241.125 6.40397L239.501 8.07905C239.347 8.22079 239.347 8.24656 239.347 8.56869H244.436L244.81 6.26223H244.411C244.372 6.51994 244.269 7.1642 244.114 7.40902C244.037 7.5121 243.058 7.5121 242.852 7.5121H240.558L242.298 5.9401Z" fill="white"/>
<path d="M255.399 2.63294C255.399 2.61361 255.476 2.36235 255.476 2.34302C255.476 2.16907 255.321 2.16907 255.263 2.16907C255.089 2.16907 255.07 2.26571 254.993 2.55563L251.804 15.3507C250.199 15.1574 249.6 14.3456 249.6 13.186C249.6 12.7607 249.6 12.3162 250.509 9.91955C250.76 9.22374 250.857 8.97248 250.857 8.62458C250.857 7.75483 250.238 7.05902 249.33 7.05902C247.552 7.05902 246.836 9.86156 246.836 10.0162C246.836 10.0935 246.914 10.1901 247.049 10.1901C247.223 10.1901 247.242 10.1128 247.32 9.84224C247.783 8.16071 248.557 7.44558 249.272 7.44558C249.446 7.44558 249.774 7.46491 249.774 8.0834C249.774 8.16071 249.774 8.58592 249.446 9.43635C248.402 12.1809 248.402 12.6061 248.402 13.0507C248.402 14.9061 249.948 15.6213 251.688 15.7566C251.533 16.3557 251.398 16.9742 251.243 17.5734C250.934 18.7331 250.799 19.2742 250.799 19.3516C250.799 19.5255 250.953 19.5255 251.011 19.5255C251.05 19.5255 251.127 19.5255 251.166 19.4482C251.243 19.3709 252.036 16.1238 252.113 15.7759C252.828 15.7759 254.355 15.7759 256.094 13.9784C256.732 13.2826 257.312 12.3935 257.641 11.5624C257.834 11.0599 258.298 9.33971 258.298 8.35399C258.298 7.19432 257.718 7.05902 257.525 7.05902C257.061 7.05902 256.636 7.52289 256.636 7.90945C256.636 8.14138 256.771 8.27668 256.848 8.35399C257.022 8.52794 257.544 9.04979 257.544 10.0548C257.544 10.7506 257.158 12.1809 255.921 13.5725C254.297 15.3893 252.809 15.3893 252.229 15.3893L255.399 2.63294Z" fill="white"/>
<path d="M265.593 20.2793C265.593 20.2213 265.593 20.1826 265.265 19.854C263.332 17.9019 262.249 14.7128 262.249 10.7699C262.249 7.02033 263.158 3.79257 265.4 1.51188C265.593 1.33793 265.593 1.29928 265.593 1.24129C265.593 1.12533 265.496 1.08667 265.419 1.08667C265.168 1.08667 263.583 2.47828 262.636 4.37241C261.65 6.32452 261.206 8.39261 261.206 10.7699C261.206 12.4901 261.476 14.7901 262.481 16.8582C263.622 19.1776 265.207 20.4339 265.419 20.4339C265.496 20.4339 265.593 20.3952 265.593 20.2793Z" fill="white"/>
<path d="M270.691 11.2339C270.691 10.5961 270.827 7.52295 273.088 7.52295C272.818 7.73556 272.682 8.06413 272.682 8.41204C272.682 9.20448 273.32 9.53305 273.803 9.53305C274.286 9.53305 274.924 9.20448 274.924 8.41204C274.924 7.42631 273.919 6.88513 272.991 6.88513C271.465 6.88513 270.807 8.21876 270.537 9.03053H270.518V6.88513L267.348 7.03976V7.87085C268.546 7.87085 268.681 7.87085 268.681 8.62464V14.7516H267.348V15.5827C267.792 15.544 269.242 15.544 269.783 15.544C270.344 15.544 271.909 15.544 272.373 15.5827V14.7516H270.691V11.2339Z" fill="white"/>
<path d="M281.003 10.7699C281.003 9.30102 280.809 6.90436 279.727 4.66233C278.587 2.34298 277.002 1.08667 276.789 1.08667C276.712 1.08667 276.615 1.12533 276.615 1.24129C276.615 1.29928 276.615 1.33793 276.944 1.66651C278.877 3.61862 279.959 6.80772 279.959 10.7506C279.959 14.5002 279.051 17.728 276.809 20.0087C276.615 20.1826 276.615 20.2213 276.615 20.2793C276.615 20.3952 276.712 20.4339 276.789 20.4339C277.041 20.4339 278.625 19.0423 279.572 17.1481C280.558 15.1767 281.003 13.0893 281.003 10.7699Z" fill="white"/>
<path d="M282.912 23.4396H227.622V24.2126H282.912V23.4396Z" fill="white"/>
<path d="M249.869 35.4606C249.753 34.3782 249.077 33.0833 247.337 33.0833C244.612 33.0833 241.829 35.8472 241.829 38.9203C241.829 40.0993 242.641 42.322 245.269 42.322C249.831 42.322 251.783 35.6732 251.783 33.0253C251.783 30.2421 250.217 28.0967 247.743 28.0967C244.941 28.0967 244.11 30.5513 244.11 31.0732C244.11 31.2471 244.226 31.6723 244.767 31.6723C245.443 31.6723 245.733 31.0538 245.733 30.7253C245.733 30.1261 245.134 30.1261 244.883 30.1261C245.675 28.6958 247.144 28.5605 247.666 28.5605C249.367 28.5605 250.449 29.9135 250.449 32.0782C250.449 33.3152 250.082 34.7455 249.889 35.4606H249.869ZM245.327 41.8001C243.51 41.8001 243.201 40.3699 243.201 39.5581C243.201 38.7077 243.742 36.7169 244.032 36.0018C244.284 35.4219 245.385 33.4698 247.395 33.4698C249.154 33.4698 249.56 34.9967 249.56 36.0404C249.56 37.4707 248.304 41.8001 245.327 41.8001Z" fill="white"/>
<path d="M254.591 40.3505C255.422 39.4034 256.099 38.8043 257.065 37.9345C258.225 36.9295 258.727 36.4463 258.998 36.1563C260.351 34.8227 261.027 33.7017 261.027 33.5471C261.027 33.3925 260.873 33.3925 260.834 33.3925C260.699 33.3925 260.66 33.4698 260.563 33.6051C260.08 34.4362 259.616 34.842 259.114 34.842C258.708 34.842 258.495 34.6681 258.128 34.2042C257.722 33.721 257.393 33.3925 256.833 33.3925C255.422 33.3925 254.572 35.1513 254.572 35.5572C254.572 35.6152 254.591 35.7311 254.765 35.7311C254.92 35.7311 254.939 35.6538 254.997 35.5185C255.325 34.7454 256.253 34.6101 256.62 34.6101C257.026 34.6101 257.413 34.7454 257.819 34.9194C258.553 35.2286 258.862 35.2286 259.056 35.2286C259.191 35.2286 259.268 35.2286 259.365 35.2093C258.727 35.9631 257.683 36.8908 256.814 37.6832L254.862 39.4807C253.683 40.6791 252.967 41.8194 252.967 41.9547C252.967 42.0707 253.064 42.1093 253.18 42.1093C253.296 42.1093 253.315 42.09 253.451 41.8581C253.76 41.3749 254.378 40.6597 255.093 40.6597C255.499 40.6597 255.693 40.795 256.079 41.2782C256.446 41.7034 256.775 42.1093 257.393 42.1093C259.288 42.1093 260.37 39.6547 260.37 39.2101C260.37 39.1328 260.351 39.0169 260.157 39.0169C260.003 39.0169 259.983 39.0942 259.925 39.2875C259.5 40.4278 258.36 40.8917 257.606 40.8917C257.2 40.8917 256.814 40.7564 256.408 40.5824C255.635 40.2732 255.422 40.2732 255.171 40.2732C254.978 40.2732 254.765 40.2732 254.591 40.3505Z" fill="white"/>
<path d="M265.423 33.7039C265.629 33.5106 266.17 33.0854 266.376 32.905C267.175 32.1706 267.935 31.4619 267.935 30.2893C267.935 28.756 266.647 27.7638 265.036 27.7638C263.49 27.7638 262.472 28.9364 262.472 30.0831C262.472 30.7145 262.974 30.8047 263.155 30.8047C263.425 30.8047 263.825 30.6114 263.825 30.1218C263.825 29.4518 263.181 29.4518 263.026 29.4518C263.4 28.5111 264.263 28.189 264.894 28.189C266.093 28.189 266.711 29.2069 266.711 30.2893C266.711 31.6294 265.77 32.6087 264.25 34.1678L262.626 35.8428C262.472 35.9846 262.472 36.0104 262.472 36.3325H267.562L267.935 34.026H267.536C267.497 34.2837 267.394 34.928 267.239 35.1728C267.162 35.2759 266.183 35.2759 265.977 35.2759H263.683L265.423 33.7039Z" fill="white"/>
<path d="M295.031 23.8259C295.031 16.23 293.291 8.5762 288.382 2.79717C287.995 2.35263 287.261 1.56018 286.468 0.864381C286.236 0.632446 286.198 0.632446 285.927 0.632446C285.695 0.632446 285.521 0.632446 285.521 0.825726C285.521 0.903038 285.599 0.980348 285.637 1.019C286.314 1.71481 287.609 3.00978 288.904 5.09719C292.015 10.0838 293.426 16.3653 293.426 23.8066C293.426 29.0058 292.731 35.7125 289.541 41.4723C288.015 44.2168 286.41 45.821 285.599 46.6328C285.56 46.6908 285.521 46.7488 285.521 46.8067C285.521 47 285.695 47 285.927 47C286.198 47 286.236 47 286.526 46.7101C293.001 40.8151 295.031 31.9629 295.031 23.8259Z" fill="white"/>
<path d="M321.003 21.2337C321.273 21.2337 321.621 21.2337 321.621 20.8858C321.621 20.5186 321.293 20.5186 321.003 20.5186H309.618C309.348 20.5186 309 20.5186 309 20.8665C309 21.2337 309.329 21.2337 309.618 21.2337H321.003ZM321.003 24.8287C321.273 24.8287 321.621 24.8287 321.621 24.4808C321.621 24.1135 321.293 24.1135 321.003 24.1135H309.618C309.348 24.1135 309 24.1135 309 24.4614C309 24.8287 309.329 24.8287 309.618 24.8287H321.003Z" fill="white"/>
<path d="M350.277 23.1865C350.307 23.0984 350.396 22.8928 350.396 22.7753C350.396 22.6285 350.277 22.4816 350.099 22.4816C349.98 22.4816 349.921 22.511 349.832 22.5991C349.772 22.6285 349.772 22.6872 349.505 23.2746C347.752 27.3862 346.475 29.1483 341.723 29.1483H337.386C336.97 29.1483 336.911 29.1483 336.733 29.1189C336.406 29.0896 336.376 29.0308 336.376 28.7959C336.376 28.5903 336.436 28.4141 336.495 28.1498L338.545 20.0441H341.485C343.802 20.0441 343.98 20.5433 343.98 21.4244C343.98 21.7181 343.98 21.9824 343.772 22.8634C343.713 22.9809 343.683 23.0984 343.683 23.1865C343.683 23.3921 343.832 23.4802 344.01 23.4802C344.277 23.4802 344.307 23.2746 344.426 22.8634L346.119 16.0499C346.119 15.9031 346 15.7562 345.822 15.7562C345.554 15.7562 345.525 15.8737 345.406 16.2849C344.812 18.5463 344.218 19.1924 341.574 19.1924H338.752L340.594 11.9677C340.861 10.9398 340.921 10.8517 342.139 10.8517H346.386C350.04 10.8517 350.782 11.8209 350.782 14.0529C350.782 14.0822 350.782 14.9046 350.663 15.8737C350.634 15.9912 350.604 16.1674 350.604 16.2261C350.604 16.4611 350.752 16.5492 350.931 16.5492C351.139 16.5492 351.257 16.4317 351.317 15.9031L351.941 10.7636C351.941 10.6755 352 10.3818 352 10.3231C352 10 351.733 10 351.198 10H336.703C336.139 10 335.842 10 335.842 10.5286C335.842 10.8517 336.05 10.8517 336.554 10.8517C338.396 10.8517 338.396 11.0573 338.396 11.3803C338.396 11.5272 338.366 11.6446 338.277 11.9677L334.267 27.8267C334 28.8546 333.941 29.1483 331.861 29.1483C331.297 29.1483 331 29.1483 331 29.6769C331 30 331.178 30 331.772 30H346.683C347.337 30 347.366 29.9706 347.574 29.5007L350.277 23.1865Z" fill="white"/>
<path d="M367.447 9.7216C367.447 9.69154 367.568 9.30067 367.568 9.2706C367.568 9 367.325 9 367.234 9C366.961 9 366.931 9.15034 366.809 9.60134L361.801 29.5056C359.282 29.2049 358.341 27.9421 358.341 26.1381C358.341 25.4766 358.341 24.7851 359.767 21.0568C360.162 19.9744 360.314 19.5835 360.314 19.0423C360.314 17.6893 359.342 16.6069 357.916 16.6069C355.123 16.6069 354 20.9666 354 21.2071C354 21.3274 354.121 21.4777 354.334 21.4777C354.607 21.4777 354.637 21.3575 354.759 20.9365C355.487 18.3207 356.702 17.2082 357.825 17.2082C358.098 17.2082 358.614 17.2383 358.614 18.2004C358.614 18.3207 358.614 18.9822 358.098 20.3051C356.459 24.5746 356.459 25.2361 356.459 25.9276C356.459 28.814 358.887 29.9265 361.619 30.137C361.376 31.069 361.164 32.0312 360.921 32.9633C360.435 34.7673 360.223 35.6091 360.223 35.7294C360.223 36 360.465 36 360.556 36C360.617 36 360.739 36 360.799 35.8797C360.921 35.7595 362.165 30.7082 362.287 30.167C363.41 30.167 365.808 30.167 368.54 27.3708C369.541 26.2884 370.452 24.9053 370.968 23.6125C371.272 22.8307 372 20.1548 372 18.6214C372 16.8174 371.089 16.6069 370.786 16.6069C370.057 16.6069 369.39 17.3285 369.39 17.9298C369.39 18.2906 369.602 18.5011 369.723 18.6214C369.997 18.892 370.816 19.7038 370.816 21.2673C370.816 22.3497 370.209 24.5746 368.266 26.7394C365.717 29.5657 363.379 29.5657 362.469 29.5657L367.447 9.7216Z" fill="white"/>
<path d="M383 37.7602C383 37.6703 383 37.6104 382.476 37.1009C379.392 34.0739 377.665 29.1289 377.665 23.015C377.665 17.2008 379.115 12.1958 382.692 8.65934C383 8.38961 383 8.32967 383 8.23976C383 8.05994 382.846 8 382.722 8C382.322 8 379.793 10.1578 378.282 13.0949C376.709 16.1219 376 19.3287 376 23.015C376 25.6823 376.432 29.2488 378.035 32.4555C379.855 36.0519 382.383 38 382.722 38C382.846 38 383 37.9401 383 37.7602Z" fill="white"/>
<path d="M391.296 23.5C391.296 22.5467 391.51 17.9533 395.092 17.9533C394.663 18.2711 394.449 18.7622 394.449 19.2822C394.449 20.4667 395.459 20.9578 396.224 20.9578C396.99 20.9578 398 20.4667 398 19.2822C398 17.8089 396.408 17 394.939 17C392.52 17 391.48 18.9933 391.051 20.2067H391.02V17L386 17.2311V18.4733C387.898 18.4733 388.112 18.4733 388.112 19.6V28.7578H386V30C386.704 29.9422 389 29.9422 389.857 29.9422C390.745 29.9422 393.224 29.9422 393.959 30V28.7578H391.296V23.5Z" fill="white"/>
<path d="M407 23.015C407 20.7373 406.692 17.021 404.965 13.5445C403.145 9.94805 400.617 8 400.278 8C400.154 8 400 8.05994 400 8.23976C400 8.32967 400 8.38961 400.524 8.8991C403.608 11.9261 405.335 16.8711 405.335 22.985C405.335 28.7992 403.885 33.8042 400.308 37.3407C400 37.6104 400 37.6703 400 37.7602C400 37.9401 400.154 38 400.278 38C400.678 38 403.207 35.8422 404.718 32.9051C406.291 29.8482 407 26.6114 407 23.015Z" fill="white"/>
</svg>
