<svg width="325" height="53" viewBox="0 0 325 53" fill="none" xmlns="http://www.w3.org/2000/svg">
<path d="M55.0181 26.9002C55.0382 26.84 55.0984 26.6996 55.0984 26.6194C55.0984 26.5191 55.0182 26.4188 54.8978 26.4188C54.8176 26.4188 54.7774 26.4388 54.7173 26.499C54.6772 26.5191 54.6772 26.5592 54.4966 26.9604C53.3132 29.7686 52.4506 30.9721 49.2412 30.9721H46.3126C46.0318 30.9721 45.9917 30.9721 45.8713 30.9521C45.6507 30.932 45.6306 30.8919 45.6306 30.7314C45.6306 30.591 45.6708 30.4707 45.7109 30.2901L47.0949 24.7539H49.0807C50.6453 24.7539 50.7657 25.0949 50.7657 25.6967C50.7657 25.8973 50.7657 26.0778 50.6253 26.6795C50.5852 26.7598 50.5651 26.84 50.5651 26.9002C50.5651 27.0406 50.6654 27.1008 50.7857 27.1008C50.9663 27.1008 50.9863 26.9604 51.0666 26.6795L52.2099 22.0259C52.2099 21.9256 52.1297 21.8253 52.0093 21.8253C51.8288 21.8253 51.8087 21.9056 51.7285 22.1864C51.3273 23.7309 50.9262 24.1722 49.1409 24.1722H47.2353L48.479 19.2377C48.6595 18.5357 48.6996 18.4755 49.522 18.4755H52.3904C54.8577 18.4755 55.3591 19.1374 55.3591 20.6619C55.3591 20.682 55.3591 21.2436 55.2789 21.9056C55.2589 21.9858 55.2388 22.1061 55.2388 22.1463C55.2388 22.3067 55.3391 22.3669 55.4594 22.3669C55.5999 22.3669 55.6801 22.2867 55.7202 21.9256L56.1414 18.4153C56.1414 18.3551 56.1816 18.1546 56.1816 18.1144C56.1816 17.8938 56.001 17.8938 55.64 17.8938H45.8513C45.4702 17.8938 45.2696 17.8938 45.2696 18.2549C45.2696 18.4755 45.41 18.4755 45.751 18.4755C46.9946 18.4755 46.9946 18.6159 46.9946 18.8366C46.9946 18.9369 46.9746 19.0171 46.9144 19.2377L44.2065 30.0695C44.0259 30.7715 43.9858 30.9721 42.5817 30.9721C42.2006 30.9721 42 30.9721 42 31.3332C42 31.5538 42.1204 31.5538 42.5215 31.5538H52.591C53.0323 31.5538 53.0524 31.5338 53.1928 31.2128L55.0181 26.9002Z" fill="white"/>
<path d="M58.2908 32.3695C58.3309 32.1689 58.4646 31.6607 58.5047 31.4601C58.692 30.738 58.692 30.7247 58.9995 30.2834C59.4408 29.6281 60.0693 29.0397 60.9653 29.0397C61.4467 29.0397 61.7275 29.3205 61.7275 29.949C61.7275 30.6845 61.1659 32.209 60.9118 32.8643C60.738 33.3055 60.738 33.3858 60.738 33.5596C60.738 34.3219 61.3665 34.6963 61.9415 34.6963C63.252 34.6963 63.8003 32.8241 63.8003 32.6503C63.8003 32.5166 63.6933 32.4765 63.5997 32.4765C63.4392 32.4765 63.4125 32.5701 63.3723 32.7038C63.0514 33.8003 62.4898 34.3219 61.9816 34.3219C61.7676 34.3219 61.6607 34.1881 61.6607 33.8806C61.6607 33.573 61.7676 33.2788 61.9014 32.9445C62.102 32.4363 62.6903 30.8985 62.6903 30.1496C62.6903 29.1467 61.995 28.6653 61.0322 28.6653C59.949 28.6653 59.2536 29.3205 58.8658 29.8287C58.7722 29.0932 58.1838 28.6653 57.5018 28.6653C57.0204 28.6653 56.6861 28.9729 56.4721 29.3874C56.1512 30.0159 56.0175 30.6845 56.0175 30.7113C56.0175 30.8316 56.1111 30.8851 56.218 30.8851C56.3919 30.8851 56.4053 30.8316 56.4989 30.4839C56.6593 29.8287 56.9 29.0397 57.4617 29.0397C57.8094 29.0397 57.8896 29.374 57.8896 29.6682C57.8896 29.9089 57.8227 30.163 57.7158 30.6043C57.689 30.7113 57.4884 31.5003 57.4349 31.6875L56.9402 33.6934C56.8867 33.8939 56.8064 34.2283 56.8064 34.2817C56.8064 34.5893 57.0605 34.6963 57.2344 34.6963C57.4751 34.6963 57.6756 34.5358 57.7693 34.3753C57.8094 34.2951 57.9164 33.8404 57.9832 33.5596L58.2908 32.3695Z" fill="white"/>
<path d="M69.8838 32.2926C69.5328 32.3929 69.4526 32.6837 69.4526 32.8342C69.4526 33.1551 69.7133 33.2253 69.8537 33.2253C70.1446 33.2253 70.4355 32.9846 70.4355 32.5935C70.4355 32.0519 69.8437 31.8112 69.3322 31.8112C68.6703 31.8112 68.2691 32.3227 68.1588 32.5132C68.0284 32.2625 67.6473 31.8112 66.8951 31.8112C65.7417 31.8112 65.0597 33.0047 65.0597 33.3557C65.0597 33.4058 65.0998 33.4961 65.2402 33.4961C65.3806 33.4961 65.4107 33.4359 65.4408 33.3457C65.6916 32.5333 66.3735 32.1421 66.865 32.1421C67.3564 32.1421 67.5069 32.4631 67.5069 32.794C67.5069 32.9144 67.5069 33.0047 67.4266 33.3156C67.196 34.2483 66.9753 35.161 66.9252 35.2813C66.7747 35.6624 66.4137 36.0034 65.9924 36.0034C65.9323 36.0034 65.6514 36.0034 65.4208 35.853C65.8119 35.7226 65.852 35.3917 65.852 35.3114C65.852 35.0507 65.6514 34.9203 65.4508 34.9203C65.17 34.9203 64.8691 35.1409 64.8691 35.5521C64.8691 36.1238 65.501 36.3344 65.9724 36.3344C66.544 36.3344 66.9553 35.9433 67.1458 35.6324C67.3464 36.0536 67.8278 36.3344 68.3995 36.3344C69.583 36.3344 70.2449 35.1209 70.2449 34.7899C70.2449 34.7698 70.2349 34.6495 70.0543 34.6495C69.9139 34.6495 69.8939 34.7197 69.8638 34.8099C69.5729 35.6825 68.8608 36.0034 68.4396 36.0034C68.0585 36.0034 67.7877 35.7828 67.7877 35.3616C67.7877 35.171 67.8378 34.9504 67.9281 34.5993L68.249 33.2955C68.3493 32.9044 68.3995 32.7238 68.6101 32.4831C68.7505 32.3327 68.9912 32.1421 69.3122 32.1421C69.3623 32.1421 69.6632 32.1421 69.8838 32.2926Z" fill="white"/>
<path d="M74.5734 34.362C74.5734 35.2312 74.3862 35.9935 73.5571 36.8226C73.5036 36.8627 73.4769 36.8894 73.4769 36.9563C73.4769 37.0633 73.5839 37.1435 73.6775 37.1435C73.8379 37.1435 74.9479 36.0871 74.9479 34.5225C74.9479 33.6666 74.6269 33.0782 74.0385 33.0782C73.5705 33.0782 73.303 33.4527 73.303 33.8137C73.303 34.1882 73.5571 34.5626 74.0519 34.5626C74.3728 34.5626 74.5734 34.3754 74.5734 34.362Z" fill="white"/>
<path d="M78.6941 32.3695C78.7342 32.1689 78.8679 31.6607 78.9081 31.4601C79.0953 30.738 79.0953 30.7247 79.4028 30.2834C79.8441 29.6281 80.4727 29.0397 81.3686 29.0397C81.85 29.0397 82.1308 29.3205 82.1308 29.949C82.1308 30.6845 81.5692 32.209 81.3151 32.8643C81.1413 33.3055 81.1413 33.3858 81.1413 33.5596C81.1413 34.3219 81.7698 34.6963 82.3448 34.6963C83.6553 34.6963 84.2036 32.8241 84.2036 32.6503C84.2036 32.5166 84.0966 32.4765 84.003 32.4765C83.8425 32.4765 83.8158 32.5701 83.7757 32.7038C83.4547 33.8003 82.8931 34.3219 82.3849 34.3219C82.171 34.3219 82.064 34.1881 82.064 33.8806C82.064 33.573 82.171 33.2788 82.3047 32.9445C82.5053 32.4363 83.0937 30.8985 83.0937 30.1496C83.0937 29.1467 82.3983 28.6653 81.4355 28.6653C80.3523 28.6653 79.6569 29.3205 79.2691 29.8287C79.1755 29.0932 78.5871 28.6653 77.9051 28.6653C77.4237 28.6653 77.0894 28.9729 76.8754 29.3874C76.5545 30.0159 76.4208 30.6845 76.4208 30.7113C76.4208 30.8316 76.5144 30.8851 76.6214 30.8851C76.7952 30.8851 76.8086 30.8316 76.9022 30.4839C77.0627 29.8287 77.3034 29.0397 77.865 29.0397C78.2127 29.0397 78.2929 29.374 78.2929 29.6682C78.2929 29.9089 78.2261 30.163 78.1191 30.6043C78.0923 30.7113 77.8918 31.5003 77.8383 31.6875L77.3435 33.6934C77.29 33.8939 77.2098 34.2283 77.2098 34.2817C77.2098 34.5893 77.4638 34.6963 77.6377 34.6963C77.8784 34.6963 78.079 34.5358 78.1726 34.3753C78.2127 34.2951 78.3197 33.8404 78.3865 33.5596L78.6941 32.3695Z" fill="white"/>
<path d="M90.6182 32.3828C90.6382 32.3126 90.6483 32.2725 90.6483 32.2424C90.6483 32.1221 90.558 31.9115 90.2872 31.9115C90.1167 31.9115 89.9462 32.0218 89.876 32.1622C89.8359 32.2324 89.7657 32.5433 89.7155 32.7339L89.5049 33.5663L89.194 34.82C89.1238 35.1008 89.0837 35.2613 88.6825 35.6424C88.5722 35.7427 88.2512 36.0034 87.82 36.0034C87.0778 36.0034 87.0778 35.3515 87.0778 35.171C87.0778 34.7297 87.1981 34.2784 87.6394 33.1752C87.7397 32.9345 87.7698 32.8642 87.7698 32.6837C87.7698 32.1221 87.2683 31.8112 86.7669 31.8112C85.7439 31.8112 85.2524 33.135 85.2524 33.3557C85.2524 33.4058 85.2926 33.4961 85.433 33.4961C85.5734 33.4961 85.6035 33.4359 85.6336 33.3457C85.9144 32.3728 86.4459 32.1421 86.7268 32.1421C86.9273 32.1421 86.9976 32.2725 86.9976 32.5032C86.9976 32.7138 86.8672 33.0548 86.7568 33.3256C86.4058 34.2082 86.2855 34.6695 86.2855 35.0306C86.2855 35.9834 86.9976 36.3344 87.7798 36.3344C87.9203 36.3344 88.3916 36.3344 88.9232 35.8731C88.7928 36.4247 88.7026 36.8158 88.2211 37.3374C88.0406 37.5379 87.5893 37.9491 86.9875 37.9491C86.8973 37.9491 86.466 37.9391 86.2353 37.6784C86.6766 37.5981 86.7368 37.207 86.7368 37.1167C86.7368 36.8459 86.5161 36.7356 86.3256 36.7356C86.0749 36.7356 85.7439 36.9362 85.7439 37.3975C85.7439 37.8789 86.2153 38.2801 86.9976 38.2801C88.0607 38.2801 89.3444 37.4978 89.6553 36.2442L90.6182 32.3828Z" fill="white"/>
<path d="M94.6866 34.362C94.6866 35.2312 94.4994 35.9935 93.6703 36.8226C93.6168 36.8627 93.59 36.8894 93.59 36.9563C93.59 37.0633 93.697 37.1435 93.7906 37.1435C93.9511 37.1435 95.061 36.0871 95.061 34.5225C95.061 33.6666 94.7401 33.0782 94.1517 33.0782C93.6837 33.0782 93.4162 33.4527 93.4162 33.8137C93.4162 34.1882 93.6703 34.5626 94.1651 34.5626C94.486 34.5626 94.6866 34.3754 94.6866 34.362Z" fill="white"/>
<path d="M98.8071 32.3695C98.8473 32.1689 98.981 31.6607 99.0211 31.4601C99.2083 30.738 99.2083 30.7247 99.5159 30.2834C99.9572 29.6281 100.586 29.0397 101.482 29.0397C101.963 29.0397 102.244 29.3205 102.244 29.949C102.244 30.6845 101.682 32.209 101.428 32.8643C101.254 33.3055 101.254 33.3858 101.254 33.5596C101.254 34.3219 101.883 34.6963 102.458 34.6963C103.768 34.6963 104.317 32.8241 104.317 32.6503C104.317 32.5166 104.21 32.4765 104.116 32.4765C103.956 32.4765 103.929 32.5701 103.889 32.7038C103.568 33.8003 103.006 34.3219 102.498 34.3219C102.284 34.3219 102.177 34.1881 102.177 33.8806C102.177 33.573 102.284 33.2788 102.418 32.9445C102.618 32.4363 103.207 30.8985 103.207 30.1496C103.207 29.1467 102.511 28.6653 101.549 28.6653C100.465 28.6653 99.77 29.3205 99.3822 29.8287C99.2886 29.0932 98.7002 28.6653 98.0182 28.6653C97.5368 28.6653 97.2024 28.9729 96.9885 29.3874C96.6675 30.0159 96.5338 30.6845 96.5338 30.7113C96.5338 30.8316 96.6274 30.8851 96.7344 30.8851C96.9082 30.8851 96.9216 30.8316 97.0152 30.4839C97.1757 29.8287 97.4164 29.0397 97.978 29.0397C98.3257 29.0397 98.406 29.374 98.406 29.6682C98.406 29.9089 98.3391 30.163 98.2321 30.6043C98.2054 30.7113 98.0048 31.5003 97.9513 31.6875L97.4565 33.6934C97.403 33.8939 97.3228 34.2283 97.3228 34.2817C97.3228 34.5893 97.5769 34.6963 97.7507 34.6963C97.9914 34.6963 98.192 34.5358 98.2856 34.3753C98.3257 34.2951 98.4327 33.8404 98.4996 33.5596L98.8071 32.3695Z" fill="white"/>
<path d="M106.649 35.3315C106.96 35.0306 107.311 34.7397 107.843 34.3386C108.525 33.817 108.926 33.5061 109.357 33.105C109.929 32.5834 110.31 32.0519 110.31 31.9516C110.31 31.8112 110.17 31.8112 110.129 31.8112C110.029 31.8112 109.999 31.8312 109.929 31.9415C109.748 32.2023 109.477 32.5032 109.157 32.5032C108.916 32.5032 108.705 32.3327 108.575 32.2224C108.314 32.0017 108.083 31.8112 107.712 31.8112C106.87 31.8112 106.308 32.6937 106.308 32.9946C106.308 33.105 106.388 33.1451 106.489 33.1451C106.619 33.1451 106.649 33.0849 106.679 33.0047C106.82 32.6536 107.381 32.6235 107.592 32.6235C107.853 32.6235 108.114 32.6737 108.314 32.7238C108.826 32.8241 108.936 32.8241 109.157 32.8342C108.926 33.0548 108.685 33.2754 108.033 33.7669C107.221 34.3887 106.92 34.6194 106.499 35.0105C105.987 35.4719 105.506 36.0636 105.506 36.194C105.506 36.3344 105.656 36.3344 105.696 36.3344C105.797 36.3344 105.817 36.3144 105.877 36.2341C106.278 35.7026 106.669 35.6424 106.83 35.6424C107.07 35.6424 107.241 35.7728 107.421 35.9232C107.722 36.1539 107.933 36.3344 108.294 36.3344C109.407 36.3344 110.119 35.1108 110.119 34.7498C110.119 34.6595 110.029 34.6094 109.929 34.6094C109.788 34.6094 109.768 34.6695 109.738 34.7698C109.538 35.3214 108.876 35.522 108.404 35.522C108.164 35.522 107.923 35.4719 107.662 35.4217C107.361 35.3616 107.121 35.3114 106.88 35.3114C106.83 35.3114 106.739 35.3114 106.649 35.3315Z" fill="white"/>
<path d="M131.91 25.0547C132.19 25.0547 132.551 25.0547 132.551 24.6936C132.551 24.3125 132.21 24.3125 131.91 24.3125H120.095C119.814 24.3125 119.453 24.3125 119.453 24.6736C119.453 25.0547 119.794 25.0547 120.095 25.0547H131.91ZM131.91 28.7856C132.19 28.7856 132.551 28.7856 132.551 28.4246C132.551 28.0434 132.21 28.0434 131.91 28.0434H120.095C119.814 28.0434 119.453 28.0434 119.453 28.4045C119.453 28.7856 119.794 28.7856 120.095 28.7856H131.91Z" fill="white"/>
<path d="M150.737 4.56452C150.757 4.48429 150.797 4.36393 150.797 4.26364C150.797 4.06305 150.597 4.06305 150.557 4.06305C150.537 4.06305 149.554 4.14329 149.453 4.16334C149.112 4.1834 148.812 4.22352 148.451 4.24358C147.949 4.2837 147.809 4.30376 147.809 4.66481C147.809 4.8654 147.969 4.8654 148.25 4.8654C149.233 4.8654 149.253 5.04593 149.253 5.24652C149.253 5.36687 149.213 5.52734 149.193 5.58752L146.284 17.2016C146.204 17.5024 146.204 17.5426 146.204 17.6629C146.204 18.1042 146.545 18.1844 146.746 18.1844C147.087 18.1844 147.347 17.9237 147.448 17.703L148.35 14.0724C148.451 13.6311 148.571 13.2099 148.671 12.7686C148.892 11.9261 148.892 11.906 149.273 11.3243C149.654 10.7426 150.557 9.5391 152.101 9.5391C152.904 9.5391 153.184 10.1409 153.184 10.9432C153.184 12.0665 152.402 14.2529 151.961 15.4564C151.78 15.9379 151.68 16.1986 151.68 16.5597C151.68 17.4623 152.302 18.1844 153.265 18.1844C155.13 18.1844 155.832 15.2358 155.832 15.1154C155.832 15.0151 155.752 14.9349 155.632 14.9349C155.451 14.9349 155.431 14.9951 155.331 15.3361C154.869 16.9408 154.127 17.7833 153.325 17.7833C153.124 17.7833 152.803 17.7632 152.803 17.1213C152.803 16.5998 153.044 15.9579 153.124 15.7373C153.485 14.7744 154.388 12.4075 154.388 11.2441C154.388 10.0406 153.686 9.13792 152.161 9.13792C151.018 9.13792 150.015 9.67951 149.193 10.7226L150.737 4.56452Z" fill="white"/>
<path d="M160.178 7.97668C160.392 7.7761 160.953 7.3348 161.167 7.14759C161.997 6.38536 162.785 5.64987 162.785 4.43297C162.785 2.84164 161.448 1.81195 159.777 1.81195C158.172 1.81195 157.116 3.02885 157.116 4.21901C157.116 4.87426 157.637 4.96787 157.824 4.96787C158.105 4.96787 158.52 4.76728 158.52 4.25912C158.52 3.56375 157.851 3.56375 157.691 3.56375C158.078 2.58756 158.974 2.25324 159.63 2.25324C160.873 2.25324 161.515 3.30967 161.515 4.43297C161.515 5.82371 160.539 6.84002 158.961 8.4581L157.276 10.1965C157.116 10.3436 157.116 10.3704 157.116 10.7047H162.398L162.785 8.311H162.371C162.331 8.57845 162.224 9.24708 162.063 9.50115C161.983 9.60813 160.967 9.60813 160.753 9.60813H158.373L160.178 7.97668Z" fill="white"/>
<path d="M168.224 26.1379H141.224V26.9403H168.224V26.1379Z" fill="white"/>
<path d="M147.201 38.0719C148.204 37.5303 149.668 36.6076 149.668 34.9226C149.668 33.1775 147.983 31.974 146.138 31.974C144.152 31.974 142.588 33.4383 142.588 35.2636C142.588 35.9456 142.788 36.6276 143.35 37.3096C143.571 37.5704 143.591 37.5905 144.995 38.5733C143.049 39.476 142.046 40.8199 142.046 42.2842C142.046 44.4104 144.072 45.7343 146.118 45.7343C148.345 45.7343 150.21 44.0895 150.21 41.9833C150.21 39.9373 148.766 39.0347 147.201 38.0719ZM144.473 36.2666C144.212 36.0861 143.41 35.5645 143.41 34.5816C143.41 33.2778 144.774 32.4554 146.118 32.4554C147.562 32.4554 148.846 33.4985 148.846 34.9427C148.846 36.1663 147.963 37.1492 146.8 37.791L144.473 36.2666ZM145.416 38.8542L147.843 40.4388C148.365 40.7798 149.287 41.4016 149.287 42.6252C149.287 44.1497 147.743 45.1927 146.138 45.1927C144.433 45.1927 142.969 43.9491 142.969 42.2842C142.969 40.7196 144.112 39.4559 145.416 38.8542Z" fill="white"/>
<path d="M155.176 39.4359C155.216 39.3155 155.718 38.3126 156.46 37.6707C156.981 37.1893 157.663 36.8683 158.446 36.8683C159.248 36.8683 159.529 37.4701 159.529 38.2725C159.529 38.3928 159.529 38.794 159.288 39.7367L158.787 41.8028C158.626 42.4046 158.245 43.8889 158.205 44.1096C158.125 44.4104 158.004 44.932 158.004 45.0122C158.004 45.293 158.225 45.5137 158.526 45.5137C159.128 45.5137 159.228 45.0523 159.408 44.3302L160.612 39.5362C160.652 39.3757 161.695 36.8683 163.902 36.8683C164.704 36.8683 164.985 37.4701 164.985 38.2725C164.985 39.3957 164.203 41.5822 163.761 42.7857C163.581 43.2671 163.48 43.5279 163.48 43.8889C163.48 44.7916 164.102 45.5137 165.065 45.5137C166.931 45.5137 167.633 42.565 167.633 42.4447C167.633 42.3444 167.552 42.2642 167.432 42.2642C167.251 42.2642 167.231 42.3243 167.131 42.6653C166.67 44.27 165.928 45.1125 165.125 45.1125C164.925 45.1125 164.604 45.0924 164.604 44.4506C164.604 43.929 164.844 43.2871 164.925 43.0665C165.286 42.1037 166.188 39.7367 166.188 38.5733C166.188 37.3698 165.486 36.4672 163.962 36.4672C162.618 36.4672 161.535 37.2294 160.732 38.4129C160.672 37.3297 160.01 36.4672 158.506 36.4672C156.721 36.4672 155.778 37.7309 155.417 38.2323C155.357 37.089 154.534 36.4672 153.652 36.4672C153.07 36.4672 152.609 36.748 152.227 37.5102C151.866 38.2323 151.586 39.4559 151.586 39.5362C151.586 39.6164 151.666 39.7167 151.806 39.7167C151.967 39.7167 151.987 39.6966 152.107 39.2353C152.408 38.0518 152.789 36.8683 153.591 36.8683C154.053 36.8683 154.213 37.1893 154.213 37.791C154.213 38.2323 154.013 39.0146 153.872 39.6365L153.311 41.8028C153.23 42.1839 153.01 43.0866 152.909 43.4476C152.769 43.9691 152.548 44.9119 152.548 45.0122C152.548 45.293 152.769 45.5137 153.07 45.5137C153.311 45.5137 153.591 45.3933 153.752 45.0924C153.792 44.9921 153.973 44.2901 154.073 43.8889L154.514 42.0836L155.176 39.4359Z" fill="white"/>
<path d="M187.614 50.3888C187.614 50.3086 187.574 50.2685 187.534 50.2083C186.792 49.4661 185.448 48.1222 184.104 45.9558C180.874 40.7807 179.41 34.2616 179.41 26.5389C179.41 21.1431 180.132 14.1827 183.442 8.2052C185.026 5.35685 186.671 3.71203 187.554 2.82944C187.614 2.76927 187.614 2.72915 187.614 2.66897C187.614 2.46838 187.474 2.46838 187.193 2.46838C186.912 2.46838 186.872 2.46838 186.571 2.76927C179.851 8.8872 177.745 18.0741 177.745 26.5189C177.745 34.402 179.55 42.3452 184.645 48.3428C185.046 48.8042 185.809 49.6266 186.631 50.3487C186.872 50.5894 186.912 50.5894 187.193 50.5894C187.474 50.5894 187.614 50.5894 187.614 50.3888Z" fill="white"/>
<path d="M195.296 12.1066C195.336 11.9862 195.837 10.9833 196.58 10.3414C197.101 9.86 197.783 9.53905 198.565 9.53905C199.368 9.53905 199.649 10.1408 199.649 10.9432C199.649 12.0865 198.826 14.3732 198.425 15.4564C198.244 15.9378 198.144 16.1986 198.144 16.5596C198.144 17.4623 198.766 18.1844 199.729 18.1844C201.594 18.1844 202.296 15.2357 202.296 15.1154C202.296 15.0151 202.216 14.9349 202.096 14.9349C201.915 14.9349 201.895 14.995 201.795 15.336C201.334 16.9809 200.571 17.7832 199.789 17.7832C199.588 17.7832 199.267 17.7632 199.267 17.1213C199.267 16.6198 199.488 16.018 199.608 15.7372C200.01 14.634 200.852 12.3874 200.852 11.2441C200.852 10.0405 200.15 9.13788 198.626 9.13788C196.84 9.13788 195.898 10.4016 195.537 10.9031C195.476 9.7597 194.654 9.13788 193.771 9.13788C193.129 9.13788 192.688 9.519 192.347 10.201C191.986 10.9231 191.705 12.1266 191.705 12.2069C191.705 12.2871 191.786 12.3874 191.926 12.3874C192.086 12.3874 192.106 12.3673 192.227 11.906C192.548 10.6824 192.909 9.53905 193.711 9.53905C194.173 9.53905 194.333 9.85999 194.333 10.4618C194.333 10.9031 194.132 11.6853 193.992 12.3072L193.43 14.4735C193.35 14.8546 193.129 15.7573 193.029 16.1183C192.889 16.6399 192.668 17.5826 192.668 17.6829C192.668 17.9637 192.889 18.1844 193.19 18.1844C193.43 18.1844 193.711 18.064 193.872 17.7632C193.912 17.6629 194.092 16.9608 194.193 16.5596L194.634 14.7543L195.296 12.1066Z" fill="white"/>
<path d="M206.659 7.97668C206.873 7.7761 207.434 7.3348 207.648 7.14759C208.477 6.38536 209.266 5.64987 209.266 4.43297C209.266 2.84164 207.929 1.81195 206.258 1.81195C204.653 1.81195 203.596 3.02885 203.596 4.21901C203.596 4.87426 204.118 4.96787 204.305 4.96787C204.586 4.96787 205.001 4.76728 205.001 4.25912C205.001 3.56375 204.332 3.56375 204.172 3.56375C204.559 2.58756 205.455 2.25324 206.111 2.25324C207.354 2.25324 207.996 3.30967 207.996 4.43297C207.996 5.82371 207.02 6.84002 205.442 8.4581L203.757 10.1965C203.596 10.3436 203.596 10.3704 203.596 10.7047H208.879L209.266 8.311H208.852C208.812 8.57845 208.705 9.24708 208.544 9.50115C208.464 9.60813 207.448 9.60813 207.234 9.60813H204.854L206.659 7.97668Z" fill="white"/>
<path d="M209.587 17.6071C208.999 17.7542 208.972 18.2757 208.972 18.3292C208.972 18.6234 209.2 18.824 209.494 18.824C209.788 18.824 210.243 18.5966 210.243 18.0216C210.243 17.2594 209.4 17.0454 208.905 17.0454C208.277 17.0454 207.769 17.4867 207.461 18.0082C207.167 17.2995 206.472 17.0454 205.923 17.0454C204.466 17.0454 203.65 18.717 203.65 19.0914C203.65 19.2118 203.744 19.2652 203.851 19.2652C204.011 19.2652 204.038 19.1984 204.078 19.0379C204.385 18.0617 205.188 17.4198 205.883 17.4198C206.405 17.4198 206.659 17.7943 206.659 18.2757C206.659 18.5431 206.498 19.1583 206.391 19.5862C206.298 19.974 206.004 21.1641 205.937 21.4182C205.749 22.1403 205.268 22.702 204.666 22.702C204.613 22.702 204.265 22.702 203.984 22.5148C204.599 22.3677 204.599 21.806 204.599 21.7927C204.599 21.4851 204.359 21.2979 204.065 21.2979C203.703 21.2979 203.316 21.6054 203.316 22.1136C203.316 22.7287 203.971 23.0764 204.653 23.0764C205.362 23.0764 205.856 22.5415 206.097 22.1136C206.391 22.7689 207.006 23.0764 207.648 23.0764C209.106 23.0764 209.908 21.4049 209.908 21.0304C209.908 20.8967 209.801 20.8566 209.708 20.8566C209.547 20.8566 209.52 20.9502 209.48 21.0839C209.213 21.9799 208.451 22.702 207.675 22.702C207.234 22.702 206.913 22.4078 206.913 21.8461C206.913 21.5787 206.993 21.2711 207.18 20.5223C207.274 20.1211 207.568 18.9443 207.635 18.6902C207.822 17.9949 208.29 17.4198 208.892 17.4198C208.959 17.4198 209.307 17.4198 209.587 17.6071Z" fill="white"/>
<path d="M212.541 26.1379H190.344V26.9403H212.541V26.1379Z" fill="white"/>
<path d="M197.706 33.1576C197.886 32.3953 197.946 32.1947 199.712 32.1947C200.253 32.1947 200.394 32.1947 200.394 31.8136C200.394 31.613 200.173 31.613 200.093 31.613C199.692 31.613 199.23 31.6532 198.829 31.6532H196.141C195.76 31.6532 195.319 31.613 194.938 31.613C194.777 31.613 194.557 31.613 194.557 31.9942C194.557 32.1947 194.737 32.1947 195.038 32.1947C196.262 32.1947 196.262 32.3552 196.262 32.5759C196.262 32.616 196.262 32.7363 196.181 33.0372L193.473 43.8288C193.293 44.5309 193.253 44.7315 191.849 44.7315C191.467 44.7315 191.267 44.7315 191.267 45.0925C191.267 45.3132 191.387 45.3132 191.788 45.3132H200.775C201.216 45.3132 201.236 45.2931 201.377 44.9321L202.921 40.6595C202.961 40.5593 203.001 40.4389 203.001 40.3787C203.001 40.2584 202.901 40.1781 202.801 40.1781C202.781 40.1781 202.68 40.1781 202.64 40.2584C202.6 40.2784 202.6 40.3185 202.44 40.6997C201.798 42.4648 200.895 44.7315 197.505 44.7315H195.58C195.299 44.7315 195.259 44.7315 195.138 44.7114C194.918 44.6914 194.898 44.6512 194.898 44.4908C194.898 44.3504 194.938 44.23 194.978 44.0495L197.706 33.1576Z" fill="white"/>
<path d="M207.478 36.7905C207.692 36.5899 208.254 36.1486 208.468 35.9614C209.297 35.1991 210.086 34.4636 210.086 33.2467C210.086 31.6554 208.749 30.6257 207.077 30.6257C205.473 30.6257 204.416 31.8426 204.416 33.0328C204.416 33.688 204.938 33.7816 205.125 33.7816C205.406 33.7816 205.82 33.5811 205.82 33.0729C205.82 32.3775 205.152 32.3775 204.991 32.3775C205.379 31.4013 206.275 31.067 206.93 31.067C208.174 31.067 208.816 32.1235 208.816 33.2467C208.816 34.6375 207.839 35.6538 206.261 37.2719L204.577 39.0103C204.416 39.1574 204.416 39.1841 204.416 39.5185H209.698L210.086 37.1248H209.671C209.631 37.3922 209.524 38.0609 209.364 38.3149C209.284 38.4219 208.267 38.4219 208.053 38.4219H205.673L207.478 36.7905Z" fill="white"/>
<path d="M210.407 44.9364C209.819 45.0835 209.792 45.605 209.792 45.6585C209.792 45.9527 210.019 46.1533 210.313 46.1533C210.608 46.1533 211.062 45.926 211.062 45.3509C211.062 44.5887 210.22 44.3748 209.725 44.3748C209.096 44.3748 208.588 44.816 208.281 45.3376C207.987 44.6288 207.291 44.3748 206.743 44.3748C205.285 44.3748 204.47 46.0463 204.47 46.4208C204.47 46.5411 204.563 46.5946 204.67 46.5946C204.831 46.5946 204.857 46.5277 204.897 46.3673C205.205 45.3911 206.007 44.7492 206.703 44.7492C207.224 44.7492 207.478 45.1236 207.478 45.605C207.478 45.8725 207.318 46.4876 207.211 46.9155C207.117 47.3033 206.823 48.4935 206.756 48.7476C206.569 49.4697 206.088 50.0313 205.486 50.0313C205.432 50.0313 205.085 50.0313 204.804 49.8441C205.419 49.697 205.419 49.1354 205.419 49.122C205.419 48.8144 205.178 48.6272 204.884 48.6272C204.523 48.6272 204.135 48.9348 204.135 49.4429C204.135 50.0581 204.79 50.4058 205.472 50.4058C206.181 50.4058 206.676 49.8709 206.917 49.4429C207.211 50.0982 207.826 50.4058 208.468 50.4058C209.926 50.4058 210.728 48.7342 210.728 48.3598C210.728 48.226 210.621 48.1859 210.527 48.1859C210.367 48.1859 210.34 48.2795 210.3 48.4133C210.033 49.3092 209.27 50.0313 208.495 50.0313C208.053 50.0313 207.732 49.7371 207.732 49.1755C207.732 48.908 207.813 48.6005 208 47.8516C208.093 47.4504 208.388 46.2737 208.455 46.0196C208.642 45.3242 209.11 44.7492 209.712 44.7492C209.778 44.7492 210.126 44.7492 210.407 44.9364Z" fill="white"/>
<path d="M227.008 26.9202H232.544C232.825 26.9202 233.186 26.9202 233.186 26.5591C233.186 26.178 232.845 26.178 232.544 26.178H227.008V20.6418C227.008 20.3609 227.008 19.9999 226.647 19.9999C226.266 19.9999 226.266 20.3409 226.266 20.6418V26.178H220.729C220.449 26.178 220.088 26.178 220.088 26.539C220.088 26.9202 220.429 26.9202 220.729 26.9202H226.266V32.4564C226.266 32.7372 226.266 33.0983 226.627 33.0983C227.008 33.0983 227.008 32.7573 227.008 32.4564V26.9202Z" fill="white"/>
<path d="M245.696 10.2947C245.736 10.1743 246.237 9.1714 246.979 8.52952C247.501 8.04811 248.183 7.72716 248.965 7.72716C249.767 7.72716 250.048 8.32893 250.048 9.13128C250.048 10.2746 249.226 12.5613 248.825 13.6445C248.644 14.1259 248.544 14.3867 248.544 14.7477C248.544 15.6504 249.166 16.3725 250.128 16.3725C251.994 16.3725 252.696 13.4239 252.696 13.3035C252.696 13.2032 252.616 13.123 252.495 13.123C252.315 13.123 252.295 13.1832 252.195 13.5242C251.733 15.169 250.971 15.9713 250.189 15.9713C249.988 15.9713 249.667 15.9513 249.667 15.3094C249.667 14.8079 249.888 14.2062 250.008 13.9253C250.409 12.8221 251.252 10.5755 251.252 9.43216C251.252 8.22863 250.55 7.32599 249.025 7.32599C247.24 7.32599 246.297 8.58969 245.936 9.09116C245.876 7.94781 245.054 7.32599 244.171 7.32599C243.529 7.32599 243.088 7.70711 242.747 8.3891C242.386 9.11122 242.105 10.3147 242.105 10.395C242.105 10.4752 242.185 10.5755 242.326 10.5755C242.486 10.5755 242.506 10.5555 242.627 10.0941C242.947 8.87052 243.309 7.72716 244.111 7.72716C244.572 7.72716 244.733 8.0481 244.733 8.64987C244.733 9.09116 244.532 9.87345 244.392 10.4953L243.83 12.6616C243.75 13.0427 243.529 13.9454 243.429 14.3064C243.288 14.828 243.068 15.7707 243.068 15.871C243.068 16.1519 243.288 16.3725 243.589 16.3725C243.83 16.3725 244.111 16.2521 244.271 15.9513C244.311 15.851 244.492 15.1489 244.592 14.7477L245.034 12.9424L245.696 10.2947Z" fill="white"/>
<path d="M257.058 6.16473C257.272 5.96415 257.834 5.52285 258.048 5.33564C258.877 4.5734 259.666 3.83792 259.666 2.62101C259.666 1.02969 258.329 0 256.657 0C255.053 0 253.996 1.2169 253.996 2.40706C253.996 3.06231 254.518 3.15592 254.705 3.15592C254.986 3.15592 255.4 2.95533 255.4 2.44717C255.4 1.7518 254.732 1.7518 254.571 1.7518C254.959 0.775607 255.855 0.441294 256.51 0.441294C257.754 0.441294 258.396 1.49772 258.396 2.62101C258.396 4.01176 257.42 5.02807 255.842 6.64614L254.157 8.38457C253.996 8.53167 253.996 8.55842 253.996 8.89273H259.278L259.666 6.49905H259.252C259.211 6.7665 259.104 7.43512 258.944 7.6892C258.864 7.79618 257.847 7.79618 257.633 7.79618H255.253L257.058 6.16473Z" fill="white"/>
<path d="M260.214 16.0894C260.268 15.9021 260.268 15.8754 260.268 15.7818C260.268 15.4475 260 15.3672 259.84 15.3672C259.773 15.3672 259.465 15.3806 259.292 15.7283C259.265 15.7952 259.145 16.2766 259.078 16.5574L258.275 19.7668C258.262 19.8069 257.687 20.8901 256.711 20.8901C256.055 20.8901 255.828 20.4087 255.828 19.8069C255.828 19.0313 256.283 17.8412 256.59 17.0656C256.724 16.7312 256.764 16.6109 256.764 16.3702C256.764 15.6347 256.176 15.2335 255.561 15.2335C254.237 15.2335 253.689 17.119 253.689 17.2795C253.689 17.3999 253.782 17.4534 253.889 17.4534C254.063 17.4534 254.076 17.3731 254.116 17.2394C254.464 16.076 255.039 15.608 255.521 15.608C255.721 15.608 255.842 15.7417 255.842 16.0492C255.842 16.3301 255.735 16.6376 255.641 16.8783C255.093 18.2958 254.865 18.9778 254.865 19.6063C254.865 20.9168 255.855 21.2645 256.644 21.2645C257.272 21.2645 257.727 20.9837 258.048 20.6761C257.861 21.425 257.727 21.9465 257.219 22.5884C256.778 23.1367 256.243 23.4844 255.641 23.4844C255.414 23.4844 254.905 23.4442 254.638 23.0431C255.347 22.9896 255.4 22.3878 255.4 22.3076C255.4 21.9866 255.16 21.8128 254.879 21.8128C254.584 21.8128 254.116 22.0401 254.116 22.6954C254.116 23.3239 254.691 23.8588 255.641 23.8588C257.005 23.8588 258.543 22.7623 258.944 21.1442L260.214 16.0894Z" fill="white"/>
<path d="M262.446 26.1379H240.744V26.9403H262.446V26.1379Z" fill="white"/>
<path d="M248.105 33.1576C248.286 32.3953 248.346 32.1947 250.111 32.1947C250.653 32.1947 250.793 32.1947 250.793 31.8136C250.793 31.613 250.573 31.613 250.492 31.613C250.091 31.613 249.63 31.6532 249.229 31.6532H246.541C246.16 31.6532 245.718 31.613 245.337 31.613C245.177 31.613 244.956 31.613 244.956 31.9942C244.956 32.1947 245.137 32.1947 245.438 32.1947C246.661 32.1947 246.661 32.3552 246.661 32.5759C246.661 32.616 246.661 32.7363 246.581 33.0372L243.873 43.8288C243.693 44.5309 243.652 44.7315 242.248 44.7315C241.867 44.7315 241.667 44.7315 241.667 45.0925C241.667 45.3132 241.787 45.3132 242.188 45.3132H251.174C251.616 45.3132 251.636 45.2931 251.776 44.9321L253.321 40.6595C253.361 40.5593 253.401 40.4389 253.401 40.3787C253.401 40.2584 253.301 40.1781 253.2 40.1781C253.18 40.1781 253.08 40.1781 253.04 40.2584C253 40.2784 253 40.3185 252.839 40.6997C252.197 42.4648 251.295 44.7315 247.905 44.7315H245.979C245.698 44.7315 245.658 44.7315 245.538 44.7114C245.317 44.6914 245.297 44.6512 245.297 44.4908C245.297 44.3504 245.337 44.23 245.377 44.0495L248.105 33.1576Z" fill="white"/>
<path d="M257.878 36.7905C258.092 36.5899 258.654 36.1486 258.868 35.9614C259.697 35.1991 260.486 34.4636 260.486 33.2467C260.486 31.6554 259.148 30.6257 257.477 30.6257C255.872 30.6257 254.816 31.8426 254.816 33.0328C254.816 33.688 255.337 33.7816 255.524 33.7816C255.805 33.7816 256.22 33.5811 256.22 33.0729C256.22 32.3775 255.551 32.3775 255.391 32.3775C255.779 31.4013 256.675 31.067 257.33 31.067C258.573 31.067 259.215 32.1235 259.215 33.2467C259.215 34.6375 258.239 35.6538 256.661 37.2719L254.976 39.0103C254.816 39.1574 254.816 39.1841 254.816 39.5185H260.098L260.486 37.1248H260.071C260.031 37.3922 259.924 38.0609 259.764 38.3149C259.683 38.4219 258.667 38.4219 258.453 38.4219H256.073L257.878 36.7905Z" fill="white"/>
<path d="M261.034 45.2306C261.087 45.0434 261.087 45.0166 261.087 44.923C261.087 44.5887 260.82 44.5085 260.659 44.5085C260.593 44.5085 260.285 44.5219 260.111 44.8695C260.084 44.9364 259.964 45.4178 259.897 45.6986L259.095 48.908C259.082 48.9482 258.507 50.0313 257.53 50.0313C256.875 50.0313 256.648 49.5499 256.648 48.9482C256.648 48.1726 257.102 46.9824 257.41 46.2068C257.544 45.8725 257.584 45.7521 257.584 45.5114C257.584 44.7759 256.995 44.3748 256.38 44.3748C255.056 44.3748 254.508 46.2603 254.508 46.4208C254.508 46.5411 254.602 46.5946 254.709 46.5946C254.883 46.5946 254.896 46.5144 254.936 46.3806C255.284 45.2172 255.859 44.7492 256.34 44.7492C256.541 44.7492 256.661 44.8829 256.661 45.1905C256.661 45.4713 256.554 45.7789 256.461 46.0196C255.912 47.4371 255.685 48.1191 255.685 48.7476C255.685 50.0581 256.674 50.4058 257.463 50.4058C258.092 50.4058 258.547 50.1249 258.868 49.8174C258.68 50.5662 258.547 51.0878 258.038 51.7296C257.597 52.2779 257.062 52.6256 256.461 52.6256C256.233 52.6256 255.725 52.5855 255.458 52.1843C256.166 52.1308 256.22 51.5291 256.22 51.4488C256.22 51.1279 255.979 50.954 255.698 50.954C255.404 50.954 254.936 51.1814 254.936 51.8366C254.936 52.4651 255.511 53 256.461 53C257.825 53 259.362 51.9035 259.764 50.2854L261.034 45.2306Z" fill="white"/>
<path d="M276.912 26.9202H282.449C282.729 26.9202 283.09 26.9202 283.09 26.5591C283.09 26.178 282.749 26.178 282.449 26.178H276.912V20.6418C276.912 20.3609 276.912 19.9999 276.551 19.9999C276.17 19.9999 276.17 20.3409 276.17 20.6418V26.178H270.634C270.353 26.178 269.992 26.178 269.992 26.539C269.992 26.9202 270.333 26.9202 270.634 26.9202H276.17V32.4564C276.17 32.7372 276.17 33.0983 276.531 33.0983C276.912 33.0983 276.912 32.7573 276.912 32.4564V26.9202Z" fill="white"/>
<path d="M295.6 12.1066C295.64 11.9862 296.142 10.9833 296.884 10.3414C297.405 9.86 298.087 9.53905 298.87 9.53905C299.672 9.53905 299.953 10.1408 299.953 10.9432C299.953 12.0865 299.13 14.3732 298.729 15.4564C298.549 15.9378 298.448 16.1986 298.448 16.5596C298.448 17.4623 299.07 18.1844 300.033 18.1844C301.898 18.1844 302.6 15.2357 302.6 15.1154C302.6 15.0151 302.52 14.9349 302.4 14.9349C302.219 14.9349 302.199 14.995 302.099 15.336C301.638 16.9809 300.875 17.7832 300.093 17.7832C299.893 17.7832 299.572 17.7632 299.572 17.1213C299.572 16.6198 299.792 16.018 299.913 15.7372C300.314 14.634 301.156 12.3874 301.156 11.2441C301.156 10.0405 300.454 9.13788 298.93 9.13788C297.144 9.13788 296.202 10.4016 295.841 10.9031C295.78 9.7597 294.958 9.13788 294.075 9.13788C293.434 9.13788 292.992 9.519 292.651 10.201C292.29 10.9231 292.009 12.1266 292.009 12.2069C292.009 12.2871 292.09 12.3874 292.23 12.3874C292.391 12.3874 292.411 12.3673 292.531 11.906C292.852 10.6824 293.213 9.53905 294.015 9.53905C294.477 9.53905 294.637 9.85999 294.637 10.4618C294.637 10.9031 294.437 11.6853 294.296 12.3072L293.734 14.4735C293.654 14.8546 293.434 15.7573 293.333 16.1183C293.193 16.6399 292.972 17.5826 292.972 17.6829C292.972 17.9637 293.193 18.1844 293.494 18.1844C293.734 18.1844 294.015 18.064 294.176 17.7632C294.216 17.6629 294.396 16.9608 294.497 16.5596L294.938 14.7543L295.6 12.1066Z" fill="white"/>
<path d="M306.963 7.97668C307.177 7.7761 307.739 7.3348 307.952 7.14759C308.782 6.38536 309.571 5.64987 309.571 4.43297C309.571 2.84164 308.233 1.81195 306.562 1.81195C304.957 1.81195 303.901 3.02885 303.901 4.21901C303.901 4.87426 304.422 4.96787 304.609 4.96787C304.89 4.96787 305.305 4.76728 305.305 4.25912C305.305 3.56375 304.636 3.56375 304.476 3.56375C304.863 2.58756 305.759 2.25324 306.415 2.25324C307.658 2.25324 308.3 3.30967 308.3 4.43297C308.3 5.82371 307.324 6.84002 305.746 8.4581L304.061 10.1965C303.901 10.3436 303.901 10.3704 303.901 10.7047H309.183L309.571 8.311H309.156C309.116 8.57845 309.009 9.24708 308.848 9.50115C308.768 9.60813 307.752 9.60813 307.538 9.60813H305.158L306.963 7.97668Z" fill="white"/>
<path d="M305.131 21.7793C305.612 21.2845 305.759 21.1374 306.936 20.1612C307.083 20.0409 308.019 19.2652 308.38 18.9176C309.223 18.0885 309.744 17.353 309.744 17.2059C309.744 17.0855 309.637 17.0454 309.544 17.0454C309.41 17.0454 309.397 17.0722 309.263 17.2727C308.848 17.8879 308.554 17.9949 308.313 17.9949C308.059 17.9949 307.899 17.8879 307.631 17.6204C307.284 17.2861 307.016 17.0454 306.588 17.0454C305.519 17.0454 304.85 18.2489 304.85 18.61C304.85 18.6234 304.85 18.7705 305.064 18.7705C305.198 18.7705 305.224 18.717 305.278 18.5699C305.452 18.1821 306.027 18.0483 306.428 18.0483C306.735 18.0483 307.056 18.1286 307.377 18.2222C307.939 18.3693 308.059 18.3693 308.367 18.3693C308.086 18.6635 307.712 19.0379 306.682 19.8804C306.12 20.3484 305.559 20.8031 305.198 21.1508C304.208 22.127 303.78 22.7822 303.78 22.9159C303.78 23.0363 303.874 23.0764 303.981 23.0764C304.114 23.0764 304.141 23.0363 304.208 22.9427C304.476 22.5415 304.89 22.127 305.398 22.127C305.706 22.127 305.84 22.2473 306.094 22.5014C306.522 22.9159 306.762 23.0764 307.15 23.0764C308.541 23.0764 309.383 21.4182 309.383 21.0037C309.383 20.8833 309.29 20.8298 309.183 20.8298C309.036 20.8298 309.009 20.9101 308.955 21.0438C308.701 21.7124 307.966 22.0735 307.297 22.0735C307.043 22.0735 306.749 22.0066 306.348 21.8996C305.786 21.7525 305.652 21.7525 305.452 21.7525C305.318 21.7525 305.238 21.7525 305.131 21.7793Z" fill="white"/>
<path d="M312.021 26.1379H290.648V26.9403H312.021V26.1379Z" fill="white"/>
<path d="M298.01 33.1576C298.19 32.3953 298.251 32.1947 300.016 32.1947C300.557 32.1947 300.698 32.1947 300.698 31.8136C300.698 31.613 300.477 31.613 300.397 31.613C299.996 31.613 299.534 31.6532 299.133 31.6532H296.445C296.064 31.6532 295.623 31.613 295.242 31.613C295.081 31.613 294.861 31.613 294.861 31.9942C294.861 32.1947 295.041 32.1947 295.342 32.1947C296.566 32.1947 296.566 32.3552 296.566 32.5759C296.566 32.616 296.566 32.7363 296.485 33.0372L293.777 43.8288C293.597 44.5309 293.557 44.7315 292.153 44.7315C291.772 44.7315 291.571 44.7315 291.571 45.0925C291.571 45.3132 291.691 45.3132 292.093 45.3132H301.079C301.52 45.3132 301.54 45.2931 301.681 44.9321L303.225 40.6595C303.265 40.5593 303.305 40.4389 303.305 40.3787C303.305 40.2584 303.205 40.1781 303.105 40.1781C303.085 40.1781 302.984 40.1781 302.944 40.2584C302.904 40.2784 302.904 40.3185 302.744 40.6997C302.102 42.4648 301.199 44.7315 297.809 44.7315H295.884C295.603 44.7315 295.563 44.7315 295.442 44.7114C295.222 44.6914 295.202 44.6512 295.202 44.4908C295.202 44.3504 295.242 44.23 295.282 44.0495L298.01 33.1576Z" fill="white"/>
<path d="M307.782 36.7905C307.996 36.5899 308.558 36.1486 308.772 35.9614C309.601 35.1991 310.39 34.4636 310.39 33.2467C310.39 31.6554 309.053 30.6257 307.381 30.6257C305.777 30.6257 304.72 31.8426 304.72 33.0328C304.72 33.688 305.242 33.7816 305.429 33.7816C305.71 33.7816 306.124 33.5811 306.124 33.0729C306.124 32.3775 305.456 32.3775 305.295 32.3775C305.683 31.4013 306.579 31.067 307.234 31.067C308.478 31.067 309.12 32.1235 309.12 33.2467C309.12 34.6375 308.144 35.6538 306.566 37.2719L304.881 39.0103C304.72 39.1574 304.72 39.1841 304.72 39.5185H310.002L310.39 37.1248H309.976C309.935 37.3922 309.828 38.0609 309.668 38.3149C309.588 38.4219 308.571 38.4219 308.358 38.4219H305.977L307.782 36.7905Z" fill="white"/>
<path d="M305.95 49.1086C306.432 48.6138 306.579 48.4667 307.756 47.4906C307.903 47.3702 308.839 46.5946 309.2 46.2469C310.042 45.4178 310.564 44.6823 310.564 44.5352C310.564 44.4149 310.457 44.3748 310.363 44.3748C310.23 44.3748 310.216 44.4015 310.082 44.6021C309.668 45.2172 309.374 45.3242 309.133 45.3242C308.879 45.3242 308.718 45.2172 308.451 44.9498C308.103 44.6155 307.836 44.3748 307.408 44.3748C306.338 44.3748 305.67 45.5783 305.67 45.9393C305.67 45.9527 305.67 46.0998 305.883 46.0998C306.017 46.0998 306.044 46.0463 306.097 45.8992C306.271 45.5114 306.846 45.3777 307.247 45.3777C307.555 45.3777 307.876 45.4579 308.197 45.5515C308.759 45.6986 308.879 45.6986 309.187 45.6986C308.906 45.9928 308.531 46.3673 307.502 47.2097C306.94 47.6778 306.378 48.1324 306.017 48.4801C305.028 49.4563 304.6 50.1116 304.6 50.2453C304.6 50.3656 304.693 50.4058 304.8 50.4058C304.934 50.4058 304.961 50.3656 305.028 50.272C305.295 49.8709 305.71 49.4563 306.218 49.4563C306.525 49.4563 306.659 49.5767 306.913 49.8307C307.341 50.2453 307.582 50.4058 307.97 50.4058C309.36 50.4058 310.203 48.7476 310.203 48.333C310.203 48.2127 310.109 48.1592 310.002 48.1592C309.855 48.1592 309.828 48.2394 309.775 48.3731C309.521 49.0418 308.785 49.4028 308.117 49.4028C307.863 49.4028 307.568 49.336 307.167 49.229C306.606 49.0819 306.472 49.0819 306.271 49.0819C306.138 49.0819 306.057 49.0819 305.95 49.1086Z" fill="white"/>
<path d="M324.598 26.5389C324.598 18.6558 322.793 10.7125 317.698 4.71497C317.296 4.25362 316.534 3.43121 315.712 2.70909C315.471 2.46838 315.431 2.46838 315.15 2.46838C314.909 2.46838 314.729 2.46838 314.729 2.66897C314.729 2.74921 314.809 2.82944 314.849 2.86956C315.551 3.59168 316.895 4.93561 318.239 7.10196C321.469 12.2771 322.933 18.7962 322.933 26.5189C322.933 31.9147 322.211 38.8751 318.901 44.8526C317.316 47.7009 315.652 49.3658 314.809 50.2083C314.769 50.2685 314.729 50.3286 314.729 50.3888C314.729 50.5894 314.909 50.5894 315.15 50.5894C315.431 50.5894 315.471 50.5894 315.772 50.2885C322.492 44.1706 324.598 34.9837 324.598 26.5389Z" fill="white"/>
<path d="M18.3 23.4C19.4455 24.3818 20.8364 25.0909 21.7364 25.5C20.7545 25.9364 19.4182 26.6455 18.3 27.6H0.981818C0.518181 27.6 0 27.6 0 28.1455C0 28.6909 0.490909 28.6909 0.954546 28.6909H17.0727C15.7636 29.9455 14.3455 32.3455 14.3455 32.7C14.3455 33 14.7 33 14.8636 33C15.0818 33 15.2727 33 15.3818 32.7818C15.9545 31.7455 16.7182 30.3 18.4909 28.7182C20.3727 27.0545 22.2 26.3182 23.6182 25.9091C24.0818 25.7455 24.1091 25.7182 24.1636 25.6636C24.2182 25.6364 24.2182 25.5545 24.2182 25.5C24.2182 25.4455 24.2182 25.3909 24.1909 25.3364L24.1091 25.2818C24.0545 25.2545 24.0273 25.2273 23.5091 25.0636C19.8273 23.9727 17.1 21.4909 15.5727 18.5727C15.2727 18.0273 15.2455 18 14.8636 18C14.7 18 14.3455 18 14.3455 18.3C14.3455 18.6545 15.7364 21.0273 17.0727 22.3091H0.954546C0.490909 22.3091 0 22.3091 0 22.8545C0 23.4 0.518181 23.4 0.981818 23.4H18.3Z" fill="white"/>
</svg>
