<svg width="667" height="66" viewBox="0 0 667 66" fill="none" xmlns="http://www.w3.org/2000/svg">
<path d="M12.6998 21.6949C12.6998 21.6659 12.8145 21.2895 12.8145 21.2606C12.8145 21 12.5852 21 12.4992 21C12.2411 21 12.2125 21.1448 12.0978 21.5791L7.36762 40.7461C4.9882 40.4566 4.09949 39.2405 4.09949 37.5033C4.09949 36.8664 4.09949 36.2004 5.44688 32.6102C5.81956 31.5679 5.9629 31.1915 5.9629 30.6704C5.9629 29.3675 5.04553 28.3252 3.69814 28.3252C1.06071 28.3252 0 32.5234 0 32.755C0 32.8708 0.11467 33.0156 0.315344 33.0156C0.573355 33.0156 0.602022 32.8998 0.716694 32.4944C1.40472 29.9755 2.55143 28.9042 3.61214 28.9042C3.87015 28.9042 4.3575 28.9332 4.3575 29.8597C4.3575 29.9755 4.3575 30.6125 3.87015 31.8864C2.32209 35.9978 2.32209 36.6347 2.32209 37.3007C2.32209 40.0802 4.61552 41.1514 7.19562 41.3541C6.96627 42.2517 6.7656 43.1782 6.53626 44.0757C6.07757 45.8129 5.8769 46.6236 5.8769 46.7394C5.8769 47 6.10624 47 6.19224 47C6.24958 47 6.36425 47 6.42158 46.8842C6.53626 46.7684 7.71164 41.9042 7.82631 41.3831C8.88702 41.3831 11.1518 41.3831 13.7319 38.6904C14.6779 37.6481 15.5379 36.3163 16.0253 35.0713C16.312 34.3185 17 31.7417 17 30.265C17 28.5278 16.14 28.3252 15.8533 28.3252C15.1653 28.3252 14.5346 29.02 14.5346 29.5991C14.5346 29.9465 14.7352 30.1492 14.8499 30.265C15.1079 30.5256 15.882 31.3074 15.882 32.8129C15.882 33.8552 15.3086 35.9978 13.4739 38.0824C11.0658 40.804 8.85835 40.804 7.99831 40.804L12.6998 21.6949Z" fill="#FFFEFE"/>
<path d="M21.2131 41.9135C21.2698 41.6474 21.4588 40.9734 21.5155 40.7073C21.7801 39.7494 21.7801 39.7317 22.2148 39.1463C22.8385 38.2772 23.7268 37.4967 24.9931 37.4967C25.6735 37.4967 26.0704 37.8692 26.0704 38.7029C26.0704 39.6785 25.2766 41.7007 24.9175 42.5698C24.6718 43.1552 24.6718 43.2616 24.6718 43.4922C24.6718 44.5033 25.5601 45 26.3729 45C28.2251 45 29 42.5166 29 42.286C29 42.1086 28.8488 42.0554 28.7165 42.0554C28.4897 42.0554 28.4519 42.1796 28.3952 42.357C27.9416 43.8115 27.1478 44.5033 26.4296 44.5033C26.1271 44.5033 25.9759 44.3259 25.9759 43.918C25.9759 43.51 26.1271 43.1197 26.3162 42.6763C26.5997 42.0022 27.4313 39.9623 27.4313 38.969C27.4313 37.6386 26.4485 37 25.0876 37C23.5567 37 22.5739 37.8692 22.0258 38.5432C21.8935 37.5676 21.0619 37 20.0979 37C19.4175 37 18.945 37.408 18.6426 37.9579C18.189 38.7916 18 39.6785 18 39.714C18 39.8736 18.1323 39.9446 18.2835 39.9446C18.5292 39.9446 18.5481 39.8736 18.6804 39.4124C18.9072 38.5432 19.2474 37.4967 20.0412 37.4967C20.5326 37.4967 20.646 37.9401 20.646 38.3304C20.646 38.6497 20.5515 38.9867 20.4003 39.5721C20.3625 39.714 20.079 40.7605 20.0034 41.0089L19.3041 43.6696C19.2285 43.9357 19.1151 44.3792 19.1151 44.4501C19.1151 44.8581 19.4742 45 19.7199 45C20.0601 45 20.3436 44.7871 20.4759 44.5743C20.5326 44.4679 20.6838 43.8647 20.7784 43.4922L21.2131 41.9135Z" fill="#FFFEFE"/>
<path d="M38.2072 41.745C37.7027 41.9002 37.5874 42.3503 37.5874 42.5831C37.5874 43.0798 37.9622 43.1885 38.164 43.1885C38.582 43.1885 39 42.816 39 42.2106C39 41.3725 38.1495 41 37.4144 41C36.4631 41 35.8865 41.7916 35.7279 42.0865C35.5405 41.6984 34.9928 41 33.9117 41C32.2541 41 31.2739 42.847 31.2739 43.3902C31.2739 43.4678 31.3315 43.6075 31.5333 43.6075C31.7351 43.6075 31.7784 43.5144 31.8216 43.3747C32.182 42.1175 33.1622 41.5122 33.8685 41.5122C34.5748 41.5122 34.791 42.0089 34.791 42.5211C34.791 42.7073 34.791 42.847 34.6757 43.3282C34.3441 44.7716 34.027 46.184 33.955 46.3703C33.7387 46.9601 33.2198 47.4878 32.6144 47.4878C32.5279 47.4878 32.1243 47.4878 31.7928 47.255C32.355 47.0532 32.4126 46.541 32.4126 46.4169C32.4126 46.0133 32.1243 45.8115 31.836 45.8115C31.4324 45.8115 31 46.153 31 46.7894C31 47.6741 31.9081 48 32.5856 48C33.4072 48 33.9982 47.3947 34.2721 46.9135C34.5604 47.5654 35.2523 48 36.0739 48C37.7748 48 38.7261 46.122 38.7261 45.6098C38.7261 45.5787 38.7117 45.3925 38.4523 45.3925C38.2505 45.3925 38.2216 45.5011 38.1784 45.6408C37.7604 46.9911 36.7369 47.4878 36.1315 47.4878C35.5838 47.4878 35.1946 47.1463 35.1946 46.4945C35.1946 46.1996 35.2667 45.8581 35.3964 45.3149L35.8577 43.2971C36.0018 42.6918 36.0739 42.4124 36.3766 42.0399C36.5784 41.8071 36.9243 41.5122 37.3856 41.5122C37.4577 41.5122 37.8901 41.5122 38.2072 41.745Z" fill="#FFFEFE"/>
<path d="M44.5447 44.8947C44.5447 46.1776 44.3171 47.3026 43.3089 48.5263C43.2439 48.5855 43.2114 48.625 43.2114 48.7237C43.2114 48.8816 43.3415 49 43.4553 49C43.6504 49 45 47.4408 45 45.1316C45 43.8684 44.6098 43 43.8943 43C43.3252 43 43 43.5526 43 44.0855C43 44.6382 43.3089 45.1908 43.9106 45.1908C44.3008 45.1908 44.5447 44.9145 44.5447 44.8947Z" fill="#FFFEFE"/>
<path d="M50.5052 41.9135C50.567 41.6474 50.7732 40.9734 50.8351 40.7073C51.1237 39.7494 51.1237 39.7317 51.5979 39.1463C52.2784 38.2772 53.2474 37.4967 54.6289 37.4967C55.3711 37.4967 55.8041 37.8692 55.8041 38.7029C55.8041 39.6785 54.9381 41.7007 54.5464 42.5698C54.2784 43.1552 54.2784 43.2616 54.2784 43.4922C54.2784 44.5033 55.2474 45 56.134 45C58.1546 45 59 42.5166 59 42.286C59 42.1086 58.8351 42.0554 58.6907 42.0554C58.4433 42.0554 58.4021 42.1796 58.3402 42.357C57.8454 43.8115 56.9794 44.5033 56.1959 44.5033C55.866 44.5033 55.701 44.3259 55.701 43.918C55.701 43.51 55.866 43.1197 56.0722 42.6763C56.3814 42.0022 57.2887 39.9623 57.2887 38.969C57.2887 37.6386 56.2165 37 54.732 37C53.0619 37 51.9897 37.8692 51.3918 38.5432C51.2474 37.5676 50.3402 37 49.2887 37C48.5464 37 48.0309 37.408 47.701 37.9579C47.2062 38.7916 47 39.6785 47 39.714C47 39.8736 47.1443 39.9446 47.3093 39.9446C47.5773 39.9446 47.5979 39.8736 47.7423 39.4124C47.9897 38.5432 48.3608 37.4967 49.2268 37.4967C49.7629 37.4967 49.8866 37.9401 49.8866 38.3304C49.8866 38.6497 49.7835 38.9867 49.6186 39.5721C49.5773 39.714 49.268 40.7605 49.1856 41.0089L48.4227 43.6696C48.3402 43.9357 48.2165 44.3792 48.2165 44.4501C48.2165 44.8581 48.6082 45 48.8763 45C49.2474 45 49.5567 44.7871 49.701 44.5743C49.7629 44.4679 49.9278 43.8647 50.0309 43.4922L50.5052 41.9135Z" fill="#FFFEFE"/>
<path d="M67.9554 41.7954C67.9851 41.6977 68 41.6419 68 41.6C68 41.4326 67.8662 41.1395 67.4647 41.1395C67.2119 41.1395 66.9591 41.293 66.855 41.4884C66.7955 41.586 66.6914 42.0186 66.6171 42.2837L66.3048 43.4419L65.8439 45.186C65.7398 45.5767 65.6803 45.8 65.0855 46.3302C64.9219 46.4698 64.4461 46.8326 63.8067 46.8326C62.7063 46.8326 62.7063 45.9256 62.7063 45.6744C62.7063 45.0605 62.8848 44.4326 63.539 42.8977C63.6877 42.5628 63.7323 42.4651 63.7323 42.214C63.7323 41.4326 62.9888 41 62.2454 41C60.7286 41 60 42.8419 60 43.1488C60 43.2186 60.0595 43.3442 60.2677 43.3442C60.4758 43.3442 60.5204 43.2605 60.5651 43.1349C60.9814 41.7814 61.7695 41.4605 62.1859 41.4605C62.4833 41.4605 62.5874 41.6419 62.5874 41.9628C62.5874 42.2558 62.3941 42.7302 62.2305 43.107C61.71 44.3349 61.5316 44.9767 61.5316 45.4791C61.5316 46.8047 62.5874 47.293 63.7472 47.293C63.9554 47.293 64.6543 47.293 65.4424 46.6512C65.2491 47.4186 65.1152 47.9628 64.4015 48.6884C64.1338 48.9674 63.4647 49.5395 62.5725 49.5395C62.4387 49.5395 61.7993 49.5256 61.4572 49.1628C62.1115 49.0512 62.2007 48.507 62.2007 48.3814C62.2007 48.0047 61.8736 47.8512 61.5911 47.8512C61.2193 47.8512 60.7286 48.1302 60.7286 48.7721C60.7286 49.4419 61.4275 50 62.5874 50C64.1636 50 66.0669 48.9116 66.5279 47.1674L67.9554 41.7954Z" fill="#FFFEFE"/>
<path d="M73.5447 44.8947C73.5447 46.1776 73.3171 47.3026 72.3089 48.5263C72.2439 48.5855 72.2114 48.625 72.2114 48.7237C72.2114 48.8816 72.3415 49 72.4553 49C72.6504 49 74 47.4408 74 45.1316C74 43.8684 73.6098 43 72.8943 43C72.3252 43 72 43.5526 72 44.0855C72 44.6382 72.3089 45.1908 72.9106 45.1908C73.3008 45.1908 73.5447 44.9145 73.5447 44.8947Z" fill="#FFFEFE"/>
<path d="M79.5052 41.9135C79.567 41.6474 79.7732 40.9734 79.8351 40.7073C80.1237 39.7494 80.1237 39.7317 80.5979 39.1463C81.2784 38.2772 82.2474 37.4967 83.6289 37.4967C84.3711 37.4967 84.8041 37.8692 84.8041 38.7029C84.8041 39.6785 83.9381 41.7007 83.5464 42.5698C83.2784 43.1552 83.2784 43.2616 83.2784 43.4922C83.2784 44.5033 84.2474 45 85.134 45C87.1546 45 88 42.5166 88 42.286C88 42.1086 87.8351 42.0554 87.6907 42.0554C87.4433 42.0554 87.4021 42.1796 87.3402 42.357C86.8454 43.8115 85.9794 44.5033 85.1959 44.5033C84.866 44.5033 84.701 44.3259 84.701 43.918C84.701 43.51 84.866 43.1197 85.0722 42.6763C85.3814 42.0022 86.2887 39.9623 86.2887 38.969C86.2887 37.6386 85.2165 37 83.732 37C82.0619 37 80.9897 37.8692 80.3918 38.5432C80.2474 37.5676 79.3402 37 78.2887 37C77.5464 37 77.0309 37.408 76.701 37.9579C76.2062 38.7916 76 39.6785 76 39.714C76 39.8736 76.1443 39.9446 76.3093 39.9446C76.5773 39.9446 76.5979 39.8736 76.7423 39.4124C76.9897 38.5432 77.3608 37.4967 78.2268 37.4967C78.7629 37.4967 78.8866 37.9401 78.8866 38.3304C78.8866 38.6497 78.7835 38.9867 78.6186 39.5721C78.5773 39.714 78.268 40.7605 78.1856 41.0089L77.4227 43.6696C77.3402 43.9357 77.2165 44.3792 77.2165 44.4501C77.2165 44.8581 77.6082 45 77.8763 45C78.2474 45 78.5567 44.7871 78.701 44.5743C78.7629 44.4679 78.9278 43.8647 79.0309 43.4922L79.5052 41.9135Z" fill="#FFFEFE"/>
<path d="M90.666 46.4479C91.119 45.9823 91.6305 45.5322 92.405 44.9113C93.3987 44.1042 93.9833 43.6231 94.6117 43.0022C95.4447 42.1951 96 41.3725 96 41.2173C96 41 95.7954 41 95.737 41C95.5908 41 95.547 41.031 95.4447 41.2018C95.1816 41.6053 94.7871 42.071 94.3194 42.071C93.9687 42.071 93.6618 41.8071 93.4718 41.6364C93.0919 41.2949 92.7557 41 92.215 41C90.9875 41 90.1691 42.3659 90.1691 42.8315C90.1691 43.0022 90.286 43.0643 90.4321 43.0643C90.6221 43.0643 90.666 42.9712 90.7098 42.847C90.9144 42.3038 91.7328 42.2572 92.0397 42.2572C92.4196 42.2572 92.7996 42.3348 93.0919 42.4124C93.8372 42.5676 93.9979 42.5676 94.3194 42.5831C93.9833 42.9246 93.6326 43.2661 92.6827 44.0266C91.499 44.9889 91.0605 45.3459 90.4468 45.9512C89.7015 46.6652 89 47.5809 89 47.7827C89 48 89.2192 48 89.2777 48C89.4238 48 89.453 47.969 89.5407 47.8448C90.1253 47.0222 90.6952 46.929 90.929 46.929C91.2797 46.929 91.5282 47.1308 91.7912 47.3636C92.2296 47.7206 92.5365 48 93.0626 48C94.6848 48 95.7223 46.1064 95.7223 45.5477C95.7223 45.408 95.5908 45.3304 95.4447 45.3304C95.2401 45.3304 95.2109 45.4235 95.167 45.5787C94.8747 46.4324 93.9102 46.7428 93.2234 46.7428C92.8727 46.7428 92.5219 46.6652 92.142 46.5876C91.7035 46.4945 91.3528 46.4169 91.0021 46.4169C90.929 46.4169 90.7975 46.4169 90.666 46.4479Z" fill="#FFFEFE"/>
<path d="M109 47.7682C109 47.6813 109 47.6234 108.551 47.1309C105.907 44.2048 104.427 39.4246 104.427 33.5145C104.427 27.8941 105.67 23.0559 108.736 19.6374C109 19.3766 109 19.3187 109 19.2318C109 19.0579 108.868 19 108.762 19C108.419 19 106.251 21.0859 104.956 23.9251C103.608 26.8511 103 29.951 103 33.5145C103 36.0929 103.37 39.5405 104.744 42.6404C106.304 46.1169 108.471 48 108.762 48C108.868 48 109 47.9421 109 47.7682Z" fill="#FFFEFE"/>
<path d="M124.848 28.9512C123.926 29.1242 123.58 29.816 123.58 30.3636C123.58 31.0554 124.128 31.286 124.531 31.286C125.395 31.286 126 30.5366 126 29.7583C126 28.5477 124.617 28 123.407 28C121.65 28 120.671 29.7295 120.412 30.2772C119.749 28.1153 117.963 28 117.444 28C114.506 28 112.951 31.7761 112.951 32.4102C112.951 32.5255 113.066 32.6696 113.267 32.6696C113.498 32.6696 113.556 32.4967 113.613 32.3814C114.593 29.1818 116.523 28.5765 117.358 28.5765C118.654 28.5765 118.914 29.7871 118.914 30.4789C118.914 31.1131 118.741 31.7761 118.395 33.1596L117.416 37.1086C116.984 38.8381 116.148 40.4235 114.621 40.4235C114.477 40.4235 113.757 40.4235 113.152 40.0488C114.189 39.847 114.42 38.9823 114.42 38.6364C114.42 38.0599 113.988 37.714 113.44 37.714C112.749 37.714 112 38.3193 112 39.2417C112 40.4523 113.354 41 114.593 41C115.975 41 116.955 39.9047 117.56 38.7228C118.021 40.4235 119.461 41 120.527 41C123.465 41 125.021 37.2239 125.021 36.5898C125.021 36.4457 124.905 36.3304 124.733 36.3304C124.473 36.3304 124.444 36.4745 124.358 36.7051C123.58 39.2417 121.909 40.4235 120.613 40.4235C119.605 40.4235 119.058 39.6741 119.058 38.4922C119.058 37.8581 119.173 37.3969 119.634 35.4945L120.642 31.5743C121.074 29.8448 122.053 28.5765 123.379 28.5765C123.436 28.5765 124.243 28.5765 124.848 28.9512Z" fill="#FFFEFE"/>
<path d="M132 40.7862C132 39.1862 131.472 38 130.333 38C129.444 38 129 38.7172 129 39.3241C129 39.931 129.417 40.6759 130.361 40.6759C130.722 40.6759 131.028 40.5655 131.278 40.3172C131.333 40.2621 131.361 40.2621 131.389 40.2621C131.444 40.2621 131.444 40.6483 131.444 40.7862C131.444 41.6966 131.278 43.4897 129.667 45.2828C129.361 45.6138 129.361 45.669 129.361 45.7241C129.361 45.8621 129.5 46 129.639 46C129.861 46 132 43.9586 132 40.7862Z" fill="#FFFEFE"/>
<path d="M146.803 44.2899C146.024 45.4093 144.9 46.4109 143.488 46.4109C143.142 46.4109 141.758 46.3519 141.326 44.9969C141.412 45.0264 141.557 45.0264 141.614 45.0264C142.479 45.0264 143.055 44.2605 143.055 43.5829C143.055 42.9054 142.508 42.6698 142.075 42.6698C141.614 42.6698 140.605 43.0233 140.605 44.4667C140.605 45.969 141.845 47 143.488 47C146.37 47 149.282 44.2899 150.089 41.0202L152.914 29.5318C152.942 29.3845 153 29.2078 153 29.031C153 28.5891 152.654 28.2946 152.222 28.2946C151.962 28.2946 151.357 28.4124 151.126 29.2961L148.993 37.9566C148.849 38.4868 148.849 38.5457 148.619 38.8698C148.042 39.6946 147.091 40.6961 145.707 40.6961C144.093 40.6961 143.949 39.076 143.949 38.2806C143.949 36.6016 144.727 34.3333 145.506 32.2124C145.823 31.3581 145.996 30.9457 145.996 30.3566C145.996 29.1194 145.131 28 143.718 28C141.067 28 140 32.2713 140 32.507C140 32.6248 140.115 32.7721 140.317 32.7721C140.576 32.7721 140.605 32.6543 140.721 32.2419C141.412 29.7674 142.508 28.5891 143.632 28.5891C143.891 28.5891 144.381 28.5891 144.381 29.5612C144.381 30.3271 144.064 31.1814 143.632 32.3008C142.22 36.1597 142.22 37.1318 142.22 37.8388C142.22 40.6372 144.18 41.2853 145.621 41.2853C146.457 41.2853 147.494 41.0202 148.503 39.9302L148.532 39.9597C148.1 41.6977 147.812 42.8465 146.803 44.2899Z" fill="#FFFEFE"/>
<path d="M160 40.7862C160 39.1862 159.472 38 158.333 38C157.444 38 157 38.7172 157 39.3241C157 39.931 157.417 40.6759 158.361 40.6759C158.722 40.6759 159.028 40.5655 159.278 40.3172C159.333 40.2621 159.361 40.2621 159.389 40.2621C159.444 40.2621 159.444 40.6483 159.444 40.7862C159.444 41.6966 159.278 43.4897 157.667 45.2828C157.361 45.6138 157.361 45.669 157.361 45.7241C157.361 45.8621 157.5 46 157.639 46C157.861 46 160 43.9586 160 40.7862Z" fill="#FFFEFE"/>
<path d="M170.417 38.3769C171.655 36.9645 172.662 36.071 174.101 34.7738C175.827 33.2749 176.576 32.5543 176.978 32.122C178.993 30.133 180 28.4612 180 28.2306C180 28 179.77 28 179.712 28C179.511 28 179.453 28.1153 179.309 28.3171C178.59 29.5565 177.899 30.1619 177.151 30.1619C176.547 30.1619 176.23 29.9024 175.683 29.2106C175.079 28.49 174.59 28 173.755 28C171.655 28 170.388 30.6231 170.388 31.2284C170.388 31.3149 170.417 31.4878 170.676 31.4878C170.906 31.4878 170.935 31.3725 171.022 31.1707C171.511 30.0177 172.892 29.816 173.439 29.816C174.043 29.816 174.619 30.0177 175.223 30.2772C176.317 30.7384 176.777 30.7384 177.065 30.7384C177.266 30.7384 177.381 30.7384 177.525 30.7095C176.576 31.8337 175.022 33.2173 173.727 34.3991L170.82 37.0798C169.065 38.867 168 40.5676 168 40.7694C168 40.9423 168.144 41 168.317 41C168.489 41 168.518 40.9712 168.719 40.6253C169.18 39.9047 170.101 38.8381 171.165 38.8381C171.77 38.8381 172.058 39.0399 172.633 39.7605C173.18 40.3947 173.669 41 174.59 41C177.41 41 179.022 37.3392 179.022 36.6763C179.022 36.561 178.993 36.388 178.705 36.388C178.475 36.388 178.446 36.5033 178.36 36.7916C177.727 38.4922 176.029 39.184 174.906 39.184C174.302 39.184 173.727 38.9823 173.122 38.7228C171.971 38.2616 171.655 38.2616 171.281 38.2616C170.993 38.2616 170.676 38.2616 170.417 38.3769Z" fill="#FFFEFE"/>
<path d="M190 33.5145C190 31.3127 189.692 27.7203 187.965 24.3596C186.145 20.8831 183.617 19 183.278 19C183.154 19 183 19.0579 183 19.2318C183 19.3187 183 19.3766 183.524 19.8691C186.608 22.7952 188.335 27.5754 188.335 33.4855C188.335 39.1059 186.885 43.9441 183.308 47.3626C183 47.6234 183 47.6813 183 47.7682C183 47.9421 183.154 48 183.278 48C183.678 48 186.207 45.9141 187.718 43.0749C189.291 40.1199 190 36.991 190 33.5145Z" fill="#FFFEFE"/>
<path d="M213.663 31.8455C213.971 31.8455 214.367 31.8455 214.367 31.4495C214.367 31.0315 213.993 31.0315 213.663 31.0315H200.705C200.397 31.0315 200.001 31.0315 200.001 31.4275C200.001 31.8455 200.375 31.8455 200.705 31.8455H213.663ZM213.663 35.9375C213.971 35.9375 214.367 35.9375 214.367 35.5415C214.367 35.1235 213.993 35.1235 213.663 35.1235H200.705C200.397 35.1235 200.001 35.1235 200.001 35.5195C200.001 35.9375 200.375 35.9375 200.705 35.9375H213.663Z" fill="#FFFEFE"/>
<path d="M227.157 33L224.253 38.72C224.143 38.94 224.121 38.984 224.121 39.006C224.121 39.094 224.407 39.336 224.429 39.358L225.925 36.454L231.007 66C231.689 66 231.821 66 231.931 65.428L244.119 0.440001C244.119 0.198001 243.943 0 243.679 0C243.327 0 243.261 0.286 243.195 0.66L231.931 60.61H231.909L227.157 33Z" fill="#FFFEFE"/>
<path d="M319.667 0H243.679V0.879965H319.667V0Z" fill="#FFFEFE"/>
<path d="M282.844 16.1483C283.944 15.5543 285.55 14.5423 285.55 12.6943C285.55 10.7803 283.702 9.46033 281.678 9.46033C279.5 9.46033 277.784 11.0663 277.784 13.0683C277.784 13.8163 278.004 14.5643 278.62 15.3123C278.862 15.5983 278.884 15.6203 280.424 16.6983C278.29 17.6883 277.19 19.1623 277.19 20.7683C277.19 23.1003 279.412 24.5523 281.656 24.5523C284.098 24.5523 286.144 22.7483 286.144 20.4383C286.144 18.1943 284.56 17.2043 282.844 16.1483ZM279.852 14.1683C279.566 13.9703 278.686 13.3983 278.686 12.3203C278.686 10.8903 280.182 9.98833 281.656 9.98833C283.24 9.98833 284.648 11.1323 284.648 12.7163C284.648 14.0583 283.68 15.1363 282.404 15.8403L279.852 14.1683ZM280.886 17.0063L283.548 18.7443C284.12 19.1183 285.132 19.8003 285.132 21.1423C285.132 22.8143 283.438 23.9583 281.678 23.9583C279.808 23.9583 278.202 22.5943 278.202 20.7683C278.202 19.0523 279.456 17.6663 280.886 17.0063Z" fill="#FFFEFE"/>
<path d="M317.467 33.0334H245.879V33.9134H317.467V33.0334Z" fill="#FFFEFE"/>
<path d="M253.953 40.7323C254.151 39.8963 254.217 39.6763 256.153 39.6763C256.747 39.6763 256.901 39.6763 256.901 39.2583C256.901 39.0383 256.659 39.0383 256.571 39.0383C256.131 39.0383 255.625 39.0823 255.185 39.0823H252.237C251.819 39.0823 251.335 39.0383 250.917 39.0383C250.741 39.0383 250.499 39.0383 250.499 39.4563C250.499 39.6763 250.697 39.6763 251.027 39.6763C252.369 39.6763 252.369 39.8523 252.369 40.0943C252.369 40.1383 252.369 40.2703 252.281 40.6003L249.311 52.4363C249.113 53.2063 249.069 53.4263 247.529 53.4263C247.111 53.4263 246.891 53.4263 246.891 53.8223C246.891 54.0643 247.023 54.0643 247.463 54.0643H257.319C257.803 54.0643 257.825 54.0423 257.979 53.6463L259.673 48.9603C259.717 48.8503 259.761 48.7183 259.761 48.6523C259.761 48.5203 259.651 48.4323 259.541 48.4323C259.519 48.4323 259.409 48.4323 259.365 48.5203C259.321 48.5423 259.321 48.5863 259.145 49.0043C258.441 50.9403 257.451 53.4263 253.733 53.4263H251.621C251.313 53.4263 251.269 53.4263 251.137 53.4043C250.895 53.3823 250.873 53.3383 250.873 53.1623C250.873 53.0083 250.917 52.8763 250.961 52.6783L253.953 40.7323Z" fill="#FFFEFE"/>
<path d="M267.883 51.5124C267.238 51.6737 267.209 52.2457 267.209 52.3044C267.209 52.627 267.458 52.847 267.781 52.847C268.103 52.847 268.602 52.5977 268.602 51.967C268.602 51.131 267.678 50.8964 267.135 50.8964C266.446 50.8964 265.889 51.3804 265.551 51.9524C265.229 51.175 264.466 50.8964 263.865 50.8964C262.266 50.8964 261.371 52.7297 261.371 53.1404C261.371 53.2724 261.474 53.331 261.591 53.331C261.767 53.331 261.797 53.2577 261.841 53.0817C262.178 52.011 263.058 51.307 263.821 51.307C264.393 51.307 264.671 51.7177 264.671 52.2457C264.671 52.539 264.495 53.2137 264.378 53.683C264.275 54.1084 263.953 55.4137 263.879 55.6924C263.674 56.4844 263.146 57.1004 262.486 57.1004C262.427 57.1004 262.046 57.1004 261.738 56.895C262.413 56.7337 262.413 56.1177 262.413 56.103C262.413 55.7657 262.149 55.5604 261.826 55.5604C261.43 55.5604 261.005 55.8977 261.005 56.455C261.005 57.1297 261.723 57.511 262.471 57.511C263.249 57.511 263.791 56.9244 264.055 56.455C264.378 57.1737 265.053 57.511 265.757 57.511C267.355 57.511 268.235 55.6777 268.235 55.267C268.235 55.1204 268.118 55.0764 268.015 55.0764C267.839 55.0764 267.81 55.179 267.766 55.3257C267.473 56.3084 266.637 57.1004 265.786 57.1004C265.302 57.1004 264.95 56.7777 264.95 56.1617C264.95 55.8684 265.038 55.531 265.243 54.7097C265.346 54.2697 265.669 52.979 265.742 52.7004C265.947 51.9377 266.461 51.307 267.121 51.307C267.194 51.307 267.575 51.307 267.883 51.5124Z" fill="#FFFEFE"/>
<path d="M278.298 40.7323C278.496 39.8963 278.562 39.6763 280.498 39.6763C281.092 39.6763 281.246 39.6763 281.246 39.2583C281.246 39.0383 281.004 39.0383 280.916 39.0383C280.476 39.0383 279.97 39.0823 279.53 39.0823H276.582C276.164 39.0823 275.68 39.0383 275.262 39.0383C275.086 39.0383 274.844 39.0383 274.844 39.4563C274.844 39.6763 275.042 39.6763 275.372 39.6763C276.714 39.6763 276.714 39.8523 276.714 40.0943C276.714 40.1383 276.714 40.2703 276.626 40.6003L273.656 52.4363C273.458 53.2063 273.414 53.4263 271.874 53.4263C271.456 53.4263 271.236 53.4263 271.236 53.8223C271.236 54.0643 271.368 54.0643 271.808 54.0643H281.664C282.148 54.0643 282.17 54.0423 282.324 53.6463L284.018 48.9603C284.062 48.8503 284.106 48.7183 284.106 48.6523C284.106 48.5203 283.996 48.4323 283.886 48.4323C283.864 48.4323 283.754 48.4323 283.71 48.5203C283.666 48.5423 283.666 48.5863 283.49 49.0043C282.786 50.9403 281.796 53.4263 278.078 53.4263H275.966C275.658 53.4263 275.614 53.4263 275.482 53.4043C275.24 53.3823 275.218 53.3383 275.218 53.1623C275.218 53.0083 275.262 52.8763 275.306 52.6783L278.298 40.7323Z" fill="#FFFEFE"/>
<path d="M292.478 51.835C292.536 51.6297 292.536 51.6004 292.536 51.4977C292.536 51.131 292.243 51.043 292.067 51.043C291.994 51.043 291.656 51.0577 291.466 51.439C291.436 51.5124 291.304 52.0404 291.231 52.3484L290.351 55.8684C290.336 55.9124 289.706 57.1004 288.635 57.1004C287.916 57.1004 287.667 56.5724 287.667 55.9124C287.667 55.0617 288.166 53.7564 288.503 52.9057C288.65 52.539 288.694 52.407 288.694 52.143C288.694 51.3364 288.048 50.8964 287.374 50.8964C285.922 50.8964 285.32 52.9644 285.32 53.1404C285.32 53.2724 285.423 53.331 285.54 53.331C285.731 53.331 285.746 53.243 285.79 53.0964C286.171 51.8204 286.802 51.307 287.33 51.307C287.55 51.307 287.682 51.4537 287.682 51.791C287.682 52.099 287.564 52.4364 287.462 52.7004C286.86 54.255 286.611 55.003 286.611 55.6924C286.611 57.1297 287.696 57.511 288.562 57.511C289.251 57.511 289.75 57.203 290.102 56.8657C289.896 57.687 289.75 58.259 289.192 58.963C288.708 59.5644 288.122 59.9457 287.462 59.9457C287.212 59.9457 286.655 59.9017 286.362 59.4617C287.139 59.403 287.198 58.743 287.198 58.655C287.198 58.303 286.934 58.1124 286.626 58.1124C286.303 58.1124 285.79 58.3617 285.79 59.0804C285.79 59.7697 286.42 60.3564 287.462 60.3564C288.958 60.3564 290.644 59.1537 291.084 57.379L292.478 51.835Z" fill="#FFFEFE"/>
<path d="M302.1 40.7323C302.298 39.8963 302.364 39.6763 304.3 39.6763C304.894 39.6763 305.048 39.6763 305.048 39.2583C305.048 39.0383 304.806 39.0383 304.718 39.0383C304.278 39.0383 303.772 39.0823 303.332 39.0823H300.384C299.966 39.0823 299.482 39.0383 299.064 39.0383C298.888 39.0383 298.646 39.0383 298.646 39.4563C298.646 39.6763 298.844 39.6763 299.174 39.6763C300.516 39.6763 300.516 39.8523 300.516 40.0943C300.516 40.1383 300.516 40.2703 300.428 40.6003L297.458 52.4363C297.26 53.2063 297.216 53.4263 295.676 53.4263C295.258 53.4263 295.038 53.4263 295.038 53.8223C295.038 54.0643 295.17 54.0643 295.61 54.0643H305.466C305.95 54.0643 305.972 54.0423 306.126 53.6463L307.82 48.9603C307.864 48.8503 307.908 48.7183 307.908 48.6523C307.908 48.5203 307.798 48.4323 307.688 48.4323C307.666 48.4323 307.556 48.4323 307.512 48.5203C307.468 48.5423 307.468 48.5863 307.292 49.0043C306.588 50.9403 305.598 53.4263 301.88 53.4263H299.768C299.46 53.4263 299.416 53.4263 299.284 53.4043C299.042 53.3823 299.02 53.3383 299.02 53.1623C299.02 53.0083 299.064 52.8763 299.108 52.6783L302.1 40.7323Z" fill="#FFFEFE"/>
<path d="M310.809 56.0884C311.337 55.5457 311.498 55.3844 312.789 54.3137C312.95 54.1817 313.977 53.331 314.373 52.9497C315.297 52.0404 315.869 51.2337 315.869 51.0724C315.869 50.9404 315.752 50.8964 315.649 50.8964C315.502 50.8964 315.488 50.9257 315.341 51.1457C314.886 51.8204 314.564 51.9377 314.3 51.9377C314.021 51.9377 313.845 51.8204 313.552 51.527C313.17 51.1604 312.877 50.8964 312.408 50.8964C311.234 50.8964 310.501 52.2164 310.501 52.6124C310.501 52.627 310.501 52.7884 310.736 52.7884C310.882 52.7884 310.912 52.7297 310.97 52.5684C311.161 52.143 311.792 51.9964 312.232 51.9964C312.569 51.9964 312.921 52.0844 313.273 52.187C313.889 52.3484 314.021 52.3484 314.358 52.3484C314.05 52.671 313.64 53.0817 312.51 54.0057C311.894 54.519 311.278 55.0177 310.882 55.399C309.797 56.4697 309.328 57.1884 309.328 57.335C309.328 57.467 309.43 57.511 309.548 57.511C309.694 57.511 309.724 57.467 309.797 57.3644C310.09 56.9244 310.545 56.4697 311.102 56.4697C311.44 56.4697 311.586 56.6017 311.865 56.8804C312.334 57.335 312.598 57.511 313.024 57.511C314.549 57.511 315.473 55.6924 315.473 55.2377C315.473 55.1057 315.37 55.047 315.253 55.047C315.092 55.047 315.062 55.135 315.004 55.2817C314.725 56.015 313.918 56.411 313.185 56.411C312.906 56.411 312.584 56.3377 312.144 56.2204C311.528 56.059 311.381 56.059 311.161 56.059C311.014 56.059 310.926 56.059 310.809 56.0884Z" fill="#FFFEFE"/>
<path d="M330.55 29.6674C330.55 29.2714 330.55 29.1614 330.33 29.1614C330.154 29.1614 329.736 29.6454 329.582 29.8434C328.9 29.2934 328.218 29.1614 327.514 29.1614C324.852 29.1614 324.06 30.6134 324.06 31.8234C324.06 32.0654 324.06 32.8354 324.896 33.6054C325.6 34.2214 326.348 34.3754 327.36 34.5734C328.57 34.8154 328.856 34.8814 329.406 35.3214C329.802 35.6514 330.088 36.1354 330.088 36.7514C330.088 37.6974 329.538 38.7534 327.602 38.7534C326.15 38.7534 325.094 37.9174 324.61 35.7174C324.522 35.3214 324.522 35.2994 324.5 35.2774C324.456 35.1894 324.368 35.1894 324.302 35.1894C324.06 35.1894 324.06 35.2994 324.06 35.6954V38.6874C324.06 39.0834 324.06 39.1934 324.28 39.1934C324.39 39.1934 324.412 39.1714 324.786 38.7094C324.896 38.5554 324.896 38.5114 325.226 38.1594C326.062 39.1934 327.25 39.1934 327.624 39.1934C329.934 39.1934 331.078 37.9174 331.078 36.1794C331.078 34.9914 330.352 34.2874 330.154 34.0894C329.362 33.4074 328.768 33.2754 327.316 33.0114C326.656 32.8794 325.05 32.5714 325.05 31.2514C325.05 30.5694 325.512 29.5574 327.492 29.5574C329.89 29.5574 330.022 31.6034 330.066 32.2854C330.088 32.4614 330.242 32.4614 330.308 32.4614C330.55 32.4614 330.55 32.3514 330.55 31.9554V29.6674Z" fill="#FFFEFE"/>
<path d="M335.659 25.4215C335.659 24.8495 335.197 24.3435 334.581 24.3435C334.009 24.3435 333.525 24.8055 333.525 25.3995C333.525 26.0595 334.053 26.4775 334.581 26.4775C335.263 26.4775 335.659 25.9055 335.659 25.4215ZM332.623 29.5135V30.1515C334.031 30.1515 334.229 30.2835 334.229 31.3615V37.3455C334.229 38.3355 333.987 38.3355 332.557 38.3355V38.9735C333.173 38.9295 334.229 38.9295 334.867 38.9295C335.109 38.9295 336.385 38.9295 337.133 38.9735V38.3355C335.703 38.3355 335.615 38.2255 335.615 37.3675V29.2715L332.623 29.5135Z" fill="#FFFEFE"/>
<path d="M347.604 33.6275C347.604 31.5815 347.604 30.9655 347.098 30.2615C346.46 29.4035 345.426 29.2715 344.678 29.2715C342.544 29.2715 341.708 31.0975 341.532 31.5375H341.51V29.2715L338.518 29.5135V30.1515C340.014 30.1515 340.19 30.3055 340.19 31.3835V37.3455C340.19 38.3355 339.948 38.3355 338.518 38.3355V38.9735C339.09 38.9295 340.278 38.9295 340.894 38.9295C341.532 38.9295 342.72 38.9295 343.292 38.9735V38.3355C341.884 38.3355 341.62 38.3355 341.62 37.3455V33.2535C341.62 30.9435 343.138 29.7115 344.502 29.7115C345.866 29.7115 346.174 30.8335 346.174 32.1755V37.3455C346.174 38.3355 345.932 38.3355 344.502 38.3355V38.9735C345.074 38.9295 346.262 38.9295 346.878 38.9295C347.516 38.9295 348.704 38.9295 349.276 38.9735V38.3355C348.176 38.3355 347.626 38.3355 347.604 37.6755V33.6275Z" fill="#FFFEFE"/>
<path d="M368.848 59.6311C368.848 59.5431 368.804 59.4991 368.76 59.4331C367.946 58.6191 366.472 57.1451 364.998 54.7691C361.456 49.0931 359.85 41.9431 359.85 33.4731C359.85 27.5551 360.642 19.9211 364.272 13.3651C366.01 10.2411 367.814 8.43712 368.782 7.46912C368.848 7.40312 368.848 7.35912 368.848 7.29312C368.848 7.07312 368.694 7.07312 368.386 7.07312C368.078 7.07312 368.034 7.07312 367.704 7.40312C360.334 14.1131 358.024 24.1891 358.024 33.4511C358.024 42.0971 360.004 50.8091 365.592 57.3871C366.032 57.8931 366.868 58.7951 367.77 59.5871C368.034 59.8511 368.078 59.8511 368.386 59.8511C368.694 59.8511 368.848 59.8511 368.848 59.6311Z" fill="#FFFEFE"/>
<path d="M376.375 17.6443C376.419 17.5123 376.969 16.4123 377.783 15.7083C378.355 15.1803 379.103 14.8283 379.961 14.8283C380.841 14.8283 381.149 15.4883 381.149 16.3683C381.149 17.6223 380.247 20.1303 379.807 21.3183C379.609 21.8463 379.499 22.1323 379.499 22.5283C379.499 23.5183 380.181 24.3103 381.237 24.3103C383.283 24.3103 384.053 21.0763 384.053 20.9443C384.053 20.8343 383.965 20.7463 383.833 20.7463C383.635 20.7463 383.613 20.8123 383.503 21.1863C382.997 22.9903 382.161 23.8703 381.303 23.8703C381.083 23.8703 380.731 23.8483 380.731 23.1443C380.731 22.5943 380.973 21.9343 381.105 21.6263C381.545 20.4163 382.469 17.9523 382.469 16.6983C382.469 15.3783 381.699 14.3883 380.027 14.3883C378.069 14.3883 377.035 15.7743 376.639 16.3243C376.573 15.0703 375.671 14.3883 374.703 14.3883C373.999 14.3883 373.515 14.8063 373.141 15.5543C372.745 16.3463 372.437 17.6663 372.437 17.7543C372.437 17.8423 372.525 17.9523 372.679 17.9523C372.855 17.9523 372.877 17.9303 373.009 17.4243C373.361 16.0823 373.757 14.8283 374.637 14.8283C375.143 14.8283 375.319 15.1803 375.319 15.8403C375.319 16.3243 375.099 17.1823 374.945 17.8643L374.329 20.2403C374.241 20.6583 373.999 21.6483 373.889 22.0443C373.735 22.6163 373.493 23.6503 373.493 23.7603C373.493 24.0683 373.735 24.3103 374.065 24.3103C374.329 24.3103 374.637 24.1783 374.813 23.8483C374.857 23.7383 375.055 22.9683 375.165 22.5283L375.649 20.5483L376.375 17.6443Z" fill="#FFFEFE"/>
<path d="M392.05 21.5382C391.404 21.6996 391.375 22.2716 391.375 22.3302C391.375 22.6529 391.624 22.8729 391.947 22.8729C392.27 22.8729 392.768 22.6236 392.768 21.9929C392.768 21.1569 391.844 20.9222 391.302 20.9222C390.612 20.9222 390.055 21.4062 389.718 21.9782C389.395 21.2009 388.632 20.9222 388.031 20.9222C386.432 20.9222 385.538 22.7556 385.538 23.1662C385.538 23.2982 385.64 23.3569 385.758 23.3569C385.934 23.3569 385.963 23.2836 386.007 23.1076C386.344 22.0369 387.224 21.3329 387.987 21.3329C388.559 21.3329 388.838 21.7436 388.838 22.2716C388.838 22.5649 388.662 23.2396 388.544 23.7089C388.442 24.1342 388.119 25.4396 388.046 25.7182C387.84 26.5102 387.312 27.1262 386.652 27.1262C386.594 27.1262 386.212 27.1262 385.904 26.9209C386.579 26.7596 386.579 26.1436 386.579 26.1289C386.579 25.7916 386.315 25.5862 385.992 25.5862C385.596 25.5862 385.171 25.9236 385.171 26.4809C385.171 27.1556 385.89 27.5369 386.638 27.5369C387.415 27.5369 387.958 26.9502 388.222 26.4809C388.544 27.1996 389.219 27.5369 389.923 27.5369C391.522 27.5369 392.402 25.7036 392.402 25.2929C392.402 25.1462 392.284 25.1022 392.182 25.1022C392.006 25.1022 391.976 25.2049 391.932 25.3516C391.639 26.3342 390.803 27.1262 389.952 27.1262C389.468 27.1262 389.116 26.8036 389.116 26.1876C389.116 25.8942 389.204 25.5569 389.41 24.7356C389.512 24.2956 389.835 23.0049 389.908 22.7262C390.114 21.9636 390.627 21.3329 391.287 21.3329C391.36 21.3329 391.742 21.3329 392.05 21.5382Z" fill="#FFFEFE"/>
<path d="M400.088 15.7963H402.574C401.98 18.2603 401.606 19.8663 401.606 21.6263C401.606 21.9343 401.606 24.3103 402.508 24.3103C402.97 24.3103 403.366 23.8923 403.366 23.5183C403.366 23.4083 403.366 23.3643 403.212 23.0343C402.618 21.5163 402.618 19.6243 402.618 19.4703C402.618 19.3383 402.618 17.7763 403.08 15.7963H405.544C405.83 15.7963 406.556 15.7963 406.556 15.0923C406.556 14.6083 406.138 14.6083 405.742 14.6083H398.504C397.998 14.6083 397.25 14.6083 396.238 15.6863C395.666 16.3243 394.962 17.4903 394.962 17.6223C394.962 17.7543 395.072 17.7983 395.204 17.7983C395.358 17.7983 395.38 17.7323 395.49 17.6003C396.634 15.7963 397.778 15.7963 398.328 15.7963H399.582C399.098 17.4463 398.548 19.3603 396.744 23.2103C396.568 23.5623 396.568 23.6063 396.568 23.7383C396.568 24.2003 396.964 24.3103 397.162 24.3103C397.8 24.3103 397.976 23.7383 398.24 22.8143C398.592 21.6923 398.592 21.6483 398.812 20.7683L400.088 15.7963Z" fill="#FFFEFE"/>
<path d="M417.827 15.1143C417.123 15.2463 416.859 15.7743 416.859 16.1923C416.859 16.7203 417.277 16.8963 417.585 16.8963C418.245 16.8963 418.707 16.3243 418.707 15.7303C418.707 14.8063 417.651 14.3883 416.727 14.3883C415.385 14.3883 414.637 15.7083 414.439 16.1263C413.933 14.4763 412.569 14.3883 412.173 14.3883C409.929 14.3883 408.741 17.2703 408.741 17.7543C408.741 17.8423 408.829 17.9523 408.983 17.9523C409.159 17.9523 409.203 17.8203 409.247 17.7323C409.995 15.2903 411.469 14.8283 412.107 14.8283C413.097 14.8283 413.295 15.7523 413.295 16.2803C413.295 16.7643 413.163 17.2703 412.899 18.3263L412.151 21.3403C411.821 22.6603 411.183 23.8703 410.017 23.8703C409.907 23.8703 409.357 23.8703 408.895 23.5843C409.687 23.4303 409.863 22.7703 409.863 22.5063C409.863 22.0663 409.533 21.8023 409.115 21.8023C408.587 21.8023 408.015 22.2643 408.015 22.9683C408.015 23.8923 409.049 24.3103 409.995 24.3103C411.051 24.3103 411.799 23.4743 412.261 22.5723C412.613 23.8703 413.713 24.3103 414.527 24.3103C416.771 24.3103 417.959 21.4283 417.959 20.9443C417.959 20.8343 417.871 20.7463 417.739 20.7463C417.541 20.7463 417.519 20.8563 417.453 21.0323C416.859 22.9683 415.583 23.8703 414.593 23.8703C413.823 23.8703 413.405 23.2983 413.405 22.3963C413.405 21.9123 413.493 21.5603 413.845 20.1083L414.615 17.1163C414.945 15.7963 415.693 14.8283 416.705 14.8283C416.749 14.8283 417.365 14.8283 417.827 15.1143Z" fill="#FFFEFE"/>
<path d="M419.64 33.0334H371.843V33.9134H419.64V33.0334Z" fill="#FFFEFE"/>
<path d="M391.643 40.7323C391.841 39.8963 391.907 39.6763 393.843 39.6763C394.437 39.6763 394.591 39.6763 394.591 39.2583C394.591 39.0383 394.349 39.0383 394.261 39.0383C393.821 39.0383 393.315 39.0823 392.875 39.0823H389.927C389.509 39.0823 389.025 39.0383 388.607 39.0383C388.431 39.0383 388.189 39.0383 388.189 39.4563C388.189 39.6763 388.387 39.6763 388.717 39.6763C390.059 39.6763 390.059 39.8523 390.059 40.0943C390.059 40.1383 390.059 40.2703 389.971 40.6003L387.001 52.4363C386.803 53.2063 386.759 53.4263 385.219 53.4263C384.801 53.4263 384.581 53.4263 384.581 53.8223C384.581 54.0643 384.713 54.0643 385.153 54.0643H395.009C395.493 54.0643 395.515 54.0423 395.669 53.6463L397.363 48.9603C397.407 48.8503 397.451 48.7183 397.451 48.6523C397.451 48.5203 397.341 48.4323 397.231 48.4323C397.209 48.4323 397.099 48.4323 397.055 48.5203C397.011 48.5423 397.011 48.5863 396.835 49.0043C396.131 50.9403 395.141 53.4263 391.423 53.4263H389.311C389.003 53.4263 388.959 53.4263 388.827 53.4043C388.585 53.3823 388.563 53.3383 388.563 53.1623C388.563 53.0083 388.607 52.8763 388.651 52.6783L391.643 40.7323Z" fill="#FFFEFE"/>
<path d="M405.573 51.5124C404.928 51.6737 404.899 52.2457 404.899 52.3044C404.899 52.627 405.148 52.847 405.471 52.847C405.793 52.847 406.292 52.5977 406.292 51.967C406.292 51.131 405.368 50.8964 404.825 50.8964C404.136 50.8964 403.579 51.3804 403.241 51.9524C402.919 51.175 402.156 50.8964 401.555 50.8964C399.956 50.8964 399.061 52.7297 399.061 53.1404C399.061 53.2724 399.164 53.331 399.281 53.331C399.457 53.331 399.487 53.2577 399.531 53.0817C399.868 52.011 400.748 51.307 401.511 51.307C402.083 51.307 402.361 51.7177 402.361 52.2457C402.361 52.539 402.185 53.2137 402.068 53.683C401.965 54.1084 401.643 55.4137 401.569 55.6924C401.364 56.4844 400.836 57.1004 400.176 57.1004C400.117 57.1004 399.736 57.1004 399.428 56.895C400.103 56.7337 400.103 56.1177 400.103 56.103C400.103 55.7657 399.839 55.5604 399.516 55.5604C399.12 55.5604 398.695 55.8977 398.695 56.455C398.695 57.1297 399.413 57.511 400.161 57.511C400.939 57.511 401.481 56.9244 401.745 56.455C402.068 57.1737 402.743 57.511 403.447 57.511C405.045 57.511 405.925 55.6777 405.925 55.267C405.925 55.1204 405.808 55.0764 405.705 55.0764C405.529 55.0764 405.5 55.179 405.456 55.3257C405.163 56.3084 404.327 57.1004 403.476 57.1004C402.992 57.1004 402.64 56.7777 402.64 56.1617C402.64 55.8684 402.728 55.531 402.933 54.7097C403.036 54.2697 403.359 52.979 403.432 52.7004C403.637 51.9377 404.151 51.307 404.811 51.307C404.884 51.307 405.265 51.307 405.573 51.5124Z" fill="#FFFEFE"/>
<path d="M433.434 33.4731C433.434 24.8271 431.454 16.1151 425.866 9.53712C425.426 9.03112 424.59 8.12912 423.688 7.33712C423.424 7.07312 423.38 7.07312 423.072 7.07312C422.808 7.07312 422.61 7.07312 422.61 7.29312C422.61 7.38112 422.698 7.46912 422.742 7.51312C423.512 8.30512 424.986 9.77912 426.46 12.1551C430.002 17.8311 431.608 24.9811 431.608 33.4511C431.608 39.3691 430.816 47.0031 427.186 53.5591C425.448 56.6831 423.622 58.5091 422.698 59.4331C422.654 59.4991 422.61 59.5651 422.61 59.6311C422.61 59.8511 422.808 59.8511 423.072 59.8511C423.38 59.8511 423.424 59.8511 423.754 59.5211C431.124 52.8111 433.434 42.7351 433.434 33.4731Z" fill="#FFFEFE"/>
<path d="M448.917 29.6674C448.917 29.2714 448.917 29.1614 448.697 29.1614C448.521 29.1614 448.103 29.6454 447.949 29.8434C447.267 29.2934 446.585 29.1614 445.881 29.1614C443.219 29.1614 442.427 30.6134 442.427 31.8234C442.427 32.0654 442.427 32.8354 443.263 33.6054C443.967 34.2214 444.715 34.3754 445.727 34.5734C446.937 34.8154 447.223 34.8814 447.773 35.3214C448.169 35.6514 448.455 36.1354 448.455 36.7514C448.455 37.6974 447.905 38.7534 445.969 38.7534C444.517 38.7534 443.461 37.9174 442.977 35.7174C442.889 35.3214 442.889 35.2994 442.867 35.2774C442.823 35.1894 442.735 35.1894 442.669 35.1894C442.427 35.1894 442.427 35.2994 442.427 35.6954V38.6874C442.427 39.0834 442.427 39.1934 442.647 39.1934C442.757 39.1934 442.779 39.1714 443.153 38.7094C443.263 38.5554 443.263 38.5114 443.593 38.1594C444.429 39.1934 445.617 39.1934 445.991 39.1934C448.301 39.1934 449.445 37.9174 449.445 36.1794C449.445 34.9914 448.719 34.2874 448.521 34.0894C447.729 33.4074 447.135 33.2754 445.683 33.0114C445.023 32.8794 443.417 32.5714 443.417 31.2514C443.417 30.5694 443.879 29.5574 445.859 29.5574C448.257 29.5574 448.389 31.6034 448.433 32.2854C448.455 32.4614 448.609 32.4614 448.675 32.4614C448.917 32.4614 448.917 32.3514 448.917 31.9554V29.6674Z" fill="#FFFEFE"/>
<path d="M454.026 25.4215C454.026 24.8495 453.564 24.3435 452.948 24.3435C452.376 24.3435 451.892 24.8055 451.892 25.3995C451.892 26.0595 452.42 26.4775 452.948 26.4775C453.63 26.4775 454.026 25.9055 454.026 25.4215ZM450.99 29.5135V30.1515C452.398 30.1515 452.596 30.2835 452.596 31.3615V37.3455C452.596 38.3355 452.354 38.3355 450.924 38.3355V38.9735C451.54 38.9295 452.596 38.9295 453.234 38.9295C453.476 38.9295 454.752 38.9295 455.5 38.9735V38.3355C454.07 38.3355 453.982 38.2255 453.982 37.3675V29.2715L450.99 29.5135Z" fill="#FFFEFE"/>
<path d="M465.972 33.6275C465.972 31.5815 465.972 30.9655 465.466 30.2615C464.828 29.4035 463.794 29.2715 463.046 29.2715C460.912 29.2715 460.076 31.0975 459.9 31.5375H459.878V29.2715L456.886 29.5135V30.1515C458.382 30.1515 458.558 30.3055 458.558 31.3835V37.3455C458.558 38.3355 458.316 38.3355 456.886 38.3355V38.9735C457.458 38.9295 458.646 38.9295 459.262 38.9295C459.9 38.9295 461.088 38.9295 461.66 38.9735V38.3355C460.252 38.3355 459.988 38.3355 459.988 37.3455V33.2535C459.988 30.9435 461.506 29.7115 462.87 29.7115C464.234 29.7115 464.542 30.8335 464.542 32.1755V37.3455C464.542 38.3355 464.3 38.3355 462.87 38.3355V38.9735C463.442 38.9295 464.63 38.9295 465.246 38.9295C465.884 38.9295 467.072 38.9295 467.644 38.9735V38.3355C466.544 38.3355 465.994 38.3355 465.972 37.6755V33.6275Z" fill="#FFFEFE"/>
<path d="M487.216 59.6311C487.216 59.5431 487.172 59.4991 487.128 59.4331C486.314 58.6191 484.84 57.1451 483.366 54.7691C479.824 49.0931 478.218 41.9431 478.218 33.4731C478.218 27.5551 479.01 19.9211 482.64 13.3651C484.378 10.2411 486.182 8.43712 487.15 7.46912C487.216 7.40312 487.216 7.35912 487.216 7.29312C487.216 7.07312 487.062 7.07312 486.754 7.07312C486.446 7.07312 486.402 7.07312 486.072 7.40312C478.702 14.1131 476.392 24.1891 476.392 33.4511C476.392 42.0971 478.372 50.8091 483.96 57.3871C484.4 57.8931 485.236 58.7951 486.138 59.5871C486.402 59.8511 486.446 59.8511 486.754 59.8511C487.062 59.8511 487.216 59.8511 487.216 59.6311Z" fill="#FFFEFE"/>
<path d="M494.743 17.6443C494.787 17.5123 495.337 16.4123 496.151 15.7083C496.723 15.1803 497.471 14.8283 498.329 14.8283C499.209 14.8283 499.517 15.4883 499.517 16.3683C499.517 17.6223 498.615 20.1303 498.175 21.3183C497.977 21.8463 497.867 22.1323 497.867 22.5283C497.867 23.5183 498.549 24.3103 499.605 24.3103C501.651 24.3103 502.421 21.0763 502.421 20.9443C502.421 20.8343 502.333 20.7463 502.201 20.7463C502.003 20.7463 501.981 20.8123 501.871 21.1863C501.365 22.9903 500.529 23.8703 499.671 23.8703C499.451 23.8703 499.099 23.8483 499.099 23.1443C499.099 22.5943 499.341 21.9343 499.473 21.6263C499.913 20.4163 500.837 17.9523 500.837 16.6983C500.837 15.3783 500.067 14.3883 498.395 14.3883C496.437 14.3883 495.403 15.7743 495.007 16.3243C494.941 15.0703 494.039 14.3883 493.071 14.3883C492.367 14.3883 491.883 14.8063 491.509 15.5543C491.113 16.3463 490.805 17.6663 490.805 17.7543C490.805 17.8423 490.893 17.9523 491.047 17.9523C491.223 17.9523 491.245 17.9303 491.377 17.4243C491.729 16.0823 492.125 14.8283 493.005 14.8283C493.511 14.8283 493.687 15.1803 493.687 15.8403C493.687 16.3243 493.467 17.1823 493.313 17.8643L492.697 20.2403C492.609 20.6583 492.367 21.6483 492.257 22.0443C492.103 22.6163 491.861 23.6503 491.861 23.7603C491.861 24.0683 492.103 24.3103 492.433 24.3103C492.697 24.3103 493.005 24.1783 493.181 23.8483C493.225 23.7383 493.423 22.9683 493.533 22.5283L494.017 20.5483L494.743 17.6443Z" fill="#FFFEFE"/>
<path d="M510.667 21.8609C510.725 21.6556 510.725 21.6262 510.725 21.5236C510.725 21.1569 510.432 21.0689 510.256 21.0689C510.183 21.0689 509.845 21.0836 509.655 21.4649C509.625 21.5382 509.493 22.0662 509.42 22.3742L508.54 25.8942C508.525 25.9382 507.895 27.1262 506.824 27.1262C506.105 27.1262 505.856 26.5982 505.856 25.9382C505.856 25.0876 506.355 23.7822 506.692 22.9316C506.839 22.5649 506.883 22.4329 506.883 22.1689C506.883 21.3622 506.237 20.9222 505.563 20.9222C504.111 20.9222 503.509 22.9902 503.509 23.1662C503.509 23.2982 503.612 23.3569 503.729 23.3569C503.92 23.3569 503.935 23.2689 503.979 23.1222C504.36 21.8462 504.991 21.3329 505.519 21.3329C505.739 21.3329 505.871 21.4796 505.871 21.8169C505.871 22.1249 505.753 22.4622 505.651 22.7262C505.049 24.2809 504.8 25.0289 504.8 25.7182C504.8 27.1556 505.885 27.5369 506.751 27.5369C507.44 27.5369 507.939 27.2289 508.291 26.8916C508.085 27.7129 507.939 28.2849 507.381 28.9889C506.897 29.5902 506.311 29.9716 505.651 29.9716C505.401 29.9716 504.844 29.9276 504.551 29.4876C505.328 29.4289 505.387 28.7689 505.387 28.6809C505.387 28.3289 505.123 28.1382 504.815 28.1382C504.492 28.1382 503.979 28.3876 503.979 29.1062C503.979 29.7956 504.609 30.3822 505.651 30.3822C507.147 30.3822 508.833 29.1796 509.273 27.4049L510.667 21.8609Z" fill="#FFFEFE"/>
<path d="M517.913 15.7963H520.399C519.805 18.2603 519.431 19.8663 519.431 21.6263C519.431 21.9343 519.431 24.3103 520.333 24.3103C520.795 24.3103 521.191 23.8923 521.191 23.5183C521.191 23.4083 521.191 23.3643 521.037 23.0343C520.443 21.5163 520.443 19.6243 520.443 19.4703C520.443 19.3383 520.443 17.7763 520.905 15.7963H523.369C523.655 15.7963 524.381 15.7963 524.381 15.0923C524.381 14.6083 523.963 14.6083 523.567 14.6083H516.329C515.823 14.6083 515.075 14.6083 514.063 15.6863C513.491 16.3243 512.787 17.4903 512.787 17.6223C512.787 17.7543 512.897 17.7983 513.029 17.7983C513.183 17.7983 513.205 17.7323 513.315 17.6003C514.459 15.7963 515.603 15.7963 516.153 15.7963H517.407C516.923 17.4463 516.373 19.3603 514.569 23.2103C514.393 23.5623 514.393 23.6063 514.393 23.7383C514.393 24.2003 514.789 24.3103 514.987 24.3103C515.625 24.3103 515.801 23.7383 516.065 22.8143C516.417 21.6923 516.417 21.6483 516.637 20.7683L517.913 15.7963Z" fill="#FFFEFE"/>
<path d="M531.01 26.5543C530.416 27.3903 529.558 28.1383 528.48 28.1383C528.216 28.1383 527.16 28.0943 526.83 27.0823C526.896 27.1043 527.006 27.1043 527.05 27.1043C527.71 27.1043 528.15 26.5323 528.15 26.0263C528.15 25.5203 527.732 25.3443 527.402 25.3443C527.05 25.3443 526.28 25.6083 526.28 26.6863C526.28 27.8083 527.226 28.5783 528.48 28.5783C530.68 28.5783 532.902 26.5543 533.518 24.1123L535.674 15.5323C535.696 15.4223 535.74 15.2903 535.74 15.1583C535.74 14.8283 535.476 14.6083 535.146 14.6083C534.948 14.6083 534.486 14.6963 534.31 15.3563L532.682 21.8243C532.572 22.2203 532.572 22.2643 532.396 22.5063C531.956 23.1223 531.23 23.8703 530.174 23.8703C528.942 23.8703 528.832 22.6603 528.832 22.0663C528.832 20.8123 529.426 19.1183 530.02 17.5343C530.262 16.8963 530.394 16.5883 530.394 16.1483C530.394 15.2243 529.734 14.3883 528.656 14.3883C526.632 14.3883 525.818 17.5783 525.818 17.7543C525.818 17.8423 525.906 17.9523 526.06 17.9523C526.258 17.9523 526.28 17.8643 526.368 17.5563C526.896 15.7083 527.732 14.8283 528.59 14.8283C528.788 14.8283 529.162 14.8283 529.162 15.5543C529.162 16.1263 528.92 16.7643 528.59 17.6003C527.512 20.4823 527.512 21.2083 527.512 21.7363C527.512 23.8263 529.008 24.3103 530.108 24.3103C530.746 24.3103 531.538 24.1123 532.308 23.2983L532.33 23.3203C532 24.6183 531.78 25.4763 531.01 26.5543Z" fill="#FFFEFE"/>
<path d="M536.517 33.0334H490.211V33.9134H536.517V33.0334Z" fill="#FFFEFE"/>
<path d="M509.537 40.7323C509.735 39.8963 509.801 39.6763 511.737 39.6763C512.331 39.6763 512.485 39.6763 512.485 39.2583C512.485 39.0383 512.243 39.0383 512.155 39.0383C511.715 39.0383 511.209 39.0823 510.769 39.0823H507.821C507.403 39.0823 506.919 39.0383 506.501 39.0383C506.325 39.0383 506.083 39.0383 506.083 39.4563C506.083 39.6763 506.281 39.6763 506.611 39.6763C507.953 39.6763 507.953 39.8523 507.953 40.0943C507.953 40.1383 507.953 40.2703 507.865 40.6003L504.895 52.4363C504.697 53.2063 504.653 53.4263 503.113 53.4263C502.695 53.4263 502.475 53.4263 502.475 53.8223C502.475 54.0643 502.607 54.0643 503.047 54.0643H512.903C513.387 54.0643 513.409 54.0423 513.563 53.6463L515.257 48.9603C515.301 48.8503 515.345 48.7183 515.345 48.6523C515.345 48.5203 515.235 48.4323 515.125 48.4323C515.103 48.4323 514.993 48.4323 514.949 48.5203C514.905 48.5423 514.905 48.5863 514.729 49.0043C514.025 50.9403 513.035 53.4263 509.317 53.4263H507.205C506.897 53.4263 506.853 53.4263 506.721 53.4043C506.479 53.3823 506.457 53.3383 506.457 53.1623C506.457 53.0083 506.501 52.8763 506.545 52.6783L509.537 40.7323Z" fill="#FFFEFE"/>
<path d="M523.716 51.835C523.775 51.6297 523.775 51.6004 523.775 51.4977C523.775 51.131 523.482 51.043 523.306 51.043C523.232 51.043 522.895 51.0577 522.704 51.439C522.675 51.5124 522.543 52.0404 522.47 52.3484L521.59 55.8684C521.575 55.9124 520.944 57.1004 519.874 57.1004C519.155 57.1004 518.906 56.5724 518.906 55.9124C518.906 55.0617 519.404 53.7564 519.742 52.9057C519.888 52.539 519.932 52.407 519.932 52.143C519.932 51.3364 519.287 50.8964 518.612 50.8964C517.16 50.8964 516.559 52.9644 516.559 53.1404C516.559 53.2724 516.662 53.331 516.779 53.331C516.97 53.331 516.984 53.243 517.028 53.0964C517.41 51.8204 518.04 51.307 518.568 51.307C518.788 51.307 518.92 51.4537 518.92 51.791C518.92 52.099 518.803 52.4364 518.7 52.7004C518.099 54.255 517.85 55.003 517.85 55.6924C517.85 57.1297 518.935 57.511 519.8 57.511C520.49 57.511 520.988 57.203 521.34 56.8657C521.135 57.687 520.988 58.259 520.431 58.963C519.947 59.5644 519.36 59.9457 518.7 59.9457C518.451 59.9457 517.894 59.9017 517.6 59.4617C518.378 59.403 518.436 58.743 518.436 58.655C518.436 58.303 518.172 58.1124 517.864 58.1124C517.542 58.1124 517.028 58.3617 517.028 59.0804C517.028 59.7697 517.659 60.3564 518.7 60.3564C520.196 60.3564 521.883 59.1537 522.323 57.379L523.716 51.835Z" fill="#FFFEFE"/>
<path d="M550.311 33.4731C550.311 24.8271 548.331 16.1151 542.743 9.53712C542.303 9.03112 541.467 8.12912 540.565 7.33712C540.301 7.07312 540.257 7.07312 539.949 7.07312C539.685 7.07312 539.487 7.07312 539.487 7.29312C539.487 7.38112 539.575 7.46912 539.619 7.51312C540.389 8.30512 541.863 9.77912 543.337 12.1551C546.879 17.8311 548.485 24.9811 548.485 33.4511C548.485 39.3691 547.693 47.0031 544.063 53.5591C542.325 56.6831 540.499 58.5091 539.575 59.4331C539.531 59.4991 539.487 59.5651 539.487 59.6311C539.487 59.8511 539.685 59.8511 539.949 59.8511C540.257 59.8511 540.301 59.8511 540.631 59.5211C548.001 52.8111 550.311 42.7351 550.311 33.4731Z" fill="#FFFEFE"/>
<path d="M565.794 29.6674C565.794 29.2714 565.794 29.1614 565.574 29.1614C565.398 29.1614 564.98 29.6454 564.826 29.8434C564.144 29.2934 563.462 29.1614 562.758 29.1614C560.096 29.1614 559.304 30.6134 559.304 31.8234C559.304 32.0654 559.304 32.8354 560.14 33.6054C560.844 34.2214 561.592 34.3754 562.604 34.5734C563.814 34.8154 564.1 34.8814 564.65 35.3214C565.046 35.6514 565.332 36.1354 565.332 36.7514C565.332 37.6974 564.782 38.7534 562.846 38.7534C561.394 38.7534 560.338 37.9174 559.854 35.7174C559.766 35.3214 559.766 35.2994 559.744 35.2774C559.7 35.1894 559.612 35.1894 559.546 35.1894C559.304 35.1894 559.304 35.2994 559.304 35.6954V38.6874C559.304 39.0834 559.304 39.1934 559.524 39.1934C559.634 39.1934 559.656 39.1714 560.03 38.7094C560.14 38.5554 560.14 38.5114 560.47 38.1594C561.306 39.1934 562.494 39.1934 562.868 39.1934C565.178 39.1934 566.322 37.9174 566.322 36.1794C566.322 34.9914 565.596 34.2874 565.398 34.0894C564.606 33.4074 564.012 33.2754 562.56 33.0114C561.9 32.8794 560.294 32.5714 560.294 31.2514C560.294 30.5694 560.756 29.5574 562.736 29.5574C565.134 29.5574 565.266 31.6034 565.31 32.2854C565.332 32.4614 565.486 32.4614 565.552 32.4614C565.794 32.4614 565.794 32.3514 565.794 31.9554V29.6674Z" fill="#FFFEFE"/>
<path d="M570.903 25.4215C570.903 24.8495 570.441 24.3435 569.825 24.3435C569.253 24.3435 568.769 24.8055 568.769 25.3995C568.769 26.0595 569.297 26.4775 569.825 26.4775C570.507 26.4775 570.903 25.9055 570.903 25.4215ZM567.867 29.5135V30.1515C569.275 30.1515 569.473 30.2835 569.473 31.3615V37.3455C569.473 38.3355 569.231 38.3355 567.801 38.3355V38.9735C568.417 38.9295 569.473 38.9295 570.111 38.9295C570.353 38.9295 571.629 38.9295 572.377 38.9735V38.3355C570.947 38.3355 570.859 38.2255 570.859 37.3675V29.2715L567.867 29.5135Z" fill="#FFFEFE"/>
<path d="M582.848 33.6275C582.848 31.5815 582.848 30.9655 582.342 30.2615C581.704 29.4035 580.67 29.2715 579.922 29.2715C577.788 29.2715 576.952 31.0975 576.776 31.5375H576.754V29.2715L573.762 29.5135V30.1515C575.258 30.1515 575.434 30.3055 575.434 31.3835V37.3455C575.434 38.3355 575.192 38.3355 573.762 38.3355V38.9735C574.334 38.9295 575.522 38.9295 576.138 38.9295C576.776 38.9295 577.964 38.9295 578.536 38.9735V38.3355C577.128 38.3355 576.864 38.3355 576.864 37.3455V33.2535C576.864 30.9435 578.382 29.7115 579.746 29.7115C581.11 29.7115 581.418 30.8335 581.418 32.1755V37.3455C581.418 38.3355 581.176 38.3355 579.746 38.3355V38.9735C580.318 38.9295 581.506 38.9295 582.122 38.9295C582.76 38.9295 583.948 38.9295 584.52 38.9735V38.3355C583.42 38.3355 582.87 38.3355 582.848 37.6755V33.6275Z" fill="#FFFEFE"/>
<path d="M604.092 59.6311C604.092 59.5431 604.048 59.4991 604.004 59.4331C603.19 58.6191 601.716 57.1451 600.242 54.7691C596.7 49.0931 595.094 41.9431 595.094 33.4731C595.094 27.5551 595.886 19.9211 599.516 13.3651C601.254 10.2411 603.058 8.43712 604.026 7.46912C604.092 7.40312 604.092 7.35912 604.092 7.29312C604.092 7.07312 603.938 7.07312 603.63 7.07312C603.322 7.07312 603.278 7.07312 602.948 7.40312C595.578 14.1131 593.268 24.1891 593.268 33.4511C593.268 42.0971 595.248 50.8091 600.836 57.3871C601.276 57.8931 602.112 58.7951 603.014 59.5871C603.278 59.8511 603.322 59.8511 603.63 59.8511C603.938 59.8511 604.092 59.8511 604.092 59.6311Z" fill="#FFFEFE"/>
<path d="M611.619 17.6443C611.663 17.5123 612.213 16.4123 613.027 15.7083C613.599 15.1803 614.347 14.8283 615.205 14.8283C616.085 14.8283 616.393 15.4883 616.393 16.3683C616.393 17.6223 615.491 20.1303 615.051 21.3183C614.853 21.8463 614.743 22.1323 614.743 22.5283C614.743 23.5183 615.425 24.3103 616.481 24.3103C618.527 24.3103 619.297 21.0763 619.297 20.9443C619.297 20.8343 619.209 20.7463 619.077 20.7463C618.879 20.7463 618.857 20.8123 618.747 21.1863C618.241 22.9903 617.405 23.8703 616.547 23.8703C616.327 23.8703 615.975 23.8483 615.975 23.1443C615.975 22.5943 616.217 21.9343 616.349 21.6263C616.789 20.4163 617.713 17.9523 617.713 16.6983C617.713 15.3783 616.943 14.3883 615.271 14.3883C613.313 14.3883 612.279 15.7743 611.883 16.3243C611.817 15.0703 610.915 14.3883 609.947 14.3883C609.243 14.3883 608.759 14.8063 608.385 15.5543C607.989 16.3463 607.681 17.6663 607.681 17.7543C607.681 17.8423 607.769 17.9523 607.923 17.9523C608.099 17.9523 608.121 17.9303 608.253 17.4243C608.605 16.0823 609.001 14.8283 609.881 14.8283C610.387 14.8283 610.563 15.1803 610.563 15.8403C610.563 16.3243 610.343 17.1823 610.189 17.8643L609.573 20.2403C609.485 20.6583 609.243 21.6483 609.133 22.0443C608.979 22.6163 608.737 23.6503 608.737 23.7603C608.737 24.0683 608.979 24.3103 609.309 24.3103C609.573 24.3103 609.881 24.1783 610.057 23.8483C610.101 23.7383 610.299 22.9683 610.409 22.5283L610.893 20.5483L611.619 17.6443Z" fill="#FFFEFE"/>
<path d="M622.072 26.1142C622.6 25.5716 622.761 25.4102 624.052 24.3396C624.213 24.2076 625.24 23.3569 625.636 22.9756C626.56 22.0662 627.132 21.2596 627.132 21.0982C627.132 20.9662 627.015 20.9222 626.912 20.9222C626.765 20.9222 626.751 20.9516 626.604 21.1716C626.149 21.8462 625.827 21.9636 625.563 21.9636C625.284 21.9636 625.108 21.8462 624.815 21.5529C624.433 21.1862 624.14 20.9222 623.671 20.9222C622.497 20.9222 621.764 22.2422 621.764 22.6382C621.764 22.6529 621.764 22.8142 621.999 22.8142C622.145 22.8142 622.175 22.7556 622.233 22.5942C622.424 22.1689 623.055 22.0222 623.495 22.0222C623.832 22.0222 624.184 22.1102 624.536 22.2129C625.152 22.3742 625.284 22.3742 625.621 22.3742C625.313 22.6969 624.903 23.1076 623.773 24.0316C623.157 24.5449 622.541 25.0436 622.145 25.4249C621.06 26.4956 620.591 27.2142 620.591 27.3609C620.591 27.4929 620.693 27.5369 620.811 27.5369C620.957 27.5369 620.987 27.4929 621.06 27.3902C621.353 26.9502 621.808 26.4956 622.365 26.4956C622.703 26.4956 622.849 26.6276 623.128 26.9062C623.597 27.3609 623.861 27.5369 624.287 27.5369C625.812 27.5369 626.736 25.7182 626.736 25.2636C626.736 25.1316 626.633 25.0729 626.516 25.0729C626.355 25.0729 626.325 25.1609 626.267 25.3076C625.988 26.0409 625.181 26.4369 624.448 26.4369C624.169 26.4369 623.847 26.3636 623.407 26.2462C622.791 26.0849 622.644 26.0849 622.424 26.0849C622.277 26.0849 622.189 26.0849 622.072 26.1142Z" fill="#FFFEFE"/>
<path d="M634.428 15.7963H636.914C636.32 18.2603 635.946 19.8663 635.946 21.6263C635.946 21.9343 635.946 24.3103 636.848 24.3103C637.31 24.3103 637.706 23.8923 637.706 23.5183C637.706 23.4083 637.706 23.3643 637.552 23.0343C636.958 21.5163 636.958 19.6243 636.958 19.4703C636.958 19.3383 636.958 17.7763 637.42 15.7963H639.884C640.17 15.7963 640.896 15.7963 640.896 15.0923C640.896 14.6083 640.478 14.6083 640.082 14.6083H632.844C632.338 14.6083 631.59 14.6083 630.578 15.6863C630.006 16.3243 629.302 17.4903 629.302 17.6223C629.302 17.7543 629.412 17.7983 629.544 17.7983C629.698 17.7983 629.72 17.7323 629.83 17.6003C630.974 15.7963 632.118 15.7963 632.668 15.7963H633.922C633.438 17.4463 632.888 19.3603 631.084 23.2103C630.908 23.5623 630.908 23.6063 630.908 23.7383C630.908 24.2003 631.304 24.3103 631.502 24.3103C632.14 24.3103 632.316 23.7383 632.58 22.8143C632.932 21.6923 632.932 21.6483 633.152 20.7683L634.428 15.7963Z" fill="#FFFEFE"/>
<path d="M644.533 22.3083C645.479 21.2303 646.249 20.5483 647.349 19.5583C648.669 18.4143 649.241 17.8643 649.549 17.5343C651.089 16.0163 651.859 14.7403 651.859 14.5643C651.859 14.3883 651.683 14.3883 651.639 14.3883C651.485 14.3883 651.441 14.4763 651.331 14.6303C650.781 15.5763 650.253 16.0383 649.681 16.0383C649.219 16.0383 648.977 15.8403 648.559 15.3123C648.097 14.7623 647.723 14.3883 647.085 14.3883C645.479 14.3883 644.511 16.3903 644.511 16.8523C644.511 16.9183 644.533 17.0503 644.731 17.0503C644.907 17.0503 644.929 16.9623 644.995 16.8083C645.369 15.9283 646.425 15.7743 646.843 15.7743C647.305 15.7743 647.745 15.9283 648.207 16.1263C649.043 16.4783 649.395 16.4783 649.615 16.4783C649.769 16.4783 649.857 16.4783 649.967 16.4563C649.241 17.3143 648.053 18.3703 647.063 19.2723L644.841 21.3183C643.499 22.6823 642.685 23.9803 642.685 24.1343C642.685 24.2663 642.795 24.3103 642.927 24.3103C643.059 24.3103 643.081 24.2883 643.235 24.0243C643.587 23.4743 644.291 22.6603 645.105 22.6603C645.567 22.6603 645.787 22.8143 646.227 23.3643C646.645 23.8483 647.019 24.3103 647.723 24.3103C649.879 24.3103 651.111 21.5163 651.111 21.0103C651.111 20.9223 651.089 20.7903 650.869 20.7903C650.693 20.7903 650.671 20.8783 650.605 21.0983C650.121 22.3963 648.823 22.9243 647.965 22.9243C647.503 22.9243 647.063 22.7703 646.601 22.5723C645.721 22.2203 645.479 22.2203 645.193 22.2203C644.973 22.2203 644.731 22.2203 644.533 22.3083Z" fill="#FFFEFE"/>
<path d="M652.726 33.0334H607.087V33.9134H652.726V33.0334Z" fill="#FFFEFE"/>
<path d="M626.26 40.7323C626.458 39.8963 626.524 39.6763 628.46 39.6763C629.054 39.6763 629.208 39.6763 629.208 39.2583C629.208 39.0383 628.966 39.0383 628.878 39.0383C628.438 39.0383 627.932 39.0823 627.492 39.0823H624.544C624.126 39.0823 623.642 39.0383 623.224 39.0383C623.048 39.0383 622.806 39.0383 622.806 39.4563C622.806 39.6763 623.004 39.6763 623.334 39.6763C624.676 39.6763 624.676 39.8523 624.676 40.0943C624.676 40.1383 624.676 40.2703 624.588 40.6003L621.618 52.4363C621.42 53.2063 621.376 53.4263 619.836 53.4263C619.418 53.4263 619.198 53.4263 619.198 53.8223C619.198 54.0643 619.33 54.0643 619.77 54.0643H629.626C630.11 54.0643 630.132 54.0423 630.286 53.6463L631.98 48.9603C632.024 48.8503 632.068 48.7183 632.068 48.6523C632.068 48.5203 631.958 48.4323 631.848 48.4323C631.826 48.4323 631.716 48.4323 631.672 48.5203C631.628 48.5423 631.628 48.5863 631.452 49.0043C630.748 50.9403 629.758 53.4263 626.04 53.4263H623.928C623.62 53.4263 623.576 53.4263 623.444 53.4043C623.202 53.3823 623.18 53.3383 623.18 53.1623C623.18 53.0083 623.224 52.8763 623.268 52.6783L626.26 40.7323Z" fill="#FFFEFE"/>
<path d="M634.969 56.0884C635.497 55.5457 635.658 55.3844 636.949 54.3137C637.11 54.1817 638.137 53.331 638.533 52.9497C639.457 52.0404 640.029 51.2337 640.029 51.0724C640.029 50.9404 639.912 50.8964 639.809 50.8964C639.662 50.8964 639.648 50.9257 639.501 51.1457C639.046 51.8204 638.724 51.9377 638.46 51.9377C638.181 51.9377 638.005 51.8204 637.712 51.527C637.33 51.1604 637.037 50.8964 636.568 50.8964C635.394 50.8964 634.661 52.2164 634.661 52.6124C634.661 52.627 634.661 52.7884 634.896 52.7884C635.042 52.7884 635.072 52.7297 635.13 52.5684C635.321 52.143 635.952 51.9964 636.392 51.9964C636.729 51.9964 637.081 52.0844 637.433 52.187C638.049 52.3484 638.181 52.3484 638.518 52.3484C638.21 52.671 637.8 53.0817 636.67 54.0057C636.054 54.519 635.438 55.0177 635.042 55.399C633.957 56.4697 633.488 57.1884 633.488 57.335C633.488 57.467 633.59 57.511 633.708 57.511C633.854 57.511 633.884 57.467 633.957 57.3644C634.25 56.9244 634.705 56.4697 635.262 56.4697C635.6 56.4697 635.746 56.6017 636.025 56.8804C636.494 57.335 636.758 57.511 637.184 57.511C638.709 57.511 639.633 55.6924 639.633 55.2377C639.633 55.1057 639.53 55.047 639.413 55.047C639.252 55.047 639.222 55.135 639.164 55.2817C638.885 56.015 638.078 56.411 637.345 56.411C637.066 56.411 636.744 56.3377 636.304 56.2204C635.688 56.059 635.541 56.059 635.321 56.059C635.174 56.059 635.086 56.059 634.969 56.0884Z" fill="#FFFEFE"/>
<path d="M666.521 33.4731C666.521 24.8271 664.541 16.1151 658.953 9.53712C658.513 9.03112 657.677 8.12912 656.775 7.33712C656.511 7.07312 656.467 7.07312 656.159 7.07312C655.895 7.07312 655.697 7.07312 655.697 7.29312C655.697 7.38112 655.785 7.46912 655.829 7.51312C656.599 8.30512 658.073 9.77912 659.547 12.1551C663.089 17.8311 664.695 24.9811 664.695 33.4511C664.695 39.3691 663.903 47.0031 660.273 53.5591C658.535 56.6831 656.709 58.5091 655.785 59.4331C655.741 59.4991 655.697 59.5651 655.697 59.6311C655.697 59.8511 655.895 59.8511 656.159 59.8511C656.467 59.8511 656.511 59.8511 656.841 59.5211C664.211 52.8111 666.521 42.7351 666.521 33.4731Z" fill="#FFFEFE"/>
</svg>
