<svg width="298" height="23" viewBox="0 0 298 23" fill="none" xmlns="http://www.w3.org/2000/svg">
<path d="M49.1138 1.82637C49.1138 1.80354 49.2051 1.50675 49.2051 1.48392C49.2051 1.27844 49.0225 1.27844 48.954 1.27844C48.7485 1.27844 48.7257 1.39259 48.6344 1.73505L44.8674 16.8487C42.9725 16.6204 42.2647 15.6615 42.2647 14.2917C42.2647 13.7894 42.2647 13.2643 43.3377 10.4334C43.6345 9.61149 43.7487 9.3147 43.7487 8.90375C43.7487 7.87639 43.0181 7.0545 41.9451 7.0545C39.8447 7.0545 39 10.3649 39 10.5475C39 10.6389 39.0913 10.753 39.2511 10.753C39.4566 10.753 39.4794 10.6617 39.5708 10.3421C40.1187 8.35583 41.0319 7.51111 41.8766 7.51111C42.0821 7.51111 42.4702 7.53394 42.4702 8.26451C42.4702 8.35583 42.4702 8.85809 42.0821 9.86263C40.8493 13.1045 40.8493 13.6068 40.8493 14.1319C40.8493 16.3236 42.6757 17.1683 44.7304 17.3281C44.5478 18.0359 44.3879 18.7664 44.2053 19.4742C43.84 20.844 43.6802 21.4832 43.6802 21.5746C43.6802 21.78 43.8628 21.78 43.9313 21.78C43.977 21.78 44.0683 21.78 44.114 21.6887C44.2053 21.5974 45.1413 17.7619 45.2327 17.351C46.0774 17.351 47.881 17.351 49.9357 15.2277C50.6891 14.4058 51.374 13.3557 51.7621 12.374C51.9904 11.7804 52.5383 9.74847 52.5383 8.58413C52.5383 7.21431 51.8534 7.0545 51.6251 7.0545C51.0772 7.0545 50.5749 7.60243 50.5749 8.05903C50.5749 8.333 50.7348 8.49281 50.8261 8.58413C51.0316 8.7896 51.648 9.40602 51.648 10.5932C51.648 11.4151 51.1914 13.1045 49.7302 14.7483C47.8125 16.8943 46.0546 16.8943 45.3696 16.8943L49.1138 1.82637Z" fill="white"/>
<path d="M61.1556 22.6705C61.1556 22.602 61.1556 22.5563 60.7674 22.1682C58.4844 19.8623 57.2059 16.0953 57.2059 11.438C57.2059 7.00889 58.2789 3.19624 60.9273 0.502266C61.1556 0.296793 61.1556 0.251133 61.1556 0.182642C61.1556 0.0456602 61.0414 0 60.9501 0C60.6533 0 58.7812 1.64378 57.6625 3.88114C56.4982 6.187 55.9731 8.62984 55.9731 11.438C55.9731 13.4699 56.2927 16.1867 57.4799 18.6295C58.8269 21.3691 60.6989 22.8531 60.9501 22.8531C61.0414 22.8531 61.1556 22.8074 61.1556 22.6705Z" fill="white"/>
<path d="M73.2506 7.80784C72.5201 7.94482 72.2461 8.49275 72.2461 8.92653C72.2461 9.47445 72.6799 9.65709 72.9995 9.65709C73.6844 9.65709 74.1638 9.06351 74.1638 8.44709C74.1638 7.48822 73.068 7.05444 72.1091 7.05444C70.7165 7.05444 69.9402 8.42426 69.7348 8.85803C69.2097 7.14577 67.7942 7.05444 67.3832 7.05444C65.0546 7.05444 63.8217 10.0452 63.8217 10.5475C63.8217 10.6388 63.913 10.7529 64.0729 10.7529C64.2555 10.7529 64.3012 10.616 64.3468 10.5246C65.1231 7.99048 66.6527 7.51105 67.3148 7.51105C68.3421 7.51105 68.5476 8.46992 68.5476 9.01785C68.5476 9.52011 68.4106 10.0452 68.1366 11.1411L67.3604 14.2688C67.018 15.6386 66.3559 16.8943 65.1459 16.8943C65.0317 16.8943 64.461 16.8943 63.9815 16.5975C64.8034 16.4377 64.9861 15.7528 64.9861 15.4788C64.9861 15.0222 64.6436 14.7482 64.2098 14.7482C63.6619 14.7482 63.0683 15.2277 63.0683 15.9582C63.0683 16.9171 64.1414 17.3509 65.1231 17.3509C66.2189 17.3509 66.9951 16.4833 67.4746 15.5473C67.8399 16.8943 68.9814 17.3509 69.8261 17.3509C72.1548 17.3509 73.3876 14.3601 73.3876 13.8579C73.3876 13.7437 73.2963 13.6524 73.1593 13.6524C72.9538 13.6524 72.931 13.7665 72.8625 13.9492C72.2461 15.9582 70.9219 16.8943 69.8946 16.8943C69.0955 16.8943 68.6617 16.3007 68.6617 15.3647C68.6617 14.8624 68.7531 14.4971 69.1183 12.9903L69.9174 9.8854C70.2599 8.51558 71.0361 7.51105 72.0863 7.51105C72.1319 7.51105 72.7712 7.51105 73.2506 7.80784Z" fill="white"/>
<path d="M79.5842 17.2139C79.5842 15.8898 79.1504 14.9081 78.2144 14.9081C77.4838 14.9081 77.1185 15.5017 77.1185 16.0039C77.1185 16.5062 77.461 17.1226 78.2372 17.1226C78.534 17.1226 78.7851 17.0313 78.9906 16.8258C79.0363 16.7802 79.0591 16.7802 79.0819 16.7802C79.1276 16.7802 79.1276 17.0998 79.1276 17.2139C79.1276 17.9673 78.9906 19.4513 77.6665 20.9353C77.4153 21.2092 77.4153 21.2549 77.4153 21.3006C77.4153 21.4147 77.5295 21.5289 77.6436 21.5289C77.8263 21.5289 79.5842 19.8394 79.5842 17.2139Z" fill="white"/>
<path d="M91.1512 19.6796C90.5348 20.5471 89.6444 21.3234 88.5257 21.3234C88.2517 21.3234 87.1559 21.2777 86.8134 20.2275C86.8819 20.2503 86.9961 20.2503 87.0417 20.2503C87.7266 20.2503 88.1833 19.6568 88.1833 19.1317C88.1833 18.6066 87.7495 18.4239 87.407 18.4239C87.0417 18.4239 86.2427 18.6979 86.2427 19.8166C86.2427 20.9809 87.2244 21.78 88.5257 21.78C90.8087 21.78 93.1146 19.6796 93.7538 17.1454L95.9912 8.24162C96.014 8.12747 96.0597 7.99049 96.0597 7.8535C96.0597 7.51105 95.7857 7.28275 95.4433 7.28275C95.2378 7.28275 94.7584 7.37407 94.5757 8.05897L92.8863 14.7711C92.7721 15.182 92.7721 15.2277 92.5895 15.4788C92.1329 16.1181 91.3795 16.8943 90.2836 16.8943C89.0051 16.8943 88.891 15.6386 88.891 15.0222C88.891 13.7209 89.5074 11.963 90.1238 10.3192C90.375 9.65709 90.5119 9.33747 90.5119 8.88086C90.5119 7.92199 89.827 7.05444 88.7083 7.05444C86.608 7.05444 85.7632 10.3648 85.7632 10.5475C85.7632 10.6388 85.8546 10.7529 86.0144 10.7529C86.2198 10.7529 86.2427 10.6616 86.334 10.342C86.8819 8.42426 87.7495 7.51105 88.6399 7.51105C88.8453 7.51105 89.2334 7.51105 89.2334 8.26445C89.2334 8.85803 88.9823 9.52011 88.6399 10.3877C87.5212 13.3784 87.5212 14.1318 87.5212 14.6798C87.5212 16.8486 89.0736 17.3509 90.2151 17.3509C90.8772 17.3509 91.6991 17.1454 92.4982 16.3007L92.521 16.3235C92.1785 17.6705 91.9502 18.5609 91.1512 19.6796Z" fill="white"/>
<path d="M101.318 17.2139C101.318 15.8898 100.884 14.9081 99.9478 14.9081C99.2172 14.9081 98.852 15.5017 98.852 16.0039C98.852 16.5062 99.1944 17.1226 99.9706 17.1226C100.267 17.1226 100.519 17.0313 100.724 16.8258C100.77 16.7802 100.793 16.7802 100.815 16.7802C100.861 16.7802 100.861 17.0998 100.861 17.2139C100.861 17.9673 100.724 19.4513 99.3999 20.9353C99.1488 21.2092 99.1488 21.2549 99.1488 21.3006C99.1488 21.4147 99.2629 21.5289 99.3771 21.5289C99.5597 21.5289 101.318 19.8394 101.318 17.2139Z" fill="white"/>
<path d="M109.78 15.2733C110.761 14.1547 111.56 13.4469 112.702 12.4196C114.072 11.2324 114.665 10.6616 114.985 10.3192C116.583 8.74388 117.382 7.41973 117.382 7.23709C117.382 7.05444 117.2 7.05444 117.154 7.05444C116.994 7.05444 116.948 7.14577 116.834 7.30558C116.264 8.28728 115.716 8.76671 115.122 8.76671C114.643 8.76671 114.391 8.56124 113.958 8.01331C113.478 7.44256 113.09 7.05444 112.428 7.05444C110.761 7.05444 109.757 9.132 109.757 9.61143C109.757 9.67992 109.78 9.81691 109.985 9.81691C110.168 9.81691 110.191 9.72559 110.259 9.56577C110.647 8.65256 111.743 8.49275 112.177 8.49275C112.656 8.49275 113.113 8.65256 113.592 8.85803C114.46 9.22332 114.825 9.22332 115.054 9.22332C115.213 9.22332 115.305 9.22332 115.419 9.20049C114.665 10.0909 113.433 11.1867 112.405 12.1228L110.099 14.246C108.707 15.6615 107.862 17.0084 107.862 17.1683C107.862 17.3052 107.976 17.3509 108.113 17.3509C108.25 17.3509 108.273 17.3281 108.433 17.0541C108.798 16.4833 109.529 15.6386 110.373 15.6386C110.853 15.6386 111.081 15.7984 111.538 16.3692C111.971 16.8715 112.36 17.3509 113.09 17.3509C115.327 17.3509 116.606 14.4514 116.606 13.9264C116.606 13.835 116.583 13.6981 116.355 13.6981C116.172 13.6981 116.149 13.7894 116.081 14.0177C115.579 15.3647 114.232 15.9126 113.341 15.9126C112.862 15.9126 112.405 15.7528 111.926 15.5473C111.013 15.182 110.761 15.182 110.465 15.182C110.236 15.182 109.985 15.182 109.78 15.2733Z" fill="white"/>
<path d="M124.72 11.438C124.72 9.70286 124.492 6.87191 123.213 4.2236C121.866 1.48397 119.994 0 119.743 0C119.652 0 119.538 0.0456602 119.538 0.182642C119.538 0.251133 119.538 0.296793 119.926 0.684908C122.209 2.99076 123.487 6.75776 123.487 11.4151C123.487 15.8442 122.414 19.6569 119.766 22.3508C119.538 22.5563 119.538 22.602 119.538 22.6705C119.538 22.8074 119.652 22.8531 119.743 22.8531C120.04 22.8531 121.912 21.2093 123.031 18.972C124.195 16.6433 124.72 14.1776 124.72 11.438Z" fill="white"/>
<path d="M148.728 9.7257C149.047 9.7257 149.458 9.7257 149.458 9.31476C149.458 8.88098 149.07 8.88098 148.728 8.88098H135.28C134.961 8.88098 134.55 8.88098 134.55 9.29193C134.55 9.7257 134.938 9.7257 135.28 9.7257H148.728ZM148.728 13.9721C149.047 13.9721 149.458 13.9721 149.458 13.5612C149.458 13.1274 149.07 13.1274 148.728 13.1274H135.28C134.961 13.1274 134.55 13.1274 134.55 13.5384C134.55 13.9721 134.938 13.9721 135.28 13.9721H148.728Z" fill="white"/>
<path d="M167.89 7.85353L165.744 2.8537C166.041 2.30577 166.726 2.21445 167 2.19162C167.136 2.19162 167.388 2.16879 167.388 1.78067C167.388 1.52954 167.182 1.52954 167.045 1.52954C166.657 1.52954 166.2 1.5752 165.812 1.5752H164.488C163.096 1.5752 162.091 1.52954 162.068 1.52954C161.886 1.52954 161.657 1.52954 161.657 1.96331C161.657 2.19162 161.863 2.19162 162.159 2.19162C163.484 2.19162 163.575 2.41992 163.803 2.96785L166.52 9.31466L161.566 14.6113C160.744 15.5017 159.762 16.3692 158.073 16.4605C157.799 16.4834 157.616 16.4834 157.616 16.8943C157.616 16.9628 157.639 17.1226 157.89 17.1226C158.21 17.1226 158.552 17.077 158.872 17.077H159.945C160.676 17.077 161.475 17.1226 162.182 17.1226C162.342 17.1226 162.616 17.1226 162.616 16.7117C162.616 16.4834 162.456 16.4605 162.319 16.4605C161.863 16.4149 161.566 16.1637 161.566 15.7985C161.566 15.4103 161.84 15.1364 162.502 14.4515L164.534 12.2369C165.036 11.7118 166.246 10.3877 166.748 9.88542L169.146 15.5017C169.168 15.5473 169.26 15.7756 169.26 15.7985C169.26 16.0039 168.757 16.4149 168.027 16.4605C167.89 16.4605 167.639 16.4834 167.639 16.8943C167.639 17.1226 167.867 17.1226 167.981 17.1226C168.369 17.1226 168.826 17.077 169.214 17.077H171.725C172.136 17.077 172.57 17.1226 172.958 17.1226C173.118 17.1226 173.369 17.1226 173.369 16.6888C173.369 16.4605 173.141 16.4605 172.935 16.4605C171.566 16.4377 171.52 16.3236 171.132 15.4788L168.118 8.40145L171.018 5.29653C171.246 5.06823 171.771 4.49747 171.977 4.26917C172.958 3.24181 173.871 2.30577 175.721 2.19162C175.949 2.16879 176.177 2.16879 176.177 1.78067C176.177 1.52954 175.972 1.52954 175.88 1.52954C175.561 1.52954 175.218 1.5752 174.899 1.5752H173.849C173.118 1.5752 172.319 1.52954 171.611 1.52954C171.451 1.52954 171.177 1.52954 171.177 1.94048C171.177 2.16879 171.337 2.19162 171.474 2.19162C171.84 2.23728 172.228 2.41992 172.228 2.8537L172.205 2.89936C172.182 3.05917 172.136 3.28747 171.885 3.56143L167.89 7.85353Z" fill="white"/>
<path d="M184.813 22.6705C184.813 22.602 184.813 22.5563 184.425 22.1682C182.142 19.8623 180.863 16.0953 180.863 11.438C180.863 7.00889 181.936 3.19624 184.585 0.502266C184.813 0.296793 184.813 0.251133 184.813 0.182642C184.813 0.0456602 184.699 0 184.607 0C184.311 0 182.439 1.64378 181.32 3.88114C180.156 6.187 179.63 8.62984 179.63 11.438C179.63 13.4699 179.95 16.1867 181.137 18.6295C182.484 21.3691 184.356 22.8531 184.607 22.8531C184.699 22.8531 184.813 22.8074 184.813 22.6705Z" fill="white"/>
<path d="M196.908 7.80784C196.177 7.94482 195.903 8.49275 195.903 8.92653C195.903 9.47445 196.337 9.65709 196.657 9.65709C197.342 9.65709 197.821 9.06351 197.821 8.44709C197.821 7.48822 196.725 7.05444 195.766 7.05444C194.374 7.05444 193.598 8.42426 193.392 8.85803C192.867 7.14577 191.452 7.05444 191.041 7.05444C188.712 7.05444 187.479 10.0452 187.479 10.5475C187.479 10.6388 187.57 10.7529 187.73 10.7529C187.913 10.7529 187.959 10.616 188.004 10.5246C188.78 7.99048 190.31 7.51105 190.972 7.51105C192 7.51105 192.205 8.46992 192.205 9.01785C192.205 9.52011 192.068 10.0452 191.794 11.1411L191.018 14.2688C190.675 15.6386 190.013 16.8943 188.803 16.8943C188.689 16.8943 188.118 16.8943 187.639 16.5975C188.461 16.4377 188.643 15.7528 188.643 15.4788C188.643 15.0222 188.301 14.7482 187.867 14.7482C187.319 14.7482 186.726 15.2277 186.726 15.9582C186.726 16.9171 187.799 17.3509 188.78 17.3509C189.876 17.3509 190.653 16.4833 191.132 15.5473C191.497 16.8943 192.639 17.3509 193.483 17.3509C195.812 17.3509 197.045 14.3601 197.045 13.8579C197.045 13.7437 196.954 13.6524 196.817 13.6524C196.611 13.6524 196.588 13.7665 196.52 13.9492C195.903 15.9582 194.579 16.8943 193.552 16.8943C192.753 16.8943 192.319 16.3007 192.319 15.3647C192.319 14.8624 192.41 14.4971 192.776 12.9903L193.575 9.8854C193.917 8.51558 194.693 7.51105 195.744 7.51105C195.789 7.51105 196.429 7.51105 196.908 7.80784Z" fill="white"/>
<path d="M205.228 11.438C205.228 9.70286 205 6.87191 203.721 4.2236C202.374 1.48397 200.502 0 200.251 0C200.16 0 200.045 0.0456602 200.045 0.182642C200.045 0.251133 200.045 0.296793 200.433 0.684908C202.716 2.99076 203.995 6.75776 203.995 11.4151C203.995 15.8442 202.922 19.6569 200.274 22.3508C200.045 22.5563 200.045 22.602 200.045 22.6705C200.045 22.8074 200.16 22.8531 200.251 22.8531C200.548 22.8531 202.42 21.2093 203.538 18.972C204.703 16.6433 205.228 14.1776 205.228 11.438Z" fill="white"/>
<path d="M220.907 4.0637L221.432 3.5386C222.437 2.51124 223.282 2.26011 224.081 2.19162C224.332 2.16879 224.537 2.14596 224.537 1.75784C224.537 1.52954 224.309 1.52954 224.263 1.52954C223.989 1.52954 223.693 1.5752 223.419 1.5752H222.483C221.82 1.5752 221.113 1.52954 220.473 1.52954C220.314 1.52954 220.063 1.52954 220.063 1.96331C220.063 2.16879 220.291 2.19162 220.359 2.19162C221.044 2.23728 221.044 2.57973 221.044 2.71671C221.044 2.96785 220.862 3.3103 220.405 3.8354L214.971 10.0681L212.392 3.12766C212.255 2.80804 212.255 2.76237 212.255 2.71671C212.255 2.23728 213.191 2.19162 213.465 2.19162C213.739 2.19162 213.99 2.19162 213.99 1.78067C213.99 1.52954 213.784 1.52954 213.647 1.52954C213.259 1.52954 212.803 1.5752 212.414 1.5752H209.88C209.469 1.5752 209.036 1.52954 208.647 1.52954C208.488 1.52954 208.236 1.52954 208.236 1.96331C208.236 2.19162 208.442 2.19162 208.784 2.19162C209.903 2.19162 210.109 2.39709 210.314 2.92219L213.145 10.5247C213.168 10.5932 213.236 10.8443 213.236 10.9128C213.236 10.9813 212.118 15.4788 212.049 15.7071C211.866 16.3236 211.638 16.4377 210.177 16.4605C209.789 16.4605 209.606 16.4605 209.606 16.8943C209.606 17.1226 209.857 17.1226 209.926 17.1226C210.337 17.1226 210.816 17.077 211.25 17.077H213.944C214.355 17.077 214.834 17.1226 215.245 17.1226C215.405 17.1226 215.679 17.1226 215.679 16.7117C215.679 16.4605 215.519 16.4605 215.131 16.4605C213.716 16.4605 213.716 16.3007 213.716 16.0496C213.716 15.8898 213.898 15.1592 214.013 14.7026L214.834 11.415C214.971 10.9356 214.971 10.8899 215.177 10.6616L220.907 4.0637Z" fill="white"/>
<path d="M232.841 22.6705C232.841 22.602 232.841 22.5563 232.453 22.1682C230.169 19.8623 228.891 16.0953 228.891 11.438C228.891 7.00889 229.964 3.19624 232.612 0.502266C232.841 0.296793 232.841 0.251133 232.841 0.182642C232.841 0.0456602 232.726 0 232.635 0C232.338 0 230.466 1.64378 229.348 3.88114C228.183 6.187 227.658 8.62984 227.658 11.438C227.658 13.4699 227.978 16.1867 229.165 18.6295C230.512 21.3691 232.384 22.8531 232.635 22.8531C232.726 22.8531 232.841 22.8074 232.841 22.6705Z" fill="white"/>
<path d="M240.119 19.6796C239.502 20.5471 238.612 21.3234 237.493 21.3234C237.219 21.3234 236.123 21.2777 235.781 20.2275C235.849 20.2503 235.963 20.2503 236.009 20.2503C236.694 20.2503 237.151 19.6568 237.151 19.1317C237.151 18.6066 236.717 18.4239 236.374 18.4239C236.009 18.4239 235.21 18.6979 235.21 19.8166C235.21 20.9809 236.192 21.78 237.493 21.78C239.776 21.78 242.082 19.6796 242.721 17.1454L244.959 8.24162C244.981 8.12747 245.027 7.99049 245.027 7.8535C245.027 7.51105 244.753 7.28275 244.411 7.28275C244.205 7.28275 243.726 7.37407 243.543 8.05897L241.854 14.7711C241.739 15.182 241.739 15.2277 241.557 15.4788C241.1 16.1181 240.347 16.8943 239.251 16.8943C237.972 16.8943 237.858 15.6386 237.858 15.0222C237.858 13.7209 238.475 11.963 239.091 10.3192C239.342 9.65709 239.479 9.33747 239.479 8.88086C239.479 7.92199 238.794 7.05444 237.676 7.05444C235.575 7.05444 234.731 10.3648 234.731 10.5475C234.731 10.6388 234.822 10.7529 234.982 10.7529C235.187 10.7529 235.21 10.6616 235.301 10.342C235.849 8.42426 236.717 7.51105 237.607 7.51105C237.813 7.51105 238.201 7.51105 238.201 8.26445C238.201 8.85803 237.95 9.52011 237.607 10.3877C236.489 13.3784 236.489 14.1318 236.489 14.6798C236.489 16.8486 238.041 17.3509 239.182 17.3509C239.845 17.3509 240.666 17.1454 241.466 16.3007L241.488 16.3235C241.146 17.6705 240.918 18.5609 240.119 19.6796Z" fill="white"/>
<path d="M252.271 11.438C252.271 9.70286 252.043 6.87191 250.764 4.2236C249.417 1.48397 247.545 0 247.294 0C247.203 0 247.089 0.0456602 247.089 0.182642C247.089 0.251133 247.089 0.296793 247.477 0.684908C249.76 2.99076 251.038 6.75776 251.038 11.4151C251.038 15.8442 249.965 19.6569 247.317 22.3508C247.089 22.5563 247.089 22.602 247.089 22.6705C247.089 22.8074 247.203 22.8531 247.294 22.8531C247.591 22.8531 249.463 21.2093 250.582 18.972C251.746 16.6433 252.271 14.1776 252.271 11.438Z" fill="white"/>
<path d="M270.508 2.23728C270.645 2.07747 270.759 1.94048 270.759 1.71218C270.759 1.55237 270.736 1.52954 270.211 1.52954H260.782C260.257 1.52954 260.234 1.55237 260.097 1.96331L258.841 6.07276C258.773 6.30107 258.773 6.34673 258.773 6.39239C258.773 6.48371 258.841 6.62069 259.001 6.62069C259.184 6.62069 259.229 6.52937 259.321 6.23258C260.166 3.76691 261.284 2.19162 264.891 2.19162H268.636L256.125 16.3464C255.919 16.5975 255.828 16.6888 255.828 16.94C255.828 17.1226 255.942 17.1226 256.376 17.1226H266.124C266.649 17.1226 266.672 17.0998 266.809 16.6888L268.407 11.6434C268.43 11.5749 268.476 11.415 268.476 11.3237C268.476 11.2096 268.384 11.0954 268.247 11.0954C268.065 11.0954 268.042 11.1183 267.859 11.689C266.9 14.6341 265.896 16.4149 261.923 16.4149H257.974L270.508 2.23728Z" fill="white"/>
<path d="M278.886 22.6705C278.886 22.602 278.886 22.5563 278.498 22.1682C276.215 19.8623 274.937 16.0953 274.937 11.438C274.937 7.00889 276.01 3.19624 278.658 0.502266C278.886 0.296793 278.886 0.251133 278.886 0.182642C278.886 0.0456602 278.772 0 278.681 0C278.384 0 276.512 1.64378 275.393 3.88114C274.229 6.187 273.704 8.62984 273.704 11.438C273.704 13.4699 274.024 16.1867 275.211 18.6295C276.558 21.3691 278.43 22.8531 278.681 22.8531C278.772 22.8531 278.886 22.8074 278.886 22.6705Z" fill="white"/>
<path d="M283.059 15.2733C284.041 14.1547 284.84 13.4469 285.982 12.4196C287.352 11.2324 287.945 10.6616 288.265 10.3192C289.863 8.74388 290.662 7.41973 290.662 7.23709C290.662 7.05444 290.479 7.05444 290.434 7.05444C290.274 7.05444 290.228 7.14577 290.114 7.30558C289.543 8.28728 288.995 8.76671 288.402 8.76671C287.922 8.76671 287.671 8.56124 287.237 8.01331C286.758 7.44256 286.37 7.05444 285.708 7.05444C284.041 7.05444 283.037 9.132 283.037 9.61143C283.037 9.67992 283.059 9.81691 283.265 9.81691C283.448 9.81691 283.47 9.72559 283.539 9.56577C283.927 8.65256 285.023 8.49275 285.457 8.49275C285.936 8.49275 286.393 8.65256 286.872 8.85803C287.74 9.22332 288.105 9.22332 288.333 9.22332C288.493 9.22332 288.584 9.22332 288.699 9.20049C287.945 10.0909 286.712 11.1867 285.685 12.1228L283.379 14.246C281.986 15.6615 281.142 17.0084 281.142 17.1683C281.142 17.3052 281.256 17.3509 281.393 17.3509C281.53 17.3509 281.553 17.3281 281.712 17.0541C282.078 16.4833 282.808 15.6386 283.653 15.6386C284.132 15.6386 284.361 15.7984 284.817 16.3692C285.251 16.8715 285.639 17.3509 286.37 17.3509C288.607 17.3509 289.886 14.4514 289.886 13.9264C289.886 13.835 289.863 13.6981 289.635 13.6981C289.452 13.6981 289.429 13.7894 289.361 14.0177C288.858 15.3647 287.511 15.9126 286.621 15.9126C286.142 15.9126 285.685 15.7528 285.206 15.5473C284.292 15.182 284.041 15.182 283.744 15.182C283.516 15.182 283.265 15.182 283.059 15.2733Z" fill="white"/>
<path d="M298 11.438C298 9.70286 297.772 6.87191 296.493 4.2236C295.146 1.48397 293.274 0 293.023 0C292.932 0 292.818 0.0456602 292.818 0.182642C292.818 0.251133 292.818 0.296793 293.206 0.684908C295.489 2.99076 296.767 6.75776 296.767 11.4151C296.767 15.8442 295.694 19.6569 293.046 22.3508C292.818 22.5563 292.818 22.602 292.818 22.6705C292.818 22.8074 292.932 22.8531 293.023 22.8531C293.32 22.8531 295.192 21.2093 296.311 18.972C297.475 16.6433 298 14.1776 298 11.438Z" fill="white"/>
<path d="M18.3 12.4C19.4455 13.3818 20.8364 14.0909 21.7364 14.5C20.7545 14.9364 19.4182 15.6455 18.3 16.6H0.981818C0.518181 16.6 0 16.6 0 17.1455C0 17.6909 0.490909 17.6909 0.954546 17.6909H17.0727C15.7636 18.9455 14.3455 21.3455 14.3455 21.7C14.3455 22 14.7 22 14.8636 22C15.0818 22 15.2727 22 15.3818 21.7818C15.9545 20.7455 16.7182 19.3 18.4909 17.7182C20.3727 16.0545 22.2 15.3182 23.6182 14.9091C24.0818 14.7455 24.1091 14.7182 24.1636 14.6636C24.2182 14.6364 24.2182 14.5545 24.2182 14.5C24.2182 14.4455 24.2182 14.3909 24.1909 14.3364L24.1091 14.2818C24.0545 14.2545 24.0273 14.2273 23.5091 14.0636C19.8273 12.9727 17.1 10.4909 15.5727 7.57273C15.2727 7.02727 15.2455 7 14.8636 7C14.7 7 14.3455 7 14.3455 7.3C14.3455 7.65455 15.7364 10.0273 17.0727 11.3091H0.954546C0.490909 11.3091 0 11.3091 0 11.8545C0 12.4 0.518181 12.4 0.981818 12.4H18.3Z" fill="white"/>
</svg>
