<svg width="424" height="33" viewBox="0 0 424 33" fill="none" xmlns="http://www.w3.org/2000/svg">
<path d="M61.4883 18.7364C61.5199 18.6463 61.6146 18.4362 61.6146 18.3162C61.6146 18.1661 61.4883 18.016 61.2989 18.016C61.1726 18.016 61.1095 18.046 61.0148 18.1361C60.9516 18.1661 60.9516 18.2261 60.6675 18.8264C58.8049 23.0286 57.4475 24.8295 52.3964 24.8295H47.7873C47.3454 24.8295 47.2822 24.8295 47.0928 24.7995C46.7456 24.7695 46.714 24.7094 46.714 24.4693C46.714 24.2592 46.7771 24.0791 46.8403 23.809L49.0185 15.5247H52.1439C54.6063 15.5247 54.7957 16.035 54.7957 16.9355C54.7957 17.2356 54.7957 17.5058 54.5747 18.4062C54.5116 18.5263 54.48 18.6463 54.48 18.7364C54.48 18.9465 54.6378 19.0365 54.8272 19.0365C55.1114 19.0365 55.1429 18.8264 55.2692 18.4062L57.0686 11.4427C57.0686 11.2926 56.9424 11.1425 56.753 11.1425C56.4688 11.1425 56.4373 11.2626 56.311 11.6828C55.6796 13.994 55.0482 14.6543 52.2386 14.6543H49.2395L51.1968 7.27054C51.4809 6.22001 51.5441 6.12996 52.8384 6.12996H57.3528C61.2358 6.12996 62.025 7.12047 62.025 9.40163C62.025 9.43165 62.025 10.2721 61.8987 11.2626C61.8671 11.3826 61.8356 11.5627 61.8356 11.6228C61.8356 11.8629 61.9934 11.9529 62.1828 11.9529C62.4038 11.9529 62.5301 11.8329 62.5932 11.2926L63.2562 6.03992C63.2562 5.94987 63.3193 5.64972 63.3193 5.58969C63.3193 5.25952 63.0352 5.25952 62.467 5.25952H47.0613C46.4614 5.25952 46.1458 5.25952 46.1458 5.7998C46.1458 6.12996 46.3667 6.12996 46.9034 6.12996C48.8607 6.12996 48.8607 6.34007 48.8607 6.67024C48.8607 6.82031 48.8291 6.94038 48.7344 7.27054L44.4726 23.4788C44.1885 24.5293 44.1253 24.8295 41.9155 24.8295C41.3157 24.8295 41 24.8295 41 25.3698C41 25.6999 41.1894 25.6999 41.8208 25.6999H57.6685C58.363 25.6999 58.3945 25.6699 58.6155 25.1897L61.4883 18.7364Z" fill="white"/>
<path d="M94.3585 15.9746C94.8005 15.9746 95.3687 15.9746 95.3687 15.4343C95.3687 14.864 94.8321 14.864 94.3585 14.864H75.7644C75.3224 14.864 74.7542 14.864 74.7542 15.4043C74.7542 15.9746 75.2908 15.9746 75.7644 15.9746H94.3585ZM94.3585 21.5574C94.8005 21.5574 95.3687 21.5574 95.3687 21.0171C95.3687 20.4469 94.8321 20.4469 94.3585 20.4469H75.7644C75.3224 20.4469 74.7542 20.4469 74.7542 20.9871C74.7542 21.5574 75.2908 21.5574 75.7644 21.5574H94.3585Z" fill="white"/>
<path d="M119.467 4.80907C119.246 4.38886 119.183 4.2688 118.741 4.2688C118.267 4.2688 118.204 4.38886 117.983 4.80907L107.439 25.0994C107.376 25.1895 107.313 25.3695 107.313 25.4896C107.313 25.6697 107.344 25.6997 107.976 25.6997H129.474C130.105 25.6997 130.137 25.6697 130.137 25.4896C130.137 25.3695 130.074 25.1895 130.011 25.0994L119.467 4.80907ZM117.762 7.0302L126.38 23.6287H109.175L117.762 7.0302Z" fill="white"/>
<path d="M138.123 16.9054C138.186 16.7253 138.975 15.2245 140.143 14.2641C140.964 13.5437 142.037 13.0634 143.269 13.0634C144.531 13.0634 144.973 13.9639 144.973 15.1645C144.973 15.3446 144.973 15.9449 144.595 17.3556L143.805 20.4472C143.553 21.3477 142.953 23.5688 142.89 23.899C142.763 24.3492 142.574 25.1296 142.574 25.2496C142.574 25.6699 142.921 26 143.395 26C144.342 26 144.5 25.3097 144.784 24.2291L146.678 17.0555C146.741 16.8154 148.383 13.0634 151.855 13.0634C153.118 13.0634 153.56 13.9639 153.56 15.1645C153.56 16.8454 152.329 20.117 151.634 21.918C151.35 22.6383 151.192 23.0285 151.192 23.5688C151.192 24.9195 152.171 26 153.686 26C156.622 26 157.727 21.5878 157.727 21.4077C157.727 21.2576 157.601 21.1376 157.412 21.1376C157.127 21.1376 157.096 21.2276 156.938 21.7379C156.212 24.1391 155.044 25.3997 153.781 25.3997C153.465 25.3997 152.96 25.3697 152.96 24.4092C152.96 23.6288 153.339 22.6683 153.465 22.3382C154.034 20.8974 155.454 17.3556 155.454 15.6147C155.454 13.8138 154.349 12.4631 151.95 12.4631C149.835 12.4631 148.13 13.6037 146.867 15.3746C146.773 13.7538 145.731 12.4631 143.363 12.4631C140.554 12.4631 139.07 14.3541 138.502 15.1045C138.407 13.3936 137.113 12.4631 135.724 12.4631C134.808 12.4631 134.082 12.8833 133.482 14.0239C132.914 15.1045 132.472 16.9354 132.472 17.0555C132.472 17.1755 132.598 17.3256 132.819 17.3256C133.072 17.3256 133.103 17.2956 133.293 16.6052C133.766 14.8343 134.366 13.0634 135.629 13.0634C136.355 13.0634 136.608 13.5437 136.608 14.4441C136.608 15.1045 136.292 16.2751 136.071 17.2055L135.187 20.4472C135.061 21.0175 134.713 22.3682 134.556 22.9085C134.335 23.6889 133.987 25.0996 133.987 25.2496C133.987 25.6699 134.335 26 134.808 26C135.187 26 135.629 25.8199 135.881 25.3697C135.945 25.2196 136.229 24.1691 136.387 23.5688L137.081 20.8674L138.123 16.9054Z" fill="white"/>
<path d="M171.001 14.4141C170.401 14.4141 170.117 14.4141 169.675 14.7743C169.486 14.9244 169.139 15.3746 169.139 15.8549C169.139 16.4552 169.612 16.8154 170.212 16.8154C170.97 16.8154 171.822 16.215 171.822 15.0144C171.822 13.5737 170.37 12.4631 168.192 12.4631C164.056 12.4631 159.92 16.7553 159.92 21.0175C159.92 23.6288 161.625 26 164.845 26C169.139 26 171.854 22.8184 171.854 22.4282C171.854 22.2481 171.664 22.098 171.538 22.098C171.443 22.098 171.412 22.1281 171.127 22.3982C169.107 24.9495 166.108 25.3997 164.908 25.3997C162.73 25.3997 162.036 23.5988 162.036 22.098C162.036 21.0475 162.572 18.136 163.709 16.095C164.529 14.6843 166.234 13.0634 168.223 13.0634C168.633 13.0634 170.37 13.1235 171.001 14.4141Z" fill="white"/>
<path d="M177.896 9.2247C178.233 8.92455 179.117 8.26421 179.453 7.98407C180.758 6.84349 182 5.74293 182 3.922C182 1.54079 179.895 0 177.265 0C174.739 0 173.076 1.82093 173.076 3.60184C173.076 4.58234 173.897 4.72241 174.192 4.72241C174.634 4.72241 175.286 4.42225 175.286 3.66187C175.286 2.62134 174.234 2.62134 173.981 2.62134C174.592 1.16059 176.002 0.660338 177.033 0.660338C178.99 0.660338 180.001 2.24114 180.001 3.922C180.001 6.00306 178.464 7.52384 175.981 9.94507L173.329 12.5464C173.076 12.7665 173.076 12.8065 173.076 13.3068H181.39L182 9.72496H181.348C181.284 10.1252 181.116 11.1257 180.864 11.5059C180.737 11.6659 179.138 11.6659 178.801 11.6659H175.055L177.896 9.2247Z" fill="white"/>
<path d="M21.96 12.48C23.3345 13.6582 25.0036 14.5091 26.0836 15C24.9055 15.5236 23.3018 16.3745 21.96 17.52H1.17818C0.621818 17.52 0 17.52 0 18.1745C0 18.8291 0.589091 18.8291 1.14546 18.8291H20.4873C18.9164 20.3345 17.2145 23.2145 17.2145 23.64C17.2145 24 17.64 24 17.8364 24C18.0982 24 18.3273 24 18.4582 23.7382C19.1455 22.4945 20.0618 20.76 22.1891 18.8618C24.4473 16.8655 26.64 15.9818 28.3418 15.4909C28.8982 15.2945 28.9309 15.2618 28.9964 15.1964C29.0618 15.1636 29.0618 15.0655 29.0618 15C29.0618 14.9345 29.0618 14.8691 29.0291 14.8036L28.9309 14.7382C28.8655 14.7055 28.8327 14.6727 28.2109 14.4764C23.7927 13.1673 20.52 10.1891 18.6873 6.68727C18.3273 6.03273 18.2945 6 17.8364 6C17.64 6 17.2145 6 17.2145 6.36C17.2145 6.78545 18.8836 9.63273 20.4873 11.1709H1.14546C0.589091 11.1709 0 11.1709 0 11.8255C0 12.48 0.621818 12.48 1.17818 12.48H21.96Z" fill="white"/>
<path d="M211.582 19.9407C212.042 19.9407 212.529 19.9407 212.529 19.3997C212.529 18.8586 212.042 18.8586 211.582 18.8586H196.947C196.487 18.8586 196 18.8586 196 19.3997C196 19.9407 196.487 19.9407 196.947 19.9407H211.582Z" fill="white"/>
<path d="M232.848 19.9405C231.36 21.0767 230.63 22.1859 230.414 22.5376C229.196 24.4042 228.98 26.1084 228.98 26.1355C228.98 26.4601 229.304 26.4601 229.521 26.4601C229.981 26.4601 230.008 26.406 230.116 25.9191C230.738 23.268 232.334 20.9956 235.391 19.7512C235.716 19.643 235.797 19.5889 235.797 19.3995C235.797 19.2101 235.635 19.129 235.581 19.1019C234.39 18.642 231.117 17.2894 230.089 12.7447C230.008 12.42 229.981 12.3389 229.521 12.3389C229.304 12.3389 228.98 12.3389 228.98 12.6635C228.98 12.7176 229.223 14.4219 230.359 16.2344C230.901 17.046 231.685 17.9928 232.848 18.8585H212.748C212.262 18.8585 211.775 18.8585 211.775 19.3995C211.775 19.9405 212.262 19.9405 212.748 19.9405H232.848Z" fill="white"/>
<path d="M255.431 15.9913C254.917 15.9913 254.673 15.9913 254.295 16.3159C254.132 16.4512 253.835 16.857 253.835 17.2898C253.835 17.8309 254.241 18.1555 254.755 18.1555C255.404 18.1555 256.134 17.6144 256.134 16.5323C256.134 15.2338 254.89 14.2329 253.023 14.2329C249.479 14.2329 245.935 18.1014 245.935 21.9428C245.935 24.2963 247.396 26.4335 250.156 26.4335C253.835 26.4335 256.161 23.5659 256.161 23.2142C256.161 23.0519 255.999 22.9167 255.891 22.9167C255.81 22.9167 255.782 22.9437 255.539 23.1872C253.808 25.4866 251.238 25.8924 250.21 25.8924C248.343 25.8924 247.748 24.2693 247.748 22.9167C247.748 21.9698 248.208 19.3458 249.182 17.5062C249.885 16.2348 251.346 14.774 253.05 14.774C253.402 14.774 254.89 14.8281 255.431 15.9913Z" fill="white"/>
<path d="M283.299 13.9353C283.299 13.3672 283.11 13.1237 282.921 13.1237C282.813 13.1237 282.569 13.2319 282.542 13.8541C282.434 15.7207 280.54 16.8299 278.782 16.8299C277.213 16.8299 275.86 15.9913 274.453 15.0444C272.993 14.0706 271.532 13.0967 269.773 13.0967C267.258 13.0967 265.256 15.0174 265.256 17.5062C265.256 18.1013 265.472 18.3178 265.634 18.3178C265.905 18.3178 266.013 17.8038 266.013 17.6956C266.148 15.4232 268.367 14.6116 269.773 14.6116C271.342 14.6116 272.695 15.4502 274.102 16.397C275.563 17.3709 277.023 18.3448 278.782 18.3448C281.298 18.3448 283.299 16.4241 283.299 13.9353ZM283.299 20.2655C283.299 19.481 282.975 19.4269 282.921 19.4269C282.813 19.4269 282.569 19.5622 282.542 20.1573C282.434 22.0239 280.54 23.1331 278.782 23.1331C277.213 23.1331 275.86 22.2944 274.453 21.3476C272.993 20.3737 271.532 19.3998 269.773 19.3998C267.258 19.3998 265.256 21.3206 265.256 23.8094C265.256 24.4045 265.472 24.6209 265.634 24.6209C265.905 24.6209 266.013 24.1069 266.013 23.9987C266.148 21.7263 268.367 20.9148 269.773 20.9148C271.342 20.9148 272.695 21.7534 274.102 22.7002C275.563 23.6741 277.023 24.648 278.782 24.648C281.352 24.648 283.299 22.6461 283.299 20.2655Z" fill="white"/>
<path d="M297.3 16.4508C296.841 16.4779 296.732 16.5049 296.732 16.7484C296.732 17.0189 296.868 17.0189 297.355 17.0189H298.599C300.898 17.0189 301.926 18.9126 301.926 21.5096C301.926 25.0534 300.087 26.0003 298.761 26.0003C297.463 26.0003 295.245 25.3781 294.46 23.5926C295.326 23.7279 296.11 23.2409 296.11 22.2671C296.11 21.4825 295.542 20.9415 294.785 20.9415C294.135 20.9415 293.432 21.3202 293.432 22.3482C293.432 24.7559 295.84 26.7307 298.842 26.7307C302.062 26.7307 304.442 24.2689 304.442 21.5366C304.442 19.0478 302.44 17.1001 299.843 16.6402C302.197 15.9639 303.712 13.9891 303.712 11.879C303.712 9.74188 301.494 8.17285 298.87 8.17285C296.164 8.17285 294.162 9.82304 294.162 11.7978C294.162 12.8799 295.001 13.0964 295.407 13.0964C295.975 13.0964 296.624 12.6906 296.624 11.879C296.624 11.0133 295.975 10.6346 295.38 10.6346C295.217 10.6346 295.163 10.6346 295.082 10.6617C296.11 8.82211 298.653 8.82211 298.788 8.82211C299.681 8.82211 301.439 9.22789 301.439 11.879C301.439 12.393 301.358 13.9079 300.574 15.0712C299.762 16.2615 298.842 16.3426 298.112 16.3697L297.3 16.4508Z" fill="white"/>
<path d="M322.102 18.6422L316.691 13.2589C316.367 12.9342 316.313 12.8801 316.096 12.8801C315.826 12.8801 315.555 13.1236 315.555 13.4212C315.555 13.6105 315.609 13.6646 315.907 13.9622L321.317 19.3997L315.907 24.8372C315.609 25.1348 315.555 25.1889 315.555 25.3783C315.555 25.6758 315.826 25.9193 316.096 25.9193C316.313 25.9193 316.367 25.8652 316.691 25.5406L322.075 20.1572L327.675 25.757C327.729 25.784 327.918 25.9193 328.08 25.9193C328.405 25.9193 328.621 25.6758 328.621 25.3783C328.621 25.3241 328.621 25.2159 328.54 25.0807C328.513 25.0266 324.212 20.7794 322.859 19.3997L327.81 14.4492C327.945 14.2868 328.351 13.9352 328.486 13.7729C328.513 13.7187 328.621 13.6105 328.621 13.4212C328.621 13.1236 328.405 12.8801 328.08 12.8801C327.864 12.8801 327.756 12.9883 327.458 13.2859L322.102 18.6422Z" fill="white"/>
<path d="M346.422 8.82211C346.422 8.1999 346.422 8.17285 345.881 8.17285C345.231 8.90326 343.879 9.90419 341.092 9.90419V10.6887C341.715 10.6887 343.067 10.6887 344.555 9.98535V24.0796C344.555 25.0534 344.474 25.3781 342.093 25.3781H341.255V26.1626C341.985 26.1085 344.609 26.1085 345.502 26.1085C346.395 26.1085 348.992 26.1085 349.722 26.1626V25.3781H348.884C346.503 25.3781 346.422 25.0534 346.422 24.0796V8.82211Z" fill="white"/>
<path d="M363.994 17.5059C363.994 15.2605 363.859 13.0693 362.885 11.0133C361.776 8.768 359.828 8.17285 358.503 8.17285C356.934 8.17285 355.013 8.95737 354.012 11.2027C353.255 12.907 352.984 14.5842 352.984 17.5059C352.984 20.1299 353.173 22.1047 354.147 24.0255C355.202 26.0814 357.069 26.7307 358.476 26.7307C360.829 26.7307 362.182 25.324 362.966 23.7549C363.94 21.726 363.994 19.0749 363.994 17.5059ZM358.476 26.1896C357.61 26.1896 355.852 25.7027 355.338 22.754C355.04 21.1309 355.04 19.0749 355.04 17.1812C355.04 14.963 355.04 12.9611 355.473 11.365C355.933 9.55252 357.312 8.7139 358.476 8.7139C359.504 8.7139 361.073 9.3361 361.587 11.6626C361.938 13.2046 361.938 15.3417 361.938 17.1812C361.938 18.9937 361.938 21.0497 361.641 22.6999C361.127 25.6756 359.422 26.1896 358.476 26.1896Z" fill="white"/>
<path d="M371.107 8.48259C372.117 7.99565 373.343 7.0939 373.343 5.68719C373.343 3.97388 371.594 3 369.916 3C368.005 3 366.454 4.31654 366.454 6.01181C366.454 6.6791 366.688 7.29229 367.139 7.81529C367.446 8.19403 367.518 8.2301 368.636 8.93345C366.4 9.92537 365.913 11.2419 365.913 12.2519C365.913 14.2357 367.914 15.3719 369.88 15.3719C372.099 15.3719 373.884 13.875 373.884 11.9633C373.884 10.8271 373.271 10.0696 372.982 9.76305C372.676 9.4745 372.658 9.45646 371.107 8.48259ZM368.311 6.78731C367.788 6.48072 367.355 5.95771 367.355 5.32649C367.355 4.1903 368.6 3.46891 369.88 3.46891C371.287 3.46891 372.441 4.42475 372.441 5.68719C372.441 6.73321 371.63 7.61691 370.566 8.13992L368.311 6.78731ZM369.195 9.25808C369.267 9.29415 371.323 10.5566 371.63 10.755C371.918 10.9173 372.856 11.4944 372.856 12.5765C372.856 13.9652 371.395 14.8308 369.916 14.8308C368.311 14.8308 366.941 13.7307 366.941 12.2519C366.941 10.8992 367.951 9.83519 369.195 9.25808Z" fill="white"/>
<path d="M381.4 18.2366C381.454 18.0743 382.131 16.7217 383.132 15.856C383.835 15.2068 384.755 14.774 385.81 14.774C386.892 14.774 387.271 15.5855 387.271 16.6676C387.271 16.8299 387.271 17.371 386.946 18.6424L386.27 21.4288C386.053 22.2404 385.539 24.2422 385.485 24.5398C385.377 24.9456 385.215 25.6489 385.215 25.7572C385.215 26.1359 385.512 26.4335 385.918 26.4335C386.729 26.4335 386.865 25.8113 387.108 24.8374L388.731 18.3719C388.785 18.1555 390.192 14.774 393.168 14.774C394.25 14.774 394.629 15.5855 394.629 16.6676C394.629 18.1825 393.574 21.1312 392.979 22.7544C392.735 23.4036 392.6 23.7553 392.6 24.2422C392.6 25.4596 393.438 26.4335 394.737 26.4335C397.253 26.4335 398.2 22.4568 398.2 22.2945C398.2 22.1592 398.091 22.051 397.929 22.051C397.686 22.051 397.659 22.1322 397.523 22.592C396.901 24.7562 395.9 25.8924 394.818 25.8924C394.548 25.8924 394.115 25.8654 394.115 24.9997C394.115 24.2963 394.439 23.4307 394.548 23.1331C395.034 21.8346 396.252 18.6424 396.252 17.0734C396.252 15.4503 395.305 14.2329 393.249 14.2329C391.437 14.2329 389.976 15.2609 388.894 16.857C388.812 15.3962 387.92 14.2329 385.891 14.2329C383.483 14.2329 382.212 15.9372 381.725 16.6135C381.644 15.0715 380.535 14.2329 379.344 14.2329C378.56 14.2329 377.937 14.6116 377.424 15.6396C376.937 16.6135 376.558 18.2637 376.558 18.3719C376.558 18.4801 376.666 18.6154 376.855 18.6154C377.072 18.6154 377.099 18.5883 377.261 17.9661C377.667 16.37 378.181 14.774 379.263 14.774C379.885 14.774 380.102 15.2068 380.102 16.0184C380.102 16.6135 379.831 17.6685 379.642 18.5072L378.884 21.4288C378.776 21.9428 378.479 23.1601 378.343 23.6471C378.154 24.3504 377.856 25.6219 377.856 25.7572C377.856 26.1359 378.154 26.4335 378.56 26.4335C378.884 26.4335 379.263 26.2711 379.479 25.8654C379.534 25.7301 379.777 24.7833 379.912 24.2422L380.507 21.8075L381.4 18.2366Z" fill="white"/>
<path d="M410.602 6.87447C410.602 6.84741 410.765 6.44163 410.765 6.38753C410.765 6.0629 410.494 5.87354 410.278 5.87354C410.142 5.87354 409.899 5.87353 409.682 6.46868L400.62 31.9248C400.62 31.9519 400.458 32.3577 400.458 32.4118C400.458 32.7364 400.728 32.9258 400.945 32.9258C401.107 32.9258 401.35 32.8987 401.54 32.3306L410.602 6.87447Z" fill="white"/>
<path d="M418.409 20.7525C418.869 20.8337 419.599 20.996 419.762 21.023C420.113 21.1312 421.331 21.5641 421.331 22.8626C421.331 23.7012 420.573 25.8924 417.435 25.8924C416.867 25.8924 414.838 25.8113 414.297 24.3234C415.379 24.4586 415.92 23.62 415.92 23.0249C415.92 22.4568 415.541 22.1592 415 22.1592C414.405 22.1592 413.621 22.6191 413.621 23.8364C413.621 25.4325 415.244 26.4335 417.408 26.4335C421.52 26.4335 422.737 23.4036 422.737 21.9969C422.737 21.5911 422.737 20.8337 421.872 19.968C421.195 19.3187 420.546 19.1835 419.085 18.8859C418.355 18.7236 417.192 18.4801 417.192 17.2628C417.192 16.7217 417.679 14.774 420.249 14.774C421.385 14.774 422.494 15.2068 422.764 16.1807C421.574 16.1807 421.52 17.2087 421.52 17.2357C421.52 17.8038 422.034 17.9661 422.277 17.9661C422.656 17.9661 423.414 17.6685 423.414 16.5323C423.414 15.3962 422.386 14.2329 420.276 14.2329C416.732 14.2329 415.785 17.0193 415.785 18.1284C415.785 20.1844 417.787 20.6172 418.409 20.7525Z" fill="white"/>
</svg>
