<svg width="268" height="35" viewBox="0 0 268 35" fill="none" xmlns="http://www.w3.org/2000/svg">
<path d="M20.511 19.7281C20.5426 19.6333 20.6375 19.412 20.6375 19.2856C20.6375 19.1276 20.511 18.9696 20.3214 18.9696C20.195 18.9696 20.1318 19.0012 20.037 19.096C19.9738 19.1276 19.9738 19.1908 19.6893 19.8229C17.8247 24.2474 16.4657 26.1437 11.4091 26.1437H6.79487C6.35242 26.1437 6.28921 26.1437 6.09958 26.1121C5.75194 26.0805 5.72033 26.0173 5.72033 25.7644C5.72033 25.5432 5.78354 25.3536 5.84675 25.0691L8.02743 16.3464H11.1562C13.6213 16.3464 13.811 16.8837 13.811 17.8318C13.811 18.1479 13.811 18.4323 13.5897 19.3804C13.5265 19.5068 13.4949 19.6333 13.4949 19.7281C13.4949 19.9493 13.653 20.0441 13.8426 20.0441C14.127 20.0441 14.1586 19.8229 14.285 19.3804L16.0865 12.0483C16.0865 11.8903 15.9601 11.7322 15.7704 11.7322C15.486 11.7322 15.4544 11.8587 15.328 12.3011C14.6959 14.7346 14.0638 15.4299 11.251 15.4299H8.24866L10.2081 7.65531C10.4925 6.54917 10.5558 6.45436 11.8515 6.45436H16.3709C20.2582 6.45436 21.0483 7.49729 21.0483 9.8992C21.0483 9.93081 21.0483 10.8157 20.9219 11.8587C20.8903 11.9851 20.8587 12.1747 20.8587 12.2379C20.8587 12.4907 21.0167 12.5855 21.2063 12.5855C21.4276 12.5855 21.554 12.4591 21.6172 11.8903L22.2809 6.35955C22.2809 6.26473 22.3441 5.94869 22.3441 5.88548C22.3441 5.53784 22.0596 5.53784 21.4908 5.53784H6.06798C5.4675 5.53784 5.15146 5.53784 5.15146 6.10671C5.15146 6.45436 5.37269 6.45436 5.90996 6.45436C7.86941 6.45436 7.86941 6.67559 7.86941 7.02323C7.86941 7.18125 7.83781 7.30767 7.74299 7.65531L3.47645 24.7215C3.19201 25.8276 3.1288 26.1437 0.916518 26.1437C0.316039 26.1437 0 26.1437 0 26.7126C0 27.0602 0.189624 27.0602 0.821705 27.0602H16.6869C17.3822 27.0602 17.4138 27.0286 17.6351 26.5229L20.511 19.7281Z" fill="white"/>
<path d="M29.2478 9.71298C29.5849 9.39694 30.4698 8.70165 30.8069 8.40668C32.1132 7.20573 33.3563 6.04691 33.3563 4.1296C33.3563 1.62234 31.2494 0 28.6157 0C26.0874 0 24.4229 1.91732 24.4229 3.79249C24.4229 4.82489 25.2446 4.97237 25.5396 4.97237C25.982 4.97237 26.6352 4.65633 26.6352 3.8557C26.6352 2.76009 25.5817 2.76009 25.3289 2.76009C25.9399 1.22203 27.3516 0.695291 28.384 0.695291C30.3434 0.695291 31.3547 2.35977 31.3547 4.1296C31.3547 6.32081 29.8167 7.92209 27.3305 10.4715L24.6757 13.2105C24.4229 13.4423 24.4229 13.4844 24.4229 14.0111H32.7453L33.3563 10.2397H32.7032C32.64 10.6611 32.4714 11.7146 32.2186 12.1149C32.0922 12.2834 30.4909 12.2834 30.1538 12.2834H26.4034L29.2478 9.71298Z" fill="white"/>
<path d="M65.9278 16.8205C66.3703 16.8205 66.9391 16.8205 66.9391 16.2516C66.9391 15.6511 66.4019 15.6511 65.9278 15.6511H47.313C46.8706 15.6511 46.3017 15.6511 46.3017 16.22C46.3017 16.8205 46.839 16.8205 47.313 16.8205H65.9278ZM65.9278 22.6988C66.3703 22.6988 66.9391 22.6988 66.9391 22.13C66.9391 21.5295 66.4019 21.5295 65.9278 21.5295H47.313C46.8706 21.5295 46.3017 21.5295 46.3017 22.0984C46.3017 22.6988 46.839 22.6988 47.313 22.6988H65.9278Z" fill="white"/>
<path d="M87.7137 34.7398C87.7137 34.645 87.7137 34.5817 87.1765 34.0445C84.0161 30.8525 82.2462 25.6378 82.2462 19.1906C82.2462 13.0594 83.7316 7.7815 87.3977 4.05222C87.7137 3.76779 87.7137 3.70458 87.7137 3.60977C87.7137 3.42014 87.5557 3.35693 87.4293 3.35693C87.0184 3.35693 84.4269 5.63243 82.8783 8.72962C81.2665 11.9216 80.5396 15.3033 80.5396 19.1906C80.5396 22.0033 80.9821 25.7642 82.6255 29.1458C84.4901 32.9383 87.0817 34.9926 87.4293 34.9926C87.5557 34.9926 87.7137 34.9294 87.7137 34.7398Z" fill="white"/>
<path d="M95.9871 17.8004C96.0504 17.6108 96.8405 16.0306 98.0098 15.0193C98.8315 14.2608 99.906 13.7551 101.139 13.7551C102.403 13.7551 102.845 14.7032 102.845 15.9674C102.845 16.157 102.845 16.7891 102.466 18.2745L101.676 21.5297C101.423 22.4778 100.823 24.8165 100.759 25.1642C100.633 25.6383 100.443 26.46 100.443 26.5864C100.443 27.0288 100.791 27.3765 101.265 27.3765C102.213 27.3765 102.371 26.6496 102.656 25.5118L104.552 17.9585C104.615 17.7056 106.258 13.7551 109.735 13.7551C110.999 13.7551 111.442 14.7032 111.442 15.9674C111.442 17.7372 110.209 21.1821 109.514 23.0783C109.229 23.8368 109.071 24.2477 109.071 24.8165C109.071 26.2387 110.051 27.3765 111.568 27.3765C114.507 27.3765 115.613 22.7307 115.613 22.5411C115.613 22.383 115.487 22.2566 115.297 22.2566C115.013 22.2566 114.981 22.3514 114.823 22.8887C114.096 25.417 112.927 26.7444 111.663 26.7444C111.347 26.7444 110.841 26.7128 110.841 25.7015C110.841 24.8798 111.22 23.8684 111.347 23.5208C111.916 22.0038 113.338 18.2745 113.338 16.4415C113.338 14.5452 112.232 13.123 109.83 13.123C107.712 13.123 106.006 14.324 104.741 16.1886C104.647 14.482 103.604 13.123 101.233 13.123C98.4207 13.123 96.9353 15.1141 96.3664 15.9042C96.2716 14.1028 94.9758 13.123 93.5852 13.123C92.6687 13.123 91.9418 13.5655 91.3413 14.7665C90.7725 15.9042 90.33 17.8321 90.33 17.9585C90.33 18.0849 90.4564 18.2429 90.6777 18.2429C90.9305 18.2429 90.9621 18.2113 91.1517 17.4844C91.6258 15.6198 92.2263 13.7551 93.4904 13.7551C94.2173 13.7551 94.4701 14.2608 94.4701 15.2089C94.4701 15.9042 94.1541 17.1368 93.9329 18.1165L93.048 21.5297C92.9215 22.1302 92.5739 23.5524 92.4159 24.1213C92.1947 24.943 91.847 26.4284 91.847 26.5864C91.847 27.0288 92.1947 27.3765 92.6687 27.3765C93.048 27.3765 93.4904 27.1869 93.7433 26.7128C93.8065 26.5548 94.0909 25.4486 94.2489 24.8165L94.9442 21.9722L95.9871 17.8004Z" fill="white"/>
<path d="M128.902 15.1773C128.301 15.1773 128.017 15.1773 127.574 15.5566C127.385 15.7146 127.037 16.1886 127.037 16.6943C127.037 17.3264 127.511 17.7056 128.112 17.7056C128.87 17.7056 129.724 17.0736 129.724 15.8094C129.724 14.2924 128.27 13.123 126.089 13.123C121.949 13.123 117.809 17.6424 117.809 22.1302C117.809 24.8798 119.515 27.3765 122.739 27.3765C127.037 27.3765 129.755 24.0264 129.755 23.6156C129.755 23.426 129.566 23.268 129.439 23.268C129.344 23.268 129.313 23.2996 129.028 23.584C127.006 26.2703 124.003 26.7444 122.802 26.7444C120.622 26.7444 119.926 24.8482 119.926 23.268C119.926 22.1618 120.464 19.0962 121.601 16.9471C122.423 15.4617 124.13 13.7551 126.121 13.7551C126.532 13.7551 128.27 13.8183 128.902 15.1773Z" fill="white"/>
<path d="M135.804 9.71298C136.142 9.39694 137.026 8.70165 137.364 8.40668C138.67 7.20573 139.913 6.04691 139.913 4.1296C139.913 1.62234 137.806 0 135.172 0C132.644 0 130.98 1.91732 130.98 3.79249C130.98 4.82489 131.801 4.97237 132.096 4.97237C132.539 4.97237 133.192 4.65633 133.192 3.8557C133.192 2.76009 132.138 2.76009 131.886 2.76009C132.497 1.22203 133.908 0.695291 134.941 0.695291C136.9 0.695291 137.911 2.35977 137.911 4.1296C137.911 6.32081 136.373 7.92209 133.887 10.4715L131.232 13.2105C130.98 13.4423 130.98 13.4844 130.98 14.0111H139.302L139.913 10.2397H139.26C139.197 10.6611 139.028 11.7146 138.775 12.1149C138.649 12.2834 137.048 12.2834 136.71 12.2834H132.96L135.804 9.71298Z" fill="white"/>
<path d="M151.285 19.1906C151.285 16.7887 150.969 12.8698 149.199 9.20369C147.335 5.4112 144.743 3.35693 144.396 3.35693C144.269 3.35693 144.111 3.42014 144.111 3.60977C144.111 3.70458 144.111 3.76779 144.648 4.30506C147.809 7.49707 149.579 12.7117 149.579 19.159C149.579 25.2902 148.093 30.568 144.427 34.2973C144.111 34.5817 144.111 34.645 144.111 34.7398C144.111 34.9294 144.269 34.9926 144.396 34.9926C144.806 34.9926 147.398 32.7171 148.947 29.6199C150.558 26.3963 151.285 22.9831 151.285 19.1906Z" fill="white"/>
<path d="M160.349 9.71298C160.686 9.39694 161.571 8.70165 161.908 8.40668C163.214 7.20573 164.457 6.04691 164.457 4.1296C164.457 1.62234 162.35 0 159.717 0C157.188 0 155.524 1.91732 155.524 3.79249C155.524 4.82489 156.346 4.97237 156.641 4.97237C157.083 4.97237 157.736 4.65633 157.736 3.8557C157.736 2.76009 156.683 2.76009 156.43 2.76009C157.041 1.22203 158.453 0.695291 159.485 0.695291C161.445 0.695291 162.456 2.35977 162.456 4.1296C162.456 6.32081 160.918 7.92209 158.432 10.4715L155.777 13.2105C155.524 13.4423 155.524 13.4844 155.524 14.0111H163.846L164.457 10.2397H163.804C163.741 10.6611 163.573 11.7146 163.32 12.1149C163.193 12.2834 161.592 12.2834 161.255 12.2834H157.505L160.349 9.71298Z" fill="white"/>
<path d="M186.55 19.7598H195.273C195.716 19.7598 196.284 19.7598 196.284 19.191C196.284 18.5905 195.747 18.5905 195.273 18.5905H186.55V9.86778C186.55 9.42532 186.55 8.85645 185.982 8.85645C185.381 8.85645 185.381 9.39371 185.381 9.86778V18.5905H176.658C176.216 18.5905 175.647 18.5905 175.647 19.1594C175.647 19.7598 176.184 19.7598 176.658 19.7598H185.381V28.4826C185.381 28.925 185.381 29.4939 185.95 29.4939C186.55 29.4939 186.55 28.9566 186.55 28.4826V19.7598Z" fill="white"/>
<path d="M215.303 34.7398C215.303 34.645 215.303 34.5817 214.766 34.0445C211.606 30.8525 209.836 25.6378 209.836 19.1906C209.836 13.0594 211.321 7.7815 214.987 4.05222C215.303 3.76779 215.303 3.70458 215.303 3.60977C215.303 3.42014 215.145 3.35693 215.019 3.35693C214.608 3.35693 212.016 5.63243 210.468 8.72962C208.856 11.9216 208.129 15.3033 208.129 19.1906C208.129 22.0033 208.572 25.7642 210.215 29.1458C212.08 32.9383 214.671 34.9926 215.019 34.9926C215.145 34.9926 215.303 34.9294 215.303 34.7398Z" fill="white"/>
<path d="M218.425 31.0742C218.204 32.0223 218.078 32.2751 216.782 32.2751C216.403 32.2751 216.087 32.2751 216.087 32.8756C216.087 32.9388 216.118 33.1916 216.466 33.1916C216.877 33.1916 217.319 33.1284 217.73 33.1284H219.089C219.753 33.1284 221.364 33.1916 222.028 33.1916C222.218 33.1916 222.597 33.1916 222.597 32.6228C222.597 32.2751 222.376 32.2751 221.838 32.2751C220.385 32.2751 220.29 32.0539 220.29 31.801C220.29 31.4218 221.712 25.9859 221.902 25.259C222.249 26.1439 223.103 27.3765 224.746 27.3765C228.317 27.3765 232.173 22.7307 232.173 18.0849C232.173 15.1773 230.53 13.123 228.159 13.123C226.137 13.123 224.43 15.0825 224.082 15.525C223.83 13.9448 222.597 13.123 221.333 13.123C220.416 13.123 219.689 13.5655 219.089 14.7665C218.52 15.9042 218.078 17.8321 218.078 17.9585C218.078 18.0849 218.204 18.2429 218.425 18.2429C218.678 18.2429 218.71 18.2113 218.899 17.4844C219.373 15.6198 219.974 13.7551 221.238 13.7551C221.965 13.7551 222.218 14.2608 222.218 15.2089C222.218 15.9674 222.123 16.2835 221.997 16.8523L218.425 31.0742ZM223.893 17.2C224.114 16.3151 224.999 15.3985 225.505 14.9561C225.852 14.64 226.895 13.7551 228.096 13.7551C229.487 13.7551 230.119 15.1457 230.119 16.7891C230.119 18.3061 229.234 21.8774 228.444 23.5208C227.654 25.2274 226.2 26.7444 224.746 26.7444C222.597 26.7444 222.249 24.0264 222.249 23.9C222.249 23.8052 222.313 23.5524 222.344 23.3944L223.893 17.2Z" fill="white"/>
<path d="M244.955 15.1773C244.354 15.1773 244.07 15.1773 243.627 15.5566C243.438 15.7146 243.09 16.1886 243.09 16.6943C243.09 17.3264 243.564 17.7056 244.165 17.7056C244.923 17.7056 245.776 17.0736 245.776 15.8094C245.776 14.2924 244.323 13.123 242.142 13.123C238.002 13.123 233.862 17.6424 233.862 22.1302C233.862 24.8798 235.568 27.3765 238.792 27.3765C243.09 27.3765 245.808 24.0264 245.808 23.6156C245.808 23.426 245.618 23.268 245.492 23.268C245.397 23.268 245.366 23.2996 245.081 23.584C243.058 26.2703 240.056 26.7444 238.855 26.7444C236.674 26.7444 235.979 24.8482 235.979 23.268C235.979 22.1618 236.516 19.0962 237.654 16.9471C238.476 15.4617 240.182 13.7551 242.174 13.7551C242.584 13.7551 244.323 13.8183 244.955 15.1773Z" fill="white"/>
<path d="M254.828 19.1906C254.828 16.7887 254.512 12.8698 252.742 9.20369C250.877 5.4112 248.286 3.35693 247.938 3.35693C247.812 3.35693 247.654 3.42014 247.654 3.60977C247.654 3.70458 247.654 3.76779 248.191 4.30506C251.352 7.49707 253.121 12.7117 253.121 19.159C253.121 25.2902 251.636 30.568 247.97 34.2973C247.654 34.5817 247.654 34.645 247.654 34.7398C247.654 34.9294 247.812 34.9926 247.938 34.9926C248.349 34.9926 250.941 32.7171 252.489 29.6199C254.101 26.3963 254.828 22.9831 254.828 19.1906Z" fill="white"/>
<path d="M263.891 9.71298C264.229 9.39694 265.113 8.70165 265.451 8.40668C266.757 7.20573 268 6.04691 268 4.1296C268 1.62234 265.893 0 263.259 0C260.731 0 259.067 1.91732 259.067 3.79249C259.067 4.82489 259.888 4.97237 260.183 4.97237C260.626 4.97237 261.279 4.65633 261.279 3.8557C261.279 2.76009 260.225 2.76009 259.973 2.76009C260.584 1.22203 261.995 0.695291 263.028 0.695291C264.987 0.695291 265.998 2.35977 265.998 4.1296C265.998 6.32081 264.46 7.92209 261.974 10.4715L259.319 13.2105C259.067 13.4423 259.067 13.4844 259.067 14.0111H267.389L268 10.2397H267.347C267.284 10.6611 267.115 11.7146 266.862 12.1149C266.736 12.2834 265.135 12.2834 264.797 12.2834H261.047L263.891 9.71298Z" fill="white"/>
</svg>
