<svg width="169" height="26" viewBox="0 0 169 26" fill="none" xmlns="http://www.w3.org/2000/svg">
<path d="M61.0088 17.7281C61.0404 17.6333 61.1352 17.412 61.1352 17.2856C61.1352 17.1276 61.0088 16.9696 60.8192 16.9696C60.6928 16.9696 60.6296 17.0012 60.5347 17.096C60.4715 17.1276 60.4715 17.1908 60.1871 17.8229C58.3225 22.2474 56.9635 24.1437 51.9068 24.1437H47.2926C46.8502 24.1437 46.787 24.1437 46.5974 24.1121C46.2497 24.0805 46.2181 24.0173 46.2181 23.7644C46.2181 23.5432 46.2813 23.3536 46.3445 23.0691L48.5252 14.3464H51.654C54.1191 14.3464 54.3087 14.8837 54.3087 15.8318C54.3087 16.1479 54.3087 16.4323 54.0875 17.3804C54.0243 17.5068 53.9927 17.6333 53.9927 17.7281C53.9927 17.9493 54.1507 18.0441 54.3403 18.0441C54.6248 18.0441 54.6564 17.8229 54.7828 17.3804L56.5842 10.0483C56.5842 9.89026 56.4578 9.73224 56.2682 9.73224C55.9838 9.73224 55.9522 9.85865 55.8257 10.3011C55.1937 12.7346 54.5616 13.4299 51.7488 13.4299H48.7464L50.7059 5.65531C50.9903 4.54917 51.0535 4.45436 52.3493 4.45436H56.8687C60.756 4.45436 61.5461 5.49729 61.5461 7.8992C61.5461 7.93081 61.5461 8.81572 61.4197 9.85865C61.3881 9.98507 61.3565 10.1747 61.3565 10.2379C61.3565 10.4907 61.5145 10.5855 61.7041 10.5855C61.9253 10.5855 62.0517 10.4591 62.1149 9.89026L62.7786 4.35955C62.7786 4.26473 62.8418 3.94869 62.8418 3.88548C62.8418 3.53784 62.5574 3.53784 61.9885 3.53784H46.5658C45.9653 3.53784 45.6492 3.53784 45.6492 4.10671C45.6492 4.45436 45.8705 4.45436 46.4077 4.45436C48.3672 4.45436 48.3672 4.67559 48.3672 5.02323C48.3672 5.18125 48.3356 5.30767 48.2408 5.65531L43.9742 22.7215C43.6898 23.8276 43.6266 24.1437 41.4143 24.1437C40.8138 24.1437 40.4978 24.1437 40.4978 24.7126C40.4978 25.0602 40.6874 25.0602 41.3195 25.0602H57.1847C57.88 25.0602 57.9116 25.0286 58.1328 24.5229L61.0088 17.7281Z" fill="white"/>
<path d="M96.1239 12.6974C96.5664 12.6974 97.1352 12.6974 97.1352 12.1286C97.1352 11.5281 96.598 11.5281 96.1239 11.5281H77.5091C77.0666 11.5281 76.4978 11.5281 76.4978 12.0969C76.4978 12.6974 77.035 12.6974 77.5091 12.6974H96.1239ZM96.1239 18.5758C96.5664 18.5758 97.1352 18.5758 97.1352 18.0069C97.1352 17.4064 96.598 17.4064 96.1239 17.4064H77.5091C77.0666 17.4064 76.4978 17.4064 76.4978 17.9753C76.4978 18.5758 77.035 18.5758 77.5091 18.5758H96.1239Z" fill="white"/>
<path d="M119.853 15.6774C119.916 15.4878 120.706 13.9076 121.876 12.8962C122.698 12.1377 123.772 11.6321 125.005 11.6321C126.269 11.6321 126.711 12.5802 126.711 13.8444C126.711 14.034 126.711 14.6661 126.332 16.1515L125.542 19.4067C125.289 20.3548 124.689 22.6935 124.625 23.0411C124.499 23.5152 124.309 24.3369 124.309 24.4633C124.309 24.9058 124.657 25.2534 125.131 25.2534C126.079 25.2534 126.237 24.5265 126.522 23.3888L128.418 15.8354C128.481 15.5826 130.124 11.6321 133.601 11.6321C134.865 11.6321 135.308 12.5802 135.308 13.8444C135.308 15.6142 134.075 19.059 133.38 20.9553C133.095 21.7138 132.937 22.1246 132.937 22.6935C132.937 24.1157 133.917 25.2534 135.434 25.2534C138.373 25.2534 139.479 20.6076 139.479 20.418C139.479 20.26 139.353 20.1336 139.163 20.1336C138.879 20.1336 138.847 20.2284 138.689 20.7657C137.962 23.294 136.793 24.6213 135.529 24.6213C135.213 24.6213 134.707 24.5897 134.707 23.5784C134.707 22.7567 135.086 21.7454 135.213 21.3977C135.782 19.8807 137.204 16.1515 137.204 14.3184C137.204 12.4222 136.098 11 133.696 11C131.578 11 129.872 12.201 128.607 14.0656C128.513 12.359 127.47 11 125.099 11C122.287 11 120.801 12.9911 120.232 13.7812C120.138 11.9797 118.842 11 117.451 11C116.535 11 115.808 11.4425 115.207 12.6434C114.639 13.7812 114.196 15.709 114.196 15.8354C114.196 15.9618 114.322 16.1199 114.544 16.1199C114.797 16.1199 114.828 16.0883 115.018 15.3614C115.492 13.4967 116.092 11.6321 117.356 11.6321C118.083 11.6321 118.336 12.1377 118.336 13.0859C118.336 13.7812 118.02 15.0137 117.799 15.9934L116.914 19.4067C116.788 20.0072 116.44 21.4293 116.282 21.9982C116.061 22.8199 115.713 24.3053 115.713 24.4633C115.713 24.9058 116.061 25.2534 116.535 25.2534C116.914 25.2534 117.356 25.0638 117.609 24.5897C117.672 24.4317 117.957 23.3256 118.115 22.6935L118.81 19.8491L119.853 15.6774Z" fill="white"/>
<path d="M152.768 13.0543C152.167 13.0543 151.883 13.0543 151.441 13.4335C151.251 13.5915 150.903 14.0656 150.903 14.5713C150.903 15.2033 151.377 15.5826 151.978 15.5826C152.736 15.5826 153.59 14.9505 153.59 13.6863C153.59 12.1693 152.136 11 149.955 11C145.815 11 141.675 15.5194 141.675 20.0072C141.675 22.7567 143.381 25.2534 146.605 25.2534C150.903 25.2534 153.621 21.9034 153.621 21.4925C153.621 21.3029 153.432 21.1449 153.305 21.1449C153.21 21.1449 153.179 21.1765 152.894 21.4609C150.872 24.1473 147.869 24.6213 146.668 24.6213C144.488 24.6213 143.792 22.7251 143.792 21.1449C143.792 20.0388 144.33 16.9732 145.467 14.8241C146.289 13.3387 147.996 11.6321 149.987 11.6321C150.398 11.6321 152.136 11.6953 152.768 13.0543Z" fill="white"/>
<path d="M164.323 9.71298C164.66 9.39694 165.545 8.70165 165.882 8.40668C167.188 7.20573 168.431 6.04691 168.431 4.1296C168.431 1.62234 166.324 0 163.691 0C161.162 0 159.498 1.91732 159.498 3.79249C159.498 4.82489 160.319 4.97237 160.614 4.97237C161.057 4.97237 161.71 4.65633 161.71 3.8557C161.71 2.76009 160.657 2.76009 160.404 2.76009C161.015 1.22203 162.426 0.695291 163.459 0.695291C165.418 0.695291 166.43 2.35977 166.43 4.1296C166.43 6.32081 164.892 7.92209 162.405 10.4715L159.751 13.2105C159.498 13.4423 159.498 13.4844 159.498 14.0111H167.82L168.431 10.2397H167.778C167.715 10.6611 167.546 11.7146 167.293 12.1149C167.167 12.2834 165.566 12.2834 165.229 12.2834H161.478L164.323 9.71298Z" fill="white"/>
<path d="M21.96 12.48C23.3345 13.6582 25.0036 14.5091 26.0836 15C24.9055 15.5236 23.3018 16.3745 21.96 17.52H1.17818C0.621818 17.52 0 17.52 0 18.1745C0 18.8291 0.589091 18.8291 1.14546 18.8291H20.4873C18.9164 20.3345 17.2145 23.2145 17.2145 23.64C17.2145 24 17.64 24 17.8364 24C18.0982 24 18.3273 24 18.4582 23.7382C19.1455 22.4945 20.0618 20.76 22.1891 18.8618C24.4473 16.8655 26.64 15.9818 28.3418 15.4909C28.8982 15.2945 28.9309 15.2618 28.9964 15.1964C29.0618 15.1636 29.0618 15.0655 29.0618 15C29.0618 14.9345 29.0618 14.8691 29.0291 14.8036L28.9309 14.7382C28.8655 14.7055 28.8327 14.6727 28.2109 14.4764C23.7927 13.1673 20.52 10.1891 18.6873 6.68727C18.3273 6.03273 18.2945 6 17.8364 6C17.64 6 17.2145 6 17.2145 6.36C17.2145 6.78545 18.8836 9.63273 20.4873 11.1709H1.14546C0.589091 11.1709 0 11.1709 0 11.8255C0 12.48 0.621818 12.48 1.17818 12.48H21.96Z" fill="white"/>
</svg>
