<svg width="566" height="31" viewBox="0 0 566 31" fill="none" xmlns="http://www.w3.org/2000/svg">
<path d="M9.29534 5.89693C9.29534 5.36815 9.29534 5.229 8.90571 5.229C8.68307 5.229 8.59958 5.229 8.37694 5.56297L0 18.5597V19.3668H7.31938V21.8994C7.31938 22.9291 7.26372 23.2074 5.23211 23.2074H4.6755V24.0145C5.3156 23.9588 7.5142 23.9588 8.29345 23.9588C9.0727 23.9588 11.2991 23.9588 11.9392 24.0145V23.2074H11.3826C9.37883 23.2074 9.29534 22.9291 9.29534 21.8994V19.3668H12.1062V18.5597H9.29534V5.89693ZM7.45854 8.0677V18.5597H0.695758L7.45854 8.0677Z" fill="white"/>
<path d="M23.3379 0.705049C23.3379 0.204103 23.3008 0.185547 22.7998 0.185547C22.0391 0.927691 21.0558 1.37298 19.2932 1.37298V1.98524C19.7942 1.98524 20.7961 1.98524 21.8722 1.4843V11.0023C21.8722 11.6888 21.8165 11.9114 20.0539 11.9114H19.4045V12.5237C20.1652 12.468 21.7608 12.468 22.5957 12.468C23.4307 12.468 25.0448 12.468 25.8055 12.5237V11.9114H25.1561C23.3936 11.9114 23.3379 11.6888 23.3379 11.0023V0.705049Z" fill="white"/>
<path d="M23.3379 19.0761C23.3379 18.5752 23.3008 18.5566 22.7998 18.5566C22.0391 19.2988 21.0558 19.7441 19.2932 19.7441V20.3563C19.7942 20.3563 20.7961 20.3563 21.8722 19.8554V29.3734C21.8722 30.0599 21.8165 30.2825 20.0539 30.2825H19.4045V30.8948C20.1652 30.8391 21.7608 30.8391 22.5957 30.8391C23.4307 30.8391 25.0448 30.8391 25.8055 30.8948V30.2825H25.1561C23.3936 30.2825 23.3379 30.0599 23.3379 29.3734V19.0761Z" fill="white"/>
<path d="M49.3454 7.03796C49.5959 6.09173 49.6516 5.81343 51.6275 5.81343C52.1285 5.81343 52.4068 5.81343 52.4068 5.31248C52.4068 5.00635 52.1563 5.00635 51.9893 5.00635C51.4884 5.00635 50.9039 5.06201 50.3752 5.06201H47.0912C46.5624 5.06201 45.978 5.00635 45.4492 5.00635C45.2544 5.00635 44.9204 5.00635 44.9204 5.53512C44.9204 5.81343 45.1152 5.81343 45.644 5.81343C47.3138 5.81343 47.3138 6.03607 47.3138 6.3422C47.3138 6.39787 47.3138 6.56485 47.2025 6.9823L45.5049 13.7172H37.1001L38.7699 7.03796C39.0204 6.09173 39.076 5.81343 41.052 5.81343C41.5529 5.81343 41.8312 5.81343 41.8312 5.31248C41.8312 5.00635 41.5808 5.00635 41.4138 5.00635C40.9128 5.00635 40.3284 5.06201 39.7996 5.06201H36.5156C35.9869 5.06201 35.4024 5.00635 34.8737 5.00635C34.6788 5.00635 34.3449 5.00635 34.3449 5.53512C34.3449 5.81343 34.5397 5.81343 35.0685 5.81343C36.7383 5.81343 36.7383 6.03607 36.7383 6.3422C36.7383 6.39787 36.7383 6.56485 36.627 6.9823L32.8699 21.955C32.6194 22.9291 32.5637 23.2074 30.6434 23.2074C30.0033 23.2074 29.8085 23.2074 29.8085 23.7362C29.8085 24.0145 30.1147 24.0145 30.1982 24.0145C30.6991 24.0145 31.2835 23.9588 31.8123 23.9588H35.0963C35.6251 23.9588 36.2095 24.0145 36.7383 24.0145C36.9609 24.0145 37.2671 24.0145 37.2671 23.4857C37.2671 23.2074 37.0166 23.2074 36.5991 23.2074C34.9015 23.2074 34.9015 22.9848 34.9015 22.7065C34.9015 22.6786 34.9015 22.4838 34.9571 22.2612L36.8774 14.5243H45.31C44.8369 16.3611 43.4176 22.1777 43.3619 22.3447C43.0558 23.1796 42.6105 23.1796 40.9685 23.2074C40.6345 23.2074 40.3841 23.2074 40.3841 23.7362C40.3841 24.0145 40.6902 24.0145 40.7737 24.0145C41.2746 24.0145 41.8591 23.9588 42.3879 23.9588H45.6718C46.2006 23.9588 46.785 24.0145 47.3138 24.0145C47.5365 24.0145 47.8426 24.0145 47.8426 23.4857C47.8426 23.2074 47.5921 23.2074 47.1747 23.2074C45.477 23.2074 45.477 22.9848 45.477 22.7065C45.477 22.6786 45.477 22.4838 45.5327 22.2612L49.3454 7.03796Z" fill="white"/>
<path d="M84.1977 17.6135C82.6671 18.7824 81.9156 19.9235 81.693 20.2853C80.4406 22.2056 80.218 23.9589 80.218 23.9867C80.218 24.3207 80.552 24.3207 80.7746 24.3207C81.2477 24.3207 81.2755 24.265 81.3869 23.7641C82.027 21.0367 83.669 18.6989 86.8138 17.4187C87.1477 17.3074 87.2312 17.2517 87.2312 17.0569C87.2312 16.8621 87.0643 16.7786 87.0086 16.7508C85.7841 16.2777 82.4166 14.8862 81.359 10.2107C81.2755 9.87671 81.2477 9.79321 80.7746 9.79321C80.552 9.79321 80.218 9.79321 80.218 10.1272C80.218 10.1828 80.4685 11.9362 81.6373 13.8008C82.1939 14.6357 83.001 15.6098 84.1977 16.5003H63.5198C63.0188 16.5003 62.5179 16.5003 62.5179 17.0569C62.5179 17.6135 63.0188 17.6135 63.5198 17.6135H84.1977Z" fill="white"/>
<path d="M96.1278 0.5195C96.1278 0.148429 96.1278 0 95.7381 0C95.4969 0 95.4784 0.0185536 95.2929 0.278305L89.3743 8.86861V9.48088H94.6064V11.0208C94.6064 11.7073 94.5507 11.9114 93.1221 11.9114H92.6954V12.5237C94.2724 12.468 94.3095 12.468 95.3671 12.468C96.4246 12.468 96.4617 12.468 98.0388 12.5237V11.9114H97.6121C96.1834 11.9114 96.1278 11.7073 96.1278 11.0208V9.48088H98.0944V8.86861H96.1278V0.5195ZM94.7363 2.02234V8.86861H90.0236L94.7363 2.02234Z" fill="white"/>
<path d="M94.0497 27.1098C94.3466 26.8315 95.1258 26.2193 95.4227 25.9595C96.573 24.902 97.6677 23.8815 97.6677 22.1931C97.6677 19.9853 95.8123 18.5566 93.4931 18.5566C91.2667 18.5566 89.801 20.245 89.801 21.8963C89.801 22.8054 90.5246 22.9353 90.7843 22.9353C91.1739 22.9353 91.7491 22.657 91.7491 21.9519C91.7491 20.9872 90.8214 20.9872 90.5988 20.9872C91.1368 19.6327 92.3799 19.1689 93.289 19.1689C95.0145 19.1689 95.9051 20.6346 95.9051 22.1931C95.9051 24.1227 94.5507 25.5328 92.3614 27.7778L90.0236 30.1897C89.801 30.3938 89.801 30.4309 89.801 30.8948H97.1296L97.6677 27.5737H97.0925C97.0369 27.9447 96.8884 28.8724 96.6658 29.2249C96.5545 29.3734 95.1444 29.3734 94.8475 29.3734H91.545L94.0497 27.1098Z" fill="white"/>
<path d="M128.382 7.03796C128.632 6.09173 128.688 5.81343 130.664 5.81343C131.165 5.81343 131.443 5.81343 131.443 5.31248C131.443 5.00635 131.192 5.00635 131.025 5.00635C130.524 5.00635 129.94 5.06201 129.411 5.06201H126.127C125.598 5.06201 125.014 5.00635 124.485 5.00635C124.29 5.00635 123.956 5.00635 123.956 5.53512C123.956 5.81343 124.151 5.81343 124.68 5.81343C126.35 5.81343 126.35 6.03607 126.35 6.3422C126.35 6.39787 126.35 6.56485 126.239 6.9823L124.541 13.7172H116.136L117.806 7.03796C118.056 6.09173 118.112 5.81343 120.088 5.81343C120.589 5.81343 120.867 5.81343 120.867 5.31248C120.867 5.00635 120.617 5.00635 120.45 5.00635C119.949 5.00635 119.364 5.06201 118.836 5.06201H115.552C115.023 5.06201 114.439 5.00635 113.91 5.00635C113.715 5.00635 113.381 5.00635 113.381 5.53512C113.381 5.81343 113.576 5.81343 114.105 5.81343C115.774 5.81343 115.774 6.03607 115.774 6.3422C115.774 6.39787 115.774 6.56485 115.663 6.9823L111.906 21.955C111.655 22.9291 111.6 23.2074 109.68 23.2074C109.039 23.2074 108.845 23.2074 108.845 23.7362C108.845 24.0145 109.151 24.0145 109.234 24.0145C109.735 24.0145 110.32 23.9588 110.848 23.9588H114.132C114.661 23.9588 115.246 24.0145 115.774 24.0145C115.997 24.0145 116.303 24.0145 116.303 23.4857C116.303 23.2074 116.053 23.2074 115.635 23.2074C113.938 23.2074 113.938 22.9848 113.938 22.7065C113.938 22.6786 113.938 22.4838 113.993 22.2612L115.914 14.5243H124.346C123.873 16.3611 122.454 22.1777 122.398 22.3447C122.092 23.1796 121.647 23.1796 120.005 23.2074C119.671 23.2074 119.42 23.2074 119.42 23.7362C119.42 24.0145 119.726 24.0145 119.81 24.0145C120.311 24.0145 120.895 23.9588 121.424 23.9588H124.708C125.237 23.9588 125.821 24.0145 126.35 24.0145C126.573 24.0145 126.879 24.0145 126.879 23.4857C126.879 23.2074 126.628 23.2074 126.211 23.2074C124.513 23.2074 124.513 22.9848 124.513 22.7065C124.513 22.6786 124.513 22.4838 124.569 22.2612L128.382 7.03796Z" fill="white"/>
<path d="M137.274 17.558C138.026 17.558 139.918 17.5023 141.254 17.0014C143.369 16.1943 143.564 14.5802 143.564 14.0792C143.564 12.8547 142.507 11.7415 140.67 11.7415C137.748 11.7415 133.545 14.3853 133.545 19.3391C133.545 22.2613 135.215 24.2929 137.748 24.2929C141.532 24.2929 143.926 21.3429 143.926 20.9811C143.926 20.8142 143.759 20.675 143.648 20.675C143.564 20.675 143.536 20.7028 143.286 20.9533C141.505 23.3189 138.861 23.7363 137.803 23.7363C136.217 23.7363 135.382 22.484 135.382 20.4245C135.382 20.0349 135.382 19.3391 135.799 17.558H137.274ZM135.939 17.0014C137.135 12.7155 139.779 12.2981 140.67 12.2981C141.894 12.2981 142.729 13.0217 142.729 14.0792C142.729 17.0014 138.276 17.0014 137.107 17.0014H135.939Z" fill="white"/>
<path d="M162.211 17.5858H169.893C170.282 17.5858 170.783 17.5858 170.783 17.0849C170.783 16.5561 170.31 16.5561 169.893 16.5561H162.211V8.87495C162.211 8.48532 162.211 7.98438 161.71 7.98438C161.182 7.98438 161.182 8.45749 161.182 8.87495V16.5561H153.5C153.111 16.5561 152.61 16.5561 152.61 17.0571C152.61 17.5858 153.083 17.5858 153.5 17.5858H161.182V25.267C161.182 25.6567 161.182 26.1576 161.683 26.1576C162.211 26.1576 162.211 25.6845 162.211 25.267V17.5858Z" fill="white"/>
<path d="M190.732 19.339H190.119C190.036 19.8121 189.813 21.3428 189.535 21.7881C189.34 22.0386 187.754 22.0386 186.919 22.0386H181.77C182.522 21.3985 184.219 19.6173 184.943 18.9494C189.173 15.0531 190.732 13.606 190.732 10.8508C190.732 7.65026 188.199 5.50732 184.971 5.50732C181.742 5.50732 179.85 8.26253 179.85 10.6559C179.85 12.0753 181.075 12.0753 181.158 12.0753C181.742 12.0753 182.466 11.6578 182.466 10.7673C182.466 9.98801 181.937 9.45924 181.158 9.45924C180.908 9.45924 180.852 9.45923 180.768 9.48706C181.297 7.5946 182.8 6.31441 184.609 6.31441C186.975 6.31441 188.422 8.29036 188.422 10.8508C188.422 13.2163 187.058 15.2758 185.472 17.0569L179.85 23.3466V24.0145H190.008L190.732 19.339Z" fill="white"/>
<path d="M201.731 17.558C202.483 17.558 204.375 17.5023 205.711 17.0014C207.826 16.1943 208.021 14.5802 208.021 14.0792C208.021 12.8547 206.963 11.7415 205.127 11.7415C202.204 11.7415 198.002 14.3853 198.002 19.3391C198.002 22.2613 199.672 24.2929 202.204 24.2929C205.989 24.2929 208.383 21.3429 208.383 20.9811C208.383 20.8142 208.216 20.675 208.104 20.675C208.021 20.675 207.993 20.7028 207.743 20.9533C205.961 23.3189 203.318 23.7363 202.26 23.7363C200.674 23.7363 199.839 22.484 199.839 20.4245C199.839 20.0349 199.839 19.3391 200.256 17.558H201.731ZM200.395 17.0014C201.592 12.7155 204.236 12.2981 205.127 12.2981C206.351 12.2981 207.186 13.0217 207.186 14.0792C207.186 17.0014 202.733 17.0014 201.564 17.0014H200.395Z" fill="white"/>
<path d="M217.469 8.31184H222.924C223.183 8.31184 223.591 8.31184 223.591 7.8851C223.591 7.45837 223.183 7.45837 222.924 7.45837H217.469V1.98507C217.469 1.72532 217.469 1.31714 217.042 1.31714C216.615 1.31714 216.615 1.72532 216.615 1.98507V7.45837H211.142C210.882 7.45837 210.474 7.45837 210.474 7.8851C210.474 8.31184 210.882 8.31184 211.142 8.31184H216.615V13.7851C216.615 14.0449 216.615 14.4531 217.042 14.4531C217.469 14.4531 217.469 14.0449 217.469 13.7851V8.31184Z" fill="white"/>
<path d="M243.16 17.5858H250.842C251.231 17.5858 251.732 17.5858 251.732 17.0849C251.732 16.5561 251.259 16.5561 250.842 16.5561H243.16V8.87495C243.16 8.48532 243.16 7.98438 242.659 7.98438C242.131 7.98438 242.131 8.45749 242.131 8.87495V16.5561H234.45C234.06 16.5561 233.559 16.5561 233.559 17.0571C233.559 17.5858 234.032 17.5858 234.45 17.5858H242.131V25.267C242.131 25.6567 242.131 26.1576 242.632 26.1576C243.16 26.1576 243.16 25.6845 243.16 25.267V17.5858Z" fill="white"/>
<path d="M271.681 19.339H271.068C270.985 19.8121 270.762 21.3428 270.484 21.7881C270.289 22.0386 268.703 22.0386 267.868 22.0386H262.719C263.471 21.3985 265.168 19.6173 265.892 18.9494C270.122 15.0531 271.681 13.606 271.681 10.8508C271.681 7.65026 269.148 5.50732 265.92 5.50732C262.691 5.50732 260.799 8.26253 260.799 10.6559C260.799 12.0753 262.024 12.0753 262.107 12.0753C262.691 12.0753 263.415 11.6578 263.415 10.7673C263.415 9.98801 262.886 9.45924 262.107 9.45924C261.857 9.45924 261.801 9.45923 261.717 9.48706C262.246 7.5946 263.749 6.31441 265.558 6.31441C267.924 6.31441 269.371 8.29036 269.371 10.8508C269.371 13.2163 268.007 15.2758 266.421 17.0569L260.799 23.3466V24.0145H270.957L271.681 19.339Z" fill="white"/>
<path d="M283.821 12.0198C283.821 11.9084 283.738 11.7415 283.515 11.7415C283.32 11.7415 280.704 11.9919 280.287 12.0198C279.981 12.0476 279.703 12.0754 279.703 12.5764C279.703 12.8547 279.925 12.8547 280.315 12.8547C281.623 12.8547 281.706 13.0495 281.706 13.3556C281.706 13.4669 281.651 13.8009 281.623 13.9122L279.174 23.7363C279.174 23.8477 279.257 24.0146 279.452 24.0146H280.036C280.426 24.0146 284.656 23.0128 287.912 19.6731C291.503 15.9717 292.004 12.5485 292.004 12.4372C292.004 11.9919 291.642 11.7415 291.28 11.7415C290.473 11.7415 290.278 12.4929 290.222 12.6877C288.58 18.5042 284.768 21.9552 281.066 23.1797L283.821 12.0198Z" fill="white"/>
<path d="M294.892 23.959C295.3 23.959 296.692 23.9404 297.675 23.5879C299.289 23.0313 299.345 21.9181 299.345 21.6398C299.345 20.6008 298.362 20.0071 297.156 20.0071C295.059 20.0071 292.072 21.6583 292.072 24.9423C292.072 26.8348 293.222 28.3747 295.263 28.3747C298.158 28.3747 299.716 26.5194 299.716 26.2596C299.716 26.0926 299.53 25.9628 299.419 25.9628C299.308 25.9628 299.252 26.0184 299.159 26.1298C297.694 27.8552 295.616 27.8552 295.3 27.8552C293.946 27.8552 293.538 26.7049 293.538 25.6659C293.538 25.1093 293.705 24.2744 293.779 23.959H294.892ZM293.927 23.4395C294.521 21.176 296.209 20.5266 297.156 20.5266C297.898 20.5266 298.603 20.8977 298.603 21.6398C298.603 23.4395 295.56 23.4395 294.781 23.4395H293.927Z" fill="white"/>
<path d="M318.756 17.5858H326.437C326.827 17.5858 327.328 17.5858 327.328 17.0849C327.328 16.5561 326.855 16.5561 326.437 16.5561H318.756V8.87495C318.756 8.48532 318.756 7.98438 318.255 7.98438C317.726 7.98438 317.726 8.45749 317.726 8.87495V16.5561H310.045C309.656 16.5561 309.155 16.5561 309.155 17.0571C309.155 17.5858 309.628 17.5858 310.045 17.5858H317.726V25.267C317.726 25.6567 317.726 26.1576 318.227 26.1576C318.756 26.1576 318.756 25.6845 318.756 25.267V17.5858Z" fill="white"/>
<path d="M345.69 17.558C346.302 17.558 346.358 17.558 346.358 17.0292C346.358 14.2183 344.855 11.6023 341.487 11.6023C338.315 11.6023 335.866 14.4688 335.866 17.9198C335.866 21.5934 338.704 24.2929 341.794 24.2929C345.105 24.2929 346.358 21.2873 346.358 20.7028C346.358 20.5358 346.219 20.4245 346.052 20.4245C345.829 20.4245 345.773 20.5637 345.718 20.7028C344.994 23.0406 343.129 23.6807 341.961 23.6807C340.792 23.6807 337.981 22.9014 337.981 18.0868V17.558H345.69ZM338.009 17.0292C338.231 12.6598 340.68 12.1589 341.46 12.1589C344.438 12.1589 344.604 16.083 344.632 17.0292H338.009Z" fill="white"/>
<path d="M359.526 17.2519C359.526 14.6636 359.527 13.8844 358.886 12.9938C358.079 11.9084 356.771 11.7415 355.825 11.7415C353.126 11.7415 352.068 14.0514 351.845 14.608H351.817V11.7415L348.033 12.0476V12.8547C349.925 12.8547 350.148 13.0495 350.148 14.4132V21.9552C350.148 23.2076 349.842 23.2076 348.033 23.2076V24.0146C348.756 23.959 350.259 23.959 351.038 23.959C351.845 23.959 353.348 23.959 354.072 24.0146V23.2076C352.291 23.2076 351.957 23.2076 351.957 21.9552V16.7787C351.957 13.8566 353.877 12.2981 355.602 12.2981C357.328 12.2981 357.718 13.7174 357.718 15.4151V21.9552C357.718 23.2076 357.411 23.2076 355.602 23.2076V24.0146C356.326 23.959 357.829 23.959 358.608 23.959C359.415 23.959 360.918 23.959 361.642 24.0146V23.2076C360.25 23.2076 359.554 23.2076 359.526 22.3727V17.2519Z" fill="white"/>
<path d="M372.94 17.558C373.552 17.558 373.608 17.558 373.608 17.0292C373.608 14.2183 372.105 11.6023 368.738 11.6023C365.565 11.6023 363.116 14.4688 363.116 17.9198C363.116 21.5934 365.955 24.2929 369.044 24.2929C372.356 24.2929 373.608 21.2873 373.608 20.7028C373.608 20.5358 373.469 20.4245 373.302 20.4245C373.079 20.4245 373.024 20.5637 372.968 20.7028C372.244 23.0406 370.38 23.6807 369.211 23.6807C368.042 23.6807 365.231 22.9014 365.231 18.0868V17.558H372.94ZM365.259 17.0292C365.482 12.6598 367.931 12.1589 368.71 12.1589C371.688 12.1589 371.855 16.083 371.883 17.0292H365.259Z" fill="white"/>
<path d="M379.04 17.5302C379.04 14.8306 380.153 12.2981 382.296 12.2981C382.519 12.2981 382.575 12.2981 382.686 12.3259C382.463 12.4372 382.018 12.6042 382.018 13.3556C382.018 14.1627 382.658 14.4688 383.103 14.4688C383.66 14.4688 384.217 14.107 384.217 13.3556C384.217 12.5207 383.465 11.7415 382.268 11.7415C379.903 11.7415 379.096 14.3018 378.929 14.8306H378.901V11.7415L375.172 12.0476V12.8547C377.064 12.8547 377.287 13.0495 377.287 14.4132V21.9552C377.287 23.2076 376.981 23.2076 375.172 23.2076V24.0146C375.951 23.959 377.482 23.959 378.316 23.959C379.068 23.959 381.044 23.959 381.684 24.0146V23.2076H381.127C379.096 23.2076 379.04 22.9014 379.04 21.8995V17.5302Z" fill="white"/>
<path d="M388.302 18.9773C389.61 19.8401 390.723 19.8401 391.029 19.8401C393.534 19.8401 395.398 17.9476 395.398 15.8047C395.398 15.0533 395.176 13.9957 394.285 13.1051C395.37 11.9919 396.678 11.9919 396.818 11.9919C396.929 11.9919 397.068 11.9919 397.179 12.0476C396.901 12.1589 396.762 12.4372 396.762 12.7433C396.762 13.133 397.04 13.4669 397.486 13.4669C397.708 13.4669 398.209 13.3278 398.209 12.7155C398.209 12.2146 397.82 11.4353 396.845 11.4353C395.398 11.4353 394.313 12.3259 393.923 12.7433C393.088 12.1032 392.114 11.7414 391.057 11.7414C388.552 11.7414 386.687 13.6339 386.687 15.7768C386.687 17.3632 387.661 18.3929 387.94 18.6434C387.606 19.0608 387.105 19.8679 387.105 20.9533C387.105 22.5674 388.079 23.2632 388.302 23.4024C387.021 23.7642 385.741 24.766 385.741 26.2132C385.741 28.1335 388.357 29.7198 391.78 29.7198C395.092 29.7198 397.847 28.2448 397.847 26.1576C397.847 25.4618 397.653 23.8198 395.983 22.9571C394.563 22.2335 393.172 22.2335 390.778 22.2335C389.081 22.2335 388.886 22.2335 388.385 21.7047C388.107 21.4264 387.856 20.8976 387.856 20.3132C387.856 19.8401 388.023 19.367 388.302 18.9773ZM391.057 19.2556C388.608 19.2556 388.608 16.4448 388.608 15.8047C388.608 15.3037 388.608 14.1627 389.081 13.4113C389.61 12.6042 390.444 12.3259 391.029 12.3259C393.478 12.3259 393.478 15.1367 393.478 15.7768C393.478 16.2778 393.478 17.4188 393.005 18.1703C392.476 18.9773 391.641 19.2556 391.057 19.2556ZM391.808 29.1354C389.136 29.1354 387.105 27.7717 387.105 26.1854C387.105 25.9627 387.16 24.8774 388.218 24.1538C388.83 23.7642 389.081 23.7642 391.029 23.7642C393.339 23.7642 396.484 23.7641 396.484 26.1854C396.484 27.8274 394.369 29.1354 391.808 29.1354Z" fill="white"/>
<path d="M409.886 14.7193C410.638 12.8547 411.946 12.8269 412.474 12.8269V12.0198C411.667 12.0754 411.278 12.0754 410.387 12.0754C409.747 12.0754 409.691 12.0754 408.133 12.0198V12.8269C409.163 12.8825 409.413 13.5226 409.413 14.0236C409.413 14.274 409.357 14.4132 409.246 14.6915L406.407 21.7047L403.318 14.1349C403.151 13.7453 403.151 13.5783 403.151 13.5504C403.151 12.8269 404.125 12.8269 404.682 12.8269V12.0198C403.958 12.0754 402.595 12.0754 401.815 12.0754C400.758 12.0754 400.702 12.0754 399.116 12.0198V12.8269C400.73 12.8269 400.953 12.966 401.314 13.8287L405.461 24.0147C404.237 26.9647 404.237 27.0203 404.125 27.243C403.652 28.0779 402.901 29.1354 401.648 29.1354C400.786 29.1354 400.257 28.6345 400.257 28.6345C400.257 28.6345 401.231 28.5232 401.231 27.5491C401.231 26.8812 400.702 26.5194 400.201 26.5194C399.728 26.5194 399.144 26.7977 399.144 27.6048C399.144 28.6623 400.173 29.6921 401.648 29.6921C403.207 29.6921 404.348 28.3284 405.071 26.5751L409.886 14.7193Z" fill="white"/>
<path d="M431.125 30.7774C431.125 30.6939 431.125 30.6382 430.652 30.1651C427.869 27.3543 426.311 22.7622 426.311 17.0849C426.311 11.6858 427.619 7.03809 430.847 3.75411C431.125 3.50364 431.125 3.44798 431.125 3.36449C431.125 3.19751 430.986 3.14185 430.875 3.14185C430.513 3.14185 428.231 5.14563 426.867 7.87301C425.448 10.6839 424.808 13.6617 424.808 17.0849C424.808 19.5618 425.197 22.8736 426.645 25.8514C428.287 29.1911 430.569 31 430.875 31C430.986 31 431.125 30.9444 431.125 30.7774Z" fill="white"/>
<path d="M443.197 20.6193C443.142 19.2557 443.086 17.1127 442.029 14.608C441.472 13.2165 440.526 11.7415 438.494 11.7415C435.071 11.7415 433.206 16.1108 433.206 16.8344C433.206 17.0849 433.401 17.0849 433.485 17.0849C433.735 17.0849 433.735 17.0292 433.874 16.6674C434.459 14.9419 436.24 13.5783 438.16 13.5783C442.029 13.5783 442.585 17.892 442.585 20.6472C442.585 22.4005 442.39 22.9849 442.223 23.5415C441.695 25.267 440.776 28.718 440.776 29.4972C440.776 29.7199 440.86 29.9703 441.082 29.9703C441.5 29.9703 441.75 29.0519 442.056 27.9387C442.724 25.4897 442.891 24.2651 443.03 23.1519C443.114 22.484 444.7 17.892 446.899 13.5226C447.094 13.0773 447.483 12.3259 447.483 12.2424C447.483 12.2146 447.456 12.0198 447.205 12.0198C447.149 12.0198 447.01 12.0198 446.955 12.1311C446.899 12.1867 445.925 14.0792 445.09 15.9717C444.672 16.9179 444.116 18.1703 443.197 20.6193Z" fill="white"/>
<path d="M453.224 6.84338C453.252 7.03819 453.28 7.17734 453.28 7.53914C453.28 7.92876 453.28 10.183 451.36 12.1033C451.109 12.3538 451.109 12.4095 451.109 12.4929C451.109 12.6321 451.248 12.7712 451.388 12.7712C451.638 12.7712 453.837 10.7118 453.837 7.53914C453.837 5.81366 453.197 4.70044 452.083 4.70044C451.276 4.70044 450.747 5.31271 450.747 6.0363C450.747 6.78772 451.276 7.39999 452.111 7.39999C452.863 7.39999 453.224 6.87121 453.224 6.84338Z" fill="white"/>
<path d="M465.024 12.2424C465.024 11.7414 465.024 11.6023 464.746 11.6023C464.523 11.6023 463.994 12.2146 463.8 12.465C462.937 11.7693 462.074 11.6023 461.184 11.6023C457.816 11.6023 456.814 13.4391 456.814 14.9698C456.814 15.2759 456.814 16.25 457.872 17.224C458.762 18.0033 459.709 18.1981 460.989 18.4486C462.519 18.7547 462.881 18.8382 463.577 19.3948C464.078 19.8123 464.44 20.4245 464.44 21.2038C464.44 22.4005 463.744 23.7363 461.295 23.7363C459.458 23.7363 458.122 22.6788 457.51 19.8957C457.399 19.3948 457.399 19.367 457.371 19.3391C457.315 19.2278 457.204 19.2278 457.12 19.2278C456.814 19.2278 456.814 19.367 456.814 19.8679V23.6528C456.814 24.1538 456.814 24.2929 457.092 24.2929C457.232 24.2929 457.259 24.2651 457.733 23.6807C457.872 23.4859 457.872 23.4302 458.289 22.9849C459.347 24.2929 460.85 24.2929 461.323 24.2929C464.245 24.2929 465.692 22.6788 465.692 20.4802C465.692 18.9773 464.774 18.0868 464.523 17.8363C463.521 16.9736 462.77 16.8066 460.933 16.4726C460.098 16.3056 458.067 15.916 458.067 14.2462C458.067 13.3834 458.651 12.1032 461.156 12.1032C464.189 12.1032 464.356 14.6915 464.412 15.5542C464.44 15.7768 464.635 15.7768 464.718 15.7768C465.024 15.7768 465.024 15.6377 465.024 15.1367V12.2424Z" fill="white"/>
<path d="M477.899 17.8917C477.425 18.4205 476.869 19.3389 476.869 20.4521C476.869 22.8734 479.179 24.5989 481.795 24.5989C483.659 24.5989 485.329 23.7918 486.749 22.4559C487.444 23.0682 489.17 24.5989 491.535 24.5989C493.623 24.5989 495.348 23.0125 495.404 20.647H494.792C494.736 22.7621 493.01 23.7918 491.647 23.7918C490.283 23.7918 489.031 22.6507 487.862 21.2871C489.17 19.6729 490.116 18.0309 491.563 15.5818C492.537 13.8842 493.122 12.8545 495.543 12.8266V12.0195C494.625 12.0474 493.706 12.0752 492.788 12.0752C492.036 12.0752 490.255 12.0752 489.615 12.0195V12.8266C490.784 12.8266 491.563 13.2719 491.563 14.0512C491.563 14.1625 491.563 14.3295 491.452 14.5521C490.895 15.5818 490.144 16.8342 489.448 17.9752C488.446 19.5894 487.584 20.647 487.472 20.7861C486.999 20.2017 484.16 16.5837 482.88 13.2441C483.604 12.4648 486.164 9.70963 486.164 7.62235C486.164 7.34404 486.136 4.11572 483.854 4.11572C482.157 4.11572 480.209 5.61856 480.209 8.54075C480.209 9.84878 480.459 11.7412 481.155 13.6615C481.21 13.8563 481.294 14.079 481.294 14.1347C481.294 14.2181 481.155 14.3573 481.099 14.413L477.899 17.8917ZM482.685 12.6318C482.101 11.0176 481.85 9.12519 481.85 7.90065C481.85 5.64639 482.908 4.67233 483.91 4.67233C485.441 4.67233 485.552 7.09357 485.552 7.65018C485.552 9.45915 483.27 11.9639 482.685 12.6318ZM481.544 14.7469C482.658 17.2795 484.494 20.0069 486.276 21.9828C484.55 23.597 482.852 23.7918 482.045 23.7918C479.763 23.7918 478.984 21.2871 478.984 19.5894C478.984 18.8658 479.095 17.6969 479.847 16.6672C479.875 16.5837 481.322 14.9974 481.544 14.7469Z" fill="white"/>
<path d="M518.39 17.2519C518.39 14.6637 518.39 13.8845 517.75 12.9939C516.943 11.9085 515.635 11.7415 514.689 11.7415C512.296 11.7415 511.182 13.5505 510.793 14.4132H510.765V4.70044L506.896 5.00658V5.81366C508.789 5.81366 509.012 6.00847 509.012 7.37215V21.9553C509.012 23.2076 508.705 23.2076 506.896 23.2076V24.0147C507.62 23.959 509.123 23.959 509.902 23.959C510.709 23.959 512.212 23.959 512.936 24.0147V23.2076C511.155 23.2076 510.821 23.2076 510.821 21.9553V16.7788C510.821 13.8566 512.741 12.2981 514.466 12.2981C516.192 12.2981 516.581 13.7175 516.581 15.4151V21.9553C516.581 23.2076 516.275 23.2076 514.466 23.2076V24.0147C515.19 23.959 516.693 23.959 517.472 23.959C518.279 23.959 519.782 23.959 520.506 24.0147V23.2076C519.114 23.2076 518.418 23.2076 518.39 22.3727V17.2519Z" fill="white"/>
<path d="M531.804 17.558C532.416 17.558 532.472 17.558 532.472 17.0292C532.472 14.2183 530.969 11.6023 527.602 11.6023C524.429 11.6023 521.98 14.4688 521.98 17.9198C521.98 21.5934 524.819 24.2929 527.908 24.2929C531.22 24.2929 532.472 21.2873 532.472 20.7028C532.472 20.5358 532.333 20.4245 532.166 20.4245C531.943 20.4245 531.888 20.5637 531.832 20.7028C531.108 23.0406 529.244 23.6807 528.075 23.6807C526.906 23.6807 524.095 22.9014 524.095 18.0868V17.558H531.804ZM524.123 17.0292C524.346 12.6598 526.795 12.1589 527.574 12.1589C530.552 12.1589 530.719 16.083 530.747 17.0292H524.123Z" fill="white"/>
<path d="M543.999 16.5839C543.999 15.0811 543.999 13.9679 542.774 12.8825C541.8 11.9919 540.548 11.6023 539.323 11.6023C537.041 11.6023 535.288 13.1051 535.288 14.9141C535.288 15.7212 535.817 16.1108 536.457 16.1108C537.125 16.1108 537.598 15.6377 537.598 14.9698C537.598 13.8287 536.596 13.8287 536.179 13.8287C536.819 12.6598 538.155 12.1589 539.268 12.1589C540.548 12.1589 542.19 13.2165 542.19 15.7212V16.8344C536.596 16.9179 534.481 19.2556 534.481 21.3986C534.481 23.5972 537.041 24.2929 538.739 24.2929C540.576 24.2929 541.828 23.1797 542.357 21.8439C542.468 23.1519 543.331 24.1538 544.528 24.1538C545.112 24.1538 546.726 23.7642 546.726 21.5377V19.9792H546.114V21.5377C546.114 23.1241 545.446 23.3467 545.056 23.3467C543.999 23.3467 543.999 21.8717 543.999 21.4542V16.5839ZM542.19 20.0906C542.19 22.8179 540.158 23.7363 538.962 23.7363C537.598 23.7363 536.457 22.7344 536.457 21.3986C536.457 17.725 541.188 17.391 542.19 17.3353V20.0906Z" fill="white"/>
<path d="M551.557 12.8268H555.481V12.0197H551.557V6.89893H550.945C550.917 9.51498 549.915 12.1867 547.382 12.2702V12.8268H549.748V20.5636C549.748 23.6528 551.807 24.2929 553.282 24.2929C555.036 24.2929 555.954 22.5674 555.954 20.5636V18.9773H555.342V20.508C555.342 22.5118 554.535 23.6806 553.449 23.6806C551.557 23.6806 551.557 21.0924 551.557 20.6193V12.8268Z" fill="white"/>
<path d="M565.327 17.0849C565.327 14.9697 565.049 11.5188 563.49 8.29046C561.848 4.95082 559.566 3.14185 559.26 3.14185C559.149 3.14185 559.01 3.19751 559.01 3.36449C559.01 3.44798 559.01 3.50364 559.483 3.97676C562.266 6.78762 563.824 11.3796 563.824 17.057C563.824 22.4561 562.516 27.1038 559.288 30.3878C559.01 30.6382 559.01 30.6939 559.01 30.7774C559.01 30.9444 559.149 31 559.26 31C559.622 31 561.904 28.9962 563.268 26.2689C564.687 23.4302 565.327 20.4245 565.327 17.0849Z" fill="white"/>
</svg>
