<svg width="183" height="26" viewBox="0 0 183 26" fill="none" xmlns="http://www.w3.org/2000/svg">
<path d="M62.4883 18.7364C62.5199 18.6463 62.6146 18.4362 62.6146 18.3162C62.6146 18.1661 62.4883 18.016 62.2989 18.016C62.1726 18.016 62.1095 18.046 62.0148 18.1361C61.9516 18.1661 61.9516 18.2261 61.6675 18.8264C59.8049 23.0286 58.4475 24.8295 53.3964 24.8295H48.7873C48.3454 24.8295 48.2822 24.8295 48.0928 24.7995C47.7456 24.7695 47.714 24.7094 47.714 24.4693C47.714 24.2592 47.7771 24.0791 47.8403 23.809L50.0185 15.5247H53.1439C55.6063 15.5247 55.7957 16.035 55.7957 16.9355C55.7957 17.2356 55.7957 17.5058 55.5747 18.4062C55.5116 18.5263 55.48 18.6463 55.48 18.7364C55.48 18.9465 55.6378 19.0365 55.8272 19.0365C56.1114 19.0365 56.1429 18.8264 56.2692 18.4062L58.0686 11.4427C58.0686 11.2926 57.9424 11.1425 57.753 11.1425C57.4688 11.1425 57.4373 11.2626 57.311 11.6828C56.6796 13.994 56.0482 14.6543 53.2386 14.6543H50.2395L52.1968 7.27054C52.4809 6.22001 52.5441 6.12996 53.8384 6.12996H58.3528C62.2358 6.12996 63.025 7.12047 63.025 9.40163C63.025 9.43165 63.025 10.2721 62.8987 11.2626C62.8671 11.3826 62.8356 11.5627 62.8356 11.6228C62.8356 11.8629 62.9934 11.9529 63.1828 11.9529C63.4038 11.9529 63.5301 11.8329 63.5932 11.2926L64.2562 6.03992C64.2562 5.94987 64.3193 5.64972 64.3193 5.58969C64.3193 5.25952 64.0352 5.25952 63.467 5.25952H48.0613C47.4614 5.25952 47.1458 5.25952 47.1458 5.7998C47.1458 6.12996 47.3667 6.12996 47.9034 6.12996C49.8607 6.12996 49.8607 6.34007 49.8607 6.67024C49.8607 6.82031 49.8291 6.94038 49.7344 7.27054L45.4726 23.4788C45.1885 24.5293 45.1253 24.8295 42.9155 24.8295C42.3157 24.8295 42 24.8295 42 25.3698C42 25.6999 42.1894 25.6999 42.8208 25.6999H58.6685C59.363 25.6999 59.3945 25.6699 59.6155 25.1897L62.4883 18.7364Z" fill="white"/>
<path d="M95.3585 15.9746C95.8005 15.9746 96.3687 15.9746 96.3687 15.4343C96.3687 14.864 95.8321 14.864 95.3585 14.864H76.7644C76.3224 14.864 75.7542 14.864 75.7542 15.4043C75.7542 15.9746 76.2908 15.9746 76.7644 15.9746H95.3585ZM95.3585 21.5574C95.8005 21.5574 96.3687 21.5574 96.3687 21.0171C96.3687 20.4469 95.8321 20.4469 95.3585 20.4469H76.7644C76.3224 20.4469 75.7542 20.4469 75.7542 20.9871C75.7542 21.5574 76.2908 21.5574 76.7644 21.5574H95.3585Z" fill="white"/>
<path d="M120.467 4.80907C120.246 4.38886 120.183 4.2688 119.741 4.2688C119.267 4.2688 119.204 4.38886 118.983 4.80907L108.439 25.0994C108.376 25.1895 108.313 25.3695 108.313 25.4896C108.313 25.6697 108.344 25.6997 108.976 25.6997H130.474C131.105 25.6997 131.137 25.6697 131.137 25.4896C131.137 25.3695 131.074 25.1895 131.011 25.0994L120.467 4.80907ZM118.762 7.0302L127.38 23.6287H110.175L118.762 7.0302Z" fill="white"/>
<path d="M139.123 16.9054C139.186 16.7253 139.975 15.2245 141.143 14.2641C141.964 13.5437 143.037 13.0634 144.269 13.0634C145.531 13.0634 145.973 13.9639 145.973 15.1645C145.973 15.3446 145.973 15.9449 145.595 17.3556L144.805 20.4472C144.553 21.3477 143.953 23.5688 143.89 23.899C143.763 24.3492 143.574 25.1296 143.574 25.2496C143.574 25.6699 143.921 26 144.395 26C145.342 26 145.5 25.3097 145.784 24.2291L147.678 17.0555C147.741 16.8154 149.383 13.0634 152.855 13.0634C154.118 13.0634 154.56 13.9639 154.56 15.1645C154.56 16.8454 153.329 20.117 152.634 21.918C152.35 22.6383 152.192 23.0285 152.192 23.5688C152.192 24.9195 153.171 26 154.686 26C157.622 26 158.727 21.5878 158.727 21.4077C158.727 21.2576 158.601 21.1376 158.412 21.1376C158.127 21.1376 158.096 21.2276 157.938 21.7379C157.212 24.1391 156.044 25.3997 154.781 25.3997C154.465 25.3997 153.96 25.3697 153.96 24.4092C153.96 23.6288 154.339 22.6683 154.465 22.3382C155.034 20.8974 156.454 17.3556 156.454 15.6147C156.454 13.8138 155.349 12.4631 152.95 12.4631C150.835 12.4631 149.13 13.6037 147.867 15.3746C147.773 13.7538 146.731 12.4631 144.363 12.4631C141.554 12.4631 140.07 14.3541 139.502 15.1045C139.407 13.3936 138.113 12.4631 136.724 12.4631C135.808 12.4631 135.082 12.8833 134.482 14.0239C133.914 15.1045 133.472 16.9354 133.472 17.0555C133.472 17.1755 133.598 17.3256 133.819 17.3256C134.072 17.3256 134.103 17.2956 134.293 16.6052C134.766 14.8343 135.366 13.0634 136.629 13.0634C137.355 13.0634 137.608 13.5437 137.608 14.4441C137.608 15.1045 137.292 16.2751 137.071 17.2055L136.187 20.4472C136.061 21.0175 135.713 22.3682 135.556 22.9085C135.335 23.6889 134.987 25.0996 134.987 25.2496C134.987 25.6699 135.335 26 135.808 26C136.187 26 136.629 25.8199 136.881 25.3697C136.945 25.2196 137.229 24.1691 137.387 23.5688L138.081 20.8674L139.123 16.9054Z" fill="white"/>
<path d="M172.001 14.4141C171.401 14.4141 171.117 14.4141 170.675 14.7743C170.486 14.9244 170.139 15.3746 170.139 15.8549C170.139 16.4552 170.612 16.8154 171.212 16.8154C171.97 16.8154 172.822 16.215 172.822 15.0144C172.822 13.5737 171.37 12.4631 169.192 12.4631C165.056 12.4631 160.92 16.7553 160.92 21.0175C160.92 23.6288 162.625 26 165.845 26C170.139 26 172.854 22.8184 172.854 22.4282C172.854 22.2481 172.664 22.098 172.538 22.098C172.443 22.098 172.412 22.1281 172.127 22.3982C170.107 24.9495 167.108 25.3997 165.908 25.3997C163.73 25.3997 163.036 23.5988 163.036 22.098C163.036 21.0475 163.572 18.136 164.709 16.095C165.529 14.6843 167.234 13.0634 169.223 13.0634C169.633 13.0634 171.37 13.1235 172.001 14.4141Z" fill="white"/>
<path d="M178.896 9.2247C179.233 8.92455 180.117 8.26421 180.453 7.98407C181.758 6.84349 183 5.74293 183 3.922C183 1.54079 180.895 0 178.265 0C175.739 0 174.076 1.82093 174.076 3.60184C174.076 4.58234 174.897 4.72241 175.192 4.72241C175.634 4.72241 176.286 4.42225 176.286 3.66187C176.286 2.62134 175.234 2.62134 174.981 2.62134C175.592 1.16059 177.002 0.660338 178.033 0.660338C179.99 0.660338 181.001 2.24114 181.001 3.922C181.001 6.00306 179.464 7.52384 176.981 9.94507L174.329 12.5464C174.076 12.7665 174.076 12.8065 174.076 13.3068H182.39L183 9.72496H182.348C182.284 10.1252 182.116 11.1257 181.864 11.5059C181.737 11.6659 180.138 11.6659 179.801 11.6659H176.055L178.896 9.2247Z" fill="white"/>
<path d="M21.96 10.48C23.3345 11.6582 25.0036 12.5091 26.0836 13C24.9055 13.5236 23.3018 14.3745 21.96 15.52H1.17818C0.621818 15.52 0 15.52 0 16.1745C0 16.8291 0.589091 16.8291 1.14546 16.8291H20.4873C18.9164 18.3345 17.2145 21.2145 17.2145 21.64C17.2145 22 17.64 22 17.8364 22C18.0982 22 18.3273 22 18.4582 21.7382C19.1455 20.4945 20.0618 18.76 22.1891 16.8618C24.4473 14.8655 26.64 13.9818 28.3418 13.4909C28.8982 13.2945 28.9309 13.2618 28.9964 13.1964C29.0618 13.1636 29.0618 13.0655 29.0618 13C29.0618 12.9345 29.0618 12.8691 29.0291 12.8036L28.9309 12.7382C28.8655 12.7055 28.8327 12.6727 28.2109 12.4764C23.7927 11.1673 20.52 8.18909 18.6873 4.68727C18.3273 4.03273 18.2945 4 17.8364 4C17.64 4 17.2145 4 17.2145 4.36C17.2145 4.78545 18.8836 7.63273 20.4873 9.17091H1.14546C0.589091 9.17091 0 9.17091 0 9.82545C0 10.48 0.621818 10.48 1.17818 10.48H21.96Z" fill="white"/>
</svg>
