<svg width="56" height="56" viewBox="0 0 56 56" fill="none" xmlns="http://www.w3.org/2000/svg">
<circle cx="28" cy="28.0001" r="23.3333" fill="#0073AF"/>
<path fill-rule="evenodd" clip-rule="evenodd" d="M21.9039 16.6645C21.9039 18.1171 20.7978 19.2927 19.0682 19.2927C17.4059 19.2927 16.2999 18.1171 16.3341 16.6645C16.2999 15.1413 17.4059 14 19.1013 14C20.7978 14 21.8707 15.1413 21.9039 16.6645ZM16.4731 38.2889V21.3689H21.7316V38.2878H16.4731V38.2889Z" fill="white"/>
<path fill-rule="evenodd" clip-rule="evenodd" d="M25.9464 26.7687C25.9464 24.6583 25.8768 22.8591 25.8073 21.3712H30.3748L30.6176 23.6892H30.7214C31.4134 22.6163 33.1431 20.9915 35.9456 20.9915C39.4049 20.9915 42 23.2752 42 28.2556V38.2912H36.7415V28.9145C36.7415 26.7334 35.9809 25.2466 34.078 25.2466C32.6243 25.2466 31.76 26.2499 31.4145 27.218C31.2755 27.5645 31.207 28.048 31.207 28.5337V38.2912H25.9485V26.7687H25.9464Z" fill="white"/>
</svg>
