<svg width="54" height="54" viewBox="0 0 54 54" fill="none" xmlns="http://www.w3.org/2000/svg">
<g clip-path="url(#clip0_207_80)">
<path d="M22.2277 4.22846L1.40346e-07 26.4472L3.1905 29.6287L25.4092 7.40996C25.8312 6.98815 26.4034 6.75119 27 6.75119C27.5966 6.75119 28.1688 6.98815 28.5907 7.40996L50.85 29.658L54.0315 26.4765L31.7835 4.22846C30.5177 2.96303 28.8011 2.25215 27.0112 2.25215C25.2214 2.25215 23.5048 2.96303 22.239 4.22846L22.2277 4.22846Z" fill="#D7D7D7"/>
<path d="M25.4092 23.5469L0.0427247 48.9111L3.22422 52.0949L27 28.3191L50.8005 52.1196L53.9842 48.9381L28.5907 23.5469C28.1688 23.1251 27.5966 22.8881 27 22.8881C26.4033 22.8881 25.8312 23.1251 25.4092 23.5469Z" fill="#D7D7D7"/>
</g>
<defs>
<clipPath id="clip0_207_80">
<rect width="54" height="54" fill="white" transform="translate(0 54) rotate(-90)"/>
</clipPath>
</defs>
</svg>
