<svg width="54" height="54" viewBox="0 0 54 54" fill="none" xmlns="http://www.w3.org/2000/svg">
<g clip-path="url(#clip0_152_75)">
<path d="M31.7723 49.7715L54 27.5528L50.8095 24.3713L28.5908 46.59C28.1688 47.0119 27.5966 47.2488 27 47.2488C26.4034 47.2488 25.8312 47.0119 25.4093 46.59L3.15002 24.342L-0.0314828 27.5235L22.2165 49.7715C23.4823 51.037 25.1989 51.7479 26.9888 51.7479C28.7786 51.7479 30.4952 51.037 31.761 49.7715L31.7723 49.7715Z" fill="#D7D7D7"/>
<path d="M28.5908 30.4531L53.9573 5.08887L50.7758 1.90512L27 25.6809L3.19955 1.88037L0.0157965 5.06187L25.4093 30.4531C25.8312 30.8749 26.4034 31.1119 27 31.1119C27.5967 31.1119 28.1688 30.8749 28.5908 30.4531Z" fill="#D7D7D7"/>
</g>
<defs>
<clipPath id="clip0_152_75">
<rect width="54" height="54" fill="white" transform="translate(54) rotate(90)"/>
</clipPath>
</defs>
</svg>
